<?xml version="1.0" standalone="no"?>
<!DOCTYPE svg PUBLIC "-//W3C//DTD SVG 20010904//EN"
 "http://www.w3.org/TR/2001/REC-SVG-20010904/DTD/svg10.dtd">
<svg version="1.0" xmlns="http://www.w3.org/2000/svg"
 width="1120.000000pt" height="1120.000000pt" viewBox="0 0 1120.000000 1120.000000"
 preserveAspectRatio="xMidYMid meet">
<metadata>
Created by potrace 1.14, written by Peter Selinger 2001-2017
</metadata>
<g transform="translate(0.000000,1120.000000) scale(0.100000,-0.100000)"
fill="#000000" stroke="none">
<path d="M10 9426 c0 -7 9 -25 21 -40 11 -14 17 -26 13 -26 -4 0 -1 -8 7 -17
8 -10 19 -27 25 -38 6 -11 30 -56 54 -100 24 -44 52 -93 62 -110 10 -16 21
-37 24 -45 4 -8 24 -44 44 -80 45 -78 83 -146 122 -220 17 -30 38 -68 48 -85
9 -16 32 -57 50 -90 19 -33 46 -82 62 -110 15 -27 33 -61 40 -75 7 -14 15 -27
18 -30 3 -3 13 -21 22 -40 10 -19 38 -71 63 -115 25 -44 52 -93 61 -110 8 -16
23 -43 33 -60 9 -16 33 -59 53 -95 77 -141 91 -165 101 -177 5 -7 6 -13 1 -13
-5 0 -4 -4 2 -8 6 -4 30 -43 54 -87 23 -44 46 -84 50 -90 4 -5 27 -46 50 -90
24 -44 52 -96 63 -115 11 -19 33 -60 50 -90 16 -30 47 -85 68 -122 22 -36 39
-71 39 -77 0 -6 5 -11 10 -11 6 0 10 -4 10 -10 0 -5 28 -61 63 -123 35 -61 66
-119 70 -127 4 -8 15 -28 25 -45 11 -16 70 -122 132 -235 62 -113 129 -232
147 -265 19 -33 41 -74 50 -92 l16 -32 16 22 c9 12 25 39 36 60 11 20 23 37
27 37 5 0 8 4 8 9 0 8 100 173 194 321 13 19 41 64 63 100 22 36 67 108 100
160 32 52 62 103 66 113 3 9 11 17 17 17 5 0 10 5 10 10 0 6 62 109 137 230
76 122 147 235 158 253 11 18 40 66 65 106 25 39 50 80 55 89 6 10 29 48 53
84 23 37 42 70 42 73 0 3 9 15 20 27 11 12 20 28 20 35 0 7 5 13 10 13 6 0 10
5 10 11 0 5 25 48 55 94 30 47 55 89 55 95 0 5 5 10 10 10 6 0 10 4 10 10 0 5
21 42 47 82 26 40 47 76 45 81 -1 4 2 7 8 7 5 0 10 5 10 11 0 6 6 17 13 24 10
11 43 65 187 300 19 31 259 416 282 453 10 15 21 34 25 42 4 8 11 20 15 25 16
19 58 86 58 91 0 3 8 18 18 32 10 15 28 43 40 63 l21 35 -47 2 c-26 0 -157 3
-292 6 -292 6 -648 14 -970 22 -628 15 -614 15 -642 13 -12 0 -107 2 -733 16
-1171 27 -1145 26 -1145 11z"/>
<path d="M9000 9432 c0 -14 -134 -247 -159 -276 -9 -10 -14 -19 -12 -20 3 0
-2 -12 -10 -26 -21 -35 -110 -184 -145 -245 -16 -27 -34 -59 -41 -70 -7 -11
-17 -29 -23 -40 -5 -11 -21 -38 -35 -60 -14 -22 -36 -60 -50 -85 -14 -25 -34
-58 -44 -75 -23 -38 -158 -269 -184 -315 -10 -19 -28 -47 -38 -62 -11 -14 -19
-29 -19 -32 0 -3 -20 -39 -45 -79 -25 -41 -45 -79 -45 -85 0 -6 -4 -12 -8 -14
-5 -1 -22 -28 -39 -58 -16 -30 -73 -129 -127 -218 -53 -90 -96 -168 -96 -173
0 -5 -4 -9 -10 -9 -5 0 -10 -4 -10 -9 0 -9 -72 -135 -108 -191 -9 -14 -17 -27
-17 -30 -1 -10 -59 -105 -68 -111 -5 -3 -9 -10 -9 -15 -1 -5 -12 -26 -25 -47
-13 -20 -31 -53 -40 -72 -9 -19 -20 -35 -25 -35 -4 0 -8 -5 -8 -11 0 -5 -63
-118 -141 -249 -77 -132 -140 -243 -140 -247 0 -4 -7 -12 -15 -16 -8 -4 -14
-12 -14 -18 0 -6 -33 -65 -72 -132 -87 -146 -114 -194 -131 -227 -6 -14 -15
-27 -18 -30 -4 -3 -16 -22 -28 -42 -26 -47 -44 -78 -115 -200 -31 -53 -56
-101 -56 -105 0 -7 4358 -9 4365 -1 2 2 -29 58 -69 124 -40 67 -76 128 -79
135 -4 8 -18 32 -32 54 -13 22 -36 60 -50 85 -14 25 -38 68 -55 95 -17 28 -35
59 -40 70 -6 11 -19 34 -30 50 -11 17 -23 37 -27 45 -4 8 -24 42 -45 75 -21
33 -38 66 -38 73 0 6 -4 12 -8 12 -4 0 -13 12 -20 28 -6 15 -32 61 -58 102
-25 41 -56 93 -69 115 -12 22 -32 56 -44 75 -11 19 -24 42 -28 50 -4 8 -22 38
-40 67 -18 29 -33 54 -33 56 0 3 -18 35 -40 71 -22 36 -40 68 -40 71 0 3 -5
11 -10 18 -9 10 -354 598 -415 707 -11 19 -23 37 -27 38 -5 2 -8 8 -8 13 0 5
-20 42 -43 82 -41 66 -95 159 -137 232 -9 17 -50 86 -90 155 -40 68 -81 138
-90 155 -10 16 -55 93 -100 170 -46 77 -91 154 -101 172 -10 17 -29 50 -43 72
-15 22 -26 42 -26 45 0 2 -25 45 -55 95 -30 51 -55 96 -55 101 0 6 -4 10 -10
10 -5 0 -10 4 -10 9 0 12 -98 181 -116 201 -10 10 -14 11 -14 2z m60 -607 c8
-16 17 -32 20 -35 5 -4 69 -113 155 -262 6 -10 33 -58 61 -106 29 -49 58 -100
65 -113 8 -13 16 -26 19 -29 3 -3 11 -16 18 -30 12 -25 15 -31 62 -105 14 -22
32 -55 39 -72 7 -18 16 -33 20 -33 3 0 12 -15 20 -32 8 -18 17 -35 20 -38 10
-8 42 -64 48 -82 3 -10 9 -18 14 -18 5 0 9 -4 9 -9 0 -5 23 -49 52 -98 28 -48
58 -99 65 -113 8 -14 25 -42 36 -62 36 -61 141 -241 152 -260 6 -10 38 -65 73
-123 34 -57 62 -107 62 -110 0 -3 8 -18 19 -33 17 -25 132 -219 181 -307 13
-22 30 -52 39 -67 17 -28 72 -122 101 -173 10 -16 64 -109 120 -205 100 -170
117 -200 161 -277 12 -21 26 -44 31 -51 6 -7 8 -15 4 -19 -5 -5 -3436 -11
-3436 -6 0 12 26 53 33 53 6 0 8 3 5 6 -4 3 21 51 54 107 64 107 85 143 127
217 14 25 29 50 34 55 4 6 16 25 25 42 15 29 90 161 117 205 15 26 237 405
262 448 12 21 40 68 62 105 23 37 41 68 41 70 0 2 34 60 75 130 41 69 75 131
75 136 0 5 4 9 8 9 5 0 14 16 22 35 8 19 17 35 20 35 4 0 17 23 30 50 13 28
27 50 32 50 4 0 8 4 8 10 0 5 36 70 80 146 44 75 80 140 80 145 0 5 5 9 10 9
6 0 10 4 10 9 0 7 52 99 117 206 7 11 16 27 20 35 4 8 27 49 51 90 25 41 53
89 62 106 64 112 115 200 121 204 3 3 8 12 12 20 3 8 19 36 34 62 15 25 43 72
61 103 l34 58 16 -29 c10 -16 24 -42 32 -59z"/>
<path d="M4266 9117 c-10 -18 -30 -52 -44 -77 -14 -25 -43 -73 -64 -108 -21
-34 -38 -67 -38 -72 0 -6 -4 -10 -8 -10 -5 0 -14 -16 -22 -35 -8 -19 -17 -35
-21 -35 -4 0 -9 -8 -12 -17 -4 -10 -20 -40 -36 -68 -35 -57 -104 -175 -129
-220 -9 -16 -20 -31 -24 -33 -5 -2 -8 -7 -8 -12 0 -9 -104 -188 -120 -207 -5
-7 -10 -14 -10 -17 0 -3 -21 -40 -46 -83 -26 -43 -56 -94 -67 -113 -11 -19
-28 -48 -38 -65 -11 -16 -22 -37 -26 -45 -4 -8 -47 -82 -95 -163 -48 -82 -88
-151 -88 -155 0 -3 -11 -20 -25 -38 -14 -18 -25 -35 -25 -39 0 -5 -229 -399
-270 -465 -5 -8 -26 -44 -47 -80 -21 -36 -42 -73 -48 -82 -38 -63 -81 -136
-90 -153 -6 -11 -35 -60 -63 -108 -29 -48 -52 -92 -52 -97 0 -6 -4 -10 -10
-10 -5 0 -12 -11 -16 -25 -3 -14 -10 -25 -15 -25 -5 0 -9 -5 -9 -10 0 -6 -11
-29 -26 -51 -24 -39 -34 -55 -96 -164 -16 -27 -40 -68 -54 -90 -13 -22 -34
-58 -46 -80 -12 -22 -27 -48 -33 -57 -36 -58 -65 -112 -65 -119 0 -5 -4 -9
-10 -9 -5 0 -10 -7 -10 -16 0 -13 3 -14 13 -5 8 6 16 8 19 5 3 -3 635 -5 1404
-4 770 1 1408 1 1419 1 11 0 121 0 245 0 124 0 232 0 240 0 90 -2 277 -2 285
-1 6 1 15 2 20 1 10 -2 171 -1 193 1 8 1 5 12 -9 37 -12 20 -49 83 -82 141
-34 58 -64 107 -67 110 -3 3 -14 21 -23 40 -10 19 -27 52 -40 72 -26 44 -181
308 -209 358 -11 19 -24 40 -28 45 -7 10 -41 70 -76 135 -11 19 -22 37 -25 40
-3 3 -16 25 -30 50 -13 25 -27 47 -31 48 -5 2 -8 7 -8 12 0 4 -37 70 -81 146
-45 77 -89 153 -99 169 -9 17 -38 65 -64 108 -25 43 -46 83 -46 88 0 5 -4 9
-10 9 -5 0 -10 4 -10 9 0 6 -34 66 -75 136 -41 69 -75 130 -75 135 0 6 -4 10
-10 10 -5 0 -10 4 -10 10 0 5 -27 55 -60 110 -33 55 -60 105 -60 110 0 6 -4
10 -10 10 -5 0 -10 5 -10 10 0 6 -18 40 -40 76 -22 36 -40 70 -40 75 0 5 -4 9
-8 9 -5 0 -14 16 -22 35 -8 19 -17 35 -22 35 -4 0 -8 4 -8 9 0 8 -17 37 -90
161 -5 8 -82 140 -172 293 -90 153 -173 295 -186 315 -12 20 -27 46 -32 57 -5
11 -17 32 -27 47 l-18 27 -19 -32z"/>
<path d="M2168 5500 l-67 -5 50 -83 c27 -46 49 -85 49 -87 0 -2 25 -44 55 -94
30 -50 55 -95 55 -101 0 -5 5 -10 10 -10 6 0 10 -4 10 -9 0 -5 28 -56 61 -113
34 -56 71 -119 82 -138 11 -19 28 -48 38 -65 11 -16 22 -37 26 -45 4 -8 22
-38 40 -67 18 -29 33 -57 33 -63 0 -5 5 -10 11 -10 5 0 8 -4 5 -9 -3 -5 1 -14
9 -21 8 -7 15 -19 15 -26 0 -8 5 -14 10 -14 6 0 10 -4 10 -9 0 -5 28 -56 61
-113 34 -57 71 -119 82 -138 10 -19 53 -92 93 -161 41 -69 74 -131 74 -137 0
-7 5 -12 10 -12 6 0 14 -8 17 -17 4 -10 20 -40 36 -68 17 -27 41 -70 55 -95
14 -25 35 -61 47 -80 12 -19 22 -37 21 -40 0 -3 9 -18 20 -35 25 -35 114 -185
114 -191 0 -3 16 -30 35 -60 19 -30 35 -56 35 -58 0 -3 22 -40 48 -83 27 -43
52 -85 55 -93 4 -8 18 -33 32 -55 14 -22 31 -51 38 -65 6 -14 14 -27 18 -30 3
-3 12 -17 20 -32 12 -23 150 -261 179 -308 50 -81 90 -152 90 -159 0 -5 3 -11
8 -13 4 -1 16 -19 26 -38 10 -19 49 -87 86 -150 38 -63 107 -182 155 -265 48
-82 95 -161 104 -175 9 -14 25 -42 35 -63 l20 -38 19 33 c11 18 30 49 42 68
52 82 95 158 95 169 0 6 3 11 8 11 4 0 18 23 31 50 14 28 28 50 32 50 4 0 11
10 15 22 3 12 23 49 43 82 21 34 40 68 44 76 4 8 16 29 27 45 11 17 25 42 31
58 6 15 14 27 18 27 4 0 19 24 34 53 15 28 32 59 37 67 40 62 470 805 470 812
0 4 5 8 10 8 6 0 10 4 10 9 0 9 14 33 92 166 10 17 24 41 30 55 7 14 15 27 18
30 6 5 290 491 319 545 9 16 18 32 21 35 10 10 41 65 47 83 3 9 9 17 14 17 5
0 9 5 9 10 0 6 29 59 64 118 35 59 65 110 66 114 0 4 16 31 35 60 19 29 35 58
35 65 0 7 4 13 8 13 4 0 18 19 30 43 12 23 36 65 52 92 17 28 35 59 41 70 5
11 28 49 50 85 22 36 45 77 52 93 6 15 15 27 19 27 4 0 8 4 8 9 0 9 62 117 78
136 4 6 11 17 14 25 3 8 31 58 61 110 31 52 54 96 52 98 -5 6 -4221 8 -4297 2z
m3841 -269 c2 0 -2 -8 -9 -16 -17 -21 -49 -76 -56 -97 -4 -10 -10 -18 -15 -18
-5 0 -8 -3 -7 -7 3 -7 -69 -132 -81 -143 -3 -3 -7 -12 -9 -20 -2 -8 -9 -22
-16 -30 -7 -8 -16 -22 -20 -30 -3 -8 -20 -37 -36 -65 -17 -27 -37 -65 -46 -82
-9 -18 -20 -33 -25 -33 -5 0 -9 -6 -9 -13 0 -7 -19 -44 -43 -82 -24 -39 -46
-77 -50 -85 -4 -8 -13 -24 -19 -35 -47 -73 -77 -125 -82 -143 -4 -12 -12 -22
-17 -22 -5 0 -9 -4 -9 -9 0 -4 -46 -86 -101 -182 -105 -181 -321 -548 -358
-609 -11 -19 -24 -42 -28 -50 -14 -29 -182 -315 -193 -327 -5 -7 -10 -15 -10
-18 0 -3 -18 -35 -40 -71 -22 -36 -40 -68 -40 -70 0 -2 -17 -32 -38 -66 -21
-35 -50 -83 -64 -108 -79 -140 -283 -487 -293 -498 -9 -10 -35 26 -123 177
-62 105 -112 195 -112 200 0 5 -4 11 -8 13 -5 2 -21 24 -35 50 -15 27 -39 69
-53 95 -15 27 -34 59 -44 73 -9 14 -20 32 -23 40 -4 8 -16 29 -26 45 -31 50
-122 207 -154 265 -16 30 -33 60 -37 65 -9 11 -340 577 -378 645 -14 25 -36
62 -49 83 -13 21 -34 55 -45 75 -89 154 -121 211 -137 237 -10 17 -51 86 -91
155 -40 69 -81 139 -91 155 -10 17 -25 44 -34 60 -8 17 -24 44 -35 60 -11 17
-28 46 -37 65 -10 19 -21 37 -24 40 -3 3 -16 25 -30 50 -13 25 -27 47 -31 48
-5 2 -8 8 -8 13 0 5 -27 54 -60 109 -33 55 -60 104 -60 108 0 6 3423 10 3439
3z"/>
<path d="M7130 5340 c0 -3 6 -14 13 -25 8 -11 30 -49 49 -85 19 -36 45 -82 56
-102 12 -21 32 -55 43 -75 12 -21 80 -141 152 -268 71 -126 141 -250 155 -275
14 -25 36 -62 49 -82 12 -21 23 -39 23 -42 0 -2 41 -75 90 -161 50 -86 90
-161 90 -166 0 -5 5 -9 11 -9 5 0 8 -4 5 -9 -3 -5 1 -14 9 -21 8 -7 15 -19 15
-26 0 -8 5 -14 10 -14 6 0 10 -6 10 -12 0 -7 22 -50 49 -94 27 -45 52 -91 56
-103 3 -12 11 -21 17 -21 6 0 8 -3 5 -6 -4 -4 3 -19 13 -35 11 -15 33 -51 49
-81 15 -29 45 -82 66 -118 20 -36 53 -94 72 -130 20 -36 42 -72 49 -81 8 -8
14 -18 14 -21 0 -4 25 -50 55 -103 30 -54 55 -101 55 -106 0 -5 3 -9 8 -9 4 0
18 -25 32 -55 14 -30 28 -55 33 -55 4 0 7 -6 7 -14 0 -8 3 -16 8 -18 7 -3 14
-15 71 -123 14 -27 29 -52 32 -55 3 -3 8 -12 12 -20 3 -8 20 -37 36 -65 17
-27 37 -63 46 -80 8 -16 24 -46 36 -65 19 -31 115 -201 187 -330 13 -25 40
-71 59 -103 l35 -58 37 63 c21 35 41 70 45 78 4 8 12 24 19 35 7 11 36 63 66
115 30 52 59 98 64 101 5 3 7 8 5 10 -3 4 188 341 243 430 16 25 29 51 29 57
0 7 5 12 10 12 6 0 10 4 10 9 0 7 33 65 208 369 18 31 38 68 45 82 6 14 14 27
18 30 3 3 19 30 34 60 16 30 34 62 41 70 6 8 29 47 50 85 20 39 54 97 74 130
20 33 39 67 43 75 4 8 17 31 28 50 12 19 31 53 42 75 12 22 24 42 27 45 3 3
12 19 21 35 9 17 34 62 57 100 22 39 40 74 40 79 0 5 4 12 9 15 5 3 27 38 48
76 21 39 41 72 44 75 3 3 14 21 24 40 9 19 25 49 35 65 10 17 30 50 44 75 14
25 35 61 46 80 12 19 28 49 37 65 9 17 21 39 28 50 15 25 97 167 126 218 37
66 58 101 88 153 17 28 34 61 38 72 3 12 11 22 16 22 5 0 9 5 9 10 0 6 11 28
25 50 14 21 26 45 27 52 2 10 -361 13 -1889 13 -1041 0 -1893 -2 -1893 -5z"/>
<path d="M6647 5126 c-39 -42 -47 -55 -47 -71 0 -8 -4 -15 -10 -15 -5 0 -10
-5 -10 -10 0 -6 -24 -50 -53 -98 -29 -48 -56 -94 -60 -102 -4 -8 -18 -33 -32
-55 -14 -22 -28 -46 -32 -54 -3 -8 -51 -91 -106 -185 -55 -94 -109 -187 -119
-206 -66 -116 -253 -439 -267 -460 -15 -24 -125 -215 -178 -310 -14 -25 -29
-49 -33 -55 -5 -5 -23 -37 -41 -70 -18 -33 -35 -62 -39 -65 -3 -3 -17 -25 -29
-50 -12 -25 -37 -70 -55 -100 -96 -161 -146 -251 -146 -259 0 -5 -4 -11 -8
-13 -7 -3 -26 -33 -82 -133 -13 -22 -31 -53 -41 -70 -10 -16 -24 -41 -32 -55
-7 -14 -65 -113 -127 -220 -62 -107 -136 -235 -165 -285 -28 -49 -58 -101 -66
-115 -8 -14 -19 -32 -25 -40 -6 -8 -27 -44 -47 -80 -19 -36 -51 -92 -70 -125
l-35 -60 1966 -3 c1081 -1 1967 0 1969 2 4 4 -16 45 -27 56 -3 3 -13 21 -23
40 -27 52 -91 163 -166 290 -11 19 -24 42 -28 50 -3 8 -30 56 -60 107 -29 50
-53 96 -53 102 0 6 -4 11 -9 11 -5 0 -11 8 -14 18 -4 9 -18 37 -33 62 -15 25
-38 65 -52 90 -14 25 -150 263 -302 530 -152 267 -292 512 -310 545 -18 33
-41 74 -51 90 -59 99 -144 252 -147 263 -2 6 -8 12 -13 12 -6 0 -8 4 -4 9 3 5
1 12 -4 16 -5 3 -16 18 -24 33 -7 15 -23 44 -35 65 -12 20 -30 52 -41 70 -10
17 -27 48 -37 67 -11 19 -21 37 -24 40 -3 3 -14 21 -24 40 -10 19 -55 98 -99
175 -44 77 -89 158 -101 180 -12 22 -33 58 -47 80 -14 22 -30 51 -37 65 -7 14
-22 41 -33 60 -27 43 -66 113 -94 164 -28 52 -59 64 -88 32z"/>
</g>
</svg>
