<svg width="267" height="268" viewBox="0 0 267 268" fill="none" xmlns="http://www.w3.org/2000/svg">
<g clip-path="url(#clip0_155_35651)">
<path d="M222.282 213.263H239.947V213.131H222.282V213.263Z" fill="#ECECEC"/>
<path d="M172.014 214.711H176.651V214.577H172.014V214.711Z" fill="#ECECEC"/>
<path d="M211.512 208.311H221.748V208.177H211.512V208.311Z" fill="#ECECEC"/>
<path d="M27.978 209.207H51.0143V209.074H27.978V209.207Z" fill="#ECECEC"/>
<path d="M55.7632 209.207H59.1408V209.074H55.7632V209.207Z" fill="#ECECEC"/>
<path d="M70.1179 211.459H120.078V211.326H70.1179V211.459Z" fill="#ECECEC"/>
<mask id="mask0_155_35651" style="mask-type:luminance" maskUnits="userSpaceOnUse" x="0" y="0" width="267" height="268">
<path d="M0 0.59989H266.667V267.267H0V0.59989Z" fill="white"/>
</mask>
<g mask="url(#mask0_155_35651)">
<path d="M23.4212 30.0413C21.8159 30.0413 20.5103 31.3469 20.5103 32.9522V177.715C20.5103 179.321 21.8159 180.626 23.4212 180.626H126.407C128.012 180.626 129.318 179.321 129.318 177.715V32.9522C129.318 31.3469 128.012 30.0413 126.407 30.0413H23.4212ZM126.407 180.76H23.4212C21.7428 180.76 20.377 179.394 20.377 177.715V32.9522C20.377 31.2738 21.7428 29.9079 23.4212 29.9079H126.407C128.085 29.9079 129.451 31.2738 129.451 32.9522V177.715C129.451 179.394 128.085 180.76 126.407 180.76Z" fill="#ECECEC"/>
<path d="M138.78 30.0413C137.175 30.0413 135.869 31.3469 135.869 32.9522V177.715C135.869 179.321 137.175 180.626 138.78 180.626H241.766C243.37 180.626 244.677 179.321 244.677 177.715V32.9522C244.677 31.3469 243.37 30.0413 241.766 30.0413H138.78ZM241.766 180.76H138.78C137.102 180.76 135.736 179.394 135.736 177.715V32.9522C135.736 31.2738 137.102 29.9079 138.78 29.9079H241.766C243.444 29.9079 244.81 31.2738 244.81 32.9522V177.715C244.81 179.394 243.444 180.76 241.766 180.76Z" fill="#ECECEC"/>
<path d="M266.667 204.679H0V204.545H266.667V204.679Z" fill="#ECECEC"/>
<path d="M220.3 149.505L222.63 151.212C222.648 151.228 222.665 151.244 222.69 151.25L224.954 149.355C232.006 143.233 240.015 136.489 233.713 130.986C229.345 127.161 224.279 130.724 221.722 133.038C219.016 130.895 213.328 124.811 208.537 132.207C204.543 138.363 212.87 143.85 220.3 149.505Z" fill="#ECECEC"/>
<mask id="mask1_155_35651" style="mask-type:luminance" maskUnits="userSpaceOnUse" x="232" y="133" width="2" height="2">
<path d="M232.41 133.312H233.823V134.73H232.41V133.312Z" fill="white"/>
</mask>
<g mask="url(#mask1_155_35651)">
<g opacity="0.5">
<path d="M233.364 133.344C232.895 133.185 232.34 133.652 232.417 134.141C232.495 134.63 233.167 134.903 233.564 134.607C233.96 134.31 233.888 133.588 233.441 133.376L233.364 133.344Z" fill="white"/>
</g>
</g>
<mask id="mask2_155_35651" style="mask-type:luminance" maskUnits="userSpaceOnUse" x="230" y="135" width="4" height="7">
<path d="M230.597 135.601H233.754V141.663H230.597V135.601Z" fill="white"/>
</mask>
<g mask="url(#mask2_155_35651)">
<g opacity="0.5">
<path d="M230.597 141.663C232.544 140.399 230.596 135.977 233.03 135.602C234.825 136.34 233.002 140.088 230.597 141.663Z" fill="white"/>
</g>
</g>
<path d="M60.7499 157.429L47.8512 162.844C44.9125 164.079 41.5296 162.697 40.296 159.758L39.9243 158.873C38.6907 155.934 40.0725 152.551 43.0112 151.318L55.9099 145.902C58.8491 144.667 62.2315 146.05 63.4656 148.989L63.8373 149.874C65.0709 152.812 63.6891 156.195 60.7499 157.429Z" fill="#ECECEC"/>
<path d="M45.7189 156.133L44.7488 156.54L44.5088 155.968L47.1509 154.859L47.3909 155.431L46.4208 155.838L47.4533 158.299L46.752 158.594L45.7189 156.133Z" fill="white"/>
<path d="M51.3795 153.909L51.5128 156.594L50.8637 156.867L49.732 155.64L49.7976 157.315L49.1485 157.587L47.3293 155.61L47.9661 155.342L49.1784 156.688L49.0883 154.871L49.66 154.631L50.876 155.975L50.7816 154.16L51.3795 153.909Z" fill="white"/>
<path d="M52.5338 154.555L53.6821 154.073C53.5104 153.799 53.2101 153.701 52.9066 153.829C52.5994 153.958 52.456 154.237 52.5338 154.555ZM54.4709 154.206L52.7082 154.945C52.8949 155.209 53.216 155.283 53.5717 155.134C53.8192 155.031 53.9653 154.881 54.0618 154.663L54.585 154.902C54.472 155.239 54.2021 155.506 53.7818 155.683C52.976 156.021 52.2389 155.734 51.9477 155.041C51.6554 154.344 51.977 153.617 52.6874 153.319C53.3722 153.032 54.0928 153.269 54.408 154.019C54.4293 154.07 54.4522 154.148 54.4709 154.206Z" fill="white"/>
<path d="M55.2682 153.407L56.4159 152.925C56.2447 152.651 55.9439 152.553 55.641 152.681C55.3333 152.81 55.1903 153.089 55.2682 153.407ZM57.2053 153.058L55.4426 153.798C55.6293 154.062 55.9503 154.135 56.3061 153.986C56.553 153.883 56.6997 153.734 56.7962 153.515L57.3194 153.754C57.2063 154.092 56.9359 154.359 56.5157 154.535C55.7098 154.873 54.9727 154.586 54.6821 153.893C54.3898 153.196 54.7114 152.469 55.4218 152.171C56.1061 151.884 56.8277 152.121 57.1423 152.87C57.1637 152.922 57.1861 153 57.2053 153.058Z" fill="white"/>
<path d="M59.5343 153.094C59.4377 153.252 59.2548 153.385 59.0463 153.472C58.4964 153.704 58.0575 153.556 57.8244 153.001L57.4228 152.045L57.0633 152.195L56.8452 151.675L57.2041 151.525L56.9663 150.957L57.642 150.673L57.8799 151.24L58.4607 150.997L58.6788 151.517L58.0985 151.76L58.4969 152.709C58.5807 152.909 58.7343 152.972 58.9161 152.895C59.0153 152.853 59.1028 152.781 59.1524 152.694L59.5343 153.094Z" fill="white"/>
<path d="M60.9329 150.679L25.5836 146.198C24.4406 146.053 23.631 145.009 23.7761 143.866L24.7329 136.315C24.878 135.172 25.9222 134.363 27.0657 134.508L62.4145 138.988C63.558 139.133 64.367 140.178 64.222 141.321L63.2652 148.871C63.1206 150.014 62.0764 150.824 60.9329 150.679Z" fill="#E7E7E7"/>
<path d="M35.9964 140.167L35.8689 141.171L37.6284 141.393L37.5388 142.099L35.7793 141.877L35.6038 143.261L34.7244 143.151L35.206 139.349L38.0785 139.713L37.9889 140.419L35.9964 140.167Z" fill="white"/>
<path d="M40.3747 142.382C40.4393 141.877 40.1571 141.531 39.7331 141.479C39.3102 141.425 38.9459 141.687 38.8814 142.193C38.8174 142.698 39.1049 143.043 39.5283 143.097C39.9518 143.15 40.3107 142.887 40.3747 142.382ZM38.0238 142.084C38.1353 141.204 38.8931 140.665 39.8217 140.783C40.7502 140.901 41.3443 141.611 41.2329 142.491C41.1214 143.37 40.3689 143.91 39.4403 143.792C38.5118 143.674 37.9123 142.963 38.0238 142.084Z" fill="white"/>
<path d="M42.1201 139.993L42.9675 140.101L42.4571 144.13L41.6091 144.023L42.1201 139.993Z" fill="white"/>
<path d="M43.7539 140.2L44.6013 140.307L44.0899 144.337L43.2429 144.23L43.7539 140.2Z" fill="white"/>
<path d="M47.195 143.247C47.2596 142.742 46.9774 142.397 46.554 142.343C46.1305 142.289 45.7662 142.552 45.7022 143.057C45.6382 143.562 45.9252 143.908 46.3486 143.961C46.7726 144.015 47.131 143.751 47.195 143.247ZM44.8441 142.948C44.9556 142.069 45.7134 141.53 46.642 141.648C47.5705 141.766 48.1646 142.476 48.0532 143.355C47.9417 144.236 47.1892 144.774 46.2606 144.657C45.3321 144.539 44.7326 143.829 44.8441 142.948Z" fill="white"/>
<path d="M53.4108 142.55L51.982 145.338L51.1671 145.234L50.7404 143.337L49.8311 145.065L49.0172 144.962L48.3335 141.907L49.1319 142.008L49.5714 144.072L50.5383 142.186L51.2551 142.277L51.6999 144.341L52.662 142.455L53.4108 142.55Z" fill="white"/>
<path d="M60.7211 146.152L29.0251 122.073L36.1537 112.689L67.8497 136.769L60.7211 146.152Z" fill="#E1E1E1"/>
<path d="M34.541 120.547L35.1847 120.198C35.2994 120.581 35.5837 121.002 35.9501 121.281C36.3682 121.599 36.6439 121.589 36.7863 121.401C37.2205 120.83 35.1485 119.874 36.0093 118.741C36.4034 118.223 37.1501 118.109 38.0173 118.768C38.4007 119.059 38.7234 119.449 38.8711 119.843L38.2455 120.213C38.085 119.837 37.8525 119.536 37.5821 119.331C37.1639 119.014 36.8834 119.047 36.7378 119.239C36.3101 119.802 38.3794 120.761 37.5282 121.882C37.141 122.391 36.3869 122.506 35.5154 121.844C35.0311 121.476 34.6525 120.962 34.541 120.547Z" fill="white"/>
<path d="M38.3245 121.779L39.6226 120.07L40.3288 120.607L39.0504 122.289C38.6098 122.869 38.6808 123.301 39.108 123.624C39.5394 123.952 39.9698 123.902 40.4104 123.322L41.6888 121.64L42.3858 122.169L41.0882 123.878C40.4061 124.776 39.5138 124.882 38.6466 124.223C37.7794 123.564 37.6424 122.677 38.3245 121.779Z" fill="white"/>
<path d="M43.539 126.428C43.7347 126.171 43.6307 125.9 43.2649 125.622L42.4409 124.995L41.8686 125.75L42.6921 126.375C43.0585 126.654 43.3401 126.689 43.539 126.428ZM43.3779 123.762L42.8318 124.482L43.5337 125.015C43.8782 125.276 44.1582 125.296 44.3401 125.057C44.5225 124.817 44.4243 124.557 44.0798 124.296L43.3779 123.762ZM44.1934 127.042C43.7929 127.569 43.1427 127.556 42.3406 126.947L40.7625 125.748L43.0803 122.697L44.5715 123.83C45.3342 124.409 45.4846 125.025 45.1235 125.5C44.8915 125.806 44.5561 125.922 44.2083 125.864C44.4654 126.231 44.4846 126.658 44.1934 127.042Z" fill="white"/>
<path d="M44.0833 127.796L44.727 127.447C44.8417 127.83 45.1259 128.252 45.4923 128.53C45.9105 128.848 46.1862 128.838 46.3286 128.65C46.7622 128.079 44.6907 127.123 45.551 125.99C45.9457 125.472 46.6918 125.358 47.5595 126.017C47.943 126.308 48.2651 126.698 48.4129 127.092L47.7878 127.462C47.6273 127.086 47.3942 126.786 47.1243 126.581C46.7057 126.262 46.4251 126.296 46.2795 126.488C45.8523 127.051 47.9211 128.011 47.0705 129.131C46.6827 129.641 45.9286 129.756 45.0571 129.093C44.5734 128.725 44.1942 128.211 44.0833 127.796Z" fill="white"/>
<path d="M47.8401 128.719C48.5388 127.8 49.7452 127.677 50.6956 128.399C51.2225 128.8 51.5175 129.327 51.5399 129.894L50.7687 129.968C50.7425 129.577 50.5783 129.259 50.2732 129.027C49.702 128.594 48.9921 128.687 48.5548 129.263C48.118 129.837 48.2188 130.546 48.7895 130.98C49.0951 131.212 49.4444 131.285 49.8316 131.201L49.9665 131.964C49.4113 132.098 48.8252 131.955 48.2935 131.552C47.3479 130.833 47.1415 129.639 47.8401 128.719Z" fill="white"/>
<path d="M53.2273 131.313L52.6519 130.877L51.8444 131.94L52.4193 132.377C52.8508 132.704 53.2215 132.67 53.4732 132.339C53.7281 132.003 53.6588 131.641 53.2273 131.313ZM52.0092 134.293L52.0663 132.996L52.0316 132.969L51.4172 132.502L50.7713 133.352L50.0652 132.815L52.3831 129.765L53.7041 130.768C54.5191 131.388 54.7073 132.197 54.1879 132.881C53.8401 133.339 53.3543 133.5 52.8284 133.368L52.7676 134.869L52.0092 134.293Z" fill="white"/>
<path d="M55.584 132.196L56.2901 132.733L53.9722 135.784L53.2661 135.247L55.584 132.196Z" fill="white"/>
<path d="M57.4711 137.012C57.6668 136.755 57.5628 136.484 57.197 136.206L56.373 135.58L55.8007 136.334L56.6247 136.96C56.9906 137.238 57.2727 137.274 57.4711 137.012ZM57.3106 134.347L56.7639 135.066L57.4658 135.599C57.8103 135.861 58.0903 135.881 58.2722 135.641C58.4546 135.401 58.3564 135.141 58.0124 134.88L57.3106 134.347ZM58.1255 137.626C57.725 138.154 57.0748 138.14 56.2727 137.532L54.6946 136.333L57.013 133.282L58.5036 134.414C59.2663 134.994 59.4167 135.61 59.0556 136.085C58.8242 136.39 58.4882 136.506 58.1404 136.448C58.3975 136.816 58.4167 137.243 58.1255 137.626Z" fill="white"/>
<path d="M60.8191 140.092L60.3887 140.658L58.0266 138.864L60.3445 135.813L62.6501 137.565L62.2197 138.131L60.6159 136.912L60.1125 137.575L61.529 138.651L61.1114 139.2L59.6949 138.125L59.1583 138.831L60.8191 140.092Z" fill="white"/>
<path d="M107.877 41.6236C107.145 41.6236 106.548 42.2177 106.545 42.9516V59.9468C106.545 60.6854 107.145 61.286 107.883 61.286H109.122V65.4097C109.122 65.919 109.536 66.334 110.045 66.334C110.243 66.334 110.438 66.2678 110.596 66.1478L116.884 61.286H134.399C135.137 61.286 135.738 60.6854 135.738 59.9468V42.9542C135.738 42.2204 135.141 41.6236 134.407 41.6236H107.883H107.877ZM110.045 66.8673C109.242 66.8673 108.588 66.2129 108.588 65.4097V61.8193H107.883C106.851 61.8193 106.011 60.9793 106.011 59.9468V42.95C106.016 41.9222 106.852 41.0902 107.876 41.0902H107.885H134.407C135.435 41.0902 136.271 41.9265 136.271 42.9542V59.9468C136.271 60.9793 135.431 61.8193 134.399 61.8193H117.066L110.92 66.5713C110.668 66.7628 110.358 66.8673 110.045 66.8673Z" fill="#E1E1E1"/>
<path d="M116.388 38.9652H119.708V39.3716H116.388V38.9652Z" fill="#E1E1E1"/>
<path d="M104.174 43.7527H103.768V41.749C103.77 40.2087 105.019 38.9612 106.56 38.9612H113.969V39.3671H106.56C105.244 39.3671 104.177 40.4332 104.174 41.749V43.7527Z" fill="#E1E1E1"/>
<path d="M128.321 49.0157H113.749C113.3 49.0157 112.936 48.6515 112.936 48.2029C112.936 47.7539 113.3 47.3901 113.749 47.3901H128.321C128.77 47.3901 129.134 47.7539 129.134 48.2029C129.134 48.6515 128.77 49.0157 128.321 49.0157Z" fill="#E1E1E1"/>
<path d="M128.321 52.2317H113.749C113.3 52.2317 112.936 51.868 112.936 51.4189C112.936 50.9698 113.3 50.6061 113.749 50.6061H128.321C128.77 50.6061 129.134 50.9698 129.134 51.4189C129.134 51.868 128.77 52.2317 128.321 52.2317Z" fill="#E1E1E1"/>
<path d="M128.321 55.4478H113.749C113.3 55.4478 112.936 55.0835 112.936 54.635C112.936 54.1859 113.3 53.8222 113.749 53.8222H128.321C128.77 53.8222 129.134 54.1859 129.134 54.635C129.134 55.0835 128.77 55.4478 128.321 55.4478Z" fill="#E1E1E1"/>
<path d="M137.626 71.4895H152.198C152.647 71.4895 153.011 71.1258 153.011 70.6767C153.011 70.2276 152.647 69.8639 152.198 69.8639H137.626C137.177 69.8639 136.813 70.2276 136.813 70.6767C136.813 71.1258 137.177 71.4895 137.626 71.4895Z" fill="#E1E1E1"/>
<path d="M137.626 74.7056H152.198C152.647 74.7056 153.011 74.3413 153.011 73.8928C153.011 73.4437 152.647 73.08 152.198 73.08H137.626C137.177 73.08 136.813 73.4437 136.813 73.8928C136.813 74.3413 137.177 74.7056 137.626 74.7056Z" fill="#E1E1E1"/>
<path d="M137.626 77.9215H152.198C152.647 77.9215 153.011 77.5572 153.011 77.1087C153.011 76.6596 152.647 76.2959 152.198 76.2959H137.626C137.177 76.2959 136.813 76.6596 136.813 77.1087C136.813 77.5572 137.177 77.9215 137.626 77.9215Z" fill="#E1E1E1"/>
<path d="M159.934 74.0501C159.934 76.6047 158.473 78.9301 156.062 80.6954V86.5674C156.062 87.1167 155.401 87.3887 155.017 86.9994L149.385 83.5327C147.945 83.8314 146.404 83.9967 144.809 83.9967C136.452 83.9967 129.678 79.5434 129.678 74.0501C129.678 68.5567 136.452 64.1034 144.809 64.1034C153.161 64.1034 159.934 68.5567 159.934 74.0501Z" stroke="#E1E1E1" stroke-width="0.533333" stroke-miterlimit="10"/>
<path d="M193.879 76.9373C193.858 77.3251 193.526 77.6419 193.138 77.6419H190.89C190.503 77.6419 190.203 77.3251 190.223 76.9373L190.767 66.5656C190.787 66.1773 191.12 65.8605 191.508 65.8605H193.756C194.144 65.8605 194.442 66.1773 194.422 66.5656L193.879 76.9373ZM193.82 64.6424H191.572C190.512 64.6424 189.603 65.5043 189.548 66.5656L189.004 76.9373C188.949 77.9987 189.767 78.86 190.827 78.86H193.074C194.135 78.86 195.042 77.9987 195.097 76.9373L195.641 66.5656C195.696 65.5043 194.88 64.6424 193.82 64.6424Z" fill="#ECECEC"/>
<path d="M211.574 64.6423H204.997L206.467 61.189C206.626 60.813 206.686 60.4061 206.64 60.0135L206.33 57.2903C206.202 56.1815 205.295 55.3767 204.173 55.3767H201.558L201.337 59.5943L197.099 64.9399C196.676 65.4685 196.425 66.125 196.39 66.789L195.882 76.4877C195.813 77.7965 196.822 78.8605 198.131 78.8605H207.333C208.14 78.8605 208.923 78.5058 209.482 77.8866L210.34 76.9325C210.676 76.5613 210.913 76.1069 211.022 75.6189L213.038 66.6365L211.574 64.6423Z" fill="#ECECEC"/>
<mask id="mask3_155_35651" style="mask-type:luminance" maskUnits="userSpaceOnUse" x="189" y="64" width="7" height="15">
<path d="M189.001 64.6425H195.643V78.8601H189.001V64.6425Z" fill="white"/>
</mask>
<g mask="url(#mask3_155_35651)">
<g opacity="0.5">
<path d="M193.878 76.9372C193.858 77.3249 193.526 77.6417 193.138 77.6417H190.89C190.502 77.6417 190.203 77.3249 190.223 76.9372L190.766 66.5655C190.787 66.1772 191.12 65.8604 191.508 65.8604H193.756C194.144 65.8604 194.442 66.1772 194.422 66.5655L193.878 76.9372ZM193.82 64.6423H191.572C190.511 64.6423 189.603 65.5041 189.548 66.5655L189.004 76.9372C188.949 77.9985 189.766 78.8599 190.827 78.8599H193.074C194.134 78.8599 195.041 77.9985 195.097 76.9372L195.64 66.5655C195.696 65.5041 194.879 64.6423 193.82 64.6423Z" fill="#ECECEC"/>
</g>
</g>
<path d="M66.2268 59.4376L56.6396 57.5363L58.733 53.2483L65.9282 54.6755L66.2268 59.4376Z" fill="#ECECEC"/>
<path d="M65.9283 54.6754L63.6526 58.9271L66.227 59.4375L65.9283 54.6754Z" fill="#E1E1E1"/>
<path d="M66.8318 78.7501L48.5832 75.1309C46.9694 74.8104 45.9203 73.2424 46.2403 71.628L48.7432 59.0077C49.0638 57.3939 50.6318 56.3443 52.2462 56.6648L70.4942 60.284C72.1086 60.6045 73.1576 62.1725 72.8376 63.7864L70.3342 76.4072C70.0142 78.0211 68.4462 79.0707 66.8318 78.7501Z" fill="#ECECEC"/>
<path d="M67.0388 78.7913L66.5012 78.6846L70.1636 60.2185L70.7012 60.3251C72.2015 60.6227 73.1759 62.0798 72.8783 63.5795L70.2932 76.6142C69.9956 78.1139 68.5386 79.0889 67.0388 78.7913Z" fill="#E1E1E1"/>
<path d="M65.0033 67.9137C64.2881 71.5201 60.7846 73.8641 57.1782 73.1484C53.5718 72.4332 51.2278 68.9297 51.9435 65.3238C52.6587 61.7169 56.1622 59.3734 59.7686 60.0886C63.375 60.8038 65.7185 64.3073 65.0033 67.9137Z" fill="#FAFAFA"/>
<path d="M64.1312 67.6517C63.504 70.8143 60.4314 72.8698 57.2688 72.2421C54.1061 71.6149 52.0506 68.5423 52.6778 65.3802C53.3056 62.2175 56.3776 60.1621 59.5402 60.7893C62.7029 61.4165 64.7584 64.489 64.1312 67.6517Z" fill="#E1E1E1"/>
<path d="M55.079 59.9043L59.5403 60.7891L57.2688 72.2424L51.5344 71.1464C51.5344 71.1464 56.1643 61.7027 55.079 59.9043Z" fill="#E1E1E1"/>
<path d="M55.8041 57.5592L52.7737 56.9581L53.0377 55.6248L56.0686 56.2259L55.8041 57.5592Z" fill="#ECECEC"/>
<path d="M67.7234 63.2118C67.6391 63.6369 67.2263 63.9131 66.8012 63.8289C66.3762 63.7446 66.1004 63.3318 66.1842 62.9067C66.2684 62.4817 66.6812 62.2054 67.1063 62.2897C67.5314 62.3739 67.8076 62.7873 67.7234 63.2118Z" fill="#FAFAFA"/>
<path d="M55.9929 65.6157C55.1545 69.8413 51.0499 72.5874 46.8243 71.749C46.1326 71.612 45.4819 71.3869 44.8809 71.0898C48.3118 70.86 51.3001 68.3581 52.0009 64.8242C52.7017 61.2898 50.8947 57.837 47.811 56.3149C48.4809 56.2696 49.1678 56.3101 49.8595 56.4472C54.0846 57.285 56.8307 61.3901 55.9929 65.6157Z" fill="#ECECEC"/>
<path d="M52.0011 64.8241C51.3003 68.3579 48.312 70.8598 44.8805 71.0902C41.7973 69.5681 39.9899 66.1147 40.6907 62.5809C41.392 59.0465 44.3797 56.5451 47.8112 56.3147C50.8949 57.8369 52.7019 61.2902 52.0011 64.8241Z" fill="#FAFAFA"/>
<path d="M44.8807 71.0899C44.2108 71.1347 43.5244 71.0947 42.8327 70.9571C38.6065 70.1192 35.8609 66.0147 36.6988 61.7891C37.5372 57.5635 41.6417 54.8174 45.8673 55.6558C46.5591 55.7928 47.2092 56.0174 47.8113 56.315C44.3799 56.5448 41.3916 59.0467 40.6908 62.5806C39.99 66.1144 41.7969 69.5678 44.8807 71.0899Z" fill="#E7E7E7"/>
</g>
<mask id="mask4_155_35651" style="mask-type:luminance" maskUnits="userSpaceOnUse" x="0" y="0" width="267" height="268">
<path d="M0 0.59989H266.667V267.267H0V0.59989Z" fill="white"/>
</mask>
<g mask="url(#mask4_155_35651)">
<path d="M46.0174 181.292C40.9827 162.115 44.436 140.87 55.2851 124.274C58.0798 120 61.4355 115.941 65.8515 113.376C70.2675 110.812 75.9064 109.945 80.5262 112.121C85.7774 114.596 88.6072 120.219 91.684 125.142C94.7603 130.064 99.3448 135.07 105.145 134.846C108.599 134.712 111.673 132.707 114.462 130.664C143.031 109.733 163.397 77.2921 195.933 63.2996C203.135 60.202 211.606 58.1689 218.652 61.6094C226.374 65.3812 229.887 74.5668 230.685 83.1236C231.927 96.4398 228.267 109.903 221.992 121.714C215.717 133.525 206.924 143.822 197.472 153.284C172.992 177.79 142.554 197.743 108.395 203.483C96.9576 205.404 85.0627 205.684 73.8984 202.547C62.7336 199.408 52.332 192.59 46.3902 182.63C46.4216 183.481 46.0174 181.292 46.0174 181.292Z" fill="#4CAF4F"/>
<mask id="mask5_155_35651" style="mask-type:luminance" maskUnits="userSpaceOnUse" x="43" y="59" width="188" height="146">
<path d="M43.7483 59.8148H230.926V204.92H43.7483V59.8148Z" fill="white"/>
</mask>
<g mask="url(#mask5_155_35651)">
<g opacity="0.899994">
<path d="M46.0174 181.292C40.9827 162.115 44.436 140.87 55.2851 124.274C58.0798 120 61.4355 115.941 65.8515 113.376C70.2675 110.812 75.9064 109.945 80.5262 112.121C85.7774 114.596 88.6072 120.219 91.684 125.142C94.7603 130.064 99.3448 135.07 105.145 134.846C108.599 134.712 111.673 132.707 114.462 130.664C143.031 109.733 163.397 77.2921 195.933 63.2996C203.135 60.202 211.606 58.1689 218.652 61.6094C226.374 65.3812 229.887 74.5668 230.685 83.1236C231.927 96.4398 228.267 109.903 221.992 121.714C215.717 133.525 206.924 143.822 197.472 153.284C172.992 177.79 142.554 197.743 108.395 203.483C96.9576 205.404 85.0627 205.684 73.8984 202.547C62.7336 199.408 52.332 192.59 46.3902 182.63C46.4216 183.481 46.0174 181.292 46.0174 181.292Z" fill="white"/>
</g>
</g>
</g>
<mask id="mask6_155_35651" style="mask-type:luminance" maskUnits="userSpaceOnUse" x="0" y="0" width="267" height="268">
<path d="M0 0.59989H266.667V267.267H0V0.59989Z" fill="white"/>
</mask>
<g mask="url(#mask6_155_35651)">
<path d="M236.741 222.302C236.741 225.638 190.444 228.341 133.334 228.341C76.2231 228.341 29.926 225.638 29.926 222.302C29.926 218.968 76.2231 216.264 133.334 216.264C190.444 216.264 236.741 218.968 236.741 222.302Z" fill="#F5F5F5"/>
</g>
<path d="M196.091 213.746H73.3003V173.257H196.091V213.746Z" fill="#4CAF4F"/>
<mask id="mask7_155_35651" style="mask-type:luminance" maskUnits="userSpaceOnUse" x="0" y="0" width="267" height="268">
<path d="M0 0.59989H266.667V267.267H0V0.59989Z" fill="white"/>
</mask>
<g mask="url(#mask7_155_35651)">
<mask id="mask8_155_35651" style="mask-type:luminance" maskUnits="userSpaceOnUse" x="73" y="173" width="124" height="41">
<path d="M73.2993 173.259H196.09V213.745H73.2993V173.259Z" fill="white"/>
</mask>
<g mask="url(#mask8_155_35651)">
<g opacity="0.199997">
<path d="M196.089 213.745H73.2993V173.259H196.089V213.745Z" fill="white"/>
</g>
</g>
</g>
<path d="M159.804 173.742H106.507V133.253H159.804V173.742Z" fill="#4CAF4F"/>
<mask id="mask9_155_35651" style="mask-type:luminance" maskUnits="userSpaceOnUse" x="0" y="0" width="267" height="268">
<path d="M0 0.59989H266.667V267.267H0V0.59989Z" fill="white"/>
</mask>
<g mask="url(#mask9_155_35651)">
<mask id="mask10_155_35651" style="mask-type:luminance" maskUnits="userSpaceOnUse" x="106" y="133" width="54" height="41">
<path d="M106.507 133.253H159.804V173.742H106.507V133.253Z" fill="white"/>
</mask>
<g mask="url(#mask10_155_35651)">
<g opacity="0.199997">
<path d="M159.804 173.742H106.507V133.253H159.804V173.742Z" fill="white"/>
</g>
</g>
</g>
<path d="M138.09 144.745L135.075 159.82H131.586L134.042 147.545H131.026L131.586 144.745H138.09Z" fill="#1A2E35"/>
<path d="M165.862 118.5L167.935 120.693L182.642 110.912L199.244 116.404L213.692 105.733L214.662 107.467L218.568 100.904L210.932 100.802L211.902 102.536L198.996 113.773L182.359 108.403L165.862 118.5Z" fill="#1A2E35"/>
<mask id="mask11_155_35651" style="mask-type:luminance" maskUnits="userSpaceOnUse" x="0" y="0" width="267" height="268">
<path d="M0 0.59989H266.667V267.267H0V0.59989Z" fill="white"/>
</mask>
<g mask="url(#mask11_155_35651)">
<mask id="mask12_155_35651" style="mask-type:luminance" maskUnits="userSpaceOnUse" x="168" y="174" width="29" height="34">
<path d="M168.077 174.134H196.09V207.454H168.077V174.134Z" fill="white"/>
</mask>
<g mask="url(#mask12_155_35651)">
<g opacity="0.199997">
<path d="M174.652 177.425L185.827 177.02C183.192 176.262 180.404 176.308 177.677 176.026C176.889 175.945 176.095 175.834 175.358 175.545C174.655 175.27 174.021 174.84 173.323 174.551C172.414 174.175 171.402 174.049 170.428 174.189C170.113 174.234 169.799 174.308 169.518 174.456C168.975 174.742 168.604 175.283 168.396 175.859C168.212 176.372 168.123 176.897 168.096 177.425H168.087C168.082 177.502 168.079 177.582 168.077 177.663L168.086 177.662C168.072 178.823 168.375 179.991 168.82 181.063C171.414 187.339 192.408 181.979 192.408 181.979C191.676 186.1 192.774 189.201 193.526 193.327L195.491 204.182L193.391 204.414L194.24 207.454H196.089V177.425H174.652Z" fill="black"/>
</g>
</g>
<mask id="mask13_155_35651" style="mask-type:luminance" maskUnits="userSpaceOnUse" x="195" y="210" width="2" height="4">
<path d="M195.677 210.077H196.23V213.479H195.677V210.077Z" fill="white"/>
</mask>
<g mask="url(#mask13_155_35651)">
<g opacity="0.199997">
<path d="M196.229 210.078V213.48L196.141 213.379L195.683 210.987C195.677 210.956 195.677 210.919 195.677 210.888C195.677 210.523 195.897 210.209 196.229 210.078Z" fill="black"/>
</g>
</g>
</g>
<path d="M206.049 207.568L209.338 207.213L209.656 199.484L206.365 199.841L206.049 207.568Z" fill="#FF8C7B"/>
<mask id="mask14_155_35651" style="mask-type:luminance" maskUnits="userSpaceOnUse" x="0" y="0" width="267" height="268">
<path d="M0 0.59989H266.667V267.267H0V0.59989Z" fill="white"/>
</mask>
<g mask="url(#mask14_155_35651)">
<path d="M209.673 205.826L205.958 205.786C205.829 205.772 205.713 205.865 205.699 205.994C205.698 206.002 205.697 206.01 205.697 206.017L205.483 208.953C205.481 209.275 205.737 209.54 206.058 209.548C207.349 209.539 207.891 209.476 209.522 209.378C210.526 209.314 212.922 209.157 214.287 208.901C215.653 208.646 215.359 207.302 214.757 207.289C213.334 207.262 211.153 206.791 210.227 206.047C210.071 205.914 209.876 205.837 209.673 205.826Z" fill="#1A2E35"/>
<mask id="mask15_155_35651" style="mask-type:luminance" maskUnits="userSpaceOnUse" x="206" y="199" width="4" height="5">
<path d="M206.215 199.484H209.656V203.455H206.215V199.484Z" fill="white"/>
</mask>
<g mask="url(#mask15_155_35651)">
<g opacity="0.199997">
<path d="M206.364 199.846L209.656 199.484L209.502 203.209L206.215 203.455L206.364 199.846Z" fill="black"/>
</g>
</g>
<path d="M182.915 165.733C182.915 165.733 207.985 164.495 209.64 173.832C211 187.977 210.118 200.235 210.118 200.235L205.483 201.147C205.483 201.147 201.855 184.948 202.23 176.985C195.325 176.228 176.516 179.575 173.586 174.431C171.189 170.234 171.637 167.622 171.637 167.622L182.915 165.733Z" fill="#1A2E35"/>
<path d="M203.994 202.635L211.045 202.305L211.531 199.659L203.719 199.926L203.994 202.635Z" fill="#4CAF4F"/>
<path d="M211.332 205.751C211.377 205.772 211.408 205.816 211.41 205.866C211.443 205.96 211.421 206.065 211.353 206.138C211.197 206.29 210.761 206.306 210.171 206.18C210.555 205.94 211.109 205.669 211.332 205.751ZM211.46 206.248C211.567 206.138 211.606 205.98 211.563 205.833C211.545 205.733 211.477 205.65 211.384 205.612C210.976 205.442 210.04 206.078 209.933 206.15C209.916 206.161 209.904 206.178 209.899 206.197C209.89 206.238 209.916 206.279 209.957 206.289C210.244 206.365 210.54 206.408 210.837 206.417C211.058 206.439 211.281 206.379 211.46 206.248Z" fill="#4CAF4F"/>
<path d="M210.466 204.949C210.581 204.964 210.605 205.018 210.614 205.062C210.663 205.3 210.33 205.818 210.038 206.058C210.033 205.744 210.066 205.201 210.266 205.01C210.311 204.966 210.372 204.943 210.435 204.946C210.453 204.955 210.465 204.96 210.466 204.949ZM210.025 206.272C210.356 206.076 210.858 205.397 210.784 205.03C210.756 204.9 210.644 204.805 210.51 204.799C210.385 204.779 210.258 204.82 210.168 204.91C209.834 205.228 209.896 206.18 209.898 206.22C209.9 206.247 209.916 206.271 209.941 206.283C209.952 206.288 209.964 206.291 209.976 206.292L210.025 206.272Z" fill="#4CAF4F"/>
<mask id="mask16_155_35651" style="mask-type:luminance" maskUnits="userSpaceOnUse" x="199" y="170" width="7" height="26">
<path d="M199.125 170.76H205.904V195.012H199.125V170.76Z" fill="white"/>
</mask>
<g mask="url(#mask16_155_35651)">
<g opacity="0.300003">
<path d="M199.125 171.118C199.125 171.118 204.356 169.616 205.483 172.771C206.611 175.926 205.289 191.295 203.72 194.708C202.15 198.121 199.297 171.634 199.297 171.634L199.125 171.118Z" fill="black"/>
</g>
</g>
<path d="M199.219 210.076L202.416 209.993L202.172 202.236L198.974 202.32L199.219 210.076Z" fill="#FF8C7B"/>
<path d="M202.469 209.037L198.764 209.274C198.633 209.277 198.529 209.384 198.531 209.515L198.539 212.458C198.558 212.781 198.835 213.027 199.157 213.009C200.442 212.886 201.057 212.789 202.685 212.67C203.688 212.605 205.668 212.565 207.021 212.255C208.375 211.945 208.037 210.621 207.437 210.627C206.014 210.649 204.028 209.854 203.048 209.182C202.876 209.072 202.672 209.02 202.469 209.037Z" fill="#1A2E35"/>
<path d="M204.114 208.841C204.161 208.856 204.197 208.895 204.207 208.943C204.244 209.036 204.229 209.141 204.168 209.221C204.038 209.382 203.592 209.429 202.994 209.35C203.36 209.079 203.892 208.768 204.114 208.841ZM204.285 209.32C204.382 209.202 204.408 209.04 204.352 208.898C204.327 208.8 204.254 208.722 204.158 208.691C203.747 208.55 202.854 209.26 202.754 209.339C202.739 209.351 202.728 209.368 202.725 209.387C202.718 209.429 202.747 209.468 202.788 209.474C203.081 209.527 203.378 209.547 203.674 209.535C203.898 209.543 204.116 209.467 204.285 209.32Z" fill="#4CAF4F"/>
<path d="M203.208 208.103C203.319 208.109 203.356 208.161 203.36 208.206C203.428 208.439 203.133 208.98 202.86 209.242C202.833 208.936 202.823 208.393 203.012 208.187C203.051 208.14 203.109 208.112 203.17 208.11L203.208 208.103ZM202.864 209.471C203.18 209.253 203.625 208.517 203.527 208.18C203.49 208.048 203.369 207.959 203.233 207.965C203.107 207.949 202.981 207.998 202.898 208.094C202.584 208.436 202.724 209.38 202.727 209.421C202.73 209.447 202.747 209.469 202.771 209.48C202.783 209.482 202.794 209.481 202.806 209.476C202.825 209.481 202.846 209.479 202.864 209.471Z" fill="#4CAF4F"/>
<mask id="mask17_155_35651" style="mask-type:luminance" maskUnits="userSpaceOnUse" x="198" y="201" width="5" height="6">
<path d="M198.688 201.647H202.291V206.858H198.688V201.647Z" fill="white"/>
</mask>
<g mask="url(#mask17_155_35651)">
<g opacity="0.199997">
<path d="M198.688 202.246L202.263 201.647L202.29 206.494L199.16 206.858L198.688 202.246Z" fill="black"/>
</g>
</g>
<path d="M178.017 166.482C178.017 166.482 202.769 168.329 203.098 175.521C204.922 187.274 203.546 202.74 203.546 202.74L197.617 203.974C197.617 203.974 194.572 189.498 194.133 178.852C188.073 179.867 175.608 181.746 171.336 178.715C167.462 175.229 168.539 168.087 168.539 168.087L178.017 166.482Z" fill="#1A2E35"/>
<path d="M197.041 205.925L204.286 205.316L204.44 202.148L196.497 202.97L197.041 205.925Z" fill="#4CAF4F"/>
<path d="M179.753 144.962C179.893 145.527 180.021 146.017 180.173 146.53C180.326 147.043 180.477 147.529 180.647 148.046C180.979 149.04 181.354 150.028 181.767 151.033C182.593 153.114 183.697 155.074 185.049 156.86C185.447 157.358 185.887 157.822 186.363 158.246C186.896 158.726 187.498 159.122 188.149 159.424C189.397 159.982 190.77 160.203 192.131 160.065C193.322 159.945 194.486 159.632 195.576 159.138C196.092 158.91 196.593 158.652 197.077 158.362C197.32 158.22 197.553 158.069 197.78 157.895C198.006 157.72 198.219 157.573 198.479 157.372L197.203 155.244L196.566 155.435L195.897 155.617C195.447 155.73 195.001 155.83 194.545 155.906C193.72 156.059 192.879 156.102 192.044 156.035C191.375 155.988 190.728 155.778 190.16 155.423C189.914 155.26 189.687 155.07 189.484 154.857C189.231 154.581 188.997 154.288 188.784 153.98C188.293 153.26 187.863 152.5 187.497 151.708C187.094 150.889 186.735 150.022 186.394 149.134C186.053 148.247 185.744 147.343 185.434 146.433L184.997 145.057C184.859 144.604 184.707 144.119 184.596 143.725L179.753 144.962Z" fill="#FF8C7B"/>
<path d="M179.268 142.192C181.263 139.481 184.454 140.35 186.36 144.503C187.416 146.714 188.27 149.016 188.912 151.38L181.593 154.215C179.519 150.296 177.213 144.971 179.268 142.192Z" fill="#4CAF4F"/>
<mask id="mask18_155_35651" style="mask-type:luminance" maskUnits="userSpaceOnUse" x="178" y="140" width="11" height="15">
<path d="M178.467 140.636H188.912V154.215H178.467V140.636Z" fill="white"/>
</mask>
<g mask="url(#mask18_155_35651)">
<g opacity="0.100006">
<path d="M179.268 142.191C181.263 139.481 184.454 140.35 186.36 144.503C187.416 146.714 188.27 149.015 188.912 151.38L181.593 154.215C179.519 150.296 177.213 144.971 179.268 142.191Z" fill="black"/>
</g>
</g>
<mask id="mask19_155_35651" style="mask-type:luminance" maskUnits="userSpaceOnUse" x="180" y="146" width="6" height="9">
<path d="M180.219 146.472H185.991V154.202H180.219V146.472Z" fill="white"/>
</mask>
<g mask="url(#mask19_155_35651)">
<g opacity="0.300003">
<path d="M182.501 146.514C181.878 146.118 180.706 148.565 180.219 151.422C180.656 152.398 181.123 153.331 181.588 154.202L185.991 152.495C185.176 149.86 183.9 147.407 182.501 146.514Z" fill="black"/>
</g>
</g>
<path d="M197.545 154.137L199.138 153.201L199.818 156.8C199.818 156.8 197.166 158.516 196.346 157.193L196.399 156.257C196.464 155.42 196.88 154.649 197.545 154.137Z" fill="#FF8C7B"/>
<path d="M201.163 152.96L202.675 155.822L199.805 156.803L199.125 153.204L201.163 152.96Z" fill="#FF8C7B"/>
<path d="M179.162 139.826L175.356 139.414L170.648 139.978C169.179 140.152 168.007 141.289 167.789 142.753C167.356 145.625 167.199 149.682 167.165 153.177C167.123 157.101 167.74 162.88 168.539 168.087L184.247 165.679C183.961 151.914 184.866 147.616 184.878 143.968C184.887 142.497 183.914 141.201 182.5 140.8L179.162 139.826Z" fill="#4CAF4F"/>
<path d="M179.162 139.826L175.356 139.414L170.648 139.978C169.179 140.152 168.007 141.289 167.789 142.753C167.356 145.625 167.199 149.682 167.165 153.177C167.123 157.101 167.74 162.88 168.539 168.087L184.247 165.679C183.961 151.914 184.866 147.616 184.878 143.968C184.887 142.497 183.914 141.201 182.5 140.8L179.162 139.826Z" fill="#4CAF4F"/>
<mask id="mask20_155_35651" style="mask-type:luminance" maskUnits="userSpaceOnUse" x="166" y="141" width="6" height="14">
<path d="M166.653 141.365H171.983V154.172H166.653V141.365Z" fill="white"/>
</mask>
<g mask="url(#mask20_155_35651)">
<g opacity="0.300003">
<path d="M169.281 141.406C172.409 140.753 172.479 147.9 171.214 153.172C170.847 154.697 169.037 154.122 168.419 153.747C166.395 152.518 165.447 143.812 169.281 141.406Z" fill="black"/>
</g>
</g>
<path d="M169.239 151.992C169.456 155.079 168.526 156.727 170.203 157.706C171.881 158.684 181.717 161.603 181.94 161.19C181.492 161.95 181.057 162.602 180.609 163.362C177.794 163.032 174.975 162.732 172.154 162.465C170.095 162.27 166.773 161.847 165.124 160.599C163.631 159.47 163.728 154.304 163.856 150.581C165.143 149.775 169.239 151.992 169.239 151.992Z" fill="#FF8C7B"/>
<path d="M168.02 140.185C171.225 139.134 172.531 141.684 171.687 146.158C171.269 148.572 170.633 150.942 169.787 153.241L162.959 151.321C163.551 146.935 164.743 141.263 168.02 140.185Z" fill="#4CAF4F"/>
<path d="M172.707 140.016C172.612 140.692 172.864 141.38 173.255 141.939C173.647 142.498 174.171 142.948 174.689 143.393C175.347 143.958 176.129 144.561 176.984 144.42C177.775 144.29 178.218 143.875 178.508 142.92C179.224 143.993 179.273 144.538 180.022 144.584C180.507 144.613 180.918 144.246 181.247 143.887C181.827 143.252 182.084 142.89 182.166 142.034C182.3 140.642 181.133 139.391 179.807 138.945C178.384 138.467 177.129 138.382 175.663 138.26C174.438 138.158 172.907 138.588 172.707 140.016Z" fill="#1A2E35"/>
<path d="M175.8 133.253L177.575 135.175L179.987 137.791C179.781 138.084 179.629 138.411 179.54 138.758C179.318 139.523 179.415 140.271 180.25 140.799C180.612 140.954 180.85 142.803 178.508 142.684C176.913 142.647 175.889 142.127 174.928 141.19C174.481 140.627 174.359 140.322 174.781 139.681C175.989 137.869 176.006 135.294 175.8 133.253Z" fill="#FF8C7B"/>
<mask id="mask21_155_35651" style="mask-type:luminance" maskUnits="userSpaceOnUse" x="177" y="135" width="3" height="4">
<path d="M177.703 135.246H179.999V138.945H177.703V135.246Z" fill="white"/>
</mask>
<g mask="url(#mask21_155_35651)">
<g opacity="0.199997">
<path d="M179.406 137.143L177.877 135.247C177.861 135.305 177.844 135.368 177.824 135.434C177.763 135.71 177.724 135.991 177.706 136.273C177.647 137.238 178.591 138.445 179.491 138.945L179.552 138.75C179.645 138.424 179.781 138.112 179.957 137.824C179.969 137.808 179.983 137.794 179.999 137.782L179.406 137.143Z" fill="black"/>
</g>
</g>
<path d="M181.533 132.668C182.952 129.912 182.65 128.351 184.012 126.882C184.744 126.558 186.022 127.907 185.169 130.201C184.316 132.496 181.533 132.668 181.533 132.668Z" fill="#1A2E35"/>
<path d="M175.844 129.61C175.68 132.808 175.446 134.67 176.873 136.437C179.028 139.11 183.114 138.013 184.218 134.91C185.213 132.118 185.288 127.359 182.309 125.811C180.125 124.693 177.449 125.556 176.33 127.739C176.033 128.32 175.867 128.958 175.844 129.61Z" fill="#FF8C7B"/>
<path d="M175.466 132.448L178.075 133.479L177.419 130.679L178.839 129.869L180.569 127.277C180.569 127.277 176.819 126.177 175.7 126.028C175.309 125.976 173.936 127.041 173.732 127.489C173.157 128.757 173.456 130.231 174.334 131.31C174.672 131.726 175.051 132.106 175.466 132.448Z" fill="#1A2E35"/>
<path d="M176.775 122.763C177.596 122.367 178.593 122.864 179.464 123.131C180.336 123.399 181.192 123.73 182.089 123.89C182.866 124.028 183.716 124.021 184.389 123.607C185.061 123.193 185.462 122.272 185.09 121.575C186.043 122.118 186.702 123.147 186.793 124.241C186.885 125.334 186.407 126.459 185.557 127.152C184.772 127.793 183.73 128.052 182.716 128.064C181.702 128.077 180.701 127.863 179.71 127.649C178.393 127.366 176.485 127.325 175.287 126.72C174.013 126.077 174.265 123.975 176.775 122.763Z" fill="#1A2E35"/>
<path d="M174.277 131.909C174.366 132.619 174.711 133.272 175.249 133.744C175.951 134.344 176.761 133.638 176.829 132.731C176.886 131.92 176.442 130.752 175.61 130.506C174.778 130.261 174.171 131.024 174.277 131.909Z" fill="#FF8C7B"/>
<path d="M180.689 131.37C180.649 131.633 180.752 131.874 180.925 131.905C181.099 131.935 181.25 131.753 181.308 131.491C181.365 131.229 181.244 130.987 181.07 130.953C180.897 130.919 180.728 131.105 180.689 131.37Z" fill="#1A2E35"/>
<path d="M183.652 131.924C183.608 132.19 183.716 132.431 183.888 132.462C184.062 132.492 184.23 132.307 184.271 132.048C184.311 131.789 184.204 131.545 184.034 131.513C183.864 131.483 183.692 131.662 183.652 131.924Z" fill="#1A2E35"/>
<path d="M182.671 131.942C182.785 132.688 182.996 133.416 183.3 134.107C182.83 134.375 182.206 134.035 182.206 134.035L182.671 131.942Z" fill="#FF5551"/>
<path d="M181.737 135.538C181.119 135.443 180.567 135.099 180.209 134.586C180.186 134.55 180.197 134.502 180.233 134.478C180.271 134.457 180.319 134.468 180.343 134.505C180.74 135.058 181.372 135.394 182.053 135.415C182.096 135.414 182.133 135.448 182.135 135.491C182.136 135.535 182.102 135.572 182.059 135.574C182.055 135.574 182.051 135.574 182.047 135.573C181.943 135.569 181.839 135.557 181.737 135.538Z" fill="#1A2E35"/>
<path d="M180.252 130.331C180.227 130.323 180.204 130.309 180.186 130.29C180.128 130.224 180.134 130.125 180.197 130.067C180.56 129.722 181.071 129.582 181.559 129.692C181.642 129.714 181.692 129.798 181.67 129.881C181.67 129.883 181.669 129.885 181.669 129.887C181.644 129.97 181.556 130.017 181.474 129.993C181.09 129.915 180.692 130.028 180.408 130.298C180.367 130.338 180.306 130.35 180.252 130.331Z" fill="#1A2E35"/>
<path d="M183.933 130.218C183.922 130.194 183.917 130.166 183.919 130.14C183.941 130.055 184.026 130.004 184.11 130.024C184.601 130.125 185.007 130.466 185.193 130.931C185.221 131.012 185.178 131.101 185.097 131.129C185.015 131.157 184.927 131.114 184.899 131.033C184.746 130.671 184.424 130.408 184.039 130.33C183.987 130.314 183.947 130.271 183.933 130.218Z" fill="#1A2E35"/>
<path d="M192.479 171.63L213.895 168.829C214.116 168.801 214.273 168.596 214.245 168.375C214.216 168.153 214.011 167.996 213.79 168.025L192.374 170.825C192.153 170.855 191.996 171.059 192.024 171.281C192.053 171.502 192.258 171.659 192.479 171.63Z" fill="#4CAF4F"/>
<mask id="mask22_155_35651" style="mask-type:luminance" maskUnits="userSpaceOnUse" x="192" y="168" width="23" height="4">
<path d="M192.021 168.022H214.248V171.634H192.021V168.022Z" fill="white"/>
</mask>
<g mask="url(#mask22_155_35651)">
<g opacity="0.5">
<path d="M192.479 171.63L213.895 168.829C214.116 168.801 214.273 168.596 214.245 168.375C214.216 168.153 214.011 167.996 213.79 168.025L192.374 170.825C192.153 170.855 191.996 171.059 192.024 171.281C192.053 171.502 192.258 171.659 192.479 171.63Z" fill="black"/>
</g>
</g>
<path d="M181.926 171.509L192.315 171.636C192.538 171.639 192.723 171.459 192.726 171.236C192.728 171.012 192.548 170.828 192.325 170.825L181.935 170.698C181.712 170.694 181.527 170.875 181.525 171.098C181.522 171.321 181.703 171.506 181.926 171.509Z" fill="#4CAF4F"/>
<mask id="mask23_155_35651" style="mask-type:luminance" maskUnits="userSpaceOnUse" x="181" y="170" width="12" height="2">
<path d="M181.525 170.697H192.726V171.637H181.525V170.697Z" fill="white"/>
</mask>
<g mask="url(#mask23_155_35651)">
<g opacity="0.5">
<path d="M181.926 171.509L192.315 171.636C192.538 171.639 192.723 171.459 192.726 171.236C192.728 171.012 192.548 170.828 192.325 170.825L181.935 170.698C181.712 170.694 181.527 170.875 181.525 171.098C181.522 171.321 181.703 171.506 181.926 171.509Z" fill="white"/>
</g>
</g>
<path d="M192.963 171.158L181.525 171.071C181.525 171.071 181.14 170.845 181.909 170.697C182.678 170.549 192.607 169.237 192.607 169.237L192.963 171.158Z" fill="#4CAF4F"/>
<path d="M192.963 171.158L181.797 171.036C181.797 171.036 181.412 170.809 182.181 170.661C182.949 170.513 192.607 169.237 192.607 169.237L192.963 171.158Z" fill="#4CAF4F"/>
<mask id="mask24_155_35651" style="mask-type:luminance" maskUnits="userSpaceOnUse" x="181" y="169" width="12" height="3">
<path d="M181.7 169.237H192.963V171.158H181.7V169.237Z" fill="white"/>
</mask>
<g mask="url(#mask24_155_35651)">
<g opacity="0.199997">
<path d="M192.963 171.158L181.797 171.035C181.797 171.035 181.412 170.809 182.181 170.661C182.949 170.513 192.607 169.237 192.607 169.237L192.963 171.158Z" fill="white"/>
</g>
</g>
<path d="M192.958 170.749L212.927 168.138C213.632 168.046 214.183 167.387 214.153 166.674L213.715 156.448C213.685 155.734 213.083 155.227 212.379 155.318L192.409 157.93C191.704 158.022 191.153 158.681 191.183 159.394L191.621 169.621C191.652 170.334 192.253 170.842 192.958 170.749Z" fill="#4CAF4F"/>
<mask id="mask25_155_35651" style="mask-type:luminance" maskUnits="userSpaceOnUse" x="191" y="155" width="24" height="16">
<path d="M191.182 155.308H214.154V170.76H191.182V155.308Z" fill="white"/>
</mask>
<g mask="url(#mask25_155_35651)">
<g opacity="0.399994">
<path d="M192.958 170.749L212.927 168.138C213.632 168.046 214.183 167.387 214.153 166.674L213.715 156.448C213.685 155.734 213.083 155.227 212.379 155.318L192.409 157.93C191.704 158.022 191.153 158.681 191.183 159.394L191.621 169.621C191.652 170.334 192.253 170.842 192.958 170.749Z" fill="black"/>
</g>
</g>
<path d="M193.54 170.629L213.509 168.018C214.213 167.926 214.765 167.267 214.735 166.554L214.297 156.327C214.266 155.614 213.665 155.106 212.96 155.198L192.991 157.81C192.286 157.902 191.735 158.561 191.765 159.273L192.203 169.501C192.233 170.214 192.835 170.721 193.54 170.629Z" fill="#4CAF4F"/>
<mask id="mask26_155_35651" style="mask-type:luminance" maskUnits="userSpaceOnUse" x="191" y="155" width="24" height="16">
<path d="M191.764 155.188H214.736V170.64H191.764V155.188Z" fill="white"/>
</mask>
<g mask="url(#mask26_155_35651)">
<g opacity="0.199997">
<path d="M193.54 170.629L213.509 168.018C214.213 167.926 214.765 167.267 214.735 166.554L214.297 156.327C214.266 155.614 213.665 155.106 212.96 155.198L192.991 157.81C192.286 157.902 191.735 158.561 191.765 159.273L192.203 169.501C192.233 170.214 192.835 170.721 193.54 170.629Z" fill="white"/>
</g>
</g>
<path d="M183.217 157.555C181.827 157.266 181.157 154.816 181.725 152.086C182.292 149.357 183.884 147.378 185.275 147.667C186.67 147.957 187.34 150.407 186.772 153.136C186.204 155.866 184.613 157.845 183.217 157.555ZM185.1 147.03C182.916 146.575 180.633 148.682 180 151.727C179.365 154.778 180.619 157.62 182.802 158.074C184.986 158.528 187.269 156.422 187.903 153.372C188.537 150.326 187.284 147.484 185.1 147.03Z" fill="#1A2E35"/>
<mask id="mask27_155_35651" style="mask-type:luminance" maskUnits="userSpaceOnUse" x="181" y="147" width="6" height="11">
<path d="M181.522 147.641H186.972V157.584H181.522V147.641Z" fill="white"/>
</mask>
<g mask="url(#mask27_155_35651)">
<g opacity="0.5">
<path d="M186.77 153.137C186.202 155.868 184.612 157.846 183.219 157.556C181.825 157.267 181.157 154.818 181.725 152.088C182.293 149.358 183.882 147.379 185.276 147.669C186.669 147.959 187.338 150.407 186.77 153.137Z" fill="white"/>
</g>
</g>
<path d="M182.073 157.816L179.75 165.196C179.75 165.196 179.874 166.109 180.943 165.653C182.011 165.197 182.802 158.074 182.802 158.074L182.073 157.816Z" fill="#1A2E35"/>
<path d="M179.74 159.832L181.386 159.295L181.364 163.386C181.364 163.386 177.787 164.352 177.507 162.698L177.944 161.788C178.312 161.002 178.837 160.089 179.74 159.832Z" fill="#FF8C7B"/>
<path d="M183.909 160.349L183.491 162.66L181.363 163.383L181.387 159.295L183.909 160.349Z" fill="#FF8C7B"/>
<path d="M200.407 139.17L200.387 139.178L200.368 139.17L200.387 139.165L200.407 139.17Z" fill="#F0F0F0"/>
</g>
<mask id="mask28_155_35651" style="mask-type:luminance" maskUnits="userSpaceOnUse" x="0" y="0" width="267" height="268">
<path d="M0 0.59989H266.667V267.267H0V0.59989Z" fill="white"/>
</mask>
<g mask="url(#mask28_155_35651)">
<path d="M77.5879 92.6259C77.7559 92.5939 77.9351 92.7694 77.99 93.0238C78.0444 93.2782 77.9564 93.5171 77.7879 93.5491C77.6199 93.5816 77.4407 93.4062 77.3858 93.1512C77.318 92.8883 77.4194 92.6579 77.5879 92.6259Z" fill="#1A2E35"/>
<path d="M78.1131 96.0024C78.5563 96.0205 78.9851 95.8419 79.2843 95.5139C78.6373 94.9523 78.0704 94.3048 77.5984 93.5901L78.1131 96.0024Z" fill="#D24C38"/>
<path d="M76.2562 91.9051C76.5048 91.6011 76.885 91.4358 77.277 91.4614C77.293 91.4667 77.3101 91.4699 77.3272 91.4699C77.413 91.4694 77.4824 91.399 77.4818 91.3131C77.4813 91.2272 77.4114 91.1579 77.325 91.1584C76.836 91.112 76.3544 91.3056 76.0333 91.6784C76.0088 91.7062 75.9954 91.7419 75.9949 91.7792C75.9938 91.8651 76.0626 91.9355 76.1485 91.9366C76.1874 91.9403 76.2258 91.9291 76.2562 91.9051Z" fill="#1A2E35"/>
<path d="M74.566 107.47C70.1708 107.517 69.4983 105.125 69.4983 105.125C70.8028 103.847 70.869 101.503 70.59 99.4115C70.925 99.884 71.3442 100.295 71.8978 100.661C72.9495 101.352 74.0866 101.492 75.1154 101.237C75.1335 101.237 75.1522 101.23 75.1703 101.218C75.1586 101.261 75.1527 101.303 75.1468 101.346C74.8844 103.022 75.1175 104.814 76.8754 105.338C76.8754 105.338 79.4071 107.417 74.566 107.47Z" fill="#CA5B51"/>
<path d="M75.2917 100.6C75.2453 100.801 75.1984 101.003 75.1701 101.218C75.152 101.23 75.1339 101.237 75.1152 101.237C74.0864 101.492 72.9493 101.352 71.8981 100.661C71.3445 100.295 70.9248 99.884 70.5904 99.411C70.5237 98.8808 70.4261 98.363 70.3296 97.8878L75.1136 100.504L75.2917 100.6Z" fill="#CA5B51"/>
<path d="M68.1599 105.53C68.1599 105.53 68.8548 103.386 69.9028 102.708C70.9508 102.031 75.5514 102.734 76.2724 103.016C76.9935 103.298 77.721 104.96 77.721 104.96L68.1599 105.53Z" fill="#4CAF4F"/>
<path d="M65.7421 112.313C67.069 112.585 68.365 111.73 68.637 110.403C68.909 109.076 68.0536 107.78 66.7266 107.508L66.6968 107.483C64.7272 107.056 62.6914 106.559 60.7133 106.052C58.7352 105.546 58.0594 105.529 56.1842 104.867C55.7117 104.709 55.2552 104.532 54.8018 104.35L54.5512 104.255C54.509 104.243 54.469 104.226 54.4317 104.203C54.3106 104.138 54.1965 104.06 54.0898 103.973C53.4669 103.402 49.2706 97.9664 48.4957 96.1174L48.4706 96.0587C48.253 95.5627 47.7357 95.2688 47.1981 95.3355C46.5277 95.4192 46.052 96.031 46.1352 96.7019C46.3842 98.9435 50.4914 106.505 51.3298 107.47C51.597 107.759 51.8904 108.023 52.2066 108.258C52.5261 108.491 52.8685 108.692 53.2285 108.856C53.7389 109.105 57.3138 110.175 59.4253 110.786C61.5181 111.385 63.5896 111.9 65.7666 112.31L65.7421 112.313Z" fill="#CA5B51"/>
<path d="M48.2056 95.472L48.2307 95.8987C48.2616 96.3168 48.0275 96.7099 47.6451 96.8827C46.8936 97.1814 46.0787 97.2832 45.2771 97.1798L45.9331 93.4987L47.7406 94.6731C48.0142 94.8496 48.187 95.1467 48.2056 95.472Z" fill="#CA5B51"/>
<path d="M45.9277 93.4918L45.2717 97.1729L42.821 95.7259L42.7693 92.4017L45.9277 93.4918Z" fill="#CA5B51"/>
<path d="M66.5049 104.846C65.5614 104.986 61.8302 105.783 58.73 104.91L58.5278 111.241C58.5278 111.241 63.907 113.906 66.3449 111.981C68.8393 110.007 70.3129 106.583 66.5049 104.846Z" fill="#1A2E35"/>
<path d="M59.5759 112.898L57.1401 111.806L57.8393 104.239L60.1065 104.648L59.5759 112.898Z" fill="#4CAF4F"/>
<path d="M79.1575 104.615C78.4465 104.498 77.6497 104.389 76.8359 104.325C74.3857 104.209 71.9313 104.235 69.4844 104.404C69.4631 104.406 67.8892 104.555 67.8684 104.557C65.3057 104.746 62.7287 106.968 63.2444 109.485C66.0833 123.34 65.2732 131.075 65.0129 133.331L82.3116 133.144C84.0999 118.904 83.6071 111.725 82.9073 108.238C82.5319 106.369 81.0385 104.926 79.1575 104.615Z" fill="#1A2E35"/>
<mask id="mask29_155_35651" style="mask-type:luminance" maskUnits="userSpaceOnUse" x="76" y="109" width="8" height="25">
<path d="M76.927 109.485H83.5435V133.144H76.927V109.485Z" fill="white"/>
</mask>
<g mask="url(#mask29_155_35651)">
<g opacity="0.199997">
<path d="M82.8801 128.121L82.3291 133.144C83.4353 124.227 83.6582 118.083 83.4961 113.876L76.927 109.485C79.8913 118.793 80.8603 121.729 82.8801 128.121Z" fill="black"/>
</g>
</g>
<path d="M78.4398 97.0126C78.4083 98.6371 77.5198 100.008 76.276 100.754H76.2702C76.2643 100.76 76.2579 100.76 76.252 100.76C75.9182 100.971 75.5539 101.122 75.1704 101.218C75.1518 101.23 75.1336 101.237 75.1155 101.237C74.0862 101.492 72.9496 101.352 71.8979 100.661C71.3443 100.295 70.9251 99.884 70.5902 99.4115C69.7288 98.2302 69.3699 96.6526 68.7534 94.4371C68.5635 93.7859 68.5256 93.0963 68.6467 92.4296C69.0787 90.044 71.363 88.4627 73.7427 88.8947C77.0824 89.4878 78.5054 94.0451 78.4398 97.0126Z" fill="#CA5B51"/>
<mask id="mask30_155_35651" style="mask-type:luminance" maskUnits="userSpaceOnUse" x="75" y="99" width="2" height="3">
<path d="M75.1685 99.2623H76.2522V101.218H75.1685V99.2623Z" fill="white"/>
</mask>
<g mask="url(#mask30_155_35651)">
<g opacity="0.199997">
<path d="M76.252 100.76C75.9187 100.972 75.5539 101.122 75.1704 101.218C75.1518 101.23 75.2894 99.2628 75.2894 99.2628C75.2771 99.2302 76.02 100.763 76.252 100.76Z" fill="black"/>
</g>
</g>
<path d="M76.5184 95.3199C76.368 96.6858 75.6853 98.0223 74.552 98.7994C74.408 98.898 74.2549 98.9887 74.0848 99.0271C73.5243 99.1524 73.0011 98.6724 72.7467 98.1578C72.4171 97.4911 72.3467 96.7284 72.3195 95.9855C72.256 94.2324 72.4731 92.3124 73.7056 91.065C73.9957 90.7716 74.3616 90.5156 74.7739 90.5002C76.3429 90.441 76.6293 94.3167 76.5184 95.3199Z" fill="#1A2E35"/>
<path d="M69.6289 87.449C68.9639 87.2256 68.1708 87.4581 67.7319 88.0053C67.2929 88.553 67.2385 89.3781 67.6012 89.9786C66.2087 90.4101 64.8977 91.4528 64.6209 92.8842C64.3447 94.3157 65.5249 95.9808 66.9735 95.816C66.5425 96.1637 66.4049 96.8266 66.662 97.3162C66.9185 97.8064 67.5415 98.0704 68.0727 97.9141C69.2049 99.792 72.7255 100.201 74.4247 98.8154C74.8257 98.4885 74.5361 98.1482 74.6231 97.6384C74.7105 97.1285 74.4769 96.5429 73.9996 96.3434C74.1217 95.9189 74.2439 95.4949 74.3665 95.0709C74.0049 94.6725 73.6433 94.2741 73.2823 93.8762C74.2524 93.1242 75.2689 92.3109 75.6892 91.1578C76.1095 90.0048 75.6289 88.4346 74.4348 88.1504C75.2215 88.0064 75.6951 86.9818 75.294 86.2896C74.8721 85.5621 73.8321 85.5557 73.2572 86.0762C72.9244 85.6122 72.6508 85.105 72.0817 84.9514C69.8625 84.3504 69.2556 86.7317 69.6289 87.449Z" fill="#1A2E35"/>
<path d="M75.7187 92.9964C76.643 93.2673 77.1246 94.6289 77.1646 95.4935C77.2094 96.4492 76.5715 97.0524 75.7385 96.4129C75.1113 95.9201 74.6633 95.2353 74.4633 94.4631C74.2366 93.5271 74.795 92.7255 75.7187 92.9964Z" fill="#CA5B51"/>
<path d="M75.683 214.745C75.2094 214.811 74.7545 214.97 74.3433 215.211C74.9849 215.286 75.8548 215.265 76.0089 215.041C76.0452 215.008 76.0622 214.962 76.0041 214.862C75.9694 214.802 75.9086 214.761 75.8393 214.751C75.7876 214.745 75.7348 214.746 75.683 214.754V214.745ZM74.0894 215.354C74.0548 215.348 74.0276 215.321 74.0233 215.286C74.0158 215.253 74.0292 215.22 74.0574 215.203C74.1214 215.174 75.307 214.467 75.882 214.612C75.9929 214.632 76.0905 214.699 76.1492 214.795C76.2281 214.899 76.2324 215.042 76.1598 215.148C76.0228 215.353 75.6153 215.421 75.155 215.429C74.7982 215.435 74.442 215.409 74.0894 215.354Z" fill="#4CAF4F"/>
<path d="M74.924 213.939C74.8157 213.942 74.7133 213.987 74.6376 214.063C74.3885 214.366 74.2381 214.739 74.2077 215.131C74.628 214.866 75.1682 214.273 75.1245 214.04C75.1197 214.021 75.108 213.949 74.9608 213.952L74.9149 213.952L74.924 213.939ZM74.0568 215.336C74.0338 215.319 74.0194 215.292 74.0178 215.263C74.0216 215.221 74.069 214.299 74.5192 213.928C74.6434 213.818 74.8088 213.765 74.9746 213.782C75.2008 213.8 75.2818 213.913 75.2845 214.005C75.3602 214.402 74.5576 215.147 74.1448 215.344L74.1122 215.344C74.0936 215.348 74.0738 215.345 74.0568 215.336Z" fill="#4CAF4F"/>
<path d="M70.469 207.423L73.8904 207.357L73.765 215.268L70.324 215.335L70.469 207.423Z" fill="#CA5B51"/>
<path d="M74.5708 215.124C76.9415 216.512 77.6615 216.562 80.3793 217.099C80.9735 217.216 80.6279 218.656 79.2119 218.684C76.8689 218.729 76.6215 218.623 74.6241 218.662C72.9132 218.694 70.9505 218.811 69.5905 218.86C69.5484 218.862 69.5063 218.858 69.4657 218.849C69.1964 218.79 69.0247 218.525 69.0817 218.257L69.6844 215.186C69.7132 215.049 69.8327 214.95 69.9735 214.947L73.7356 214.874C74.0311 214.878 74.3207 214.965 74.5708 215.124Z" fill="#1A2E35"/>
<mask id="mask31_155_35651" style="mask-type:luminance" maskUnits="userSpaceOnUse" x="70" y="207" width="4" height="5">
<path d="M70.3931 207.361H73.8907V211.493H70.3931V207.361Z" fill="white"/>
</mask>
<g mask="url(#mask31_155_35651)">
<g opacity="0.199997">
<path d="M70.4645 207.427L70.3931 211.492L73.8288 211.426L73.8907 207.361L70.4645 207.427Z" fill="black"/>
</g>
</g>
<path d="M44.8035 214.273C44.8585 214.744 45.0035 215.198 45.2302 215.613C45.323 214.973 45.3171 214.107 45.0953 213.951C45.0675 213.915 45.0169 213.898 44.9161 213.955C44.8553 213.989 44.8137 214.049 44.8025 214.118C44.795 214.169 44.7955 214.222 44.8035 214.273ZM45.3747 215.867C45.3694 215.9 45.3438 215.927 45.3107 215.932C45.2771 215.94 45.2425 215.924 45.2275 215.892C45.195 215.834 44.5113 214.64 44.6691 214.07C44.6947 213.962 44.7619 213.869 44.8558 213.81C44.9619 213.731 45.1059 213.729 45.2142 213.803C45.4126 213.945 45.4702 214.352 45.4734 214.81C45.4713 215.164 45.4382 215.518 45.3747 215.867Z" fill="#4CAF4F"/>
<path d="M43.9804 215.027C43.9857 215.131 44.0268 215.232 44.0972 215.308C44.3964 215.56 44.7665 215.712 45.158 215.747C44.902 215.326 44.319 214.777 44.0849 214.818C44.0668 214.818 43.9932 214.83 43.9937 214.976C43.9937 214.994 43.9942 215.026 43.9942 215.026L43.9804 215.027ZM45.3702 215.899C45.3548 215.924 45.3254 215.937 45.2972 215.932C45.2598 215.929 44.3302 215.868 43.9734 215.416C43.8636 215.292 43.8124 215.127 43.8332 214.961C43.8545 214.74 43.9692 214.66 44.0609 214.658C44.4513 214.592 45.1921 215.402 45.3793 215.812C45.3804 215.822 45.3804 215.833 45.3793 215.844C45.3841 215.863 45.3809 215.882 45.3702 215.899Z" fill="#4CAF4F"/>
<path d="M47.1509 207.859L50.4928 208.03L48.6896 216.042L45.3242 215.868L47.1509 207.859Z" fill="#CA5B51"/>
<path d="M44.512 215.443C43.6117 216.53 43.1355 217.091 40.5045 217.97C39.9243 218.161 40.4496 219.543 41.8603 219.391C44.1931 219.139 42.9067 219.168 44.8928 218.955C46.5931 218.769 48.5563 218.639 49.9109 218.517C49.9568 218.514 50.0021 218.505 50.0453 218.491C50.3088 218.401 50.4523 218.116 50.3653 217.854L49.3872 214.886C49.3451 214.752 49.2128 214.668 49.0725 214.685L45.3328 215.088C45.024 215.093 44.7285 215.221 44.512 215.443Z" fill="#1A2E35"/>
<mask id="mask32_155_35651" style="mask-type:luminance" maskUnits="userSpaceOnUse" x="46" y="207" width="5" height="6">
<path d="M46.2114 207.864H50.4924V212.151H46.2114V207.864Z" fill="white"/>
</mask>
<g mask="url(#mask32_155_35651)">
<g opacity="0.199997">
<path d="M47.1464 207.864L46.2114 211.978L49.5629 212.15L50.4925 208.03L47.1464 207.864Z" fill="black"/>
</g>
</g>
<path d="M65.0134 133.331C65.0134 133.331 63.2 136.234 61.9782 139.767C60.2502 144.765 60.9542 147.344 60.4112 150.714C59.455 156.647 57.9355 161.213 56.8971 165.72C53.655 179.824 45.5024 209.622 45.5024 209.622L51.5627 210.826C51.5627 210.826 63.3366 176.155 66.3019 166.055C68.9755 156.965 75.8219 133.084 75.8219 133.084L65.0134 133.331Z" fill="#4CAF4F"/>
<path d="M65.0134 133.331C65.0134 133.331 63.2 136.234 61.9782 139.767C60.2502 144.765 60.9542 147.344 60.4112 150.714C59.455 156.647 57.9355 161.213 56.8971 165.72C53.655 179.824 45.5024 209.622 45.5024 209.622L51.5627 210.826C51.5627 210.826 63.3366 176.155 66.3019 166.055C68.9755 156.965 75.8219 133.084 75.8219 133.084L65.0134 133.331Z" fill="#4CAF4F"/>
<path d="M44.7718 208.523L44.7532 210.669L52.0358 211.304C52.0358 211.304 52.631 208.948 52.6038 208.948L44.7718 208.523Z" fill="#4CAF4F"/>
<mask id="mask33_155_35651" style="mask-type:luminance" maskUnits="userSpaceOnUse" x="66" y="144" width="7" height="23">
<path d="M66.0837 144.034H72.6576V166.806H66.0837V144.034Z" fill="white"/>
</mask>
<g mask="url(#mask33_155_35651)">
<g opacity="0.300003">
<path d="M72.6574 144.089C70.499 151.585 67.7656 161.073 66.3059 166.05C66.2355 166.291 66.1571 166.54 66.0835 166.806C66.5262 158.532 67.859 144.652 72.0019 144.056C72.22 144.018 72.4446 144.03 72.6574 144.089Z" fill="black"/>
</g>
</g>
<path d="M70.5769 133.185C70.5769 133.185 69.2851 155.983 69.3097 166.748C69.3331 176.78 69.4745 210.721 69.4745 210.721L75.2883 210.609C75.2883 210.609 78.6489 175.985 79.4665 165.779C80.2457 156.116 82.3118 133.144 82.3118 133.144L70.5769 133.185Z" fill="#4CAF4F"/>
<path d="M70.5769 133.185C70.5769 133.185 69.2851 155.983 69.3097 166.748C69.3331 176.78 69.4745 210.721 69.4745 210.721L75.2883 210.609C75.2883 210.609 78.6489 175.985 79.4665 165.779C80.2457 156.116 82.3118 133.144 82.3118 133.144L70.5769 133.185Z" fill="#4CAF4F"/>
<path d="M68.5684 208.699L68.8121 210.829L75.882 210.693C75.882 210.693 76.1652 208.293 76.1374 208.293L68.5684 208.699Z" fill="#4CAF4F"/>
<path d="M91.8525 99.1279L93.6179 97.9045C94.0189 99.8239 95.8461 101.327 97.2307 102.216C97.8925 102.64 98.1395 103.616 97.6712 103.94L96.5229 104.736C95.1304 105.701 91.8525 99.1279 91.8525 99.1279Z" fill="#4CAF4F"/>
<path d="M91.1533 99.6126L95.1971 96.8099C96.5096 95.9006 96.8397 94.0819 95.9299 92.7694C95.02 91.4569 93.2019 91.1267 91.8888 92.0366L87.8451 94.8393C86.5325 95.7486 86.2029 97.5673 87.1128 98.8798C88.0221 100.192 89.8408 100.522 91.1533 99.6126Z" fill="#4CAF4F"/>
<mask id="mask34_155_35651" style="mask-type:luminance" maskUnits="userSpaceOnUse" x="86" y="91" width="11" height="10">
<path d="M86.5984 91.5224H96.4443V100.127H86.5984V91.5224Z" fill="white"/>
</mask>
<g mask="url(#mask34_155_35651)">
<g opacity="0.300003">
<path d="M91.1536 99.6126L95.1973 96.8099C96.5098 95.9006 96.84 94.0819 95.9301 92.7694C95.0202 91.4569 93.2021 91.1267 91.889 92.0366L87.8453 94.8393C86.5328 95.7486 86.2032 97.5673 87.113 98.8798C88.0224 100.192 89.841 100.522 91.1536 99.6126Z" fill="black"/>
</g>
</g>
<path d="M103.589 95.2453L96.0064 98.4437C95.4075 98.8587 90.0448 91.1205 90.6432 90.7051L96.3003 84.728L103.589 95.2453Z" fill="#4CAF4F"/>
<path d="M99.3939 90.3688C101.407 93.2728 103.285 95.4563 103.59 95.2456C103.894 95.0344 102.509 92.5091 100.496 89.6045C98.4835 86.7005 96.6051 84.5171 96.3005 84.7277C95.996 84.9389 97.3811 87.4643 99.3939 90.3688Z" fill="#4CAF4F"/>
<mask id="mask35_155_35651" style="mask-type:luminance" maskUnits="userSpaceOnUse" x="96" y="84" width="8" height="12">
<path d="M96.2588 84.7139H103.632V95.2595H96.2588V84.7139Z" fill="white"/>
</mask>
<g mask="url(#mask35_155_35651)">
<g opacity="0.300003">
<path d="M99.3939 90.3688C101.407 93.2728 103.285 95.4563 103.59 95.2456C103.894 95.0344 102.509 92.5091 100.496 89.6045C98.4835 86.7005 96.6051 84.5171 96.3005 84.7277C95.996 84.9389 97.3811 87.4643 99.3939 90.3688Z" fill="black"/>
</g>
</g>
<path d="M101.224 89.4272C100.732 88.7168 99.6974 88.4677 99.3598 88.7018C99.0217 88.936 99.1465 89.7018 99.6388 90.4117C100.131 91.1221 100.804 91.5077 101.142 91.2736C101.48 91.0394 101.716 90.1376 101.224 89.4272Z" fill="#4CAF4F"/>
<path d="M91.2847 102.649L91.8303 101.143C92.1657 100.217 92.7812 99.4178 93.5908 98.8568L94.7204 98.0738C94.9412 97.9208 95.2441 97.9736 95.3983 98.1938C95.8655 98.8616 96.7508 100.289 96.8879 101.694C96.9193 102.013 96.7791 102.326 96.5193 102.515L94.0841 104.148C93.7001 104.445 93.2457 104.594 92.9012 104.252L91.2847 102.649Z" fill="#CA5B51"/>
<path d="M94.0083 103.084L92.2627 110.404C92.2072 110.642 92.1464 110.874 92.0856 111.1C90.6142 116.563 87.7752 119.463 86.475 118.791C85.1256 118.095 82.3118 114.921 82.3118 114.921L85.547 112.363L86.475 113.144L91.5416 102.199L92.2627 100.673C92.2627 100.673 94.5395 100.661 94.0083 103.084Z" fill="#CA5B51"/>
<path d="M92.2625 110.404L92.0977 111.106L92.0854 111.1C92.1462 110.874 92.207 110.642 92.2625 110.404Z" fill="#CA5B51"/>
<path d="M82.6655 106.132C85.6335 108.558 87.4495 113.721 87.4495 113.721L82.6543 116.763C82.6543 116.763 76.362 112.3 76.8511 108.06C77.2185 104.815 79.0004 103.122 82.6655 106.132Z" fill="#1A2E35"/>
<path d="M79.8914 115.732L81.5884 117.533L88.1911 113.29L87.1698 111.199L79.8914 115.732Z" fill="#4CAF4F"/>
<path d="M104.688 87.1256L108.129 78.8797L110.862 80.3933L104.688 87.1256Z" fill="#1A2E35"/>
<path d="M105.04 90.0944L113.961 89.585L113.44 86.505L105.04 90.0944Z" fill="#1A2E35"/>
<path d="M107.269 87.2076L114.09 79.2791L116.791 82.2423L107.269 87.2076Z" fill="#1A2E35"/>
<path d="M39.3555 85.1219V92.3438L46.1261 95.9283V88.0915L39.3555 85.1219Z" fill="#4CAF4F"/>
<mask id="mask36_155_35651" style="mask-type:luminance" maskUnits="userSpaceOnUse" x="39" y="85" width="8" height="11">
<path d="M39.3555 85.1219H46.1259V95.9283H39.3555V85.1219Z" fill="white"/>
</mask>
<g mask="url(#mask36_155_35651)">
<g opacity="0.100006">
<path d="M39.3552 85.1219V92.3438L46.1259 95.9283V88.0915L39.3552 85.1219Z" fill="black"/>
</g>
</g>
<path d="M52.8964 85.1219V92.3438L46.1262 95.9283V88.0915L52.8964 85.1219Z" fill="#4CAF4F"/>
<mask id="mask37_155_35651" style="mask-type:luminance" maskUnits="userSpaceOnUse" x="46" y="85" width="7" height="11">
<path d="M46.126 85.1219H52.8964V95.9283H46.126V85.1219Z" fill="white"/>
</mask>
<g mask="url(#mask37_155_35651)">
<g opacity="0.199997">
<path d="M52.8964 85.1219V92.3438L46.1262 95.9283V88.0915L52.8964 85.1219Z" fill="black"/>
</g>
</g>
<path d="M39.3555 85.122L46.1261 88.0916L52.8963 85.122L46.1261 81.7188L39.3555 85.122Z" fill="#4CAF4F"/>
<path d="M49.1589 86.7612V91.2471L49.5115 90.6588L49.7227 90.9719L49.9451 90.4647L50.1696 90.7799V86.318L49.1589 86.7612Z" fill="#1A2E35"/>
<path d="M49.1588 86.7612L42.2554 83.6642L43.3711 83.1036L50.1695 86.318L49.1588 86.7612Z" fill="#1A2E35"/>
</g>
<mask id="mask38_155_35651" style="mask-type:luminance" maskUnits="userSpaceOnUse" x="0" y="0" width="267" height="268">
<path d="M0 0.59989H266.667V267.267H0V0.59989Z" fill="white"/>
</mask>
<g mask="url(#mask38_155_35651)">
<path d="M148.601 216.512H136.166C136.166 215.66 137.746 214.921 139.993 214.613V209.304H144.769V214.613C147.016 214.921 148.601 215.655 148.601 216.512Z" fill="#4CAF4F"/>
<mask id="mask39_155_35651" style="mask-type:luminance" maskUnits="userSpaceOnUse" x="136" y="209" width="13" height="8">
<path d="M136.166 209.304H148.601V216.512H136.166V209.304Z" fill="white"/>
</mask>
<g mask="url(#mask39_155_35651)">
<g opacity="0.399994">
<path d="M148.601 216.512H136.166C136.166 215.66 137.746 214.921 139.993 214.613V209.304H144.769V214.613C147.016 214.921 148.601 215.655 148.601 216.512Z" fill="black"/>
</g>
</g>
<path d="M162.669 210.813H122.254V189.079H162.669V210.813Z" fill="#4CAF4F"/>
<mask id="mask40_155_35651" style="mask-type:luminance" maskUnits="userSpaceOnUse" x="122" y="189" width="41" height="22">
<path d="M122.254 189.079H162.669V210.813H122.254V189.079Z" fill="white"/>
</mask>
<g mask="url(#mask40_155_35651)">
<g opacity="0.199997">
<path d="M162.669 210.813H122.254V189.079H162.669V210.813Z" fill="black"/>
</g>
</g>
<mask id="mask41_155_35651" style="mask-type:luminance" maskUnits="userSpaceOnUse" x="123" y="190" width="39" height="19">
<path d="M123.193 190.071H161.574V208.336H123.193V190.071Z" fill="white"/>
</mask>
<g mask="url(#mask41_155_35651)">
<g opacity="0.199997">
<path d="M161.574 208.336H123.193V190.071H161.574V208.336Z" fill="black"/>
</g>
</g>
<mask id="mask42_155_35651" style="mask-type:luminance" maskUnits="userSpaceOnUse" x="139" y="210" width="6" height="2">
<path d="M139.993 210.813H144.769V211.965H139.993V210.813Z" fill="white"/>
</mask>
<g mask="url(#mask42_155_35651)">
<g opacity="0.199997">
<path d="M144.769 211.965H139.993V210.813H144.769V211.965Z" fill="black"/>
</g>
</g>
<path d="M139.993 195.998V203.894L147.008 199.946L139.993 195.998Z" fill="white"/>
<path d="M119.777 186.026C119.728 186.58 119.24 187.029 118.687 187.029H111.595C111.041 187.029 110.632 186.58 110.68 186.026L110.774 184.952H119.871L119.777 186.026Z" fill="#4CAF4F"/>
<path d="M105.651 187.298L102.937 218.323C102.793 219.969 104.016 221.309 105.662 221.309H118.577C120.223 221.309 121.68 219.969 121.824 218.323L124.538 187.298C124.682 185.652 123.46 184.313 121.814 184.313H108.898C107.252 184.313 105.795 185.652 105.651 187.298Z" fill="#4CAF4F"/>
<mask id="mask43_155_35651" style="mask-type:luminance" maskUnits="userSpaceOnUse" x="102" y="184" width="23" height="38">
<path d="M102.926 184.313H124.55V221.309H102.926V184.313Z" fill="white"/>
</mask>
<g mask="url(#mask43_155_35651)">
<g opacity="0.399994">
<path d="M119.777 186.026C119.728 186.58 119.24 187.029 118.687 187.029H111.595C111.041 187.029 110.632 186.58 110.68 186.026L110.774 184.952H119.871L119.777 186.026Z" fill="black"/>
<path d="M105.651 187.298L102.937 218.323C102.793 219.969 104.016 221.309 105.662 221.309H118.577C120.223 221.309 121.68 219.969 121.824 218.323L124.538 187.298C124.682 185.652 123.46 184.313 121.814 184.313H108.898C107.252 184.313 105.795 185.652 105.651 187.298Z" fill="#4CAF4F"/>
</g>
</g>
<path d="M108.045 184.95H120.961C122.266 184.95 123.231 186.008 123.117 187.314L120.402 218.338C120.289 219.643 119.138 220.7 117.833 220.7H104.918C103.612 220.7 102.647 219.643 102.762 218.338L105.476 187.314C105.59 186.008 106.74 184.95 108.045 184.95Z" fill="#4CAF4F"/>
<mask id="mask44_155_35651" style="mask-type:luminance" maskUnits="userSpaceOnUse" x="102" y="184" width="22" height="37">
<path d="M102.752 184.95H123.126V220.701H102.752V184.95Z" fill="white"/>
</mask>
<g mask="url(#mask44_155_35651)">
<g opacity="0.300003">
<path d="M108.045 184.95H120.961C122.266 184.95 123.231 186.008 123.117 187.314L120.402 218.338C120.289 219.643 119.138 220.7 117.833 220.7H104.918C103.612 220.7 102.647 219.643 102.762 218.338L105.476 187.314C105.59 186.008 106.74 184.95 108.045 184.95Z" fill="white"/>
</g>
</g>
<path d="M105.476 187.313C105.59 186.008 106.741 184.95 108.045 184.95H120.961C122.266 184.95 123.232 186.008 123.117 187.313L120.403 218.337C120.289 219.642 119.138 220.701 117.833 220.701H104.918C103.613 220.701 102.648 219.642 102.762 218.337L105.476 187.313ZM104.853 187.313L102.139 218.337C101.995 219.984 103.217 221.324 104.864 221.324H117.778C119.425 221.324 120.882 219.984 121.026 218.337L123.74 187.313C123.884 185.667 122.662 184.327 121.015 184.327H108.1C106.453 184.327 104.997 185.667 104.853 187.313Z" fill="white"/>
<path d="M119.072 184.967C118.994 185.863 118.204 186.589 117.307 186.589H111.457C110.56 186.589 109.897 185.863 109.976 184.967H119.072Z" fill="white"/>
<path d="M112.721 204.105L110.216 203.614C110.695 205.895 109.421 208.403 108.336 210.03C107.818 210.809 108.014 211.988 108.678 212.118L110.308 212.437C112.284 212.825 112.721 204.105 112.721 204.105Z" fill="#4CAF4F"/>
<path d="M113.714 204.3L107.975 203.175C106.112 202.81 104.887 200.987 105.252 199.124C105.618 197.261 107.44 196.036 109.303 196.401L115.042 197.525C116.905 197.891 118.131 199.714 117.765 201.577C117.4 203.44 115.577 204.665 113.714 204.3Z" fill="#4CAF4F"/>
<mask id="mask45_155_35651" style="mask-type:luminance" maskUnits="userSpaceOnUse" x="105" y="196" width="13" height="9">
<path d="M105.188 196.336H117.83V204.364H105.188V196.336Z" fill="white"/>
</mask>
<g mask="url(#mask45_155_35651)">
<g opacity="0.300003">
<path d="M113.714 204.3L107.975 203.175C106.112 202.81 104.887 200.987 105.252 199.124C105.618 197.261 107.44 196.036 109.303 196.401L115.042 197.525C116.905 197.891 118.131 199.714 117.765 201.577C117.4 203.44 115.577 204.665 113.714 204.3Z" fill="black"/>
</g>
</g>
<path d="M98.0911 205.47L107.872 205.339C108.723 205.506 110.876 194.524 110.025 194.357L101.017 190.544L98.0911 205.47Z" fill="#4CAF4F"/>
<path d="M100.336 198.16C99.5285 202.282 98.5231 205.554 98.0911 205.47C97.6591 205.385 97.9637 201.975 98.7717 197.854C99.5797 193.731 100.585 190.459 101.017 190.544C101.449 190.629 101.144 194.038 100.336 198.16Z" fill="#4CAF4F"/>
<mask id="mask46_155_35651" style="mask-type:luminance" maskUnits="userSpaceOnUse" x="97" y="190" width="5" height="16">
<path d="M97.8948 190.542H101.213V205.471H97.8948V190.542Z" fill="white"/>
</mask>
<g mask="url(#mask46_155_35651)">
<g opacity="0.300003">
<path d="M100.336 198.16C99.5285 202.282 98.5231 205.554 98.0911 205.47C97.6591 205.385 97.9637 201.975 98.7717 197.854C99.5797 193.731 100.585 190.459 101.017 190.544C101.449 190.629 101.144 194.038 100.336 198.16Z" fill="black"/>
</g>
</g>
<path d="M97.8946 198.007C98.0925 196.999 99.0994 196.235 99.5789 196.329C100.058 196.423 100.287 197.316 100.09 198.324C99.8925 199.331 99.3431 200.073 98.8637 199.978C98.3837 199.885 97.6973 199.015 97.8946 198.007Z" fill="#4CAF4F"/>
<path d="M115.273 206.79L113.962 205.41C113.155 204.561 112.104 203.984 110.955 203.758L109.352 203.445C109.039 203.383 108.734 203.585 108.671 203.898C108.48 204.849 108.197 206.824 108.716 208.419C108.834 208.782 109.136 209.056 109.509 209.138L112.94 209.756C113.499 209.897 114.065 209.843 114.277 209.306L115.273 206.79Z" fill="#FFC1BB"/>
<path d="M114.521 210.244L120.426 218.069L121.015 211.341L115.273 206.79C115.273 206.79 112.786 207.857 114.521 210.244Z" fill="#FFC1BB"/>
<path d="M95.258 196.363L88.4654 190.558L86.7097 193.143L95.258 196.363Z" fill="white"/>
<path d="M96.2835 199.171L88.0941 202.744L87.1677 199.76L96.2835 199.171Z" fill="white"/>
<path d="M92.9923 197.601L83.3262 193.605L82.2537 197.469L92.9923 197.601Z" fill="white"/>
</g>
<mask id="mask47_155_35651" style="mask-type:luminance" maskUnits="userSpaceOnUse" x="0" y="0" width="267" height="268">
<path d="M0 0.59989H266.667V267.267H0V0.59989Z" fill="white"/>
</mask>
<g mask="url(#mask47_155_35651)">
<path d="M113.365 124.107L111.624 133.253H113.8L116.847 125.957C116.847 125.957 116.629 123.673 113.365 124.107Z" fill="#4CAF4F"/>
<path d="M132.404 124.107L134.145 133.253H131.969L128.923 125.957C128.923 125.957 129.14 123.673 132.404 124.107Z" fill="#4CAF4F"/>
<mask id="mask48_155_35651" style="mask-type:luminance" maskUnits="userSpaceOnUse" x="111" y="124" width="6" height="10">
<path d="M111.625 124.052H116.846V133.253H111.625V124.052Z" fill="white"/>
</mask>
<g mask="url(#mask48_155_35651)">
<g opacity="0.300003">
<path d="M113.365 124.107L111.624 133.253H113.8L116.847 125.957C116.847 125.957 116.629 123.673 113.365 124.107Z" fill="black"/>
</g>
</g>
<mask id="mask49_155_35651" style="mask-type:luminance" maskUnits="userSpaceOnUse" x="128" y="124" width="7" height="10">
<path d="M128.923 124.052H134.145V133.253H128.923V124.052Z" fill="white"/>
</mask>
<g mask="url(#mask49_155_35651)">
<g opacity="0.300003">
<path d="M132.404 124.107L134.145 133.253H131.969L128.923 125.957C128.923 125.957 129.14 123.673 132.404 124.107Z" fill="black"/>
</g>
</g>
<path d="M139.187 112.726C139.187 121.741 131.879 129.049 122.864 129.049C113.849 129.049 106.541 121.741 106.541 112.726C106.541 103.711 113.849 96.4024 122.864 96.4024C131.879 96.4024 139.187 103.711 139.187 112.726Z" fill="#4CAF4F"/>
<path d="M135.686 112.726C135.686 119.692 130.039 125.339 123.073 125.339C116.107 125.339 110.46 119.692 110.46 112.726C110.46 105.76 116.107 100.113 123.073 100.113C130.039 100.113 135.686 105.76 135.686 112.726Z" fill="white"/>
<path d="M132.999 112.726C132.999 118.323 128.462 122.861 122.864 122.861C117.266 122.861 112.729 118.323 112.729 112.726C112.729 107.128 117.266 102.59 122.864 102.59C128.462 102.59 132.999 107.128 132.999 112.726Z" fill="#4CAF4F"/>
<path d="M130.695 112.726C130.695 117.051 127.189 120.557 122.864 120.557C118.539 120.557 115.032 117.051 115.032 112.726C115.032 108.4 118.539 104.894 122.864 104.894C127.189 104.894 130.695 108.4 130.695 112.726Z" fill="white"/>
<path d="M120.602 112.726C120.602 113.975 121.615 114.988 122.864 114.988C124.113 114.988 125.126 113.975 125.126 112.726C125.126 111.476 124.113 110.463 122.864 110.463C121.615 110.463 120.602 111.476 120.602 112.726Z" fill="#4CAF4F"/>
<path d="M140.983 86.9321V91.0713L136.527 96.4004H136.52L135.684 93.1711L140.983 86.9321Z" fill="#4CAF4F"/>
<path d="M123.098 112.921L122.63 112.529L140.749 90.8752L141.217 91.2667L123.098 112.921Z" fill="#1A2E35"/>
<path d="M144.67 91.1444L140.256 96.4004H136.526L140.983 91.0713L144.67 91.1444Z" fill="#4CAF4F"/>
<mask id="mask50_155_35651" style="mask-type:luminance" maskUnits="userSpaceOnUse" x="136" y="91" width="9" height="6">
<path d="M136.526 91.0713H144.67V96.4004H136.526V91.0713Z" fill="white"/>
</mask>
<g mask="url(#mask50_155_35651)">
<g opacity="0.199997">
<path d="M144.67 91.1444L140.256 96.4004H136.526L140.983 91.0713L144.67 91.1444Z" fill="black"/>
</g>
</g>
</g>
<mask id="mask51_155_35651" style="mask-type:luminance" maskUnits="userSpaceOnUse" x="0" y="0" width="267" height="268">
<path d="M0 0.59989H266.667V267.267H0V0.59989Z" fill="white"/>
</mask>
<g mask="url(#mask51_155_35651)">
<path d="M145.072 114.749L143.655 112.062C143.655 112.062 144.743 110.104 146.049 110.031C147.354 109.958 148.732 111.119 148.732 111.119L150.401 110.422L149.145 115.138C149.145 115.138 146.851 117.002 145.072 114.749Z" fill="#4CAF4F"/>
<path d="M156.071 124.707C156.071 130.693 152.304 133.122 147.657 133.122C143.009 133.122 139.242 129.354 139.242 124.707C139.242 120.06 143.009 114.131 147.657 114.131C147.657 114.131 156.071 119.227 156.071 124.707Z" fill="#4CAF4F"/>
<mask id="mask52_155_35651" style="mask-type:luminance" maskUnits="userSpaceOnUse" x="139" y="114" width="18" height="20">
<path d="M139.242 114.13H156.072V133.121H139.242V114.13Z" fill="white"/>
</mask>
<g mask="url(#mask52_155_35651)">
<g opacity="0.199997">
<path d="M156.071 124.707C156.071 130.693 152.304 133.122 147.657 133.122C143.009 133.122 139.242 129.354 139.242 124.707C139.242 120.06 143.009 114.131 147.657 114.131C147.657 114.131 156.071 119.227 156.071 124.707Z" fill="black"/>
</g>
</g>
<path d="M149.017 125.916C149.017 125.653 148.808 125.488 148.49 125.371L148.245 126.616C148.735 126.516 149.017 126.262 149.017 125.916ZM147.89 123.807L148.153 122.498C147.636 122.598 147.345 122.879 147.336 123.225C147.336 123.507 147.563 123.671 147.89 123.807ZM150.49 125.68C150.49 126.889 149.518 127.698 147.999 127.825L147.799 128.825H146.89L147.09 127.825C146.226 127.743 145.463 127.471 144.999 127.125L145.608 125.998C146.09 126.352 146.699 126.579 147.327 126.643L147.636 125.107C146.79 124.853 145.863 124.517 145.863 123.416C145.863 122.207 146.854 121.389 148.399 121.279L148.599 120.279H149.509L149.308 121.289C149.954 121.352 150.545 121.534 150.981 121.807L150.427 122.934C150.036 122.671 149.563 122.515 149.072 122.461L148.754 124.061C149.59 124.307 150.49 124.634 150.49 125.68Z" fill="white"/>
</g>
</g>
<defs>
<clipPath id="clip0_155_35651">
<rect width="266.667" height="266.667" fill="white" transform="translate(0 0.599854)"/>
</clipPath>
</defs>
</svg>
