<svg width="400" height="237" viewBox="0 0 400 237" fill="none" xmlns="http://www.w3.org/2000/svg">
<g clip-path="url(#clip0_155_35392)">
<path d="M196.105 83.8315C202.787 90.5147 202.787 101.35 196.105 108.034C189.421 114.717 178.585 114.717 171.902 108.034C165.218 101.35 165.219 90.5152 171.902 83.8315C178.585 77.1488 189.421 77.1483 196.105 83.8315ZM155.572 77.3072C153.196 80.9248 151.599 84.8981 150.748 88.9968L144.22 89.6117L144.22 102.253L150.748 102.868C151.598 106.966 153.196 110.939 155.572 114.558L151.403 119.593L160.342 128.532L165.378 124.363C168.996 126.739 172.969 128.337 177.067 129.187L177.682 135.715L190.323 135.714L190.938 129.187C195.036 128.336 199.01 126.739 202.628 124.363L207.663 128.532L216.603 119.593L212.434 114.557C214.809 110.939 216.407 106.966 217.258 102.868L223.785 102.253L223.786 89.6117L217.258 88.9963C216.407 84.8987 214.809 80.9253 212.433 77.3077L216.602 72.2715L207.663 63.3328L202.628 67.5019C199.009 65.1264 195.036 63.528 190.938 62.6773L190.323 56.1493L177.682 56.1499L177.067 62.6779C172.969 63.5285 168.996 65.1259 165.378 67.5013L160.342 63.3317L151.403 72.2715L155.572 77.3072Z" fill="#DADBD8"/>
<path d="M120.708 58.8773C124.468 62.6384 124.469 68.7371 120.708 72.4982C116.946 76.2598 110.847 76.2598 107.086 72.4987C103.325 68.7371 103.325 62.6389 107.086 58.8773C110.848 55.1163 116.946 55.1157 120.708 58.8773ZM97.8959 55.2054C96.5589 57.2416 95.6597 59.4779 95.1807 61.7845L91.5071 62.1301L91.5066 69.2448L95.1807 69.591C95.6597 71.8976 96.5589 74.1339 97.8959 76.1701L95.5493 79.0043L100.58 84.0352L103.414 81.6891C105.451 83.0256 107.687 83.9248 109.994 84.4038L110.339 88.0779L117.454 88.0773L117.8 84.4038C120.107 83.9248 122.343 83.0256 124.379 81.6891L127.213 84.0352L132.244 79.0043L129.898 76.1701C131.235 74.1339 132.134 71.8976 132.613 69.591L136.286 69.2448L136.287 62.1301L132.613 61.784C132.134 59.4779 131.235 57.2416 129.898 55.2059L132.244 52.3712L127.213 47.3403L124.379 49.6869C122.342 48.3499 120.106 47.4501 117.8 46.9712L117.454 43.2976L110.339 43.2982L109.994 46.9717C107.687 47.4507 105.451 48.3494 103.415 49.6864L100.58 47.3398L95.5493 52.3712L97.8959 55.2054Z" fill="#DADBD8"/>
<path d="M128.491 26.121C130.371 28.001 130.371 31.049 128.491 32.9284C126.611 34.8084 123.563 34.8084 121.683 32.929C119.803 31.049 119.803 28.001 121.683 26.121C123.563 24.2415 126.611 24.2415 128.491 26.121ZM117.09 24.2858C116.422 25.3034 115.972 26.4212 115.733 27.5743L113.897 27.7471L113.896 31.3028L115.733 31.4756C115.972 32.6287 116.422 33.746 117.09 34.7636L115.917 36.1802L118.431 38.6948L119.848 37.522C120.866 38.1903 121.983 38.6394 123.136 38.8788L123.309 40.7151H126.864L127.038 38.8788C128.19 38.6394 129.308 38.1903 130.326 37.522L131.742 38.6948L134.257 36.1802L133.084 34.7636C133.752 33.746 134.202 32.6287 134.441 31.4756L136.277 31.3028L136.277 27.7471L134.441 27.5738C134.202 26.4212 133.752 25.3039 133.084 24.2863L134.256 22.8692L131.742 20.3551L130.326 21.5279C129.308 20.8596 128.19 20.41 127.038 20.1706L126.865 18.3343L123.309 18.3348L123.136 20.1711C121.983 20.4106 120.866 20.8596 119.848 21.5279L118.431 20.3551L115.917 22.8692L117.09 24.2858Z" fill="#DADBD8"/>
<path d="M88.3015 128.876L65.3548 133.39C64.3399 133.59 63.3553 132.929 63.1559 131.914L57.1495 101.386C56.9495 100.371 57.6103 99.3867 58.6252 99.1872L81.5719 94.672C82.5868 94.4725 83.5713 95.1333 83.7708 96.1483L89.7772 126.676C89.9772 127.691 89.3164 128.676 88.3015 128.876Z" fill="#E2E2E0"/>
<path d="M79.4678 105.183L64.5548 108.118C64.0417 108.219 63.5441 107.885 63.4433 107.372L63.3617 106.958C63.2609 106.445 63.5948 105.947 64.1078 105.846L79.0209 102.912C79.5334 102.811 80.031 103.145 80.1318 103.658L80.2134 104.072C80.3142 104.585 79.9804 105.083 79.4678 105.183Z" fill="#EDEDEB"/>
<path d="M80.6106 110.994L65.6975 113.928C65.185 114.029 64.6874 113.695 64.5866 113.182L64.505 112.768C64.4042 112.255 64.7381 111.758 65.2506 111.657L80.1637 108.723C80.6767 108.622 81.1743 108.956 81.2751 109.469L81.3567 109.883C81.4575 110.396 81.1237 110.893 80.6106 110.994Z" fill="#EDEDEB"/>
<path d="M81.7542 116.805L66.8411 119.739C66.3281 119.84 65.8305 119.506 65.7297 118.993L65.6481 118.579C65.5473 118.066 65.8811 117.569 66.3942 117.468L81.3073 114.534C81.8203 114.432 82.3174 114.767 82.4187 115.279L82.4998 115.694C82.6011 116.206 82.2673 116.704 81.7542 116.805Z" fill="#EDEDEB"/>
<path d="M74.9642 124.176L67.9845 125.55C67.4714 125.651 66.9738 125.317 66.873 124.804L66.7914 124.39C66.6906 123.877 67.0245 123.38 67.5375 123.278L74.5173 121.906C75.0298 121.804 75.5274 122.138 75.6282 122.651L75.7098 123.066C75.8106 123.578 75.4767 124.076 74.9642 124.176Z" fill="#EDEDEB"/>
<path d="M110.638 159.6L96.1156 157.866C95.0884 157.743 94.3551 156.811 94.4778 155.784L96.8319 136.066C96.9546 135.039 97.8868 134.306 98.914 134.429L113.437 136.163C114.463 136.285 115.197 137.217 115.074 138.244L112.72 157.962C112.597 158.989 111.665 159.723 110.638 159.6Z" fill="#E2E2E0"/>
<path d="M110.348 142.55L100.412 141.364C99.9825 141.312 99.6758 140.923 99.727 140.493C99.7788 140.063 100.169 139.756 100.598 139.807L110.533 140.994C110.963 141.045 111.27 141.435 111.219 141.864C111.168 142.294 110.777 142.601 110.348 142.55Z" fill="#EDEDEB"/>
<path d="M109.872 146.532L99.937 145.346C99.5071 145.294 99.2005 144.904 99.2517 144.474C99.3029 144.045 99.6933 143.738 100.123 143.789L110.058 144.975C110.487 145.027 110.795 145.416 110.743 145.846C110.692 146.276 110.302 146.583 109.872 146.532Z" fill="#EDEDEB"/>
<path d="M109.397 150.514L99.4618 149.327C99.0319 149.276 98.7247 148.886 98.7764 148.456C98.8276 148.026 99.2175 147.719 99.6474 147.771L109.582 148.957C110.012 149.008 110.319 149.398 110.268 149.828C110.216 150.258 109.827 150.565 109.397 150.514Z" fill="#EDEDEB"/>
<path d="M103.485 153.846L98.9861 153.309C98.5562 153.258 98.2495 152.868 98.3007 152.438C98.3525 152.008 98.7423 151.701 99.1722 151.753L103.671 152.29C104.101 152.341 104.407 152.731 104.356 153.161C104.305 153.59 103.915 153.897 103.485 153.846Z" fill="#EDEDEB"/>
<path d="M350.998 98.362L333.827 91.8479C332.86 91.481 332.373 90.3994 332.74 89.4324L341.489 66.3732C341.855 65.4063 342.937 64.9199 343.904 65.2868L361.075 71.8015C362.042 72.1684 362.529 73.2495 362.162 74.217L353.414 97.2756C353.047 98.2426 351.965 98.729 350.998 98.362Z" fill="#E2E2E0"/>
<path d="M355.404 78.2853L343.847 73.9007C343.442 73.7471 343.238 73.2949 343.392 72.8901L343.505 72.5914C343.659 72.1872 344.111 71.9834 344.516 72.137L356.074 76.5216C356.478 76.6752 356.682 77.1279 356.528 77.5322L356.415 77.8309C356.261 78.2357 355.809 78.4389 355.404 78.2853Z" fill="#EDEDEB"/>
<path d="M353.692 82.7978L342.135 78.4133C341.73 78.2597 341.526 77.8069 341.68 77.4021L341.793 77.1039C341.947 76.6991 342.4 76.4959 342.804 76.6495L354.362 81.0341C354.766 81.1877 354.97 81.6399 354.817 82.0447L354.703 82.3429C354.549 82.7477 354.097 82.9514 353.692 82.7978Z" fill="#EDEDEB"/>
<path d="M351.98 87.3104L340.423 82.9253C340.018 82.7722 339.814 82.3194 339.968 81.9146L340.081 81.6165C340.235 81.2117 340.687 81.008 341.092 81.1616L352.65 85.5466C353.054 85.7002 353.258 86.1525 353.104 86.5573L352.991 86.8554C352.838 87.2602 352.385 87.464 351.98 87.3104Z" fill="#EDEDEB"/>
<path d="M344.108 89.4853L338.711 87.4378C338.306 87.2842 338.103 86.832 338.256 86.4272L338.37 86.129C338.523 85.7242 338.976 85.5205 339.38 85.6741L344.777 87.7216C345.182 87.8752 345.385 88.3274 345.232 88.7322L345.118 89.0309C344.965 89.4352 344.513 89.6389 344.108 89.4853Z" fill="#EDEDEB"/>
<path d="M212.134 22.6069H206.723C206.26 22.6069 205.885 22.2315 205.885 21.7691V15.0592C205.885 14.5963 206.26 14.2208 206.723 14.2208H212.134C212.596 14.2208 212.972 14.5963 212.972 15.0592V21.7691C212.972 22.2315 212.596 22.6069 212.134 22.6069Z" fill="#DADBD8"/>
<path d="M222.792 22.6069H217.381C216.919 22.6069 216.543 22.2315 216.543 21.7691V8.53654C216.543 8.07414 216.919 7.69868 217.381 7.69868H222.792C223.255 7.69868 223.63 8.07414 223.63 8.53654V21.7691C223.63 22.2315 223.255 22.6069 222.792 22.6069Z" fill="#DADBD8"/>
<path d="M234.266 22.7936H228.855C228.393 22.7936 228.018 22.4181 228.018 21.9552V2.09597C228.018 1.63304 228.393 1.25811 228.855 1.25811H234.266C234.729 1.25811 235.104 1.63304 235.104 2.09597V21.9552C235.104 22.4181 234.729 22.7936 234.266 22.7936Z" fill="#DADBD8"/>
<path d="M276.135 128.18C279.754 131.799 279.755 137.668 276.135 141.287C272.516 144.906 266.648 144.906 263.029 141.287C259.41 137.668 259.41 131.8 263.029 128.18C266.648 124.562 272.516 124.561 276.135 128.18ZM254.186 124.647C252.899 126.606 252.034 128.758 251.573 130.978L248.038 131.31V138.157L251.573 138.49C252.034 140.709 252.899 142.86 254.186 144.82L251.927 147.547L256.769 152.388L259.496 150.13C261.455 151.416 263.607 152.282 265.826 152.742L266.159 156.278L273.005 156.277L273.338 152.743C275.557 152.282 277.709 151.416 279.668 150.13L282.396 152.388L287.237 147.547L284.979 144.82C286.265 142.86 287.13 140.709 287.591 138.49L291.125 138.157L291.126 131.31L287.591 130.978C287.13 128.758 286.265 126.607 284.978 124.647L287.236 121.92L282.395 117.079L279.668 119.337C277.709 118.051 275.557 117.185 273.338 116.724L273.005 113.189L266.159 113.19L265.826 116.725C263.607 117.186 261.455 118.051 259.496 119.337L256.769 117.079L251.927 121.92L254.186 124.647Z" fill="#DADBD8"/>
<path d="M306.928 142.517C308.635 144.225 308.635 146.993 306.928 148.701C305.22 150.409 302.451 150.409 300.743 148.701C299.035 146.993 299.035 144.225 300.743 142.517C302.451 140.809 305.22 140.809 306.928 142.517ZM296.57 140.85C295.963 141.774 295.555 142.789 295.338 143.837L293.669 143.994V147.224L295.338 147.381C295.555 148.428 295.963 149.444 296.57 150.368L295.505 151.655L297.789 153.939L299.076 152.874C300.001 153.481 301.016 153.889 302.063 154.106L302.22 155.774H305.45L305.608 154.107C306.655 153.889 307.67 153.481 308.595 152.874L309.881 153.939L312.165 151.655L311.1 150.368C311.707 149.444 312.115 148.428 312.333 147.381L314.001 147.224L314.001 143.994L312.333 143.836C312.115 142.789 311.707 141.774 311.1 140.85L312.165 139.563L309.881 137.278L308.595 138.344C307.67 137.737 306.655 137.329 305.608 137.111L305.45 135.443H302.22L302.063 137.111C301.016 137.329 300.001 137.737 299.076 138.344L297.789 137.278L295.505 139.563L296.57 140.85Z" fill="#DADBD8"/>
<path d="M278.202 93.3573C279.909 95.0651 279.909 97.8341 278.202 99.5419C276.494 101.25 273.725 101.25 272.018 99.5419C270.31 97.8341 270.31 95.0656 272.018 93.3573C273.725 91.6501 276.494 91.6496 278.202 93.3573ZM267.845 91.6907C267.238 92.6149 266.829 93.6304 266.612 94.6773L264.944 94.8347V98.0651L266.612 98.2219C266.829 99.2688 267.238 100.284 267.845 101.209L266.779 102.496L269.064 104.78L270.35 103.715C271.275 104.322 272.29 104.73 273.338 104.947L273.494 106.615H276.725L276.882 104.947C277.929 104.73 278.945 104.322 279.869 103.715L281.156 104.78L283.44 102.496L282.375 101.209C282.982 100.284 283.39 99.2693 283.608 98.2219L285.275 98.0651V94.8347L283.608 94.6773C283.39 93.6304 282.981 92.6149 282.374 91.6907L283.44 90.4037L281.156 88.1195L279.869 89.1851C278.944 88.5776 277.929 88.1691 276.882 87.952L276.725 86.2837L273.494 86.2843L273.338 87.952C272.29 88.1696 271.275 88.5776 270.35 89.1845L269.064 88.1195L266.779 90.4037L267.845 91.6907Z" fill="#F3F2F1"/>
<path d="M313.63 106.68C316.836 109.886 316.837 115.085 313.63 118.291C310.424 121.498 305.225 121.498 302.019 118.291C298.813 115.085 298.813 109.887 302.019 106.68C305.226 103.474 310.424 103.474 313.63 106.68ZM294.185 103.55C293.045 105.285 292.279 107.192 291.87 109.158L288.739 109.453V115.518L291.87 115.813C292.278 117.779 293.045 119.685 294.185 121.421L292.185 123.837L296.473 128.126L298.889 126.125C300.625 127.265 302.531 128.032 304.497 128.439L304.792 131.572L310.857 131.571L311.152 128.44C313.119 128.031 315.025 127.265 316.761 126.125L319.176 128.126L323.465 123.837L321.465 121.421C322.604 119.685 323.371 117.779 323.779 115.813L326.91 115.518L326.911 109.453L323.779 109.158C323.371 107.192 322.604 105.286 321.465 103.55L323.465 101.134L319.176 96.8458L316.76 98.8458C315.024 97.7061 313.118 96.9391 311.152 96.5311L310.857 93.3994H304.792L304.497 96.5311C302.531 96.9397 300.625 97.7055 298.89 98.8458L296.473 96.8453L292.185 101.134L294.185 103.55Z" fill="#F3F2F1"/>
<path d="M94.9985 21.6949C97.7996 24.4959 97.7996 29.0373 94.9985 31.8383C92.1974 34.6394 87.6561 34.6394 84.855 31.8383C82.054 29.0373 82.0545 24.4959 84.8556 21.6949C87.6561 18.8943 92.1974 18.8943 94.9985 21.6949ZM78.0113 18.961C77.0155 20.4767 76.3462 22.1423 75.9894 23.8597L73.2534 24.1178V29.4159L75.9894 29.6735C76.3457 31.3909 77.0155 33.0559 78.0113 34.5727L76.2635 36.6831L80.0102 40.4298L82.1212 38.6826C83.6374 39.6778 85.3025 40.3477 87.0198 40.7039L87.2774 43.4399H92.5756L92.8337 40.7045C94.551 40.3477 96.2166 39.6778 97.7329 38.6826L99.8433 40.4298L103.59 36.6831L101.843 34.5727C102.838 33.0559 103.508 31.3909 103.864 29.6735L106.6 29.4159L106.6 24.1178L103.865 23.8597C103.508 22.1423 102.838 20.4773 101.842 18.961L103.589 16.8501L99.8433 13.104L97.7329 14.8511C96.2161 13.8554 94.551 13.1855 92.8337 12.8293L92.5761 10.0933H87.2774L87.0198 12.8293C85.3025 13.1855 83.6374 13.8554 82.1212 14.8511L80.0102 13.1034L76.2635 16.8501L78.0113 18.961Z" fill="#F3F2F1"/>
<path d="M262.927 0.931657C261.276 0.931657 259.933 2.27404 259.933 3.9247V144.337C259.933 145.988 261.276 147.33 262.927 147.33H359.325C360.975 147.33 362.318 145.988 362.318 144.337V3.9247C362.318 2.27404 360.975 0.931657 359.325 0.931657H262.927ZM359.325 147.463H262.927C261.203 147.463 259.8 146.061 259.8 144.337V3.9247C259.8 2.20044 261.203 0.798323 262.927 0.798323H359.325C361.049 0.798323 362.451 2.20044 362.451 3.9247V144.337C362.451 146.061 361.049 147.463 359.325 147.463Z" fill="#DADBD8"/>
<path d="M151.765 0.931657C150.115 0.931657 148.772 2.27404 148.772 3.9247V144.337C148.772 145.988 150.115 147.33 151.765 147.33H248.163C249.814 147.33 251.156 145.988 251.156 144.337V3.9247C251.156 2.27404 249.814 0.931657 248.163 0.931657H151.765ZM248.163 147.463H151.765C150.041 147.463 148.639 146.061 148.639 144.337V3.9247C148.639 2.20044 150.041 0.798323 151.765 0.798323H248.163C249.887 0.798323 251.29 2.20044 251.29 3.9247V144.337C251.29 146.061 249.887 147.463 248.163 147.463Z" fill="#DADBD8"/>
<path d="M40.6751 0.931657C39.0249 0.931657 37.6822 2.27404 37.6822 3.9247V144.337C37.6822 145.988 39.0249 147.33 40.6751 147.33H137.073C138.724 147.33 140.067 145.988 140.067 144.337V3.9247C140.067 2.27404 138.724 0.931657 137.073 0.931657H40.6751ZM137.073 147.463H40.6751C38.9514 147.463 37.5491 146.061 37.5491 144.337V3.9247C37.5491 2.20044 38.9514 0.798323 40.6751 0.798323H137.073C138.797 0.798323 140.2 2.20044 140.2 3.9247V144.337C140.2 146.061 138.797 147.463 137.073 147.463Z" fill="#DADBD8"/>
<path d="M0 180.098H400V180.034H0V180.098Z" fill="#DADBD8"/>
<path d="M348.601 195.701H378.323V195.925H348.601V195.701Z" fill="#E7E8E5"/>
<path d="M264.023 198.36H271.824V198.136H264.023V198.36Z" fill="#E7E8E5"/>
<path d="M21.677 189.1H60.4368V188.876H21.677V189.1Z" fill="#E7E8E5"/>
<path d="M68.426 188.876H74.1092V189.1H68.426V188.876Z" fill="#E7E8E5"/>
<path d="M92.5791 192.889H176.639V192.665H92.5791V192.889Z" fill="#E7E8E5"/>
<path d="M335.669 223.975C335.669 225.782 274.928 227.246 200 227.246C125.072 227.246 64.3313 225.782 64.3313 223.975C64.3313 222.17 125.072 220.705 200 220.705C274.928 220.705 335.669 222.17 335.669 223.975Z" fill="#F3F2F1"/>
<path d="M96.2891 81.8715H40.1937C38.9877 81.8715 38.01 80.8938 38.01 79.6874V48.1712C38.01 46.9653 38.9877 45.9877 40.1937 45.9877H96.2891C97.4955 45.9877 98.473 46.9653 98.473 48.1712V79.6874C98.473 80.8938 97.4955 81.8715 96.2891 81.8715Z" fill="#4CAF4F"/>
<path d="M96.2891 81.8715H40.1937C38.9877 81.8715 38.01 80.8938 38.01 79.6874V48.1712C38.01 46.9653 38.9877 45.9877 40.1937 45.9877H96.2891C97.4955 45.9877 98.473 46.9653 98.473 48.1712V49.4475V79.6874C98.473 80.305 98.217 80.8624 97.8048 81.2597C97.4122 81.6384 96.8779 81.8715 96.2891 81.8715ZM80.6624 76.3157H83.9344V63.8891H80.6624V76.3157ZM66.6053 76.3157H69.8778V58.696H66.6053V76.3157ZM52.7515 76.3157H56.0234V64.2741H52.7515V76.3157ZM54.4133 58.5344L54.3456 58.6011C54.3445 58.6021 53.9035 59.0373 53.236 59.6965C52.2345 60.6843 50.7264 62.1723 49.4441 63.4352C48.1635 64.696 47.1014 65.7392 47.011 65.8203L47.1894 66.0187C47.2623 65.9525 47.7494 65.4757 48.451 64.7861C50.3914 62.8795 53.9344 59.3819 54.4656 58.8571L61.4533 62.2965L68.2309 54.3221L75.1856 64.344L82.1013 59.8309L81.9552 59.6075L75.2565 63.9787L68.2522 53.8853L61.385 61.9653L54.4133 58.5344Z" fill="#CFE0F5"/>
<path d="M47.1893 66.0187C47.2622 65.9525 47.7493 65.4757 48.451 64.7861C50.5524 62.7211 54.5333 58.7904 54.5333 58.7904L54.4394 58.696L54.3807 58.8155L61.4533 62.2965L68.2309 54.3221L75.1855 64.344L82.1013 59.8309L81.9551 59.6075L75.2565 63.9787L68.2522 53.8853L61.385 61.9653L54.4133 58.5344L54.3455 58.6011C54.3445 58.6021 53.9034 59.0373 53.236 59.6965C52.2345 60.6843 50.7264 62.1723 49.4441 63.4352C48.1635 64.696 47.1014 65.7392 47.011 65.8203L47.1893 66.0187Z" fill="#17282F"/>
<path d="M49.2867 76.3157H46.0144V69.065H49.2867V76.3157Z" fill="#4CAF4F"/>
<path d="M52.7515 76.3157H56.0236V64.2742H52.7515V76.3157Z" fill="#4CAF4F"/>
<path d="M62.8892 76.3157H59.6172V65.4847H62.8892V76.3157Z" fill="#4CAF4F"/>
<path d="M66.6052 76.3157H69.8777V58.6961H66.6052V76.3157Z" fill="#4CAF4F"/>
<path d="M76.9407 76.3157H73.6687V68.0383H76.9407V76.3157Z" fill="#4CAF4F"/>
<path d="M49.4086 65.0981C49.4086 66.0693 48.6215 66.856 47.6505 66.856C46.6797 66.856 45.8926 66.0693 45.8926 65.0981C45.8926 64.1274 46.6797 63.3402 47.6505 63.3402C48.6215 63.3402 49.4086 64.1274 49.4086 65.0981Z" fill="#4CAF4F"/>
<path d="M56.1456 58.696C56.1456 59.6667 55.3584 60.4539 54.3878 60.4539C53.4166 60.4539 52.6296 59.6667 52.6296 58.696C52.6296 57.7248 53.4166 56.9376 54.3878 56.9376C55.3584 56.9376 56.1456 57.7248 56.1456 58.696Z" fill="#4CAF4F"/>
<path d="M63.1771 61.5818C63.1771 62.553 62.3904 63.3402 61.4192 63.3402C60.4486 63.3402 59.6614 62.553 59.6614 61.5818C59.6614 60.6111 60.4486 59.8239 61.4192 59.8239C62.3904 59.8239 63.1771 60.6111 63.1771 61.5818Z" fill="#4CAF4F"/>
<path d="M69.9994 54.104C69.9994 55.0746 69.2122 55.8618 68.2416 55.8618C67.2704 55.8618 66.4832 55.0746 66.4832 54.104C66.4832 53.1328 67.2704 52.3456 68.2416 52.3456C69.2122 52.3456 69.9994 53.1328 69.9994 54.104Z" fill="#4CAF4F"/>
<path d="M76.9792 64.1616C76.9792 65.1322 76.192 65.9194 75.2213 65.9194C74.2501 65.9194 73.4629 65.1322 73.4629 64.1616C73.4629 63.1904 74.2501 62.4032 75.2213 62.4032C76.192 62.4032 76.9792 63.1904 76.9792 64.1616Z" fill="#4CAF4F"/>
<path d="M80.6624 76.3157H83.9342V63.889H80.6624V76.3157Z" fill="#4CAF4F"/>
<path d="M52.7515 76.3157H56.0236V64.2742H52.7515V76.3157Z" fill="#007308"/>
<path d="M66.6052 76.3157H69.8777V58.6961H66.6052V76.3157Z" fill="#007308"/>
<path d="M80.6624 76.3157H83.9342V63.889H80.6624V76.3157Z" fill="#007308"/>
<path d="M91.1739 76.3157H87.9014V68.0383H91.1739V76.3157Z" fill="#4CAF4F"/>
<path d="M81.9636 59.8356L89.473 64.0052L89.602 63.7722L82.0932 59.6026" fill="#17282F"/>
<path d="M84.1786 59.7194C84.1786 60.6901 83.3914 61.4773 82.4202 61.4773C81.4496 61.4773 80.6624 60.6901 80.6624 59.7194C80.6624 58.7482 81.4496 57.961 82.4202 57.961C83.3914 57.961 84.1786 58.7482 84.1786 59.7194Z" fill="#4CAF4F"/>
<path d="M91.2955 63.889C91.2955 64.8602 90.5088 65.6469 89.5376 65.6469C88.567 65.6469 87.7798 64.8602 87.7798 63.889C87.7798 62.9178 88.567 62.1311 89.5376 62.1311C90.5088 62.1311 91.2955 62.9178 91.2955 63.889Z" fill="#4CAF4F"/>
<path d="M378.008 172.852C378.008 189.669 364.375 203.302 347.558 203.302C330.741 203.302 317.108 189.669 317.108 172.852C317.108 156.035 330.741 142.402 347.558 142.402C364.375 142.402 378.008 156.035 378.008 172.852Z" fill="white"/>
<path d="M378.008 172.852H377.741C377.741 181.188 374.364 188.732 368.901 194.195C363.438 199.657 355.894 203.035 347.558 203.035C339.222 203.035 331.678 199.657 326.215 194.195C320.752 188.732 317.375 181.188 317.375 172.852C317.375 164.516 320.752 156.972 326.215 151.509C331.678 146.046 339.222 142.668 347.558 142.668C355.894 142.668 363.438 146.046 368.901 151.509C374.364 156.972 377.741 164.516 377.741 172.852H378.008H378.275C378.275 155.887 364.523 142.135 347.558 142.135C330.594 142.135 316.842 155.887 316.842 172.852C316.842 189.816 330.594 203.568 347.558 203.568C364.523 203.568 378.275 189.816 378.275 172.852H378.008Z" fill="#17282F"/>
<path d="M332.709 188.574H362.844V167.293H332.709V188.574Z" fill="#4CAF4F"/>
<path d="M346.98 188.574H332.709V175.534H341.973L346.98 167.293V188.574Z" fill="#007308"/>
<path d="M332.709 167.293L327.803 175.534H341.973L346.98 167.293H332.709Z" fill="#4CAF4F"/>
<path d="M346.98 167.293L352.252 175.534H367.313L362.844 167.293H346.98Z" fill="#4CAF4F"/>
<path d="M367.313 175.534H352.252L346.98 167.293H362.844L367.313 175.534Z" fill="#007308"/>
<path d="M342.425 162.145C341.203 160.43 339.982 158.715 338.761 157.001C338.612 156.793 338.265 156.992 338.415 157.202C339.636 158.917 340.858 160.632 342.079 162.347C342.227 162.555 342.574 162.355 342.425 162.145Z" fill="#17282F"/>
<path d="M347.446 161.996C347.398 159.2 347.35 156.404 347.302 153.608C347.298 153.351 346.898 153.35 346.902 153.608C346.95 156.404 346.998 159.2 347.046 161.996C347.051 162.253 347.451 162.254 347.446 161.996Z" fill="#17282F"/>
<path d="M352.469 162.17C353.366 160.573 354.263 158.976 355.161 157.379C355.287 157.154 354.941 156.952 354.816 157.177C353.918 158.774 353.021 160.371 352.124 161.968C351.998 162.193 352.343 162.395 352.469 162.17Z" fill="#17282F"/>
<path d="M355.691 156.031L355.657 155.998L355.592 155.957L355.516 155.939L355.438 155.957L355.374 155.998L355.343 156.038L355.316 156.139L355.323 156.193L355.374 156.281L355.408 156.315L355.472 156.356L355.549 156.373L355.626 156.356L355.691 156.315L355.722 156.274L355.749 156.173L355.742 156.12L355.691 156.031Z" fill="#17282F"/>
<path d="M289.48 78.1503L295.46 106.31C295.733 107.592 294.407 108.624 293.231 108.045L272.343 97.7663C271.431 97.3173 271.179 96.1327 271.83 95.3519L286.738 77.4709C287.578 76.4645 289.208 76.8682 289.48 78.1503Z" fill="#4CAF4F"/>
<path d="M293.926 108.211C293.698 108.211 293.461 108.159 293.231 108.045L282.95 102.986L277.328 100.22L272.343 97.7663C271.776 97.4874 271.465 96.9247 271.466 96.3514C271.467 96.0015 271.584 95.6479 271.83 95.3519L286.738 77.4708C287.061 77.0836 287.501 76.905 287.936 76.905C288.631 76.905 289.313 77.3615 289.48 78.1503L290.938 85.0127C290.124 85.1994 289.3 85.353 288.466 85.4735L290.786 101.566C291.975 101.395 293.154 101.178 294.315 100.919L295.46 106.31C295.485 106.427 295.496 106.542 295.496 106.653C295.493 107.527 294.759 108.211 293.926 108.211Z" fill="#007308"/>
<path d="M290.786 101.566L288.466 85.4736C298.42 84.0384 307.002 77.8005 311.424 68.7872C318.797 53.7579 312.569 35.5328 297.54 28.16C282.51 20.7867 264.285 27.0155 256.911 42.0448C253.72 48.5499 252.959 55.9893 254.769 62.9925L239.026 67.0597C236.246 56.2992 237.414 44.8725 242.315 34.8837C253.636 11.8053 281.622 2.24105 304.701 13.5627C327.778 24.8837 337.343 52.8704 326.021 75.9483C319.232 89.7877 306.06 99.3648 290.786 101.566Z" fill="#4CAF4F"/>
<path d="M290.786 101.566L288.466 85.4736C298.42 84.0384 307.002 77.8005 311.424 68.7872C313.526 64.5019 314.523 59.9563 314.525 55.4763C314.529 44.2464 308.283 33.4304 297.54 28.16C293.25 26.0555 288.7 25.0592 284.217 25.0592C274.835 25.0592 265.743 29.4213 259.933 37.1243C259.889 37.1829 259.844 37.2427 259.8 37.3024C258.713 38.7664 257.744 40.3493 256.912 42.0448C254.855 46.2373 253.808 50.8181 253.807 55.4203C253.807 57.4592 254.012 59.5019 254.427 61.5168C250.038 55.1915 244.772 49.5264 238.8 44.6917C239.596 41.3237 240.77 38.032 242.315 34.8837C250.404 18.3931 267.006 8.80107 284.243 8.80107C291.129 8.80107 298.113 10.3307 304.701 13.5627C321.186 21.6501 330.776 38.2421 330.782 55.4736C330.785 62.3637 329.256 69.3563 326.021 75.9483C319.232 89.7877 306.06 99.3648 290.786 101.566Z" fill="#007308"/>
<path d="M299.316 66.3322C291.849 73.5813 279.919 73.4043 272.67 65.9365C265.421 58.4688 265.598 46.5386 273.066 39.2896C280.533 32.041 292.464 32.2181 299.713 39.6859C306.961 47.1531 306.784 59.0832 299.316 66.3322Z" fill="#4CAF4F"/>
<path d="M286.193 71.6554C281.276 71.6554 276.365 69.7429 272.67 65.9365C272.505 65.7658 272.342 65.5925 272.185 65.4175C275.816 68.8906 280.507 70.6351 285.203 70.6351C289.931 70.6351 294.666 68.8661 298.326 65.3125C305.624 58.2287 305.96 46.6762 299.208 39.1845C299.378 39.3477 299.546 39.5146 299.713 39.6858C303.266 43.3466 305.035 48.0799 305.035 52.8085C305.035 57.7253 303.123 62.6373 299.316 66.3322C295.656 69.8858 290.922 71.6554 286.193 71.6554Z" fill="#007308"/>
<path d="M298.326 65.3126C290.859 72.5616 278.929 72.384 271.679 64.9168C264.43 57.4491 264.608 45.519 272.076 38.2699C279.543 31.0208 291.473 31.1979 298.722 38.6656C305.971 46.1333 305.794 58.0635 298.326 65.3126Z" fill="#4CAF4F"/>
<path d="M296.105 63.0244C289.901 69.0468 279.99 68.8997 273.967 62.6954C267.945 56.4917 268.092 46.5802 274.296 40.5578C280.5 34.5354 290.412 34.6826 296.434 40.8863C302.456 47.0906 302.309 57.002 296.105 63.0244Z" fill="white"/>
<path d="M292.387 45.2826L292.237 45.1199L294.934 42.562C295.005 42.6372 295.075 42.7124 295.144 42.7887L292.387 45.2826ZM288.332 42.6175L289.532 39.0997C289.633 39.1343 289.733 39.1695 289.833 39.2063L288.532 42.689C288.466 42.6639 288.399 42.6399 288.332 42.6175ZM294.587 49.3647C294.569 49.2954 294.55 49.2255 294.53 49.1562L298.104 48.1354C298.133 48.2367 298.161 48.338 298.187 48.4388L294.587 49.3647ZM283.713 42.2106L283.139 38.538C283.238 38.5226 283.337 38.5087 283.436 38.4954L283.943 42.177L283.713 42.2106ZM294.639 54.0015L294.688 53.7802L298.323 54.5572C298.302 54.657 298.28 54.7562 298.257 54.8548L294.639 54.0015ZM279.428 44.002L277.223 41.0106L277.465 40.8356L279.618 43.8655L279.428 44.002ZM292.538 58.1279C292.584 58.0756 292.629 58.0218 292.674 57.9674L295.544 60.3295C295.476 60.4122 295.407 60.4932 295.337 60.5738L292.538 58.1279ZM273.126 45.9578C273.171 45.8644 273.217 45.7716 273.264 45.6794L276.575 47.3695C276.541 47.4351 276.508 47.5012 276.476 47.5674L273.126 45.9578ZM290.068 64.2863L288.715 60.8244L288.924 60.7407L290.406 64.1492L290.317 64.186C290.258 64.2116 290.163 64.249 290.068 64.2863ZM271.795 52.2303C271.792 52.1274 271.79 52.0244 271.789 51.922L275.506 51.8847L275.51 52.1092L271.795 52.2303ZM283.708 65.1194L284.116 61.425L284.347 61.4484L284.007 65.1498C283.907 65.1407 283.807 65.1306 283.708 65.1194ZM273.535 58.4063C273.484 58.3157 273.434 58.2244 273.385 58.1322L276.663 56.3818C276.698 56.4463 276.733 56.5103 276.769 56.5738L273.535 58.4063ZM277.687 62.8997L279.766 59.8186C279.828 59.8596 279.889 59.9002 279.95 59.9397L277.947 63.0703C277.86 63.0143 277.773 62.9573 277.687 62.8997Z" fill="#040606"/>
<path d="M281.03 46.1056L284.766 52.5333C284.808 52.6042 284.88 52.6528 284.961 52.664C285.042 52.6746 285.124 52.648 285.183 52.5904L291.229 46.7093C291.334 46.6069 291.337 46.4378 291.234 46.3322C291.131 46.2266 290.962 46.2245 290.857 46.3274L285.056 51.9701L281.491 45.8373C281.418 45.7104 281.254 45.6672 281.127 45.7408C280.999 45.8149 280.956 45.9781 281.03 46.1056Z" fill="#040606"/>
<path d="M286.088 52.6912C285.662 53.1765 284.924 53.2245 284.438 52.7995C283.953 52.3733 283.905 51.6352 284.33 51.1493C284.756 50.664 285.494 50.616 285.98 51.0416C286.465 51.4672 286.514 52.2059 286.088 52.6912Z" fill="#040606"/>
<path d="M270.005 48.0171C270.672 45.2299 272.112 42.5931 274.321 40.4491C277.363 37.496 281.295 36.0267 285.224 36.0267C289.308 36.0267 293.389 37.616 296.459 40.7782C298.269 42.6432 299.512 44.847 300.21 47.176C300.142 47.0059 300.072 46.8368 299.999 46.6688C299.273 44.567 298.085 42.5878 296.434 40.8864C293.364 37.7238 289.284 36.1355 285.2 36.1355C281.271 36.1355 277.338 37.6054 274.297 40.5579C272.117 42.6742 270.684 45.2704 270.005 48.0171Z" fill="#007308"/>
<path d="M270.673 57.4532C269.479 54.4394 269.259 51.1343 270.005 48.017C270.684 45.2703 272.117 42.674 274.296 40.5578C277.338 37.6052 281.271 36.1354 285.199 36.1354C289.284 36.1354 293.364 37.7237 296.434 40.8863C298.085 42.5877 299.272 44.5668 299.998 46.6687C299.268 44.9983 298.235 43.4276 296.891 42.0426C293.821 38.8799 289.741 37.2916 285.656 37.2916C281.728 37.2916 277.795 38.7615 274.753 41.714C270.415 45.9252 269.049 52.0356 270.673 57.4532Z" fill="#A7A9A8"/>
<path d="M128.128 163.63C114.531 148.549 107.042 129.052 107.042 108.73C107.042 71.4981 132.16 38.8827 168.125 29.4155L162.082 37.0026L172.671 46.6843C144.543 54.088 124.899 79.6021 124.899 108.73C124.899 124.627 130.755 139.878 141.39 151.673L128.128 163.63Z" fill="#4CAF4F"/>
<path d="M129.891 164.653C130.553 164.487 152.413 164.653 152.413 164.653L141.39 151.673L128.128 163.63L129.891 164.653Z" fill="#4CAF4F"/>
<path d="M129.891 164.653L128.128 163.63L138.792 154.016C139.115 154.291 139.57 154.458 140.063 154.462H143.759L145.02 155.947C144.722 156.143 144.462 156.336 144.248 156.525C142.11 158.408 141.377 161.221 141.862 164.592C139.862 164.584 137.831 164.579 136.024 164.579C132.688 164.579 130.112 164.597 129.891 164.653Z" fill="#007308"/>
<path d="M291.27 193.709V164.921C291.27 163.611 292.781 162.877 293.811 163.687L312.108 178.081C312.908 178.71 312.908 179.921 312.108 180.55L293.811 194.943C292.781 195.754 291.27 195.02 291.27 193.709Z" fill="#4CAF4F"/>
<path d="M192.538 187.873H294.238V170.758H192.538V187.873Z" fill="#4CAF4F"/>
<path d="M292.688 195.283C291.875 195.283 291.11 194.642 291.11 193.709V187.873H272.986H291.27V193.709C291.27 194.611 291.986 195.24 292.768 195.28C292.741 195.282 292.714 195.283 292.688 195.283ZM207.871 187.873H190.37C191.094 187.854 191.818 187.825 192.538 187.786V187.873H207.871ZM291.27 170.758H291.11V164.922C291.11 163.989 291.875 163.348 292.688 163.348C292.715 163.348 292.741 163.349 292.768 163.35C291.986 163.391 291.27 164.02 291.27 164.922V170.758Z" fill="#A7A9A8"/>
<path d="M292.767 195.28C291.985 195.24 291.27 194.611 291.27 193.709V187.873H294.238V170.758H291.27V164.922C291.27 164.02 291.986 163.391 292.768 163.35C293.071 163.366 293.378 163.473 293.651 163.687L311.948 178.082C312.748 178.71 312.748 179.921 311.948 180.55L293.651 194.943C293.378 195.158 293.071 195.265 292.767 195.28Z" fill="#007308"/>
<path d="M294.238 187.873H272.986L277.916 176.57C277.919 176.563 277.922 176.556 277.925 176.55C277.943 176.502 277.953 176.453 277.953 176.403C277.953 176.289 277.904 176.184 277.822 176.101C277.822 176.1 277.822 176.1 277.822 176.1C277.821 176.099 277.819 176.098 277.818 176.096C277.716 175.994 277.564 175.926 277.393 175.915C277.376 175.914 277.359 175.913 277.342 175.913H257.386C256.628 175.916 255.96 176.312 255.736 176.893L252.484 184.349C251.083 183.373 249.969 182.414 249.516 181.606C249.23 181.095 248.507 175.56 247.923 170.758H291.11H291.27H294.238V187.873ZM243.373 187.873H241.076L241.071 185.41C241.162 185.611 241.254 185.79 241.349 185.949C241.741 186.604 242.449 187.25 243.373 187.873ZM207.871 187.873H192.538V187.786C197.767 187.507 202.861 186.727 207.782 185.493C207.815 186.362 207.845 187.162 207.871 187.873Z" fill="#007308"/>
<path d="M188.187 26.7663V44.3093C222.939 44.3093 251.212 72.5823 251.212 107.334C251.212 142.086 222.939 170.359 188.187 170.359H75.592V187.902H188.187C232.612 187.902 268.755 151.759 268.755 107.334C268.755 62.9093 232.612 26.7663 188.187 26.7663Z" fill="#4CAF4F"/>
<path d="M191.596 21.2021L191.539 49.9904C191.536 51.3008 190.023 52.0314 188.995 51.2192L170.727 36.7882C169.929 36.1578 169.932 34.9472 170.732 34.32L189.058 19.9632C190.09 19.1546 191.599 19.8917 191.596 21.2021Z" fill="#4CAF4F"/>
<path d="M178.892 188.377H175.541L175.363 187.902H178.909L178.892 188.377Z" fill="#A7A9A8"/>
<path d="M178.909 187.902H175.363L173.26 182.286C172.703 177.735 170.81 173.766 169.438 171.256L174.024 171.175C174.889 171.189 175.755 171.197 176.614 171.197C178.903 171.197 181.152 171.142 183.258 171.011L191.582 170.863C191.929 170.863 184.499 175.569 179.436 175.57C179.413 175.57 179.392 175.57 179.37 175.57L178.909 187.902Z" fill="#007308"/>
<path d="M185.401 82.2533C187.751 85.9648 188.614 88.2117 188.981 91.8586C189.409 96.121 189.39 99.9024 188.488 101.042C187.304 102.536 173.842 104.512 166.25 104.556C165.975 104.557 165.636 102.163 165.636 102.163C165.636 102.163 164.67 104.562 164.313 104.563C162.241 104.564 160.912 104.549 160.912 104.549C160.912 104.549 162.463 100.941 163.974 88.1151C164.712 81.8511 170.85 79.0789 174.512 78.441C180.617 77.377 185.401 82.2533 185.401 82.2533Z" fill="#17282F"/>
<path d="M167.936 95.096C165.793 91.7579 163.396 82.6053 171.529 79.3701C181.68 75.3323 186.605 81.6976 187.795 88.1765C188.985 94.6549 185.537 99.7531 178.697 99.5749C171.857 99.3973 169.418 97.4048 167.936 95.096Z" fill="#17282F"/>
<path d="M184.911 107.405C184.911 107.405 182.627 109.161 179.687 111.695C179.074 112.223 178.4 112.68 177.686 113.059C175.759 114.083 174.002 114.668 173.526 113.739C173.421 113.535 173.339 113.314 173.28 113.082C172.875 111.526 173.041 109.339 174.299 108.338C175.716 107.21 176.4 106.244 176.144 104.717C176.01 103.851 175.697 102.956 175.33 102.088L176.446 100.783L182.281 94.8944C182.136 98.8272 181.837 105.271 184.911 107.405Z" fill="#F8A45D"/>
<path d="M176.181 104.995C176.093 104.523 176.025 104.172 175.95 103.862C175.954 103.862 175.956 103.861 175.96 103.861C176.037 104.148 176.1 104.434 176.144 104.717C176.16 104.811 176.172 104.904 176.181 104.995Z" fill="#C3C5C2"/>
<path d="M175.95 103.862C175.916 103.722 175.881 103.59 175.842 103.46C175.884 103.594 175.924 103.727 175.96 103.861C175.956 103.861 175.954 103.862 175.95 103.862Z" fill="#111D23"/>
<path d="M176.191 105.052C176.188 105.032 176.184 105.013 176.181 104.995C176.172 104.904 176.16 104.811 176.144 104.717C176.1 104.434 176.037 104.148 175.96 103.861C175.924 103.727 175.884 103.594 175.842 103.46C175.783 103.261 175.716 103.066 175.632 102.847C175.631 102.846 175.631 102.845 175.63 102.844H175.631C176.913 102.565 178.194 101.963 179.36 101.01C179.275 102.708 177.667 104.176 176.191 105.052Z" fill="#C4824C"/>
<path d="M183.933 88.5765C183.384 94.5722 183.278 97.1146 180.184 100.259C175.53 104.987 168.371 103.397 167.138 97.4538C166.029 92.105 167.113 83.1989 172.999 80.6789C178.798 78.1967 184.482 82.5813 183.933 88.5765Z" fill="#F8A45D"/>
<path d="M176.416 90.7488C176.382 91.353 176.011 91.8496 175.587 91.8587C175.163 91.8672 174.846 91.385 174.879 90.7813C174.913 90.1776 175.284 89.6805 175.708 89.6715C176.132 89.6629 176.449 90.145 176.416 90.7488Z" fill="#17282F"/>
<path d="M170.183 90.6394C170.149 91.2159 169.784 91.69 169.368 91.6991C168.951 91.7076 168.641 91.2479 168.674 90.6714C168.708 90.0948 169.072 89.6202 169.489 89.6116C169.906 89.6026 170.216 90.0628 170.183 90.6394Z" fill="#17282F"/>
<path d="M177.263 88.5354C177.181 88.5514 177.096 88.537 177.028 88.4884C175.963 87.729 174.86 88.1343 174.847 88.1391C174.683 88.1999 174.508 88.1284 174.458 87.9754C174.408 87.8218 174.502 87.6474 174.667 87.5839C174.725 87.5626 176.11 87.0522 177.431 87.9951C177.563 88.0895 177.579 88.2762 177.468 88.4122C177.414 88.4778 177.34 88.5199 177.263 88.5354Z" fill="#17282F"/>
<path d="M168.062 87.7285C167.996 87.6971 167.943 87.6427 167.918 87.5717C167.867 87.4245 167.955 87.2613 168.114 87.2075C169.703 86.6683 170.796 87.44 170.842 87.4736C170.971 87.568 170.991 87.7451 170.885 87.8704C170.781 87.9957 170.591 88.0213 170.461 87.9285C170.419 87.8976 169.563 87.3115 168.298 87.7403C168.217 87.768 168.132 87.7616 168.062 87.7285Z" fill="#17282F"/>
<path d="M178.924 83.2458C177.016 85.249 177.964 92.8154 183.319 93.8037C189.488 92.3525 184.616 77.2672 178.924 83.2458Z" fill="#17282F"/>
<path d="M171.763 96.2395C172.251 96.9909 172.838 98.4464 172.838 98.4464C172.98 98.4171 173.121 98.3877 173.261 98.3509C175.17 97.9045 175.907 97.0667 176.147 96.2731C176.276 95.8389 176.25 95.4133 176.186 95.0773C176.115 94.6875 175.975 94.4256 175.975 94.4256C175.105 95.2667 173.357 95.8203 172.412 96.0768C172.017 96.1883 171.763 96.2395 171.763 96.2395Z" fill="#17282F"/>
<path d="M172.412 96.0768L172.745 96.7195C174.542 96.2944 175.75 95.7541 176.185 95.0773C176.115 94.6875 175.975 94.4256 175.975 94.4256C175.104 95.2667 173.357 95.8203 172.412 96.0768Z" fill="white"/>
<path d="M173.261 98.3508C175.17 97.9044 175.907 97.0666 176.147 96.273C175.502 96.4506 174.744 96.7359 174.125 97.1892C173.651 97.5338 173.399 97.953 173.261 98.3508Z" fill="#F14553"/>
<path d="M171.863 90.218C171.863 90.218 170.734 92.9204 169.556 94.2431C170.322 94.9844 171.691 94.5946 171.691 94.5946L171.863 90.218Z" fill="#F57734"/>
<path d="M174.512 89.3867L175.888 89.7115C175.264 90.4128 174.512 89.3867 174.512 89.3867Z" fill="#17282F"/>
<path d="M168.363 89.3264L169.739 89.6517C169.115 90.3525 168.363 89.3264 168.363 89.3264Z" fill="#17282F"/>
<path d="M173.041 79.3941C170.673 80.1973 168.158 84.2944 167.739 85.8714C171.106 86.4224 180.182 83.2682 180.182 83.2682C180.182 83.2682 186.238 84.9413 183.17 81.8704C180.102 78.7994 173.041 79.3941 173.041 79.3941Z" fill="#17282F"/>
<path d="M185.747 93.4629C185.039 94.6928 183.888 95.465 182.833 95.7296C181.246 96.1274 180.427 93.576 180.968 91.9861C181.456 90.5546 183.016 89.6069 184.56 89.9194C186.082 90.2266 186.557 92.057 185.747 93.4629Z" fill="#F8A45D"/>
<path d="M164.701 86.946C164.363 89.5855 164.02 92.2388 163.136 94.7284C162.692 95.9818 162.009 97.898 161.163 99.681C160.319 101.464 159.303 103.113 158.238 103.82L158.386 104.042C159.534 103.271 160.548 101.595 161.404 99.7951C162.258 97.9962 162.943 96.0719 163.388 94.8175C164.284 92.2922 164.627 89.6196 164.965 86.9802L164.701 86.946Z" fill="#17282F"/>
<path d="M182.352 95.5723C182.352 96.1899 182.852 96.6907 183.469 96.6907C184.087 96.6907 184.588 96.1899 184.588 95.5723C184.588 94.9552 184.087 94.4544 183.469 94.4544C182.852 94.4544 182.352 94.9552 182.352 95.5723Z" fill="#4CAF4F"/>
<path d="M182.179 93.5759C182.177 93.5759 182.175 93.5759 182.174 93.5759C182.1 93.5733 182.043 93.5114 182.045 93.4378C182.066 92.8458 182.367 92.2773 182.845 91.9274C183.181 91.6821 183.594 91.5541 184.007 91.5535C184.182 91.5535 184.358 91.577 184.528 91.625C184.599 91.6447 184.64 91.7183 184.62 91.7893C184.603 91.8479 184.55 91.8863 184.492 91.8863C184.48 91.8863 184.468 91.8847 184.455 91.8815C184.31 91.8405 184.159 91.8202 184.007 91.8202H184.006C183.649 91.8202 183.29 91.9327 183.003 92.1429C182.593 92.441 182.328 92.9407 182.312 93.4469C182.309 93.5189 182.25 93.5759 182.179 93.5759Z" fill="#E09454"/>
<path d="M137.742 146.011C138.04 145.184 140.171 142.416 141.307 141.384C142.442 140.352 146.459 138.096 146.459 138.096L149.852 141.308C149.852 141.308 149.533 143.148 148.171 143.824C147.385 144.214 146.569 144.53 146.569 144.53C146.569 144.53 146.579 145.249 146.392 146.005C146.185 146.842 145.753 147.83 145.074 147.623C144.394 147.418 144.701 145.139 144.749 144.811C144.699 145.143 144.316 147.458 143.376 147.304C142.468 147.156 142.921 144.754 142.921 144.754C142.921 144.754 142.595 145.844 142.425 146.4C142.254 146.956 141.565 147.303 141.202 146.544C140.781 145.665 141.044 144.398 141.044 144.398C141.044 144.398 140.38 145.01 139.259 146.427C138.452 147.446 137.49 146.709 137.742 146.011Z" fill="#F8A45D"/>
<path d="M164.264 116.298C164.264 116.677 163.196 130.281 163.196 130.281C162.439 131.7 146.858 137.108 144.864 139.087L148.499 142.827C148.499 142.827 167.037 139.087 170.03 136.912C172.583 135.055 172.369 131.798 172.369 127.351C172.369 122.903 173.921 116.69 173.921 116.69L164.264 116.298Z" fill="#F8A45D"/>
<path d="M171.321 108.26C163.971 109.517 162.962 120.397 162.962 120.397L161.845 129.037L157.676 132.078L161.574 140.404C161.574 140.404 169.896 137.236 173.555 135.07C177.214 132.904 177.309 116.306 177.309 116.306L171.321 108.26Z" fill="#4CAF4F"/>
<path d="M166.922 138.242V138.242C166.923 138.24 166.925 138.24 166.926 138.239C166.923 138.241 166.922 138.242 166.922 138.242Z" fill="#C4824C"/>
<path d="M166.922 138.242L165.723 133.514C163.952 125.515 165.149 119.14 165.149 119.14C165.148 119.179 165.148 119.219 165.148 119.259C165.151 122.993 167.504 130.154 169.37 136.83C168.496 137.363 167.018 138.188 166.926 138.239C166.925 138.24 166.923 138.241 166.922 138.242Z" fill="#4CAF4F"/>
<path d="M171.617 146.23C177.742 145.619 185.711 145.13 196.081 144.896C196.081 144.896 203.813 163.107 194.644 168.547C191.873 170.191 187.301 170.842 182.268 170.948C176.429 171.073 171.617 166.393 171.617 160.553V146.23Z" fill="#17282F"/>
<path d="M191.644 161.229V169.786C184.019 171.985 168.191 171.148 158.782 170.38C154.545 170.034 151.287 166.495 151.287 162.244V155.223C151.287 152.896 152.726 150.815 154.905 149.996C159.466 148.28 167.766 145.723 176.449 145.858C184.868 145.988 191.644 152.81 191.644 161.229Z" fill="#17282F"/>
<path d="M197.462 144.896C196.277 143.332 193.533 139.593 193.185 135.657L193.184 135.624C193.162 135.371 193.149 135.118 193.149 134.864C193.086 133.191 193.097 131.209 193.207 128.832C193.222 128.46 193.244 128.067 193.266 127.673C193.333 126.425 193.43 125.081 193.549 123.618C193.771 120.997 194.091 118.004 194.522 114.602C194.618 113.815 195.36 112.594 195.471 111.762C195.969 108.056 192.59 105.378 188.944 105.527C187.971 105.564 186.939 105.631 185.892 105.735C181.8 106.121 178.443 106.47 174.885 107.317C173.705 107.591 172.486 107.926 171.321 108.26C167.132 109.463 165.201 114.825 165.149 119.14C165.097 123.162 167.917 131.369 169.85 138.578C170.134 142.713 167.875 144.966 168.555 146.408C168.812 146.952 171.824 146.732 175.916 146.512C182.659 146.15 192.336 145.787 197.462 148.844C197.462 148.844 198.726 146.565 197.462 144.896Z" fill="#4CAF4F"/>
<path d="M197.462 148.844C194.005 146.782 188.478 146.276 183.177 146.276C180.618 146.276 178.111 146.394 175.916 146.512C174.09 146.611 172.48 146.709 171.233 146.739C171.321 146.401 171.351 146.004 171.349 145.641C171.348 145.468 171.338 145.3 171.323 145.141L173.555 143.757C173.555 143.757 180.658 141.518 183.941 141.37C187.223 141.22 194.278 139.671 194.278 139.671C194.277 139.669 194.276 139.667 194.275 139.665C195.276 141.962 196.695 143.884 197.462 144.896C197.884 145.453 198.024 146.079 198.024 146.665C198.023 146.895 198.002 147.119 197.966 147.33C197.959 147.375 197.951 147.42 197.942 147.463C197.787 148.259 197.462 148.844 197.462 148.844ZM169.836 146.735C169.686 146.728 169.548 146.718 169.422 146.706C169.501 146.294 169.509 145.822 169.499 145.457C169.499 145.457 169.5 145.457 169.5 145.457C169.513 145.456 169.525 145.454 169.537 145.45C169.596 145.829 169.692 146.323 169.836 146.735ZM173.492 140.206L169.719 138.096C169.605 137.677 169.489 137.255 169.37 136.83C167.504 130.153 165.151 122.993 165.148 119.259C165.148 119.219 165.148 119.179 165.149 119.14C165.201 114.825 167.132 109.463 171.32 108.26C172.486 107.926 173.704 107.591 174.885 107.317C178.443 106.47 181.799 106.121 185.892 105.735C186.939 105.631 187.971 105.564 188.944 105.527C189.04 105.523 189.137 105.521 189.234 105.521C192.525 105.521 195.518 107.807 195.52 111.037C195.52 111.273 195.504 111.516 195.471 111.762C195.359 112.594 194.618 113.815 194.522 114.602C194.091 118.004 193.771 120.997 193.549 123.618C193.43 125.081 193.333 126.425 193.266 127.673C193.244 128.067 193.222 128.46 193.207 128.832C193.141 130.262 193.11 131.549 193.11 132.712C193.11 133.482 193.124 134.198 193.149 134.864C193.149 135.118 193.162 135.371 193.183 135.624L193.185 135.657C193.242 136.304 193.364 136.947 193.533 137.574C193.333 136.923 193.148 136.218 193.059 135.609L174.391 139.393L173.492 140.206ZM186.199 116.436L185.308 128.497L181.308 132.417L184.107 134.593L187.914 132.296L189.883 125.515L186.199 116.436Z" fill="#009D05"/>
<path d="M194.275 139.665C193.983 138.995 193.727 138.294 193.533 137.574C193.843 138.582 194.19 139.462 194.275 139.665Z" fill="#C3C5C2"/>
<path d="M171.323 145.141C171.27 144.588 171.157 144.167 171.157 144.167C171.157 144.167 171.871 143.662 172.537 143.091C173.693 142.101 173.549 140.239 173.549 140.239L173.492 140.206L174.391 139.393L193.059 135.609C193.148 136.218 193.333 136.923 193.533 137.574C193.727 138.294 193.983 138.995 194.275 139.665C194.276 139.667 194.277 139.669 194.278 139.671C194.278 139.671 187.223 141.22 183.941 141.37C180.658 141.518 173.555 143.757 173.555 143.757L171.323 145.141Z" fill="#4CAF4F"/>
<path d="M184.107 134.594L181.308 132.417L185.308 128.498L186.199 116.436L189.883 125.515L187.914 132.296L184.107 134.594Z" fill="#4CAF4F"/>
<path d="M156.034 226.535L165.396 222.406L168.356 219.1L169.273 220.345L170.392 219.857C170.914 215.702 168.894 213.759 167.835 212.876C167.759 212.809 167.65 212.733 167.524 212.632L167.397 212.539L167.347 212.506C167.305 212.472 167.254 212.438 167.204 212.396L167.17 212.379V212.371L167.086 212.32L161.947 214.591C161.947 214.591 161.863 214.861 161.703 215.298C161.19 216.745 159.92 220.042 158.515 221.8C158.456 221.876 158.397 221.951 158.338 222.019C158.17 222.22 157.994 222.397 157.817 222.54C153.881 225.703 156.034 226.535 156.034 226.535Z" fill="#17282F"/>
<path d="M158.319 221.993C159.782 222.566 161.852 221.119 163.424 219.227C164.308 218.158 165.157 216.451 165.906 215.071C166.394 214.18 166.839 213.422 167.226 213.061C167.445 212.868 167.647 212.783 167.823 212.868L167.815 212.851C167.739 212.783 167.63 212.708 167.504 212.607C167.47 212.581 167.428 212.548 167.378 212.514L167.327 212.48C167.285 212.447 167.235 212.413 167.184 212.371L167.15 212.354V212.346L167.067 212.295C166.528 211.892 165.931 211.479 165.931 211.479L161.096 212.69L161.473 214.541C160.935 216.451 159.799 220.084 158.495 221.775C158.436 221.851 158.378 221.926 158.319 221.993Z" fill="#F8A45D"/>
<path d="M150.448 185.993C153.433 193.406 158.067 202.852 161.487 214.695C161.554 214.911 161.614 215.127 161.673 215.342C161.74 215.573 161.807 215.796 161.874 216.027L165.405 215.164L165.56 214.549C165.56 214.549 166.78 213.602 166.573 213.387C166.438 213.247 166.528 212.986 166.506 212.763V212.755C165.554 204.495 161.888 174.174 158.253 167.877C158.253 167.877 162.372 168.643 165.495 168.115C167.748 167.735 170.476 152.159 170.476 152.159C170.476 152.159 164.736 150.508 158.848 150.508H158.766C158.766 150.508 147.191 153.933 144.248 156.525C141.482 158.962 141.068 162.955 142.601 167.701C144.008 172.053 146.75 176.809 150.448 185.993Z" fill="#F8A45D"/>
<path d="M165.56 204.869C165.56 204.869 165.555 204.857 165.544 204.835C165.404 203.737 165.254 202.581 165.094 201.379C165.103 201.406 165.111 201.43 165.12 201.457L165.56 204.869Z" fill="#E0E1DE"/>
<path d="M171.405 152.433C171.105 152.337 170.796 152.246 170.478 152.161C170.478 152.161 170.477 152.162 170.476 152.162C170.476 152.16 170.476 152.159 170.476 152.159C170.476 152.159 169.496 151.877 167.93 151.546L168.285 151.411L168.457 151.534L171.466 152.161L171.405 152.433Z" fill="#142228"/>
<path d="M165.544 204.834C165.059 203.793 153.704 179.417 151.288 174.144C148.818 168.757 145.953 164.942 147.141 160.272C147.696 158.091 151.054 155.948 155.032 154.462H159.619H160.266C160.459 154.461 160.631 154.39 160.746 154.279L167.93 151.546C169.496 151.877 170.476 152.159 170.476 152.159C170.476 152.159 170.476 152.16 170.476 152.162C170.271 152.205 154.721 155.511 151.667 157.924C149.048 159.991 148.978 162.691 149.826 165.24C151.744 170.999 157.716 179.903 165.094 201.379C165.254 202.581 165.404 203.737 165.544 204.834Z" fill="#E09454"/>
<path d="M170.478 152.161C170.478 152.161 154.741 155.495 151.667 157.924C149.048 159.991 148.978 162.691 149.826 165.24C152.172 172.286 160.587 184.036 170.219 217.76L175.739 216.027C175.21 216.026 173.822 198.419 173.412 184.277C173.219 177.606 169.798 171.854 168.46 169.531C168.46 169.531 174.085 170.29 177.207 169.767C181.218 169.094 183.754 155.71 170.478 152.161Z" fill="#F8A45D"/>
<path d="M168.784 170.163C168.784 170.163 166.696 166.7 164.093 165.24C164.093 165.24 167.297 165.449 169.299 169.631L168.46 169.531L168.784 170.163Z" fill="#C4824C"/>
<path d="M177.612 223.287L176.462 223.538L175.506 221.948C175.39 221.754 175.125 221.717 174.959 221.87L171.691 224.898L162.763 226.857C162.763 226.857 160.775 224.756 165.213 223.417C165.425 223.353 165.609 223.187 165.809 223.026C168.005 221.34 170.638 216.698 170.638 216.698L175.928 215.537C175.928 215.537 176.171 215.762 176.529 216.205C177.363 217.243 178.897 219.466 177.612 223.287Z" fill="#17282F"/>
<path d="M176.529 216.205L176.533 216.221C175.663 215.596 173.235 219.713 171.163 221.388C169.311 222.879 167.075 223.85 165.809 223.026C168.005 221.34 170.755 215.483 170.755 215.483L175.01 214.549C175.01 214.549 176.171 215.762 176.529 216.205Z" fill="#F8A45D"/>
<path d="M160.318 154.442L175.835 148.539C176.18 148.408 176.096 147.854 175.731 147.85L150.828 147.551C150.768 147.551 150.709 147.568 150.657 147.602L141.082 153.803C140.797 153.987 140.917 154.462 141.249 154.462H160.21L160.318 154.442Z" fill="#17282F"/>
<path d="M160.746 154.279L175.835 148.539C176.025 148.467 176.085 148.267 176.039 148.101C176.049 148.136 176.054 148.173 176.054 148.21C176.054 148.346 175.984 148.482 175.835 148.539L160.746 154.279ZM160.628 153.266L160.374 152.683L170.38 148.994L158.658 148.749L158.174 147.639L162.974 147.697C162.971 147.723 162.967 147.748 162.965 147.771C162.924 148.187 163.259 148.52 163.655 148.52C163.962 148.52 164.305 148.319 164.538 147.802C164.55 147.773 164.563 147.744 164.576 147.716L175.731 147.85L160.628 153.266Z" fill="#B1BABA"/>
<path d="M160.374 152.683L158.658 148.749L170.38 148.994L160.374 152.683Z" fill="#E7E9E8"/>
<path d="M160.746 154.279C160.834 154.194 160.888 154.086 160.892 153.967C160.892 153.963 160.892 153.959 160.892 153.955C160.892 153.953 160.892 153.952 160.892 153.951C160.891 153.899 160.88 153.846 160.86 153.796L160.628 153.266L175.731 147.85C175.735 147.85 175.739 147.85 175.743 147.85C175.901 147.858 176.004 147.968 176.039 148.101C176.085 148.267 176.025 148.467 175.835 148.539L160.746 154.279Z" fill="#747C7E"/>
<path d="M140.063 154.462H160.266C160.614 154.46 160.894 154.231 160.892 153.951C160.891 153.899 160.88 153.846 160.86 153.796L151.872 133.192C151.645 132.604 150.969 132.202 150.202 132.199H129.987C129.645 132.199 129.368 132.422 129.368 132.696C129.368 132.754 129.381 132.811 129.405 132.864L138.392 153.468C138.622 154.055 139.297 154.456 140.063 154.462Z" fill="#17282F"/>
<path d="M159.619 154.462H140.063C139.57 154.458 139.115 154.291 138.792 154.016C138.613 153.863 138.474 153.678 138.392 153.468L129.405 132.864C129.381 132.811 129.368 132.754 129.368 132.696C129.368 132.422 129.645 132.199 129.987 132.199H150.202H150.081L159.619 154.462Z" fill="#B1BABA"/>
<path d="M142.507 143.789C142.944 144.778 143.828 145.457 144.488 145.319C145.148 145.181 145.324 144.279 144.9 143.288C144.476 142.296 143.581 141.633 142.921 141.772C142.262 141.91 142.065 142.774 142.507 143.789Z" fill="white"/>
<path d="M160.266 154.462H159.619L150.081 132.199H150.202C150.954 132.202 151.619 132.588 151.859 133.158C151.863 133.17 151.868 133.181 151.873 133.192L160.86 153.796C160.881 153.846 160.891 153.899 160.892 153.951C160.892 153.952 160.892 153.953 160.892 153.955C160.892 153.959 160.892 153.963 160.892 153.967C160.884 154.24 160.607 154.46 160.266 154.462Z" fill="#747C7E"/>
<path d="M186.589 115.297C186.589 115.676 187.804 129.151 187.804 129.151C187.047 130.571 171.466 135.978 169.471 137.958L173.106 141.698C173.106 141.698 191.644 137.958 194.637 135.782C197.191 133.926 196.976 130.668 196.976 126.221C196.976 121.774 196.004 115.297 196.004 115.297H186.589Z" fill="#F8A45D"/>
<path d="M188.161 106.982C184.333 108.581 187.255 129.074 187.255 129.074L183.488 130.668L185.803 139.393C185.803 139.393 190.442 138.513 195.078 137.567C199.98 136.567 200.698 125.253 198.245 116.092C195.792 106.93 192.638 105.112 188.161 106.982Z" fill="#4CAF4F"/>
<path d="M162.965 147.771C163.051 146.896 164.437 143.69 165.285 142.411C166.132 141.132 169.471 137.958 169.471 137.958L173.549 140.239C173.549 140.239 173.693 142.101 172.538 143.091C171.871 143.662 171.157 144.167 171.157 144.167C171.157 144.167 171.344 144.863 171.349 145.641C171.354 146.503 171.178 147.567 170.468 147.534C169.759 147.501 169.498 145.217 169.463 144.887C169.497 145.221 169.693 147.559 168.743 147.642C167.828 147.72 167.677 145.28 167.677 145.28C167.677 145.28 167.629 146.418 167.6 146.998C167.571 147.579 166.988 148.085 166.45 147.438C165.826 146.69 165.771 145.397 165.771 145.397C165.771 145.397 165.277 146.153 164.538 147.802C164.006 148.988 162.892 148.51 162.965 147.771Z" fill="#F8A45D"/>
<path d="M169.499 145.457C169.491 145.184 169.471 144.972 169.463 144.887C169.472 144.971 169.495 145.182 169.537 145.45C169.525 145.454 169.513 145.456 169.5 145.457C169.5 145.457 169.499 145.457 169.499 145.457Z" fill="#4CAF4F"/>
<path d="M169.493 145.457C169.423 145.457 169.364 145.402 169.361 145.33C169.349 145.105 169.338 144.877 169.338 144.648C169.338 144.429 169.348 144.21 169.379 143.989C169.442 143.537 169.595 143.079 169.899 142.716C169.925 142.685 169.963 142.669 170.002 142.669C170.031 142.669 170.062 142.679 170.087 142.7C170.143 142.747 170.151 142.831 170.103 142.888C169.843 143.198 169.701 143.607 169.643 144.026C169.614 144.23 169.605 144.438 169.605 144.648C169.605 144.869 169.615 145.092 169.627 145.317C169.63 145.378 169.592 145.431 169.537 145.45C169.495 145.182 169.472 144.971 169.463 144.887C169.471 144.972 169.491 145.184 169.499 145.457C169.497 145.457 169.495 145.457 169.493 145.457Z" fill="#E09454"/>
<path d="M167.656 145.765C167.668 145.485 167.677 145.281 167.677 145.281C167.677 145.281 167.689 145.467 167.724 145.734C167.706 145.75 167.682 145.761 167.656 145.765Z" fill="#E0E1DE"/>
<path d="M167.637 145.766C167.566 145.766 167.508 145.711 167.504 145.639C167.493 145.414 167.482 145.187 167.482 144.957C167.482 144.739 167.492 144.518 167.523 144.298C167.585 143.846 167.739 143.389 168.043 143.026C168.069 142.994 168.107 142.978 168.145 142.978C168.175 142.978 168.205 142.988 168.23 143.009C168.287 143.056 168.294 143.141 168.247 143.197C167.986 143.508 167.844 143.916 167.787 144.335C167.758 144.539 167.748 144.747 167.748 144.957C167.748 145.178 167.76 145.402 167.77 145.626C167.772 145.669 167.754 145.708 167.724 145.734C167.689 145.467 167.677 145.28 167.677 145.28C167.677 145.28 167.668 145.485 167.656 145.765C167.652 145.765 167.648 145.766 167.644 145.766C167.642 145.766 167.64 145.766 167.637 145.766Z" fill="#E09454"/>
<path d="M165.788 145.604C165.743 145.604 165.702 145.582 165.678 145.547C165.739 145.446 165.771 145.397 165.771 145.397C165.771 145.397 165.774 145.475 165.788 145.604Z" fill="#E0E1DE"/>
<path d="M165.788 145.604C165.774 145.475 165.771 145.397 165.771 145.397C165.771 145.397 165.739 145.446 165.678 145.547C165.665 145.527 165.657 145.503 165.655 145.478C165.644 145.253 165.633 145.025 165.633 144.795C165.633 144.577 165.643 144.357 165.674 144.137C165.737 143.684 165.89 143.227 166.194 142.864C166.22 142.833 166.258 142.817 166.296 142.817C166.326 142.817 166.357 142.827 166.381 142.847C166.438 142.895 166.445 142.979 166.398 143.035C166.138 143.346 165.995 143.755 165.938 144.173C165.909 144.378 165.899 144.585 165.899 144.795C165.899 145.016 165.91 145.239 165.922 145.465C165.925 145.538 165.868 145.601 165.795 145.604C165.793 145.604 165.79 145.604 165.788 145.604Z" fill="#E09454"/>
<path d="M87.5129 172.852C87.5129 189.669 73.8799 203.302 57.0628 203.302C40.2457 203.302 26.6128 189.669 26.6128 172.852C26.6128 156.035 40.2457 142.402 57.0628 142.402C73.8799 142.402 87.5129 156.035 87.5129 172.852Z" fill="white"/>
<path d="M87.513 172.852H87.2463C87.2463 181.188 83.8682 188.732 78.4058 194.195C72.9429 199.657 65.3989 203.035 57.0629 203.035C48.7273 203.035 41.1831 199.657 35.7202 194.195C30.2574 188.732 26.8797 181.188 26.8795 172.852C26.8797 164.516 30.2574 156.972 35.7202 151.509C41.1831 146.046 48.7273 142.668 57.0629 142.668C65.3989 142.668 72.9429 146.046 78.4058 151.509C83.8682 156.972 87.2463 164.516 87.2463 172.852H87.513H87.7797C87.7797 155.887 74.0277 142.135 57.0629 142.135C40.0985 142.135 26.3464 155.887 26.3462 172.852C26.3464 189.816 40.0985 203.568 57.0629 203.568C74.0277 203.568 87.7797 189.816 87.7797 172.852H87.513Z" fill="#17282F"/>
<path d="M62.8319 192.313C62.8319 194.302 60.0665 195.896 56.7039 195.843C53.3417 195.789 50.6417 194.165 50.6657 192.176C50.6897 190.187 53.4313 188.592 56.7876 188.652C60.1444 188.711 62.8559 190.33 62.8319 192.313Z" fill="#17282F"/>
<path d="M65.4603 185.755C65.7905 185.442 65.9889 185.015 66.0161 184.56C66.0161 182.613 61.9126 180.977 56.8001 180.929C51.6874 180.882 47.5242 182.404 47.5005 184.351C47.5209 184.802 47.7105 185.229 48.032 185.546C47.9353 185.731 47.8803 185.935 47.8707 186.143C47.8836 186.598 48.0796 187.029 48.4142 187.337C48.3057 187.532 48.2461 187.749 48.2411 187.971C48.2542 188.43 48.4576 188.862 48.8026 189.165C48.6817 189.359 48.6157 189.582 48.6113 189.811C48.6398 190.263 48.8565 190.683 49.2086 190.969C49.0824 191.164 49.0122 191.389 49.0055 191.62C49.0055 193.239 52.4159 194.606 56.6683 194.643C60.9211 194.678 64.3793 193.448 64.3974 191.794C64.3963 191.561 64.3302 191.333 64.2059 191.136C64.5563 190.854 64.7729 190.438 64.8033 189.99C64.8011 189.764 64.7414 189.541 64.6299 189.345C64.9761 189.054 65.191 188.636 65.2273 188.186C65.2257 187.963 65.1702 187.744 65.0662 187.547C65.4118 187.253 65.6267 186.834 65.6635 186.382C65.6443 186.16 65.575 185.946 65.4603 185.755Z" fill="#17282F"/>
<path d="M56.8497 194.643C56.7894 194.643 56.7291 194.643 56.6683 194.643C52.4159 194.606 49.0055 193.239 49.0055 191.62C49.0122 191.389 49.0824 191.164 49.2086 190.969C48.8565 190.683 48.6398 190.263 48.6113 189.811C48.6157 189.582 48.6817 189.359 48.8026 189.165C48.4576 188.862 48.2542 188.43 48.2411 187.971C48.2461 187.749 48.3057 187.532 48.4142 187.337C48.0796 187.029 47.8836 186.598 47.8707 186.143C47.8803 185.935 47.9353 185.731 48.032 185.546C47.7105 185.229 47.5209 184.802 47.5005 184.351C47.5005 184.34 47.5009 184.328 47.5013 184.316C48.5688 185.856 52.2072 187.025 56.5489 187.075C56.6454 187.076 56.7414 187.077 56.8369 187.077C61.4993 187.077 65.3329 185.767 65.9153 184.036C65.9814 184.207 66.0161 184.382 66.0161 184.56C65.9889 185.015 65.7905 185.442 65.4603 185.755C65.575 185.946 65.6443 186.16 65.6635 186.382C65.6267 186.834 65.4118 187.253 65.0662 187.547C65.1702 187.744 65.2257 187.963 65.2273 188.186C65.191 188.636 64.9761 189.054 64.6299 189.345C64.7414 189.541 64.8011 189.764 64.8033 189.99C64.7729 190.438 64.5563 190.854 64.2059 191.136C64.3302 191.333 64.3963 191.561 64.3974 191.793C64.3798 193.425 61.0187 194.643 56.8497 194.643Z" fill="#57666B"/>
<path d="M73.129 168.554C73.2357 159.506 65.9871 152.085 56.9397 151.979C47.8922 151.872 40.4716 159.121 40.3651 168.168C40.3074 173.078 42.4547 177.755 46.2162 180.911C46.9085 181.482 47.2712 182.359 47.1837 183.252V183.384C47.1837 185.361 51.3647 187.015 56.5487 187.075C61.7333 187.135 65.9679 185.576 65.9919 183.593V183.467C65.9109 182.556 66.2949 181.664 67.0133 181.096C70.825 178.04 73.0687 173.439 73.129 168.554Z" fill="#4CAF4F"/>
<path d="M56.8369 187.077C56.7414 187.077 56.6454 187.076 56.5489 187.075C51.3649 187.015 47.1838 185.361 47.1838 183.384V183.252C47.1924 183.165 47.1968 183.078 47.1968 182.991C47.1974 182.191 46.841 181.426 46.2164 180.911C42.5063 177.798 40.3666 173.206 40.3643 168.37C40.3643 168.303 40.3647 168.236 40.3653 168.168C40.4709 159.186 47.7847 151.978 56.7436 151.978C56.8086 151.978 56.8748 151.978 56.9398 151.979C65.9254 152.085 73.1366 159.405 73.1302 168.368C73.1302 168.43 73.1302 168.492 73.1292 168.554C73.0689 173.439 70.8252 178.04 67.0134 181.096C66.3596 181.613 65.983 182.398 65.9814 183.222C65.9809 183.304 65.9846 183.386 65.9921 183.467V183.593C65.9686 185.539 61.8892 187.077 56.8369 187.077ZM57.063 153.252C52.4343 153.252 48.7013 155.85 48.7013 159.039C48.7013 162.229 52.4343 164.821 57.063 164.821C61.6918 164.821 65.4252 162.229 65.4252 159.039C65.4252 155.844 61.6918 153.252 57.063 153.252Z" fill="#AAFFAC"/>
<path d="M57.0629 164.821C52.4341 164.821 48.7012 162.229 48.7012 159.039C48.7012 155.85 52.4341 153.252 57.0629 153.252C61.6917 153.252 65.425 155.844 65.425 159.039C65.425 162.229 61.6917 164.821 57.0629 164.821Z" fill="#D3FFD4"/>
<path d="M44.4945 174.454C43.3979 172.575 42.8197 170.395 42.82 168.217C42.82 167.626 42.8625 167.034 42.9489 166.449C43.3526 163.711 44.7154 161.117 46.7414 159.231C46.8493 159.131 46.8552 158.962 46.7549 158.854C46.6545 158.747 46.4858 158.741 46.3781 158.841C44.2616 160.812 42.8439 163.51 42.4212 166.371C42.331 166.982 42.2866 167.6 42.2866 168.217C42.2868 170.489 42.8883 172.759 44.0337 174.723C44.1078 174.851 44.2712 174.893 44.3985 174.819C44.5256 174.745 44.5687 174.582 44.4945 174.454Z" fill="white"/>
<path d="M49.1812 191.008C53.9103 192.998 59.3722 193.064 64.1482 191.189C59.4437 193.228 53.8351 193.159 49.1812 191.008Z" fill="#17282F"/>
<path d="M49.0701 189.249C53.799 191.24 59.2608 191.306 64.0374 189.431C59.3323 191.47 53.7238 191.402 49.0701 189.249Z" fill="#17282F"/>
<path d="M48.9587 187.491C53.688 189.482 59.1498 189.547 63.9258 187.672C59.2213 189.712 53.6128 189.643 48.9587 187.491Z" fill="#17282F"/>
<path d="M53.4597 183.679C54.2229 181.081 54.6075 178.344 54.6075 175.607C54.6075 173.791 54.4384 171.976 54.0976 170.201C54.0251 169.827 53.9072 169.412 53.7061 169.063C53.6048 168.89 53.4816 168.731 53.3225 168.608C53.1646 168.486 52.9646 168.404 52.7448 168.399L52.7211 168.398C52.5248 168.398 52.3423 168.461 52.1913 168.56C51.9635 168.709 51.7973 168.929 51.67 169.171C51.5434 169.413 51.4561 169.68 51.4056 169.94C51.3391 170.283 51.3081 170.625 51.3081 170.966C51.3115 172.985 52.3881 174.901 53.6992 176.269C54.5275 177.128 55.5504 177.916 56.7605 177.98L56.9008 177.984C58.0635 177.98 59.1147 177.297 59.9099 176.433C61.144 175.088 61.8859 173.172 61.8875 171.249C61.8875 170.705 61.8272 170.16 61.7008 169.628C61.5845 169.143 61.3685 168.648 61.0635 168.255C60.9104 168.059 60.7339 167.888 60.5301 167.763C60.3275 167.637 60.0933 167.558 59.8432 167.558C59.7579 167.558 59.6715 167.567 59.5845 167.586C59.2448 167.659 58.9675 167.87 58.7611 168.132C58.5536 168.395 58.4096 168.715 58.3333 169.046C58.2709 169.318 58.2485 169.591 58.2485 169.86C58.2485 170.236 58.2917 170.604 58.3371 170.958C58.896 175.334 59.9643 179.625 61.5056 183.685L62.0037 183.495C60.4779 179.476 59.4197 175.225 58.8661 170.891C58.8213 170.541 58.7819 170.194 58.7819 169.86C58.7819 169.621 58.8021 169.388 58.8533 169.165C58.9125 168.906 59.0288 168.652 59.1797 168.462C59.3312 168.27 59.5093 168.147 59.696 168.108C59.7467 168.096 59.7952 168.092 59.8432 168.092C59.9813 168.092 60.1147 168.133 60.2507 168.216C60.4539 168.341 60.6539 168.564 60.8171 168.84C60.9803 169.115 61.1077 169.439 61.1819 169.751C61.2981 170.24 61.3541 170.744 61.3541 171.249C61.3552 173.033 60.6539 174.837 59.5173 176.072C58.7845 176.872 57.8405 177.454 56.9008 177.451L56.7867 177.448C55.8091 177.405 54.872 176.724 54.0837 175.9C52.8394 174.606 51.8383 172.789 51.8414 170.966C51.8414 170.657 51.8696 170.349 51.9292 170.041C51.9834 169.757 52.0983 169.455 52.2473 169.245C52.3211 169.14 52.4023 169.059 52.4814 169.007C52.5617 168.956 52.6361 168.932 52.7211 168.932L52.7315 168.932C52.8315 168.935 52.9113 168.966 52.9977 169.031C53.126 169.128 53.2531 169.315 53.352 169.547C53.4517 169.777 53.5253 170.049 53.5739 170.302C53.9077 172.043 54.0741 173.825 54.0741 175.607C54.0741 178.294 53.6965 180.982 52.9481 183.528L53.4597 183.679Z" fill="#17282F"/>
<path d="M225.347 197.056C225.347 197.056 277.952 184.732 280.455 195.688C284.026 211.329 246.071 221.851 225.855 221.206C205.639 220.562 225.347 197.056 225.347 197.056Z" fill="#17282F"/>
<path d="M227.662 221.234C227.045 221.234 226.444 221.225 225.855 221.206C226.3 221.213 226.745 221.216 227.189 221.216C227.911 221.216 228.633 221.207 229.354 221.189L229.36 221.212C228.784 221.227 228.218 221.234 227.662 221.234Z" fill="#111D23"/>
<path d="M240.41 220.188C240.9 220.111 241.39 220.03 241.879 219.944L241.661 219.592C241.745 219.517 241.787 219.455 241.787 219.455L240.08 217.029L239.751 216.496L250.47 218.186C247.116 219.016 243.716 219.688 240.41 220.188Z" fill="#111D23"/>
<path d="M267.27 212.287C266.589 211.965 260.561 209.127 252.609 205.796L263.194 199.069C263.441 198.98 263.569 198.707 263.48 198.46C263.41 198.266 263.227 198.145 263.032 198.145C262.979 198.145 262.924 198.154 262.87 198.173C258.077 199.226 247.567 201.563 247.364 202.791C247.244 203.539 252.028 204.019 252.028 204.019L250.603 204.962C245.981 203.057 240.841 201.049 235.79 199.295C238.518 198.81 240.396 198.312 240.939 197.976H242.735H249.159H249.189H249.19H267.067C267.07 197.976 267.073 197.976 267.077 197.976C267.451 197.972 267.8 197.896 268.1 197.765C268.535 197.607 268.88 197.308 269.036 196.93C269.037 196.928 269.037 196.928 269.037 196.927C269.038 196.925 269.039 196.923 269.04 196.921C269.04 196.92 269.04 196.919 269.041 196.918C269.042 196.916 269.043 196.913 269.044 196.91L270.132 194.417L272.82 192.311L271.675 191.354C276.489 191.816 279.864 193.105 280.455 195.688C280.614 196.385 280.691 197.072 280.69 197.748C280.686 203.469 275.152 208.423 267.27 212.287ZM247.198 196.467H245.047L244.122 195.851L246.228 196.416C246.317 196.44 246.409 196.452 246.501 196.452C246.745 196.452 246.986 196.367 247.174 196.209L247.39 196.027L247.198 196.467ZM247.414 195.972L246.615 195.189L247.347 195.552C247.417 195.588 247.493 195.609 247.57 195.616L247.414 195.972ZM247.974 194.688L245.917 193.119C246.885 192.969 247.862 192.823 248.848 192.683L247.974 194.688Z" fill="#111D23"/>
<path d="M241.661 219.592L240.08 217.029L241.787 219.455C241.787 219.455 241.745 219.517 241.661 219.592ZM252.609 205.796C251.952 205.52 251.284 205.243 250.603 204.962L252.028 204.019C252.028 204.019 247.244 203.539 247.364 202.791C247.568 201.563 258.077 199.226 262.871 198.173C262.924 198.154 262.979 198.145 263.033 198.145C263.227 198.145 263.41 198.266 263.48 198.46C263.57 198.707 263.441 198.98 263.194 199.069L252.609 205.796Z" fill="#070809"/>
<path d="M225.856 221.206C225.235 221.203 224.618 221.161 224.005 221.082C224.051 221.084 224.096 221.086 224.14 221.087C224.677 221.147 225.249 221.187 225.856 221.206Z" fill="#3B3D3F"/>
<path d="M239.523 220.322C239.522 220.321 239.521 220.319 239.519 220.318C239.816 220.276 240.112 220.233 240.41 220.188C240.115 220.234 239.819 220.279 239.523 220.322Z" fill="#3E3F42"/>
<path d="M227.189 221.216C226.744 221.216 226.3 221.213 225.855 221.206C225.248 221.187 224.677 221.147 224.14 221.087C224.227 221.091 224.312 221.092 224.396 221.092C227.732 221.092 227.528 218.884 226.721 216.966C227.066 217.081 227.379 217.169 227.653 217.223L226.063 214.408L225.622 214.269L236.044 215.912C235.193 216.274 233.109 217.197 231.399 217.899C231.029 218.051 230.675 218.196 230.352 218.328C230.284 218.356 230.208 218.387 230.143 218.414V218.415C229.309 218.757 228.736 218.993 228.736 218.993L229.354 221.189C228.632 221.207 227.911 221.216 227.189 221.216Z" fill="#070809"/>
<path d="M239.519 220.318C239.265 220.088 238.919 219.981 238.518 219.981C238.421 219.981 238.321 219.987 238.218 219.999L237.168 220.127C236.418 219.568 236.188 218.623 236.662 217.712C236.662 217.712 236.969 216.575 236.817 216.034L237.677 216.169C239.195 219.193 240.306 219.855 240.987 219.855C241.308 219.855 241.533 219.708 241.661 219.592L241.879 219.944C241.39 220.03 240.9 220.111 240.41 220.188C240.112 220.233 239.816 220.276 239.519 220.318ZM240.08 217.029L239.699 216.488L239.751 216.496L240.08 217.029Z" fill="#070809"/>
<path d="M240.987 219.855C240.306 219.855 239.195 219.194 237.677 216.17L239.699 216.489L240.079 217.029L241.661 219.592C241.533 219.708 241.308 219.855 240.987 219.855Z" fill="#050606"/>
<path d="M245.773 210.239L234.784 217.207L236.753 222.541L249.655 216.743L245.773 210.239Z" fill="#C8685A"/>
<path d="M228.736 218.994L229.815 222.829C229.815 222.829 230.625 223 230.877 223.807C231.019 224.26 230.685 225.51 230.685 225.51L233.573 236.08C233.588 236.076 234.298 235.884 234.579 235.681C234.922 235.433 235.2 235.18 235.424 234.923C236.204 234.021 236.29 232.715 236.319 231.747C236.368 230.125 237.299 225.387 237.299 225.387C237.299 225.387 237.655 224.153 238.959 223.066C239.685 222.459 240.021 221.694 239.954 221.22C239.817 220.253 239.122 219.89 238.218 219.999L237.168 220.127C236.418 219.568 236.188 218.623 236.662 217.712C236.662 217.712 237.284 215.41 236.319 215.797C235.768 216.019 233.341 217.101 231.4 217.899C230.947 218.085 230.519 218.26 230.143 218.414V218.415C229.309 218.757 228.736 218.994 228.736 218.994Z" fill="#17282F"/>
<path d="M236.894 227.913C236.924 227.854 236.908 227.78 236.859 227.735C236.632 227.526 236.352 227.376 236.035 227.31C235.868 227.276 235.792 227.543 235.961 227.578C236.242 227.638 236.489 227.768 236.688 227.95C236.754 228.011 236.853 227.996 236.893 227.916L236.894 227.913Z" fill="#4CAF4F"/>
<path d="M237.11 226.978C237.14 226.919 237.124 226.845 237.074 226.799C236.847 226.591 236.567 226.441 236.251 226.375C236.084 226.34 236.008 226.608 236.176 226.643C236.457 226.702 236.704 226.832 236.903 227.014C236.969 227.075 237.069 227.06 237.109 226.981L237.11 226.978Z" fill="#4CAF4F"/>
<path d="M237.289 226.026C237.319 225.966 237.303 225.892 237.254 225.846C237.027 225.638 236.747 225.489 236.43 225.422C236.263 225.387 236.187 225.655 236.356 225.691C236.637 225.749 236.884 225.88 237.083 226.062C237.149 226.123 237.248 226.108 237.288 226.028L237.289 226.026Z" fill="#4CAF4F"/>
<path d="M230.143 218.414C230.209 218.387 230.284 218.356 230.353 218.328C230.281 218.358 230.211 218.386 230.143 218.414Z" fill="#2B3032"/>
<path d="M233.573 236.08L231.136 227.159L230.685 225.51C230.685 225.51 230.912 224.661 230.912 224.109C230.912 223.991 230.902 223.886 230.877 223.807C230.625 223 229.815 222.829 229.815 222.829L229.36 221.212L229.354 221.189L228.736 218.994C228.736 218.994 229.309 218.757 230.143 218.415V218.414C230.211 218.386 230.281 218.358 230.353 218.328L235.008 235.336C234.881 235.449 234.744 235.561 234.592 235.672C234.587 235.675 234.583 235.678 234.579 235.681C234.578 235.682 234.577 235.683 234.576 235.684C234.292 235.886 233.588 236.076 233.573 236.08Z" fill="#405158"/>
<path d="M237.163 226.023C237.521 225.891 237.878 225.76 238.245 225.694C238.399 225.667 238.555 225.651 238.71 225.651C238.926 225.651 239.14 225.682 239.34 225.755C239.499 225.812 239.648 225.914 239.674 226.049L239.679 226.1C239.681 226.225 239.579 226.362 239.455 226.45C239.257 226.591 239.009 226.657 238.757 226.657C238.663 226.657 238.57 226.648 238.478 226.63C238.155 226.572 237.465 226.114 237.179 225.907L237.101 226.015C237.398 226.226 238.071 226.686 238.453 226.762C238.553 226.78 238.655 226.79 238.757 226.79C239.031 226.79 239.307 226.719 239.533 226.558C239.677 226.454 239.81 226.293 239.812 226.1L239.804 226.022C239.757 225.809 239.561 225.694 239.386 225.629C239.168 225.55 238.939 225.517 238.71 225.517C238.546 225.517 238.382 225.534 238.222 225.563C237.839 225.632 237.475 225.766 237.117 225.899L237.163 226.023Z" fill="#4CAF4F"/>
<path d="M237.17 225.969C237.468 225.732 237.772 225.491 238.03 225.199C238.289 224.908 238.501 224.56 238.579 224.171C238.591 224.109 238.599 224.044 238.599 223.979C238.599 223.847 238.566 223.708 238.461 223.609C238.375 223.529 238.263 223.499 238.154 223.499C238.053 223.499 237.952 223.524 237.862 223.562C237.511 223.712 237.258 224.029 237.126 224.379C237.053 224.578 237.035 224.901 237.034 225.219C237.034 225.49 237.049 225.755 237.061 225.921L237.195 225.911C237.182 225.748 237.168 225.485 237.168 225.219C237.167 224.908 237.189 224.588 237.251 224.426C237.372 224.103 237.605 223.816 237.914 223.685C237.989 223.652 238.076 223.632 238.154 223.632C238.24 223.632 238.314 223.655 238.37 223.707C238.438 223.77 238.466 223.867 238.466 223.979C238.466 224.034 238.459 224.09 238.448 224.145C238.377 224.503 238.178 224.831 237.931 225.111C237.683 225.391 237.386 225.627 237.086 225.864L237.17 225.969Z" fill="#4CAF4F"/>
<path d="M247.082 163.585C247.082 163.585 249.003 180.689 249.516 181.606C251.252 184.709 262.754 190.03 262.754 190.03L268.618 188.802L272.82 192.311L270.05 194.481L266.799 193.253C265.025 193.569 263.226 193.727 261.424 193.724C258.395 193.724 243.787 190.021 241.349 185.949C238.911 181.876 237.791 163.016 237.791 163.016L247.082 163.585Z" fill="#C8685A"/>
<path d="M237.542 170.308C237.542 170.308 233.035 155.288 238.65 151.118C244.265 146.948 248.731 167.599 248.731 167.599L237.542 170.308Z" fill="#4CAF4F"/>
<path d="M240.923 169.49L243.159 168.948L240.753 158.651L240.627 150.615L240.53 150.594C245.23 151.409 248.731 167.599 248.731 167.599L240.923 169.49Z" fill="#003302"/>
<path d="M241.098 197.782L241.054 177.874L240.627 150.615L228.864 148.063L218.627 147.612L206.979 152.942L206.707 159.63C206.707 159.63 208.039 190.344 207.964 191.27C207.872 192.405 204.569 199.529 204.569 199.529C219.285 202.882 241.33 198.797 241.098 197.782Z" fill="#4CAF4F"/>
<path d="M204.873 199.597C204.771 199.574 204.67 199.552 204.569 199.529C204.569 199.529 207.872 192.405 207.964 191.27C207.966 191.244 207.967 191.197 207.967 191.128C207.967 190.539 207.893 188.399 207.782 185.493C207.697 183.279 207.59 180.619 207.477 177.86C208.55 181.866 209.809 185.668 211.052 187.375C213.371 190.557 223.044 194.586 229.553 196.467H229.427V196.474C229.429 196.793 229.568 197.09 229.801 197.333C223.852 195.513 218.391 194.283 214.503 194.283C213.644 194.283 212.862 194.343 212.169 194.47C207.795 195.272 205.668 197.214 204.873 199.597ZM235.79 199.295C234.468 198.836 233.152 198.394 231.852 197.976H240.939C240.396 198.312 238.518 198.81 235.79 199.295ZM235.495 193.682C235.495 193.682 221.698 185.723 218.913 182.724C218.175 181.93 217.196 177.686 216.339 173.241L219.704 171.902L214.106 159.353L218.184 170.696C218.184 170.696 218.038 170.744 217.821 170.814C217.785 170.67 213.17 152.683 208.112 152.683C207.736 152.683 207.356 152.783 206.976 152.997L206.979 152.942L216.189 148.727C216.188 148.727 216.188 148.728 216.188 148.728L222.017 155.904L224.009 154.387L224.472 153.996C224.895 154.396 225.38 154.735 225.913 155.001L225.801 155.388C225.993 155.558 226.63 156.659 226.714 156.659C226.715 156.659 226.715 156.659 226.716 156.659C226.721 156.658 226.733 156.655 226.752 156.653C227.506 170.851 229.427 186.902 229.427 186.902L233.637 190.225L235.222 186.19C234.313 177.47 229.75 161.232 228.408 156.432L228.966 154.802L228.748 154.462C229 154.095 229.169 153.665 229.282 153.263L230.59 154.28L230.993 148.525L240.627 150.615L240.753 158.651L240.288 156.659L240.89 169.498L240.923 169.49L241.054 177.874L241.085 191.722L235.495 193.682ZM238.822 163.455L231.622 163.963L232.926 170.368L236.723 171.744L239.292 169.504L238.822 163.455ZM216.338 173.234C216.218 172.613 216.101 171.989 215.987 171.368L216.338 173.234ZM215.987 171.368L217.776 170.829C217.214 171.01 216.242 171.318 215.987 171.368ZM226.799 152.956L226.151 152.349H227.168C227.167 152.4 227.167 152.449 227.167 152.497C227.167 152.644 227.168 152.775 227.171 152.89C227.047 152.925 226.923 152.946 226.799 152.956ZM227.989 152.414L228.164 152.204L228.149 152.248C228.097 152.308 228.043 152.363 227.989 152.414ZM216.751 148.47L216.765 148.463L216.761 148.467C216.758 148.468 216.755 148.469 216.751 148.47Z" fill="#003302"/>
<path d="M240.012 131.572C240.658 131.51 241.212 130.926 241.241 130.279C241.27 129.631 240.769 129.001 240.131 128.882L237.116 128.58C237.259 130.516 237.403 132.451 237.546 134.387C238.13 134.538 238.758 134.568 239.328 134.373C239.898 134.177 240.4 133.733 240.572 133.155C240.743 132.578 240.53 131.882 240.012 131.572Z" fill="#17282F"/>
<path d="M228.488 142.737L222.008 134.583L222.004 134.611C222.003 135.382 221.978 136.263 221.915 137.203L221.216 136.876C220.939 141.113 219.263 148.34 219.341 148.965L226.15 152.349H227.518L227.63 148.353C226.946 146.627 227.591 144.615 228.488 142.737Z" fill="#C8685A"/>
<path d="M227.355 147.106C227.319 146.572 227.374 146.022 227.494 145.467L227.519 145.487C227.391 145.947 227.32 146.433 227.359 147.028C227.357 147.053 227.356 147.079 227.355 147.106Z" fill="#C3C5C2"/>
<path d="M227.323 147.773C224.154 146.411 223.319 143.873 223.42 142.248L227.494 145.467C227.374 146.022 227.319 146.572 227.355 147.106C227.346 147.293 227.334 147.519 227.323 147.773Z" fill="#995147"/>
<path d="M223.392 130.541C222.051 136.028 221.546 138.663 223.42 142.248C226.24 147.64 233.126 147.686 236.088 142.695C238.754 138.203 240.499 129.985 235.868 126.253C231.305 122.575 224.733 125.053 223.392 130.541Z" fill="#C8685A"/>
<path d="M224.55 123.093C226.211 120.355 230.557 119.911 232.164 122.072C232.404 122.395 229.807 122.473 230.104 122.459L228.582 126.781C228.285 126.611 227.541 126.79 226.908 127.681C226.908 127.681 225.929 133.628 222.848 135.291C219.822 131.116 220.168 123.101 224.55 123.093Z" fill="#17282F"/>
<path d="M219.871 134.369C219.871 135.889 220.578 137.262 221.481 138.124C222.84 139.421 224.418 138.418 224.792 136.674C225.129 135.105 224.829 132.539 223.103 131.902C221.403 131.275 219.871 132.631 219.871 134.369Z" fill="#C8685A"/>
<path d="M230.822 135.139C230.651 135.69 230.805 136.224 231.167 136.333C231.529 136.441 231.961 136.083 232.132 135.531C232.303 134.98 232.149 134.446 231.787 134.338C231.425 134.229 230.993 134.588 230.822 135.139Z" fill="#17282F"/>
<path d="M236.226 136.895C236.055 137.446 236.209 137.98 236.571 138.089C236.933 138.197 237.365 137.838 237.536 137.287C237.708 136.736 237.553 136.202 237.191 136.093C236.829 135.985 236.397 136.343 236.226 136.895Z" fill="#17282F"/>
<path d="M234.324 135.422C234.324 135.422 235.008 137.933 235.321 139.424C235.397 139.781 235.13 140.129 234.766 140.139C233.972 140.16 233.227 139.715 233.227 139.715L234.324 135.422Z" fill="#B5413C"/>
<path d="M230.246 131.833C230.318 131.893 230.421 131.913 230.516 131.877C231.648 131.451 232.461 132.023 232.469 132.029C232.59 132.116 232.76 132.09 232.848 131.97C232.937 131.85 232.909 131.682 232.789 131.595C232.747 131.564 231.728 130.846 230.324 131.375C230.184 131.428 230.113 131.583 230.166 131.722L230.246 131.833Z" fill="#17282F"/>
<path d="M239.095 134.388C239.145 134.38 239.194 134.358 239.235 134.321C239.347 134.221 239.358 134.05 239.259 133.939C238.272 132.825 237.044 133.011 236.988 133.013C236.841 133.036 236.739 133.174 236.761 133.322C236.782 133.469 236.918 133.569 237.064 133.548C237.115 133.538 238.063 133.406 238.855 134.301C238.917 134.371 239.008 134.401 239.095 134.388Z" fill="#17282F"/>
<path d="M230.367 140.838C230.556 140.992 230.758 141.129 230.971 141.246C231.039 141.283 231.125 141.265 231.172 141.203C231.204 141.128 231.175 141.043 231.105 141.003C230.004 140.411 229.251 139.329 229.079 138.091C229.071 138.014 229.004 137.957 228.927 137.959C228.856 137.956 228.796 138.01 228.792 138.08L228.795 138.112C228.925 139.197 229.493 140.182 230.367 140.838Z" fill="#17282F"/>
<path d="M242.733 127.479C242.363 126.383 241.058 125.923 239.904 125.84C240.628 125.827 241.197 125.092 241.199 124.368C241.2 123.645 240.752 122.981 240.183 122.534C239.166 121.735 237.716 121.528 236.516 122.01C236.743 121.9 236.825 121.597 236.752 121.356C236.679 121.114 236.489 120.926 236.288 120.773C235.067 119.84 233.175 119.933 232.052 120.982C231.66 119.654 230.122 118.786 228.782 119.135C227.475 119.475 225.013 119.737 224.632 123.082C223.524 122.294 221.805 122.462 220.928 123.52C219.981 124.664 220.227 126.593 221.43 127.463C220.833 127.211 220.091 127.599 219.845 128.199C219.599 128.798 219.79 129.516 220.206 130.013C220.623 130.509 221.232 130.809 221.855 130.987C222.443 131.154 223.077 131.222 223.66 131.042C224.243 130.861 224.762 130.394 224.878 129.794C224.977 130.422 225.637 130.888 226.269 130.822C226.902 130.756 227.435 130.207 227.539 129.58C227.642 128.952 227.343 128.29 226.837 127.905C227.556 128.603 228.949 128.328 229.35 127.41C229.883 128.434 230.644 129.4 231.704 129.857C232.764 130.314 234.16 130.122 234.839 129.187C235.183 129.588 235.535 129.996 235.98 130.28C236.426 130.565 236.988 130.715 237.492 130.554C237.995 130.392 238.391 129.86 238.285 129.342C239.117 130.036 240.29 130.397 241.316 130.045C242.342 129.693 243.079 128.507 242.733 127.479Z" fill="#17282F"/>
<path d="M224.43 152.023C224.43 152.023 227.286 154.566 228.748 151.279L229.51 151.872C229.51 151.872 229.436 154.318 228.051 155.135C228.387 156.492 234.184 176.238 235.222 186.19L233.637 190.225L229.427 186.902C229.427 186.902 227.383 169.828 226.684 155.322C224.998 154.751 223.664 153.486 223.045 151.872L224.43 152.023Z" fill="#4CAF4F"/>
<path d="M230.993 148.525L230.549 148.429C230.55 148.421 230.551 148.414 230.552 148.407L230.995 148.502L230.993 148.525Z" fill="#C3C5C2"/>
<path d="M230.59 154.281L229.282 153.263C229.318 153.132 229.349 153.004 229.376 152.882C229.8 153.327 230.216 153.754 230.259 153.754C230.339 153.754 230.426 149.276 230.549 148.429L230.993 148.525L230.59 154.281ZM228.149 152.248L228.164 152.204L228.405 151.914C228.322 152.038 228.237 152.149 228.149 152.248Z" fill="#006503"/>
<path d="M229.282 153.263L228.115 152.355L228.149 152.248C228.237 152.149 228.322 152.038 228.405 151.914L228.435 151.878C228.435 151.878 228.91 152.391 229.376 152.882C229.349 153.004 229.318 153.132 229.282 153.263Z" fill="#4CAF4F"/>
<path d="M216.189 148.727C216.217 148.713 216.583 148.523 216.751 148.47L216.189 148.727Z" fill="#C3C5C2"/>
<path d="M222.017 155.905L216.188 148.728C216.188 148.728 216.188 148.727 216.189 148.727L216.751 148.47C216.755 148.469 216.758 148.468 216.761 148.467L216.605 148.606L222.222 154.901L224.021 153.519C224.162 153.686 224.313 153.845 224.472 153.996L224.009 154.387L222.017 155.905Z" fill="#006503"/>
<path d="M224.472 153.996C224.312 153.845 224.162 153.686 224.021 153.519L225.183 152.626L225.715 152.814L225.379 153.227L224.472 153.996Z" fill="#4CAF4F"/>
<path d="M217.964 147.393C217.964 147.392 217.965 147.392 217.965 147.392L217.964 147.393Z" fill="#A7AAA9"/>
<path d="M216.605 148.606L219.445 146.071L227.215 153.346L225.183 152.626L222.222 154.901L216.605 148.606Z" fill="#4CAF4F"/>
<path d="M227.215 153.346C227.043 153.017 227.383 146.539 227.383 146.539L230.59 148.291C230.444 148.261 230.348 153.754 230.259 153.754C230.17 153.754 228.435 151.878 228.435 151.878L227.215 153.346Z" fill="#4CAF4F"/>
<path d="M240.923 169.49L240.753 158.651L243.159 168.948L240.923 169.49Z" fill="#006503"/>
<path d="M240.889 169.498L240.287 156.659L240.753 158.651L240.923 169.49L240.889 169.498Z" fill="#006503"/>
<path d="M216.339 173.241C216.339 173.239 216.338 173.237 216.338 173.234L215.987 171.368L215.987 171.368C216.242 171.318 217.214 171.01 217.776 170.829L217.821 170.815C217.821 170.815 217.821 170.814 217.821 170.814C218.038 170.744 218.184 170.696 218.184 170.696L214.106 159.353L219.704 171.902L216.339 173.241Z" fill="#006503"/>
<path d="M222.222 154.901L216.605 148.606L219.445 146.071L226.84 152.994L226.475 153.084L225.715 152.814L225.183 152.626L224.021 153.519L222.222 154.901Z" fill="#003302"/>
<path d="M230.259 153.754C230.216 153.754 229.8 153.327 229.376 152.882C228.91 152.391 228.435 151.878 228.435 151.878L228.405 151.914L228.164 152.204L227.677 152.79L227.172 152.913C227.169 152.794 227.167 152.654 227.167 152.497C227.167 150.663 227.384 146.539 227.384 146.539L230.59 148.291C230.589 148.291 230.589 148.291 230.589 148.291C230.444 148.291 230.347 153.754 230.259 153.754Z" fill="#003302"/>
<path d="M236.723 171.744L232.926 170.368L231.622 163.963L238.822 163.455L239.292 169.504L236.723 171.744Z" fill="#AECAEC"/>
<path d="M227.677 152.79L226.475 153.084C226.473 153.083 226.466 153.094 226.46 153.105C226.449 153.123 226.44 153.141 226.458 153.111L225.801 155.388C225.995 155.56 226.641 156.677 226.716 156.659C226.79 156.64 228.387 156.492 228.387 156.492L228.966 154.802L227.677 152.79Z" fill="#4CAF4F"/>
<path d="M226.714 156.659C226.63 156.659 225.993 155.558 225.801 155.388L226.458 153.111C226.451 153.123 226.448 153.127 226.448 153.127C226.447 153.126 226.453 153.116 226.46 153.105C226.466 153.094 226.473 153.084 226.475 153.084L227.677 152.79L228.966 154.802L228.407 156.432L228.387 156.492C228.387 156.492 227.001 156.621 226.751 156.653C226.733 156.655 226.721 156.658 226.716 156.659C226.715 156.659 226.715 156.659 226.714 156.659Z" fill="#4CAF4F"/>
<path d="M214.411 161.96C214.411 161.96 217.265 180.949 218.913 182.724C221.698 185.723 235.495 193.682 235.495 193.682L242.381 191.267C242.864 191.109 243.398 191.196 243.792 191.496L248.5 195.09L248.051 195.469C247.857 195.633 247.576 195.667 247.347 195.552L246.615 195.189L247.433 195.99L247.174 196.209C246.916 196.427 246.558 196.505 246.228 196.416L244.122 195.851L246.065 197.145C245.632 197.51 245.028 197.637 244.474 197.479L241.393 196.601C239.293 197.082 237.153 197.388 234.998 197.517C231.371 197.74 214.244 191.756 211.052 187.375C207.86 182.993 204.569 164.801 204.569 164.801L214.411 161.96Z" fill="#C8685A"/>
<path d="M205.298 174.593C205.298 174.593 201.03 157.383 206.645 153.213C212.26 149.044 217.821 170.815 217.821 170.815L205.298 174.593Z" fill="#4CAF4F"/>
<path d="M205.298 174.593C205.298 174.593 203.743 168.324 203.745 162.437C203.746 158.57 204.419 154.867 206.645 153.213C207.136 152.849 207.626 152.683 208.112 152.683C213.19 152.683 217.821 170.815 217.821 170.815L217.776 170.829L215.987 171.368L215.987 171.369L206.558 174.212L205.298 174.593Z" fill="#003302"/>
<path d="M251.258 196.467H229.427V196.474C229.433 197.307 230.363 197.98 231.506 197.976H242.736H249.16H249.189H249.19H267.067C268.201 197.968 269.113 197.294 269.107 196.467H251.258Z" fill="#17282F"/>
<path d="M267.394 197.891H247.451C247.106 197.888 246.83 197.663 246.833 197.387C246.833 197.334 246.844 197.283 246.864 197.233L255.736 176.893C255.96 176.312 256.628 175.916 257.386 175.913H277.342C277.679 175.913 277.953 176.132 277.953 176.403C277.953 176.46 277.94 176.516 277.916 176.57L269.044 196.91C268.817 197.489 268.151 197.885 267.394 197.891Z" fill="#17282F"/>
<path d="M249.189 197.976H231.852C231.163 197.754 230.479 197.54 229.801 197.333C229.568 197.089 229.429 196.793 229.427 196.474V196.467H240.666H247.198L246.864 197.233C246.844 197.283 246.833 197.334 246.833 197.387C246.83 197.663 247.106 197.888 247.451 197.891H267.394C267.603 197.889 267.805 197.858 267.993 197.801C267.717 197.907 267.409 197.972 267.077 197.976C267.074 197.976 267.07 197.976 267.067 197.976H249.19H249.189Z" fill="#B1BABA"/>
<path d="M267.394 197.891H247.451C247.106 197.888 246.83 197.663 246.833 197.387C246.833 197.334 246.844 197.283 246.864 197.233L247.198 196.467H248.123L257.386 175.913H277.342C277.359 175.913 277.376 175.913 277.393 175.915C277.564 175.926 277.716 175.994 277.818 176.096C277.819 176.097 277.821 176.099 277.822 176.1C277.822 176.1 277.822 176.1 277.822 176.101C277.904 176.184 277.953 176.289 277.953 176.403C277.953 176.453 277.943 176.502 277.925 176.55C277.922 176.556 277.919 176.563 277.916 176.57L272.986 187.873L269.044 196.91C269.043 196.913 269.042 196.916 269.041 196.918C269.041 196.919 269.04 196.92 269.04 196.921C269.039 196.923 269.038 196.925 269.037 196.927C269.037 196.928 269.037 196.928 269.036 196.929C268.875 197.322 268.508 197.624 268.051 197.778C268.032 197.786 268.012 197.793 267.993 197.801C267.805 197.858 267.603 197.889 267.394 197.891Z" fill="#B1BABA"/>
<path d="M265.357 186.741C264.926 187.718 264.052 188.388 263.401 188.252C262.75 188.115 262.576 187.226 262.994 186.247C263.413 185.268 264.296 184.613 264.948 184.749C265.599 184.886 265.793 185.74 265.357 186.741Z" fill="white"/>
<path d="M248.123 196.467H247.198L255.736 176.893C255.96 176.312 256.628 175.916 257.386 175.913L248.123 196.467Z" fill="#747C7E"/>
<path d="M256.766 219.027L269.612 221.094L271.674 215.796L258.172 211.584L256.766 219.027Z" fill="#C8685A"/>
<path d="M275.325 223.767L277.06 220.181C277.06 220.181 276.567 219.516 276.913 218.745C277.107 218.311 278.186 217.596 278.186 217.596L283.031 207.769C283.017 207.762 282.359 207.435 282.013 207.4C281.593 207.358 281.216 207.364 280.878 207.408C279.697 207.566 278.766 208.487 278.102 209.192C276.991 210.374 273.153 213.303 273.153 213.303C273.153 213.303 272.068 213.991 270.371 213.941C269.425 213.914 268.666 214.264 268.403 214.663C267.865 215.478 268.143 216.21 268.893 216.728L269.764 217.329C269.955 218.244 269.501 219.105 268.541 219.471C268.541 219.471 266.55 220.783 267.53 221.133C268.089 221.333 270.622 222.131 272.605 222.821C273.067 222.982 273.504 223.134 273.887 223.268L273.888 223.267C274.739 223.564 275.325 223.767 275.325 223.767Z" fill="#17282F"/>
<path d="M275.131 211.68C275.069 211.706 275.032 211.771 275.039 211.838C275.071 212.145 275.181 212.442 275.374 212.702C275.476 212.839 275.71 212.689 275.608 212.55C275.436 212.319 275.338 212.058 275.31 211.79C275.3 211.701 275.216 211.646 275.133 211.679L275.131 211.68Z" fill="#4CAF4F"/>
<path d="M274.349 212.238C274.287 212.262 274.25 212.329 274.257 212.396C274.288 212.702 274.399 212.999 274.592 213.259C274.694 213.396 274.928 213.246 274.825 213.108C274.654 212.877 274.556 212.615 274.527 212.348C274.518 212.258 274.434 212.204 274.351 212.237L274.349 212.238Z" fill="#4CAF4F"/>
<path d="M273.583 212.832C273.521 212.857 273.484 212.923 273.491 212.99C273.523 213.296 273.633 213.594 273.826 213.853C273.928 213.99 274.163 213.84 274.06 213.702C273.888 213.471 273.79 213.21 273.761 212.942C273.752 212.853 273.668 212.798 273.585 212.831L273.583 212.832Z" fill="#4CAF4F"/>
<path d="M273.718 223.209C273.703 223.204 273.689 223.199 273.674 223.194C273.689 223.199 273.703 223.204 273.718 223.209Z" fill="#F6F6F4"/>
<path d="M275.325 223.767C275.325 223.767 274.739 223.564 273.888 223.267V223.268C273.888 223.267 273.888 223.267 273.888 223.267L273.887 223.268C273.835 223.25 273.775 223.229 273.718 223.209C273.703 223.204 273.689 223.199 273.674 223.194L281.463 207.374C281.638 207.374 281.82 207.381 282.013 207.4C282.359 207.435 283.017 207.762 283.031 207.769L278.186 217.596C278.186 217.596 278.175 217.604 278.155 217.617C277.976 217.739 277.087 218.355 276.913 218.745C276.823 218.943 276.79 219.135 276.79 219.31C276.789 219.706 276.956 220.016 277.028 220.132C277.047 220.164 277.06 220.181 277.06 220.181L276.531 221.275L275.325 223.767Z" fill="#405158"/>
<path d="M273.676 212.917C273.321 212.779 272.967 212.64 272.647 212.446C272.329 212.252 272.042 211.997 271.868 211.675C271.817 211.581 271.778 211.471 271.778 211.377C271.779 211.325 271.789 211.277 271.814 211.234C271.874 211.126 272.018 211.075 272.17 211.075L272.243 211.079C272.576 211.113 272.884 211.319 273.094 211.591C273.298 211.849 273.51 212.65 273.587 212.994L273.717 212.964C273.634 212.61 273.436 211.82 273.2 211.51C272.972 211.215 272.636 210.986 272.257 210.946L272.17 210.942C271.994 210.942 271.797 210.998 271.698 211.168C271.66 211.234 271.645 211.306 271.645 211.377C271.645 211.506 271.693 211.632 271.751 211.739C271.94 212.089 272.245 212.358 272.578 212.56C272.911 212.763 273.273 212.903 273.628 213.042L273.676 212.917Z" fill="#4CAF4F"/>
<path d="M273.635 212.954C273.423 212.943 273.209 212.931 272.995 212.931C272.823 212.931 272.652 212.939 272.48 212.959C272.094 213.007 271.704 213.126 271.388 213.366C271.248 213.473 271.104 213.628 271.102 213.828L271.104 213.865C271.129 214.093 271.332 214.233 271.521 214.297C271.645 214.338 271.774 214.357 271.902 214.357C272.149 214.357 272.396 214.288 272.613 214.173C272.956 213.988 273.463 213.35 273.685 213.061L273.579 212.981C273.366 213.263 272.842 213.905 272.551 214.055C272.351 214.161 272.124 214.224 271.902 214.223C271.787 214.223 271.672 214.207 271.563 214.171C271.399 214.116 271.247 213.995 271.237 213.852L271.236 213.828C271.233 213.7 271.341 213.568 271.469 213.472C271.759 213.252 272.126 213.137 272.496 213.092C272.661 213.072 272.827 213.065 272.995 213.065C273.204 213.065 273.416 213.076 273.628 213.087L273.635 212.954Z" fill="#4CAF4F"/>
<path d="M208.493 213.17C205.723 208.757 199.461 196.8 212.169 194.47C224.876 192.141 267.334 212.318 267.334 212.318L264.644 220.421L225.126 214.191C225.126 214.191 230.533 221.41 223.975 221.081C214.435 220.136 212.145 217.854 208.493 213.17Z" fill="#17282F"/>
<path d="M227.653 217.224C227.379 217.169 227.066 217.081 226.721 216.966C226.101 215.493 225.126 214.191 225.126 214.191L225.622 214.269L226.064 214.409L227.653 217.224Z" fill="#050606"/>
<path d="M226.721 216.966C222.882 215.683 215.222 210.997 215.222 210.997L225.622 214.269L225.126 214.191C225.126 214.191 226.101 215.493 226.721 216.966Z" fill="#080A0B"/>
</g>
<defs>
<clipPath id="clip0_155_35392">
<rect width="400" height="235.28" fill="white" transform="translate(0 0.799927)"/>
</clipPath>
</defs>
</svg>
