<svg width="559" height="331" viewBox="0 0 559 331" fill="none" xmlns="http://www.w3.org/2000/svg">
<mask id="mask0_1077_1469" style="mask-type:luminance" maskUnits="userSpaceOnUse" x="0" y="1" width="559" height="329">
<path d="M559 1.11719H0V329.715H559V1.11719Z" fill="white"/>
</mask>
<g mask="url(#mask0_1077_1469)">
<path d="M274.056 117.081C283.394 126.415 283.394 141.548 274.056 150.883C264.715 160.217 249.572 160.217 240.232 150.883C230.892 141.548 230.893 126.416 240.232 117.081C249.572 107.748 264.715 107.747 274.056 117.081ZM217.411 107.969C214.091 113.021 211.859 118.571 210.67 124.295L201.547 125.154V142.809L210.67 143.668C211.858 149.391 214.091 154.94 217.411 159.994L211.585 167.026L224.077 179.511L231.115 173.688C236.171 177.007 241.724 179.239 247.451 180.426L248.31 189.543L265.976 189.541L266.835 180.426C272.562 179.237 278.116 177.007 283.172 173.688L290.208 179.511L302.702 167.026L296.876 159.993C300.195 154.94 302.428 149.391 303.617 143.668L312.739 142.809L312.74 125.154L303.617 124.294C302.428 118.572 300.195 113.022 296.875 107.97L302.701 100.936L290.208 88.4521L283.172 94.2748C278.115 90.9571 272.562 88.7247 266.835 87.5366L265.976 78.4194L248.31 78.4203L247.451 87.5374C241.724 88.7254 236.171 90.9564 231.115 94.2739L224.077 88.4505L211.585 100.936L217.411 107.969Z" fill="#DADBD8"/>
<path d="M168.688 82.2292C173.942 87.482 173.944 95.9996 168.688 101.252C163.43 106.506 154.907 106.506 149.651 101.253C144.395 95.9996 144.395 87.4827 149.651 82.2292C154.909 76.9765 163.43 76.9757 168.688 82.2292ZM136.808 77.1009C134.939 79.9447 133.683 83.068 133.013 86.2895L127.88 86.7721L127.879 96.7087L133.013 97.1922C133.683 100.414 134.939 103.537 136.808 106.381L133.529 110.339L140.559 117.365L144.519 114.089C147.366 115.955 150.491 117.211 153.715 117.88L154.197 123.011L164.14 123.011L164.624 117.88C167.848 117.211 170.973 115.955 173.818 114.089L177.779 117.365L184.809 110.339L181.531 106.381C183.399 103.537 184.656 100.414 185.325 97.1922L190.458 96.7087L190.46 86.7721L185.325 86.2888C184.656 83.068 183.399 79.9447 181.531 77.1016L184.809 73.1426L177.779 66.1164L173.818 69.3937C170.971 67.5264 167.847 66.2697 164.624 65.6009L164.14 60.4702L154.197 60.4711L153.715 65.6016C150.491 66.2705 147.366 67.5257 144.521 69.393L140.559 66.1157L133.529 73.1426L136.808 77.1009Z" fill="#DADBD8"/>
<path d="M179.564 36.4811C182.192 39.1067 182.192 43.3636 179.564 45.9884C176.937 48.6141 172.678 48.6141 170.05 45.9893C167.423 43.3636 167.423 39.1067 170.05 36.4811C172.678 33.8561 176.937 33.8561 179.564 36.4811ZM163.632 33.918C162.698 35.3392 162.069 36.9003 161.735 38.5108L159.169 38.7521L159.168 43.7181L161.735 43.9594C162.069 45.5699 162.698 47.1303 163.632 48.5515L161.992 50.53L165.506 54.0419L167.486 52.404C168.909 53.3373 170.47 53.9646 172.081 54.2989L172.323 56.8635H177.291L177.534 54.2989C179.144 53.9646 180.706 53.3373 182.129 52.404L184.108 54.0419L187.622 50.53L185.983 48.5515C186.917 47.1303 187.546 45.5699 187.88 43.9594L190.445 43.7181V38.7521L187.88 38.5101C187.546 36.9003 186.917 35.3399 185.983 33.9187L187.621 31.9395L184.108 28.4283L182.129 30.0662C180.706 29.1329 179.144 28.5049 177.534 28.1706L177.292 25.606L172.323 25.6067L172.081 28.1713C170.47 28.5058 168.909 29.1329 167.486 30.0662L165.506 28.4283L161.992 31.9395L163.632 33.918Z" fill="#DADBD8"/>
<path d="M123.401 179.991L91.3332 186.296C89.9149 186.575 88.5389 185.652 88.2602 184.234L79.8663 141.598C79.5868 140.18 80.5102 138.806 81.9286 138.527L113.997 132.221C115.415 131.942 116.791 132.865 117.07 134.283L125.463 176.919C125.743 178.336 124.82 179.712 123.401 179.991Z" fill="#E2E2E0"/>
<path d="M111.057 146.901L90.2159 151C89.4988 151.141 88.8034 150.675 88.6626 149.958L88.5485 149.38C88.4077 148.664 88.8743 147.968 89.5912 147.827L110.432 143.729C111.148 143.588 111.844 144.055 111.985 144.771L112.099 145.349C112.24 146.066 111.773 146.761 111.057 146.901Z" fill="#EDEDEB"/>
<path d="M112.654 155.017L91.8127 159.114C91.0965 159.255 90.4011 158.789 90.2602 158.073L90.1462 157.494C90.0053 156.778 90.4719 156.084 91.1882 155.943L112.029 151.845C112.746 151.704 113.442 152.17 113.582 152.887L113.696 153.465C113.837 154.182 113.371 154.876 112.654 155.017Z" fill="#EDEDEB"/>
<path d="M114.252 163.133L93.4111 167.231C92.6941 167.372 91.9987 166.905 91.8579 166.189L91.7438 165.61C91.603 164.894 92.0695 164.2 92.7865 164.059L113.628 159.961C114.344 159.819 115.039 160.287 115.181 161.002L115.294 161.581C115.436 162.296 114.969 162.992 114.252 163.133Z" fill="#EDEDEB"/>
<path d="M104.763 173.427L95.0088 175.346C94.2918 175.487 93.5964 175.021 93.4555 174.304L93.3415 173.726C93.2006 173.01 93.6673 172.316 94.3842 172.173L104.138 170.257C104.855 170.115 105.55 170.581 105.691 171.298L105.805 171.877C105.946 172.592 105.479 173.288 104.763 173.427Z" fill="#EDEDEB"/>
<path d="M154.618 222.901L134.323 220.48C132.888 220.308 131.863 219.006 132.034 217.572L135.324 190.033C135.496 188.599 136.798 187.575 138.234 187.747L158.53 190.169C159.964 190.339 160.989 191.641 160.818 193.075L157.528 220.614C157.356 222.048 156.053 223.073 154.618 222.901Z" fill="#E2E2E0"/>
<path d="M154.21 199.089L140.324 197.432C139.724 197.36 139.296 196.816 139.367 196.216C139.44 195.615 139.985 195.187 140.584 195.258L154.469 196.916C155.069 196.987 155.499 197.531 155.427 198.131C155.356 198.731 154.81 199.16 154.21 199.089Z" fill="#EDEDEB"/>
<path d="M153.545 204.65L139.661 202.994C139.06 202.921 138.632 202.376 138.703 201.776C138.775 201.177 139.32 200.748 139.921 200.819L153.805 202.476C154.404 202.548 154.835 203.092 154.762 203.692C154.691 204.293 154.146 204.721 153.545 204.65Z" fill="#EDEDEB"/>
<path d="M152.881 210.212L138.997 208.554C138.396 208.482 137.967 207.938 138.039 207.337C138.111 206.737 138.656 206.308 139.256 206.381L153.14 208.037C153.741 208.108 154.17 208.653 154.099 209.253C154.026 209.854 153.482 210.283 152.881 210.212Z" fill="#EDEDEB"/>
<path d="M144.62 214.865L138.333 214.115C137.732 214.044 137.303 213.499 137.375 212.899C137.447 212.298 137.992 211.869 138.593 211.942L144.88 212.692C145.481 212.763 145.909 213.308 145.837 213.909C145.766 214.508 145.221 214.936 144.62 214.865Z" fill="#EDEDEB"/>
<path d="M490.518 137.375L466.522 128.277C465.171 127.765 464.49 126.254 465.003 124.903L477.23 92.6984C477.741 91.348 479.253 90.6687 480.605 91.1811L504.601 100.28C505.952 100.792 506.633 102.302 506.12 103.653L493.895 135.857C493.382 137.208 491.87 137.887 490.518 137.375Z" fill="#E2E2E0"/>
<path d="M496.679 109.335L480.528 103.211C479.962 102.997 479.677 102.365 479.892 101.8L480.05 101.383C480.265 100.818 480.897 100.534 481.463 100.748L497.615 106.872C498.18 107.086 498.465 107.719 498.25 108.283L498.092 108.7C497.877 109.266 497.245 109.55 496.679 109.335Z" fill="#EDEDEB"/>
<path d="M494.284 115.637L478.133 109.514C477.567 109.299 477.282 108.667 477.498 108.102L477.655 107.685C477.871 107.12 478.504 106.836 479.068 107.051L495.221 113.174C495.785 113.389 496.07 114.02 495.857 114.586L495.697 115.002C495.482 115.567 494.85 115.852 494.284 115.637Z" fill="#EDEDEB"/>
<path d="M491.894 121.94L475.743 115.815C475.177 115.602 474.892 114.969 475.107 114.404L475.265 113.988C475.48 113.422 476.112 113.138 476.678 113.352L492.83 119.476C493.395 119.691 493.68 120.323 493.465 120.888L493.307 121.304C493.093 121.87 492.46 122.154 491.894 121.94Z" fill="#EDEDEB"/>
<path d="M480.89 124.977L473.348 122.118C472.782 121.903 472.498 121.272 472.712 120.706L472.871 120.29C473.085 119.724 473.718 119.44 474.283 119.655L481.825 122.514C482.391 122.729 482.675 123.36 482.461 123.926L482.301 124.343C482.088 124.907 481.456 125.192 480.89 124.977Z" fill="#EDEDEB"/>
<path d="M296.456 31.5731H288.894C288.247 31.5731 287.723 31.0488 287.723 30.403V21.0318C287.723 20.3853 288.247 19.8608 288.894 19.8608H296.456C297.101 19.8608 297.627 20.3853 297.627 21.0318V30.403C297.627 31.0488 297.101 31.5731 296.456 31.5731Z" fill="#DADBD8"/>
<path d="M311.35 31.5731H303.788C303.143 31.5731 302.617 31.0488 302.617 30.403V11.9221C302.617 11.2763 303.143 10.752 303.788 10.752H311.35C311.997 10.752 312.521 11.2763 312.521 11.9221V30.403C312.521 31.0488 311.997 31.5731 311.35 31.5731Z" fill="#DADBD8"/>
<path d="M327.388 31.8338H319.826C319.18 31.8338 318.656 31.3094 318.656 30.6629V2.92701C318.656 2.28047 319.18 1.75684 319.826 1.75684H327.388C328.035 1.75684 328.559 2.28047 328.559 2.92701V30.6629C328.559 31.3094 328.035 31.8338 327.388 31.8338Z" fill="#DADBD8"/>
<path d="M385.898 179.019C390.956 184.074 390.957 192.27 385.898 197.325C380.841 202.379 372.64 202.379 367.583 197.325C362.525 192.27 362.525 184.075 367.583 179.019C372.64 173.966 380.841 173.965 385.898 179.019ZM355.225 174.085C353.426 176.821 352.217 179.827 351.573 182.927L346.633 183.391V192.953L351.573 193.419C352.217 196.518 353.426 199.522 355.225 202.259L352.068 206.068L358.834 212.829L362.645 209.675C365.383 211.471 368.39 212.681 371.492 213.323L371.957 218.262L381.524 218.26L381.99 213.325C385.091 212.681 388.098 211.471 390.836 209.675L394.648 212.829L401.413 206.068L398.258 202.259C400.055 199.522 401.264 196.518 401.908 193.419L406.847 192.953L406.848 183.391L401.908 182.927C401.264 179.827 400.055 176.822 398.256 174.085L401.412 170.276L394.647 163.515L390.836 166.669C388.098 164.873 385.091 163.663 381.99 163.02L381.524 158.083L371.957 158.084L371.492 163.021C368.39 163.665 365.383 164.873 362.645 166.669L358.834 163.515L352.068 170.276L355.225 174.085Z" fill="#DADBD8"/>
<path d="M428.932 199.043C431.317 201.428 431.317 205.294 428.932 207.68C426.545 210.065 422.675 210.065 420.288 207.68C417.901 205.294 417.901 201.428 420.288 199.043C422.675 196.657 426.545 196.657 428.932 199.043ZM414.456 196.715C413.608 198.005 413.038 199.423 412.735 200.886L410.402 201.106V205.617L412.735 205.836C413.038 207.298 413.608 208.717 414.456 210.008L412.968 211.805L416.16 214.995L417.959 213.508C419.251 214.355 420.67 214.925 422.133 215.228L422.352 217.558H426.866L427.087 215.23C428.55 214.925 429.969 214.355 431.261 213.508L433.059 214.995L436.251 211.805L434.762 210.008C435.61 208.717 436.181 207.298 436.485 205.836L438.816 205.617V201.106L436.485 200.885C436.181 199.423 435.61 198.005 434.762 196.715L436.251 194.917L433.059 191.726L431.261 193.215C429.969 192.367 428.55 191.797 427.087 191.493L426.866 189.163H422.352L422.133 191.493C420.67 191.797 419.251 192.367 417.959 193.215L416.16 191.726L412.968 194.917L414.456 196.715Z" fill="#DADBD8"/>
<path d="M388.786 130.385C391.171 132.77 391.171 136.637 388.786 139.023C386.399 141.408 382.529 141.408 380.144 139.023C377.757 136.637 377.757 132.771 380.144 130.385C382.529 128.001 386.399 128 388.786 130.385ZM374.312 128.057C373.464 129.348 372.892 130.766 372.589 132.229L370.258 132.448V136.96L372.589 137.179C372.892 138.641 373.464 140.059 374.312 141.351L372.822 143.148L376.016 146.338L377.813 144.851C379.105 145.699 380.524 146.268 381.988 146.571L382.206 148.901H386.722L386.941 146.571C388.404 146.268 389.824 145.699 391.115 144.851L392.914 146.338L396.106 143.148L394.618 141.351C395.466 140.059 396.036 138.642 396.341 137.179L398.67 136.96V132.448L396.341 132.229C396.036 130.766 395.465 129.348 394.616 128.057L396.106 126.26L392.914 123.07L391.115 124.558C389.823 123.71 388.404 123.139 386.941 122.836L386.722 120.506L382.206 120.507L381.988 122.836C380.524 123.14 379.105 123.71 377.813 124.557L376.016 123.07L372.822 126.26L374.312 128.057Z" fill="#F3F2F1"/>
<path d="M438.297 148.992C442.777 153.469 442.779 160.73 438.297 165.208C433.816 169.687 426.551 169.687 422.071 165.208C417.59 160.73 417.59 153.471 422.071 148.992C426.552 144.514 433.816 144.514 438.297 148.992ZM411.122 144.62C409.529 147.044 408.459 149.707 407.887 152.453L403.512 152.865V161.335L407.887 161.747C408.457 164.493 409.529 167.155 411.122 169.579L408.327 172.954L414.32 178.944L417.696 176.149C420.122 177.741 422.786 178.813 425.534 179.381L425.946 183.757L434.422 183.755L434.834 179.382C437.583 178.811 440.246 177.741 442.672 176.149L446.047 178.944L452.041 172.954L449.246 169.579C450.838 167.155 451.91 164.493 452.48 161.747L456.856 161.335L456.857 152.865L452.48 152.453C451.91 149.707 450.838 147.045 449.246 144.62L452.041 141.246L446.047 135.257L442.671 138.05C440.245 136.459 437.581 135.387 434.834 134.818L434.422 130.444H425.946L425.534 134.818C422.786 135.388 420.122 136.458 417.698 138.05L414.32 135.256L408.327 141.246L411.122 144.62Z" fill="#F3F2F1"/>
<path d="M132.76 30.2998C136.674 34.2117 136.674 40.5543 132.76 44.4663C128.845 48.3784 122.499 48.3784 118.584 44.4663C114.67 40.5543 114.671 34.2117 118.585 30.2998C122.499 26.3884 128.845 26.3884 132.76 30.2998ZM109.02 26.4815C107.629 28.5984 106.693 30.9246 106.195 33.3232L102.371 33.6836V41.0831L106.195 41.4429C106.693 43.8414 107.629 46.1668 109.02 48.2852L106.578 51.2326L111.814 56.4654L114.764 54.0252C116.883 55.4151 119.21 56.3507 121.61 56.8482L121.97 60.6694H129.374L129.735 56.849C132.134 56.3507 134.462 55.4151 136.581 54.0252L139.53 56.4654L144.766 51.2326L142.325 48.2852C143.716 46.1668 144.652 43.8414 145.149 41.4429L148.973 41.0831V33.6836L145.151 33.3232C144.652 30.9246 143.716 28.5992 142.324 26.4815L144.765 23.5334L139.53 18.3015L136.581 20.7415C134.461 19.3509 132.134 18.4153 129.735 17.9178L129.375 14.0967H121.97L121.61 17.9178C119.21 18.4153 116.883 19.3509 114.764 20.7415L111.814 18.3007L106.578 23.5334L109.02 26.4815Z" fill="#F3F2F1"/>
<path d="M367.44 1.30096C365.133 1.30096 363.256 3.17577 363.256 5.48112V201.584C363.256 203.89 365.133 205.764 367.44 205.764H502.157C504.462 205.764 506.339 203.89 506.339 201.584V5.48112C506.339 3.17577 504.462 1.30096 502.157 1.30096H367.44ZM502.157 205.95H367.44C365.031 205.95 363.07 203.992 363.07 201.584V5.48112C363.07 3.07298 365.031 1.11475 367.44 1.11475H502.157C504.566 1.11475 506.525 3.07298 506.525 5.48112V201.584C506.525 203.992 504.566 205.95 502.157 205.95Z" fill="#DADBD8"/>
<path d="M212.091 1.30096C209.785 1.30096 207.909 3.17577 207.909 5.48112V201.584C207.909 203.89 209.785 205.764 212.091 205.764H346.807C349.115 205.764 350.99 203.89 350.99 201.584V5.48112C350.99 3.17577 349.115 1.30096 346.807 1.30096H212.091ZM346.807 205.95H212.091C209.682 205.95 207.723 203.992 207.723 201.584V5.48112C207.723 3.07298 209.682 1.11475 212.091 1.11475H346.807C349.217 1.11475 351.177 3.07298 351.177 5.48112V201.584C351.177 203.992 349.217 205.95 346.807 205.95Z" fill="#DADBD8"/>
<path d="M56.8451 1.30096C54.539 1.30096 52.6626 3.17577 52.6626 5.48112V201.584C52.6626 203.89 54.539 205.764 56.8451 205.764H191.561C193.868 205.764 195.745 203.89 195.745 201.584V5.48112C195.745 3.17577 193.868 1.30096 191.561 1.30096H56.8451ZM191.561 205.95H56.8451C54.4363 205.95 52.4766 203.992 52.4766 201.584V5.48112C52.4766 3.07298 54.4363 1.11475 56.8451 1.11475H191.561C193.97 1.11475 195.931 3.07298 195.931 5.48112V201.584C195.931 203.992 193.97 205.95 191.561 205.95Z" fill="#DADBD8"/>
<path d="M0 251.529H559V251.44H0V251.529Z" fill="#DADBD8"/>
<path d="M487.172 273.321H528.708V273.634H487.172V273.321Z" fill="#E7E8E5"/>
<path d="M368.973 277.035H379.875V276.722H368.973V277.035Z" fill="#E7E8E5"/>
<path d="M30.293 264.101H84.4598V263.789H30.293V264.101Z" fill="#E7E8E5"/>
<path d="M95.625 263.789H103.567V264.101H95.625V263.789Z" fill="#E7E8E5"/>
<path d="M129.379 269.393H246.853V269.081H129.379V269.393Z" fill="#E7E8E5"/>
<path d="M469.097 312.809C469.097 315.333 384.211 317.378 279.499 317.378C174.787 317.378 89.9023 315.333 89.9023 312.809C89.9023 310.288 174.787 308.242 279.499 308.242C384.211 308.242 469.097 310.288 469.097 312.809Z" fill="#F3F2F1"/>
<path d="M134.562 114.344H56.1689C54.4835 114.344 53.1172 112.978 53.1172 111.293V67.2771C53.1172 65.5929 54.4835 64.2275 56.1689 64.2275H134.562C136.248 64.2275 137.614 65.5929 137.614 67.2771V111.293C137.614 112.978 136.248 114.344 134.562 114.344Z" fill="#4CAF4F"/>
<path d="M134.562 114.344H56.1689C54.4835 114.344 53.1172 112.978 53.1172 111.293V67.2771C53.1172 65.5929 54.4835 64.2275 56.1689 64.2275H134.562C136.248 64.2275 137.614 65.5929 137.614 67.2771V69.0596V111.293C137.614 112.156 137.256 112.934 136.68 113.489C136.132 114.018 135.385 114.344 134.562 114.344ZM112.724 106.584H117.297V89.2291H112.724V106.584ZM93.0791 106.584H97.6524V81.9763H93.0791V106.584ZM73.7184 106.584H78.2909V89.7668H73.7184V106.584ZM76.0408 81.7506L75.9462 81.8437C75.9462 81.8437 75.3284 82.4529 74.3955 83.3736C72.9959 84.7532 70.8884 86.8313 69.0963 88.5951C67.3067 90.356 65.8224 91.813 65.6961 91.9262L65.9454 92.2033C66.0473 92.1109 66.728 91.445 67.7085 90.4818C70.4202 87.819 75.3715 82.9342 76.1139 82.2013L85.8792 87.0048L95.3509 75.8676L105.07 89.8644L114.735 83.5613L114.531 83.2493L105.169 89.3542L95.3807 75.2575L85.7838 86.5422L76.0408 81.7506Z" fill="#CFE0F5"/>
<path d="M65.9484 92.2031C66.0503 92.1107 66.731 91.4448 67.7116 90.4817C70.6483 87.5976 76.2116 82.1079 76.2116 82.1079L76.0804 81.9761L75.9984 82.143L85.8823 87.0046L95.354 75.8674L105.073 89.8642L114.738 83.5611L114.534 83.2491L105.172 89.354L95.3838 75.2573L85.7869 86.5421L76.0439 81.7504L75.9492 81.8435C75.9492 81.8435 75.3313 82.4527 74.3987 83.3734C72.9991 84.753 70.8915 86.8312 69.0995 88.5949C67.3098 90.3558 65.8256 91.8128 65.6992 91.926L65.9484 92.2031Z" fill="#17282F"/>
<path d="M68.8777 106.585H64.3047V96.458H68.8777V106.585Z" fill="#4CAF4F"/>
<path d="M73.7188 106.585H78.2915V89.7671H73.7188V106.585Z" fill="#4CAF4F"/>
<path d="M87.889 106.584H83.3164V91.4575H87.889V106.584Z" fill="#4CAF4F"/>
<path d="M93.082 106.585H97.6553V81.9766H93.082V106.585Z" fill="#4CAF4F"/>
<path d="M107.526 106.584H102.953V95.0239H107.526V106.584Z" fill="#4CAF4F"/>
<path d="M69.0503 90.9175C69.0503 92.2739 67.9504 93.3727 66.5934 93.3727C65.2367 93.3727 64.1367 92.2739 64.1367 90.9175C64.1367 89.5618 65.2367 88.4624 66.5934 88.4624C67.9504 88.4624 69.0503 89.5618 69.0503 90.9175Z" fill="#4CAF4F"/>
<path d="M78.4644 81.9763C78.4644 83.332 77.3643 84.4315 76.0079 84.4315C74.6506 84.4315 73.5508 83.332 73.5508 81.9763C73.5508 80.6199 74.6506 79.5205 76.0079 79.5205C77.3643 79.5205 78.4644 80.6199 78.4644 81.9763Z" fill="#4CAF4F"/>
<path d="M88.2882 86.0064C88.2882 87.3628 87.1888 88.4622 85.8315 88.4622C84.4751 88.4622 83.375 87.3628 83.375 86.0064C83.375 84.6507 84.4751 83.5513 85.8315 83.5513C87.1888 83.5513 88.2882 84.6507 88.2882 86.0064Z" fill="#4CAF4F"/>
<path d="M97.824 75.5628C97.824 76.9183 96.7239 78.0177 95.3675 78.0177C94.0103 78.0177 92.9102 76.9183 92.9102 75.5628C92.9102 74.2064 94.0103 73.1069 95.3675 73.1069C96.7239 73.1069 97.824 74.2064 97.824 75.5628Z" fill="#4CAF4F"/>
<path d="M107.578 89.6096C107.578 90.9652 106.478 92.0646 105.121 92.0646C103.764 92.0646 102.664 90.9652 102.664 89.6096C102.664 88.2532 103.764 87.1538 105.121 87.1538C106.478 87.1538 107.578 88.2532 107.578 89.6096Z" fill="#4CAF4F"/>
<path d="M112.727 106.584H117.299V89.229H112.727V106.584Z" fill="#4CAF4F"/>
<path d="M73.7188 106.585H78.2915V89.7671H73.7188V106.585Z" fill="#007308"/>
<path d="M93.082 106.585H97.6553V81.9766H93.082V106.585Z" fill="#007308"/>
<path d="M112.727 106.584H117.299V89.229H112.727V106.584Z" fill="#007308"/>
<path d="M127.417 106.584H122.844V95.0239H127.417V106.584Z" fill="#4CAF4F"/>
<path d="M114.543 83.5676L125.037 89.391L125.218 89.0656L114.724 83.2422" fill="#17282F"/>
<path d="M117.64 83.4055C117.64 84.7612 116.54 85.8607 115.183 85.8607C113.827 85.8607 112.727 84.7612 112.727 83.4055C112.727 82.0491 113.827 80.9497 115.183 80.9497C116.54 80.9497 117.64 82.0491 117.64 83.4055Z" fill="#4CAF4F"/>
<path d="M127.585 89.2291C127.585 90.5855 126.486 91.6842 125.128 91.6842C123.772 91.6842 122.672 90.5855 122.672 89.2291C122.672 87.8727 123.772 86.7739 125.128 86.7739C126.486 86.7739 127.585 87.8727 127.585 89.2291Z" fill="#4CAF4F"/>
<path d="M528.268 241.409C528.268 264.896 509.216 283.936 485.714 283.936C462.212 283.936 443.16 264.896 443.16 241.409C443.16 217.922 462.212 198.882 485.714 198.882C509.216 198.882 528.268 217.922 528.268 241.409Z" fill="white"/>
<path d="M528.265 241.409H527.891C527.891 253.052 523.172 263.588 515.538 271.218C507.903 278.846 497.36 283.564 485.711 283.564C474.061 283.564 463.518 278.846 455.884 271.218C448.249 263.588 443.53 253.052 443.53 241.409C443.53 229.767 448.249 219.231 455.884 211.601C463.518 203.971 474.061 199.254 485.711 199.254C497.36 199.254 507.903 203.971 515.538 211.601C523.172 219.231 527.891 229.767 527.891 241.409H528.265H528.638C528.638 217.716 509.419 198.509 485.711 198.509C462.004 198.509 442.785 217.716 442.785 241.409C442.785 265.102 462.004 284.308 485.711 284.308C509.419 284.308 528.638 265.102 528.638 241.409H528.265Z" fill="#17282F"/>
<path d="M464.961 263.367H507.075V233.646H464.961V263.367Z" fill="#4CAF4F"/>
<path d="M484.905 263.367H464.961V245.155H477.907L484.905 233.646V263.367Z" fill="#007308"/>
<path d="M464.962 233.646L458.105 245.155H477.908L484.905 233.646H464.962Z" fill="#4CAF4F"/>
<path d="M484.906 233.646L492.274 245.155H513.322L507.076 233.646H484.906Z" fill="#4CAF4F"/>
<path d="M513.322 245.155H492.274L484.906 233.646H507.076L513.322 245.155Z" fill="#007308"/>
<path d="M478.538 226.456C476.83 224.06 475.124 221.665 473.418 219.271C473.21 218.981 472.725 219.259 472.934 219.552C474.641 221.947 476.348 224.342 478.055 226.738C478.262 227.028 478.746 226.749 478.538 226.456Z" fill="#17282F"/>
<path d="M485.557 226.247C485.49 222.342 485.423 218.437 485.356 214.532C485.35 214.173 484.791 214.172 484.797 214.532C484.864 218.437 484.931 222.342 484.998 226.247C485.005 226.606 485.564 226.608 485.557 226.247Z" fill="#17282F"/>
<path d="M492.575 226.49C493.828 224.26 495.082 222.03 496.337 219.799C496.513 219.485 496.03 219.203 495.855 219.517C494.6 221.747 493.346 223.978 492.093 226.208C491.917 226.522 492.399 226.805 492.575 226.49Z" fill="#17282F"/>
<path d="M497.079 217.917L497.031 217.87L496.94 217.813L496.834 217.788L496.725 217.813L496.636 217.87L496.592 217.926L496.555 218.067L496.564 218.143L496.636 218.266L496.683 218.313L496.773 218.37L496.88 218.394L496.988 218.37L497.079 218.313L497.122 218.256L497.16 218.115L497.15 218.041L497.079 217.917Z" fill="#17282F"/>
<path d="M404.55 109.147L412.907 148.475C413.289 150.266 411.435 151.707 409.792 150.898L380.601 136.543C379.326 135.916 378.974 134.261 379.884 133.171L400.718 108.198C401.892 106.792 404.17 107.356 404.55 109.147Z" fill="#4CAF4F"/>
<path d="M410.763 151.13C410.444 151.13 410.113 151.057 409.792 150.898L395.424 143.833L387.567 139.97L380.601 136.543C379.808 136.153 379.374 135.367 379.375 134.567C379.376 134.078 379.54 133.584 379.884 133.171L400.718 108.197C401.169 107.657 401.784 107.407 402.392 107.407C403.363 107.407 404.316 108.045 404.55 109.146L406.587 118.731C405.45 118.991 404.298 119.206 403.133 119.374L406.375 141.849C408.036 141.611 409.684 141.307 411.306 140.946L412.907 148.475C412.942 148.638 412.957 148.799 412.957 148.954C412.953 150.175 411.927 151.13 410.763 151.13Z" fill="#007308"/>
<path d="M406.372 141.849L403.13 119.374C417.041 117.37 429.034 108.658 435.214 96.0696C445.518 75.0793 436.814 49.6257 415.811 39.3287C394.807 29.031 369.337 37.7302 359.032 58.7205C354.573 67.8057 353.509 78.1958 356.039 87.9766L334.038 93.657C330.153 78.6286 331.785 62.6698 338.634 48.7192C354.455 16.4873 393.566 3.12964 425.819 18.9417C458.069 34.7529 471.436 73.8398 455.613 106.071C446.126 125.399 427.718 138.775 406.372 141.849Z" fill="#4CAF4F"/>
<path d="M406.373 141.849L403.131 119.374C417.042 117.37 429.035 108.658 435.215 96.0696C438.152 90.0846 439.546 83.7361 439.548 77.4793C439.554 61.7953 430.825 46.6894 415.812 39.3287C409.817 36.3895 403.458 34.998 397.193 34.998C384.082 34.998 371.376 41.0902 363.256 51.8484C363.195 51.9303 363.132 52.0138 363.07 52.0972C361.551 54.1418 360.197 56.3525 359.034 58.7205C356.159 64.5759 354.696 70.9735 354.695 77.4011C354.695 80.2486 354.981 83.1015 355.561 85.9156C349.428 77.0815 342.069 69.1695 333.723 62.4172C334.835 57.7134 336.476 53.1161 338.635 48.7191C349.939 25.688 373.141 12.2915 397.229 12.2915C406.852 12.2915 416.613 14.4278 425.819 18.9417C448.857 30.2368 462.259 53.4096 462.268 77.4755C462.272 87.0984 460.135 96.8644 455.614 106.071C446.126 125.399 427.719 138.775 406.373 141.849Z" fill="#007308"/>
<path d="M418.294 92.641C407.859 102.765 391.187 102.518 381.056 92.0883C370.926 81.6588 371.173 64.9968 381.609 54.8726C392.045 44.7491 408.718 44.9964 418.849 55.4261C428.978 65.855 428.73 82.5169 418.294 92.641Z" fill="#4CAF4F"/>
<path d="M399.955 100.076C393.084 100.076 386.22 97.4047 381.057 92.0886C380.826 91.8502 380.598 91.6081 380.379 91.3637C385.453 96.2143 392.009 98.6508 398.572 98.6508C405.179 98.6508 411.796 96.1801 416.911 91.2171C427.11 81.3237 427.579 65.1892 418.144 54.7261C418.381 54.954 418.616 55.1871 418.849 55.4262C423.815 60.539 426.287 67.1496 426.287 73.7537C426.287 80.6206 423.615 87.4808 418.294 92.6412C413.18 97.6043 406.564 100.076 399.955 100.076Z" fill="#007308"/>
<path d="M416.912 91.2169C406.477 101.341 389.804 101.093 379.673 90.6642C369.542 80.2346 369.791 63.5727 380.227 53.4484C390.662 43.3242 407.335 43.5715 417.465 54.0011C427.596 64.4307 427.348 81.0927 416.912 91.2169Z" fill="#4CAF4F"/>
<path d="M413.805 88.0214C405.135 96.4325 391.284 96.227 382.867 87.5619C374.451 78.8977 374.657 65.0551 383.327 56.644C391.997 48.233 405.849 48.4386 414.265 57.1028C422.681 65.7679 422.475 79.6104 413.805 88.0214Z" fill="white"/>
<path d="M408.61 63.2428L408.4 63.0156L412.169 59.4432C412.269 59.5482 412.366 59.6532 412.463 59.7598L408.61 63.2428ZM402.943 59.5207L404.62 54.6077C404.761 54.656 404.901 54.7051 405.041 54.7565L403.223 59.6206C403.13 59.5855 403.037 59.552 402.943 59.5207ZM411.684 68.944C411.659 68.8472 411.633 68.7496 411.605 68.6528L416.599 67.2271C416.64 67.3686 416.679 67.5101 416.715 67.6509L411.684 68.944ZM396.488 58.9524L395.686 53.8232C395.824 53.8017 395.963 53.7822 396.101 53.7637L396.809 58.9055L396.488 58.9524ZM411.757 75.4199L411.826 75.1108L416.905 76.196C416.876 76.3354 416.845 76.4739 416.813 76.6116L411.757 75.4199ZM390.5 61.4543L387.418 57.2765L387.756 57.0321L390.765 61.2637L390.5 61.4543ZM408.821 81.1829C408.885 81.1099 408.948 81.0347 409.011 80.9587L413.022 84.2577C412.927 84.3732 412.83 84.4863 412.733 84.5989L408.821 81.1829ZM381.693 64.1858C381.756 64.0554 381.82 63.9258 381.886 63.797L386.513 66.1575C386.465 66.2491 386.419 66.3414 386.374 66.4339L381.693 64.1858ZM405.369 89.7839L403.478 84.9489L403.77 84.832L405.841 89.5924L405.717 89.6438C405.635 89.6795 405.502 89.7318 405.369 89.7839ZM379.833 72.9462C379.828 72.8025 379.826 72.6586 379.824 72.5156L385.019 72.4635L385.024 72.777L379.833 72.9462ZM396.481 90.9474L397.051 85.7877L397.374 85.8204L396.899 90.9899C396.759 90.9772 396.619 90.963 396.481 90.9474ZM382.264 81.5717C382.193 81.4452 382.123 81.3177 382.055 81.1889L386.636 78.7443C386.685 78.8343 386.733 78.9237 386.784 79.0124L382.264 81.5717ZM388.067 87.8473L390.972 83.5442C391.059 83.6014 391.144 83.6581 391.229 83.7133L388.43 88.0856C388.308 88.0074 388.187 87.9278 388.067 87.8473Z" fill="#040606"/>
<path d="M392.738 64.3921L397.959 73.3692C398.018 73.4682 398.118 73.5361 398.232 73.5518C398.345 73.5666 398.459 73.5294 398.542 73.449L406.991 65.2353C407.138 65.0923 407.142 64.8561 406.998 64.7086C406.854 64.5611 406.618 64.5582 406.471 64.7019L398.364 72.5826L393.382 64.0174C393.28 63.8402 393.051 63.7799 392.874 63.8827C392.695 63.9861 392.635 64.2141 392.738 64.3921Z" fill="#040606"/>
<path d="M399.807 73.5896C399.212 74.2674 398.18 74.3344 397.501 73.7408C396.823 73.1456 396.756 72.1147 397.35 71.4361C397.946 70.7583 398.977 70.6913 399.656 71.2857C400.334 71.8801 400.402 72.9118 399.807 73.5896Z" fill="#040606"/>
<path d="M377.332 67.062C378.264 63.1693 380.277 59.4867 383.364 56.4924C387.615 52.368 393.11 50.3159 398.601 50.3159C404.308 50.3159 410.011 52.5356 414.302 56.952C416.831 59.5567 418.568 62.6346 419.543 65.8873C419.448 65.6497 419.351 65.4136 419.249 65.1789C418.234 62.2435 416.574 59.4793 414.267 57.1031C409.976 52.6861 404.274 50.4679 398.567 50.4679C393.076 50.4679 387.58 52.5208 383.33 56.6443C380.284 59.6 378.281 63.2259 377.332 67.062Z" fill="#007308"/>
<path d="M378.267 80.2402C376.599 76.0311 376.291 71.4151 377.334 67.0614C378.283 63.2253 380.285 59.5993 383.33 56.6437C387.582 52.52 393.078 50.4673 398.567 50.4673C404.276 50.4673 409.978 52.6855 414.268 57.1025C416.575 59.4787 418.234 62.2428 419.249 65.1784C418.229 62.8454 416.785 60.6517 414.907 58.7174C410.616 54.3003 404.915 52.0821 399.206 52.0821C393.717 52.0821 388.22 54.135 383.969 58.2585C377.907 64.14 375.998 72.6739 378.267 80.2402Z" fill="#A7A9A8"/>
<path d="M179.058 228.53C160.056 207.467 149.59 180.237 149.59 151.855C149.59 99.8561 184.692 54.3046 234.953 41.0825L226.508 51.6789L241.306 65.2005C201.997 75.5407 174.545 111.174 174.545 151.855C174.545 174.057 182.729 195.357 197.591 211.83L179.058 228.53Z" fill="#4CAF4F"/>
<path d="M181.522 229.958C182.448 229.726 212.997 229.958 212.997 229.958L197.592 211.83L179.059 228.53L181.522 229.958Z" fill="#4CAF4F"/>
<path d="M181.522 229.958L179.059 228.53L193.962 215.103C194.413 215.487 195.049 215.72 195.738 215.725H200.903L202.665 217.799C202.249 218.073 201.885 218.343 201.586 218.607C198.598 221.236 197.574 225.165 198.252 229.873C195.457 229.862 192.619 229.855 190.093 229.855C185.431 229.855 181.831 229.88 181.522 229.958Z" fill="#007308"/>
<path d="M407.051 270.539V230.333C407.051 228.503 409.162 227.478 410.602 228.609L436.172 248.712C437.29 249.591 437.29 251.282 436.172 252.161L410.602 272.262C409.162 273.395 407.051 272.37 407.051 270.539Z" fill="#4CAF4F"/>
<path d="M269.07 262.388H411.196V238.485H269.07V262.388Z" fill="#4CAF4F"/>
<path d="M409.032 272.737C407.896 272.737 406.827 271.842 406.827 270.539V262.388H381.499H407.051V270.539C407.051 271.798 408.051 272.677 409.144 272.733C409.106 272.736 409.069 272.737 409.032 272.737ZM290.501 262.388H266.043C267.055 262.361 268.067 262.321 269.073 262.266V262.388H290.501ZM407.051 238.485H406.827V230.334C406.827 229.031 407.896 228.136 409.032 228.136C409.07 228.136 409.106 228.137 409.144 228.139C408.051 228.196 407.051 229.074 407.051 230.334V238.485Z" fill="#A7A9A8"/>
<path d="M409.143 272.733C408.05 272.677 407.051 271.799 407.051 270.539V262.388H411.199V238.485H407.051V230.334C407.051 229.074 408.051 228.196 409.144 228.139C409.568 228.161 409.997 228.31 410.378 228.609L435.948 248.714C437.066 249.591 437.066 251.282 435.948 252.161L410.378 272.262C409.997 272.562 409.568 272.712 409.143 272.733Z" fill="#007308"/>
<path d="M411.196 262.388H381.496L388.386 246.602C388.39 246.592 388.394 246.583 388.399 246.574C388.424 246.507 388.438 246.439 388.438 246.369C388.438 246.21 388.369 246.063 388.255 245.947C388.253 245.946 388.251 245.943 388.249 245.94C388.107 245.798 387.894 245.703 387.655 245.687C387.631 245.686 387.608 245.684 387.584 245.684H359.695C358.636 245.689 357.703 246.242 357.39 247.053L352.845 257.466C350.887 256.103 349.33 254.764 348.697 253.635C348.297 252.922 347.287 245.191 346.471 238.485H406.825H407.048H411.196V262.388ZM340.112 262.388H336.902L336.895 258.948C337.022 259.229 337.151 259.479 337.284 259.701C337.832 260.616 338.821 261.518 340.112 262.388ZM290.498 262.388H269.07V262.267C276.378 261.877 283.497 260.788 290.374 259.064C290.42 260.278 290.462 261.395 290.498 262.388Z" fill="#007308"/>
<path d="M262.992 37.3823V61.8833C311.558 61.8833 351.07 101.37 351.07 149.905C351.07 198.441 311.558 237.927 262.992 237.927H105.641V262.428H262.992C325.076 262.428 375.586 211.95 375.586 149.905C375.586 87.8605 325.076 37.3823 262.992 37.3823Z" fill="#4CAF4F"/>
<path d="M267.756 29.6114L267.677 69.8179C267.672 71.648 265.558 72.6684 264.121 71.534L238.592 51.3794C237.477 50.4989 237.481 48.8082 238.599 47.9322L264.209 27.8812C265.652 26.7518 267.76 27.7813 267.756 29.6114Z" fill="#4CAF4F"/>
<path d="M250.002 263.092H245.319L245.07 262.429H250.026L250.002 263.092Z" fill="#A7A9A8"/>
<path d="M250.025 262.428H245.069L242.13 254.585C241.352 248.229 238.706 242.686 236.789 239.18L243.198 239.067C244.407 239.087 245.617 239.098 246.818 239.098C250.016 239.098 253.159 239.021 256.103 238.838L267.735 238.631C268.22 238.631 257.837 245.204 250.761 245.205C250.729 245.205 250.7 245.205 250.669 245.205L250.025 262.428Z" fill="#007308"/>
<path d="M259.098 114.877C262.383 120.06 263.589 123.198 264.101 128.292C264.7 134.245 264.673 139.526 263.412 141.118C261.758 143.204 242.945 145.964 232.335 146.025C231.951 146.027 231.477 142.683 231.477 142.683C231.477 142.683 230.127 146.034 229.628 146.035C226.732 146.036 224.875 146.015 224.875 146.015C224.875 146.015 227.043 140.976 229.154 123.063C230.185 114.315 238.763 110.443 243.881 109.552C252.413 108.066 259.098 114.877 259.098 114.877Z" fill="#17282F"/>
<path d="M234.69 132.813C231.695 128.151 228.346 115.368 239.711 110.85C253.897 105.211 260.78 114.101 262.443 123.149C264.106 132.197 259.288 139.317 249.729 139.069C240.17 138.82 236.761 136.038 234.69 132.813Z" fill="#17282F"/>
<path d="M258.412 150.004C258.412 150.004 255.22 152.457 251.111 155.996C250.255 156.733 249.313 157.372 248.315 157.901C245.622 159.331 243.166 160.148 242.501 158.851C242.354 158.566 242.24 158.257 242.157 157.933C241.591 155.76 241.823 152.705 243.581 151.307C245.562 149.732 246.518 148.383 246.16 146.25C245.973 145.041 245.535 143.791 245.022 142.578L246.582 140.756L254.736 132.532C254.534 138.024 254.116 147.024 258.412 150.004Z" fill="#F8A45D"/>
<path d="M246.213 146.638C246.09 145.979 245.995 145.489 245.891 145.056C245.896 145.056 245.899 145.055 245.905 145.055C246.012 145.456 246.1 145.855 246.162 146.25C246.184 146.381 246.201 146.511 246.213 146.638Z" fill="#C3C5C2"/>
<path d="M245.889 145.056C245.842 144.861 245.793 144.676 245.738 144.495C245.797 144.682 245.853 144.868 245.903 145.055C245.898 145.055 245.895 145.056 245.889 145.056Z" fill="#111D23"/>
<path d="M246.225 146.718C246.221 146.69 246.216 146.663 246.211 146.638C246.199 146.511 246.182 146.381 246.16 146.25C246.098 145.855 246.01 145.455 245.903 145.055C245.852 144.867 245.796 144.682 245.738 144.494C245.655 144.217 245.562 143.944 245.444 143.638C245.443 143.637 245.443 143.636 245.441 143.634C247.233 143.245 249.025 142.404 250.654 141.073C250.535 143.444 248.288 145.494 246.225 146.718Z" fill="#C4824C"/>
<path d="M257.045 123.708C256.278 132.082 256.13 135.632 251.806 140.024C245.302 146.627 235.297 144.407 233.574 136.106C232.025 128.636 233.539 116.197 241.765 112.678C249.869 109.211 257.813 115.335 257.045 123.708Z" fill="#F8A45D"/>
<path d="M246.542 126.742C246.494 127.586 245.976 128.279 245.383 128.292C244.791 128.304 244.348 127.631 244.394 126.787C244.441 125.944 244.96 125.25 245.552 125.237C246.145 125.225 246.588 125.899 246.542 126.742Z" fill="#17282F"/>
<path d="M237.831 126.589C237.783 127.394 237.273 128.056 236.692 128.069C236.109 128.081 235.676 127.439 235.722 126.634C235.77 125.828 236.278 125.166 236.861 125.154C237.444 125.141 237.877 125.784 237.831 126.589Z" fill="#17282F"/>
<path d="M247.724 123.651C247.609 123.673 247.491 123.653 247.396 123.585C245.907 122.524 244.366 123.09 244.348 123.097C244.118 123.182 243.874 123.082 243.804 122.868C243.734 122.654 243.865 122.41 244.096 122.322C244.177 122.292 246.113 121.579 247.959 122.896C248.143 123.028 248.166 123.289 248.01 123.478C247.935 123.57 247.832 123.629 247.724 123.651Z" fill="#17282F"/>
<path d="M234.866 122.524C234.774 122.48 234.7 122.404 234.665 122.305C234.594 122.099 234.716 121.871 234.939 121.796C237.159 121.043 238.687 122.121 238.751 122.168C238.931 122.3 238.959 122.547 238.811 122.722C238.666 122.897 238.4 122.933 238.219 122.803C238.16 122.76 236.964 121.941 235.196 122.54C235.083 122.579 234.964 122.57 234.866 122.524Z" fill="#17282F"/>
<path d="M250.046 116.263C247.379 119.061 248.704 129.628 256.188 131.009C264.809 128.982 258 107.913 250.046 116.263Z" fill="#17282F"/>
<path d="M240.039 134.41C240.721 135.46 241.541 137.493 241.541 137.493C241.74 137.452 241.937 137.411 242.133 137.359C244.8 136.736 245.83 135.566 246.166 134.457C246.346 133.851 246.31 133.256 246.22 132.787C246.121 132.243 245.925 131.877 245.925 131.877C244.71 133.052 242.267 133.825 240.946 134.183C240.394 134.339 240.039 134.41 240.039 134.41Z" fill="#17282F"/>
<path d="M240.945 134.183L241.411 135.081C243.922 134.487 245.61 133.732 246.218 132.787C246.12 132.243 245.925 131.877 245.925 131.877C244.707 133.052 242.266 133.825 240.945 134.183Z" fill="white"/>
<path d="M242.133 137.359C244.801 136.735 245.831 135.565 246.166 134.457C245.265 134.705 244.205 135.104 243.34 135.737C242.678 136.218 242.326 136.803 242.133 137.359Z" fill="#F14553"/>
<path d="M240.177 126C240.177 126 238.599 129.775 236.953 131.622C238.024 132.657 239.937 132.113 239.937 132.113L240.177 126Z" fill="#F57734"/>
<path d="M243.879 124.839L245.802 125.293C244.93 126.272 243.879 124.839 243.879 124.839Z" fill="#17282F"/>
<path d="M235.289 124.755L237.212 125.21C236.34 126.188 235.289 124.755 235.289 124.755Z" fill="#17282F"/>
<path d="M241.824 110.884C238.514 112.005 235 117.727 234.414 119.93C239.119 120.699 251.803 116.294 251.803 116.294C251.803 116.294 260.266 118.631 255.979 114.342C251.691 110.053 241.824 110.884 241.824 110.884Z" fill="#17282F"/>
<path d="M259.583 130.532C258.594 132.25 256.985 133.328 255.511 133.698C253.293 134.254 252.148 130.69 252.904 128.47C253.586 126.47 255.766 125.147 257.924 125.583C260.051 126.012 260.715 128.569 259.583 130.532Z" fill="#F8A45D"/>
<path d="M230.169 121.431C229.696 125.117 229.217 128.823 227.982 132.3C227.361 134.05 226.407 136.726 225.224 139.217C224.045 141.707 222.625 144.01 221.137 144.997L221.344 145.307C222.948 144.231 224.365 141.89 225.561 139.376C226.755 136.864 227.712 134.176 228.334 132.424C229.586 128.897 230.065 125.165 230.538 121.478L230.169 121.431Z" fill="#17282F"/>
<path d="M254.836 133.479C254.836 134.341 255.535 135.041 256.397 135.041C257.261 135.041 257.961 134.341 257.961 133.479C257.961 132.617 257.261 131.917 256.397 131.917C255.535 131.917 254.836 132.617 254.836 133.479Z" fill="#4CAF4F"/>
<path d="M254.594 130.69C254.591 130.69 254.587 130.69 254.587 130.69C254.483 130.687 254.404 130.6 254.406 130.497C254.436 129.671 254.856 128.877 255.524 128.388C255.994 128.045 256.571 127.867 257.148 127.866C257.393 127.866 257.639 127.899 257.876 127.966C257.976 127.993 258.033 128.096 258.005 128.195C257.981 128.277 257.907 128.331 257.826 128.331C257.809 128.331 257.792 128.328 257.774 128.324C257.572 128.267 257.361 128.238 257.148 128.238H257.147C256.648 128.238 256.146 128.395 255.745 128.689C255.172 129.105 254.802 129.803 254.779 130.51C254.775 130.611 254.693 130.69 254.594 130.69Z" fill="#E09454"/>
<path d="M192.495 203.922C192.911 202.767 195.889 198.902 197.477 197.46C199.063 196.019 204.677 192.868 204.677 192.868L209.418 197.354C209.418 197.354 208.973 199.924 207.069 200.868C205.971 201.413 204.83 201.854 204.83 201.854C204.83 201.854 204.844 202.858 204.583 203.914C204.294 205.083 203.69 206.463 202.741 206.174C201.791 205.888 202.22 202.705 202.287 202.247C202.217 202.71 201.682 205.943 200.368 205.728C199.099 205.522 199.732 202.167 199.732 202.167C199.732 202.167 199.277 203.689 199.039 204.466C198.8 205.242 197.837 205.727 197.33 204.667C196.742 203.439 197.109 201.67 197.109 201.67C197.109 201.67 196.181 202.524 194.615 204.503C193.487 205.927 192.143 204.897 192.495 203.922Z" fill="#F8A45D"/>
<path d="M229.561 162.425C229.561 162.954 228.068 181.954 228.068 181.954C227.01 183.936 205.236 191.489 202.449 194.252L207.529 199.476C207.529 199.476 233.436 194.252 237.619 191.215C241.187 188.621 240.887 184.072 240.887 177.862C240.887 171.65 243.056 162.972 243.056 162.972L229.561 162.425Z" fill="#F8A45D"/>
<path d="M239.42 151.199C229.149 152.954 227.739 168.15 227.739 168.15L226.178 180.216L220.352 184.464L225.799 196.092C225.799 196.092 237.429 191.667 242.542 188.642C247.656 185.617 247.789 162.436 247.789 162.436L239.42 151.199Z" fill="#4CAF4F"/>
<path d="M233.273 193.072C233.275 193.069 233.279 193.068 233.279 193.068C233.275 193.07 233.273 193.072 233.273 193.072Z" fill="#C4824C"/>
<path d="M233.273 193.072L231.597 186.469C229.122 175.297 230.795 166.394 230.795 166.394C230.793 166.448 230.793 166.504 230.793 166.56C230.798 171.775 234.086 181.776 236.694 191.1C235.472 191.844 233.407 192.996 233.278 193.068L233.273 193.072Z" fill="#4CAF4F"/>
<path d="M239.836 204.228C248.396 203.375 259.532 202.692 274.024 202.365C274.024 202.365 284.83 227.799 272.016 235.397C268.144 237.693 261.754 238.602 254.721 238.75C246.561 238.925 239.836 232.388 239.836 224.232V204.228Z" fill="#17282F"/>
<path d="M267.821 225.176V237.127C257.165 240.198 235.045 239.029 221.896 237.957C215.975 237.474 211.422 232.531 211.422 226.594V216.788C211.422 213.538 213.433 210.632 216.478 209.488C222.852 207.091 234.451 203.52 246.586 203.709C258.351 203.89 267.821 213.418 267.821 225.176Z" fill="#17282F"/>
<path d="M275.951 202.365C274.295 200.181 270.461 194.959 269.974 189.462L269.973 189.416C269.942 189.062 269.924 188.709 269.924 188.354C269.836 186.018 269.851 183.249 270.005 179.93C270.026 179.41 270.057 178.861 270.087 178.311C270.181 176.568 270.317 174.691 270.483 172.648C270.793 168.987 271.24 164.807 271.843 160.056C271.977 158.957 273.014 157.251 273.169 156.089C273.865 150.913 269.143 147.173 264.047 147.381C262.688 147.433 261.245 147.527 259.782 147.672C254.064 148.211 249.372 148.698 244.4 149.881C242.751 150.264 241.047 150.732 239.419 151.198C233.565 152.878 230.867 160.367 230.794 166.394C230.721 172.011 234.662 183.473 237.364 193.541C237.761 199.316 234.604 202.463 235.554 204.477C235.913 205.236 240.122 204.929 245.841 204.622C255.264 204.116 268.788 203.609 275.951 207.879C275.951 207.879 277.718 204.696 275.951 202.365Z" fill="#4CAF4F"/>
<path d="M275.952 207.879C271.121 204.999 263.397 204.292 255.989 204.292C252.412 204.292 248.909 204.457 245.841 204.622C243.289 204.76 241.039 204.897 239.297 204.939C239.42 204.467 239.462 203.913 239.459 203.406C239.457 203.164 239.443 202.929 239.423 202.707L242.542 200.774C242.542 200.774 252.468 197.647 257.056 197.441C261.643 197.231 271.502 195.068 271.502 195.068C271.501 195.065 271.499 195.062 271.498 195.059C272.897 198.267 274.88 200.952 275.952 202.365C276.542 203.143 276.737 204.017 276.737 204.836C276.736 205.157 276.706 205.47 276.656 205.765C276.646 205.827 276.635 205.89 276.623 205.95C276.406 207.062 275.952 207.879 275.952 207.879ZM237.344 204.934C237.135 204.924 236.942 204.91 236.766 204.893C236.876 204.318 236.887 203.658 236.873 203.149H236.875C236.893 203.147 236.91 203.144 236.927 203.139C237.009 203.668 237.143 204.358 237.344 204.934ZM242.454 195.815L237.181 192.868C237.022 192.283 236.86 191.694 236.693 191.1C234.085 181.775 230.797 171.775 230.793 166.56C230.793 166.504 230.793 166.448 230.794 166.394C230.867 160.367 233.566 152.879 239.418 151.198C241.048 150.732 242.75 150.264 244.4 149.881C249.373 148.698 254.063 148.211 259.783 147.672C261.246 147.527 262.688 147.433 264.048 147.381C264.182 147.376 264.318 147.373 264.453 147.373C269.052 147.373 273.235 150.566 273.238 155.077C273.238 155.406 273.215 155.746 273.169 156.089C273.013 157.251 271.977 158.957 271.843 160.056C271.241 164.807 270.794 168.987 270.483 172.648C270.317 174.691 270.182 176.568 270.088 178.311C270.057 178.861 270.026 179.41 270.005 179.93C269.913 181.927 269.87 183.724 269.87 185.349C269.87 186.424 269.889 187.424 269.924 188.354C269.924 188.709 269.943 189.062 269.972 189.416L269.975 189.462C270.054 190.365 270.225 191.263 270.461 192.139C270.182 191.23 269.923 190.245 269.799 189.395L243.71 194.68L242.454 195.815ZM260.212 162.617L258.967 179.462L253.377 184.937L257.288 187.976L262.608 184.768L265.36 175.297L260.212 162.617Z" fill="#009D05"/>
<path d="M271.498 195.059C271.09 194.124 270.732 193.145 270.461 192.139C270.894 193.547 271.379 194.776 271.498 195.059Z" fill="#C3C5C2"/>
<path d="M239.423 202.707C239.349 201.935 239.191 201.347 239.191 201.347C239.191 201.347 240.189 200.642 241.12 199.844C242.735 198.461 242.534 195.861 242.534 195.861L242.455 195.815L243.711 194.679L269.799 189.395C269.924 190.245 270.182 191.23 270.462 192.139C270.733 193.144 271.091 194.124 271.499 195.059C271.5 195.062 271.502 195.065 271.503 195.068C271.503 195.068 261.644 197.231 257.057 197.44C252.469 197.647 242.543 200.774 242.543 200.774L239.423 202.707Z" fill="#4CAF4F"/>
<path d="M257.291 187.977L253.379 184.937L258.969 179.463L260.214 162.617L265.362 175.297L262.611 184.768L257.291 187.977Z" fill="#4CAF4F"/>
<path d="M218.056 316.384L231.139 310.618L235.276 306L236.557 307.739L238.121 307.058C238.85 301.255 236.027 298.541 234.548 297.308C234.441 297.214 234.289 297.108 234.113 296.967L233.935 296.837L233.866 296.791C233.807 296.744 233.736 296.696 233.666 296.637L233.618 296.614V296.602L233.501 296.531L226.319 299.703C226.319 299.703 226.202 300.08 225.978 300.69C225.261 302.711 223.486 307.316 221.523 309.771C221.44 309.877 221.358 309.982 221.275 310.077C221.041 310.358 220.795 310.605 220.547 310.805C215.047 315.222 218.056 316.384 218.056 316.384Z" fill="#17282F"/>
<path d="M221.25 310.041C223.295 310.841 226.187 308.82 228.384 306.177C229.62 304.685 230.806 302.3 231.853 300.373C232.535 299.129 233.157 298.07 233.698 297.566C234.004 297.296 234.286 297.178 234.532 297.296L234.521 297.273C234.414 297.178 234.262 297.073 234.086 296.932C234.039 296.896 233.98 296.849 233.91 296.802L233.839 296.754C233.78 296.708 233.71 296.661 233.639 296.602L233.591 296.578V296.567L233.475 296.496C232.722 295.933 231.888 295.356 231.888 295.356L225.131 297.048L225.658 299.633C224.906 302.3 223.318 307.374 221.496 309.736C221.414 309.842 221.332 309.947 221.25 310.041Z" fill="#F8A45D"/>
<path d="M210.25 259.762C214.421 270.116 220.897 283.308 225.677 299.848C225.77 300.15 225.854 300.452 225.936 300.752C226.03 301.074 226.124 301.386 226.217 301.709L231.152 300.503L231.369 299.644C231.369 299.644 233.073 298.322 232.784 298.021C232.596 297.826 232.721 297.461 232.691 297.15V297.139C231.36 285.603 226.237 243.256 221.157 234.461C221.157 234.461 226.913 235.531 231.278 234.794C234.426 234.263 238.239 212.509 238.239 212.509C238.239 212.509 230.217 210.203 221.989 210.203H221.874C221.874 210.203 205.698 214.987 201.585 218.607C197.72 222.01 197.141 227.587 199.283 234.215C201.25 240.293 205.082 246.936 210.25 259.762Z" fill="#F8A45D"/>
<path d="M231.37 286.125C231.37 286.125 231.363 286.108 231.348 286.078C231.152 284.544 230.942 282.93 230.719 281.251C230.731 281.289 230.743 281.322 230.755 281.36L231.37 286.125Z" fill="#E0E1DE"/>
<path d="M239.54 212.892C239.121 212.758 238.689 212.631 238.244 212.512L238.242 212.513C238.242 212.51 238.242 212.509 238.242 212.509C238.242 212.509 236.872 212.115 234.684 211.653L235.18 211.464L235.42 211.636L239.625 212.512L239.54 212.892Z" fill="#142228"/>
<path d="M231.348 286.076C230.67 284.622 214.801 250.578 211.425 243.214C207.973 235.69 203.969 230.362 205.63 223.84C206.405 220.794 211.098 217.801 216.657 215.725H223.068H223.972C224.241 215.724 224.482 215.625 224.643 215.47L234.682 211.653C236.871 212.115 238.24 212.509 238.24 212.509C238.24 212.509 238.24 212.51 238.24 212.513C237.954 212.573 216.223 217.19 211.955 220.56C208.295 223.447 208.197 227.218 209.382 230.778C212.062 238.821 220.408 251.257 230.719 281.251C230.942 282.93 231.152 284.544 231.348 286.076Z" fill="#E09454"/>
<path d="M238.243 212.512C238.243 212.512 216.251 217.168 211.955 220.56C208.295 223.447 208.197 227.218 209.382 230.778C212.661 240.619 224.421 257.029 237.881 304.129L245.596 301.709C244.856 301.707 242.917 277.117 242.344 257.366C242.074 248.049 237.293 240.015 235.423 236.771C235.423 236.771 243.284 237.831 247.647 237.101C253.253 236.161 256.797 217.468 238.243 212.512Z" fill="#F8A45D"/>
<path d="M235.876 237.654C235.876 237.654 232.958 232.817 229.32 230.778C229.32 230.778 233.798 231.07 236.596 236.911L235.423 236.771L235.876 237.654Z" fill="#C4824C"/>
<path d="M248.212 311.848L246.605 312.199L245.269 309.978C245.106 309.707 244.736 309.656 244.504 309.869L239.937 314.098L227.46 316.834C227.46 316.834 224.682 313.9 230.884 312.03C231.18 311.94 231.438 311.709 231.717 311.484C234.786 309.129 238.466 302.646 238.466 302.646L245.858 301.024C245.858 301.024 246.198 301.339 246.698 301.957C247.864 303.407 250.007 306.512 248.212 311.848Z" fill="#17282F"/>
<path d="M246.7 301.957L246.706 301.98C245.49 301.107 242.097 306.857 239.201 309.196C236.613 311.278 233.488 312.635 231.719 311.484C234.788 309.129 238.631 300.949 238.631 300.949L244.577 299.645C244.577 299.645 246.2 301.339 246.7 301.957Z" fill="#F8A45D"/>
<path d="M224.044 215.697L245.729 207.453C246.211 207.27 246.093 206.496 245.583 206.491L210.781 206.073C210.697 206.073 210.615 206.097 210.542 206.144L197.161 214.805C196.763 215.062 196.931 215.725 197.395 215.725H223.893L224.044 215.697Z" fill="#17282F"/>
<path d="M245.728 207.453C245.994 207.353 246.078 207.073 246.013 206.842C246.027 206.89 246.034 206.942 246.034 206.994C246.034 207.184 245.936 207.374 245.728 207.453ZM224.476 214.055L224.121 213.241L238.105 208.089L221.723 207.747L221.047 206.196L227.755 206.277C227.751 206.314 227.745 206.349 227.742 206.381C227.685 206.962 228.153 207.427 228.707 207.427C229.136 207.427 229.615 207.146 229.941 206.424C229.957 206.383 229.976 206.343 229.994 206.304L245.583 206.491L224.476 214.055Z" fill="#B1BABA"/>
<path d="M224.121 213.241L221.723 207.747L238.104 208.089L224.121 213.241Z" fill="#E7E9E8"/>
<path d="M224.641 215.47C224.764 215.351 224.84 215.2 224.845 215.034C224.845 215.028 224.845 215.023 224.845 215.017C224.845 215.014 224.845 215.012 224.845 215.012C224.844 214.939 224.829 214.865 224.801 214.795L224.477 214.055L245.583 206.491C245.589 206.491 245.594 206.491 245.6 206.491C245.821 206.502 245.965 206.656 246.013 206.841C246.078 207.073 245.994 207.352 245.728 207.453L224.641 215.47Z" fill="#747C7E"/>
<path d="M195.739 215.725H223.973C224.459 215.723 224.851 215.403 224.848 215.012C224.846 214.939 224.831 214.865 224.803 214.795L212.242 186.019C211.925 185.198 210.98 184.637 209.908 184.632H181.658C181.18 184.632 180.793 184.944 180.793 185.326C180.793 185.407 180.811 185.487 180.845 185.561L193.404 214.337C193.725 215.157 194.669 215.717 195.739 215.725Z" fill="#17282F"/>
<path d="M223.069 215.725H195.739C195.05 215.72 194.414 215.487 193.963 215.102C193.713 214.889 193.519 214.63 193.404 214.337L180.845 185.561C180.811 185.487 180.793 185.407 180.793 185.326C180.793 184.944 181.18 184.632 181.658 184.632H209.908H209.739L223.069 215.725Z" fill="#B1BABA"/>
<path d="M199.152 200.819C199.763 202.2 200.998 203.149 201.92 202.956C202.843 202.763 203.089 201.504 202.496 200.12C201.903 198.734 200.653 197.808 199.73 198.002C198.809 198.195 198.534 199.402 199.152 200.819Z" fill="white"/>
<path d="M223.972 215.725H223.068L209.738 184.632H209.907C210.958 184.637 211.888 185.176 212.223 185.972C212.229 185.988 212.236 186.004 212.243 186.019L224.802 214.795C224.831 214.865 224.845 214.939 224.847 215.012C224.847 215.012 224.847 215.014 224.847 215.017C224.847 215.023 224.847 215.028 224.847 215.034C224.835 215.415 224.448 215.723 223.972 215.725Z" fill="#747C7E"/>
<path d="M260.758 161.026C260.758 161.556 262.456 180.375 262.456 180.375C261.398 182.358 239.624 189.91 236.836 192.675L241.916 197.899C241.916 197.899 267.823 192.675 272.005 189.636C275.575 187.044 275.274 182.494 275.274 176.283C275.274 170.072 273.916 161.026 273.916 161.026H260.758Z" fill="#F8A45D"/>
<path d="M262.956 149.414C257.607 151.647 261.69 180.268 261.69 180.268L256.426 182.494L259.661 194.68C259.661 194.68 266.144 193.451 272.623 192.13C279.473 190.733 280.477 174.932 277.049 162.137C273.621 149.341 269.213 146.802 262.956 149.414Z" fill="#4CAF4F"/>
<path d="M227.743 206.38C227.863 205.158 229.8 200.681 230.985 198.894C232.169 197.108 236.835 192.675 236.835 192.675L242.534 195.861C242.534 195.861 242.735 198.462 241.121 199.844C240.189 200.642 239.191 201.347 239.191 201.347C239.191 201.347 239.453 202.319 239.46 203.406C239.467 204.609 239.221 206.095 238.229 206.049C237.238 206.003 236.873 202.813 236.824 202.353C236.872 202.819 237.145 206.084 235.818 206.2C234.539 206.309 234.328 202.901 234.328 202.901C234.328 202.901 234.261 204.491 234.22 205.301C234.18 206.112 233.365 206.819 232.613 205.915C231.741 204.871 231.664 203.065 231.664 203.065C231.664 203.065 230.974 204.121 229.941 206.424C229.198 208.08 227.641 207.412 227.743 206.38Z" fill="#F8A45D"/>
<path d="M236.875 203.149C236.863 202.767 236.835 202.471 236.824 202.353C236.837 202.47 236.869 202.765 236.928 203.139C236.911 203.144 236.894 203.147 236.876 203.149H236.875Z" fill="#4CAF4F"/>
<path d="M236.865 203.149C236.767 203.149 236.685 203.072 236.681 202.971C236.664 202.657 236.648 202.339 236.648 202.019C236.648 201.713 236.662 201.407 236.706 201.098C236.794 200.467 237.008 199.827 237.432 199.321C237.469 199.277 237.522 199.255 237.576 199.255C237.617 199.255 237.66 199.269 237.695 199.298C237.773 199.364 237.785 199.481 237.718 199.561C237.354 199.994 237.156 200.565 237.075 201.15C237.034 201.435 237.022 201.725 237.022 202.019C237.022 202.327 237.036 202.639 237.052 202.953C237.057 203.038 237.003 203.112 236.927 203.139C236.868 202.765 236.836 202.47 236.823 202.353C236.834 202.471 236.862 202.767 236.873 203.149C236.871 203.149 236.868 203.149 236.865 203.149Z" fill="#E09454"/>
<path d="M234.301 203.579C234.318 203.188 234.33 202.903 234.33 202.903C234.33 202.903 234.347 203.163 234.396 203.535C234.371 203.558 234.337 203.573 234.301 203.579Z" fill="#E0E1DE"/>
<path d="M234.271 203.58C234.172 203.58 234.091 203.504 234.085 203.403C234.07 203.089 234.055 202.772 234.055 202.45C234.055 202.146 234.069 201.837 234.112 201.53C234.199 200.899 234.414 200.261 234.839 199.754C234.875 199.709 234.928 199.687 234.981 199.687C235.023 199.687 235.065 199.7 235.1 199.73C235.18 199.795 235.189 199.914 235.124 199.992C234.759 200.427 234.561 200.997 234.481 201.582C234.44 201.867 234.426 202.157 234.426 202.45C234.426 202.759 234.443 203.072 234.457 203.385C234.46 203.445 234.435 203.499 234.393 203.536C234.344 203.163 234.327 202.902 234.327 202.902C234.327 202.902 234.315 203.188 234.298 203.579C234.292 203.579 234.287 203.58 234.281 203.58C234.278 203.58 234.275 203.58 234.271 203.58Z" fill="#E09454"/>
<path d="M231.689 203.354C231.626 203.354 231.569 203.323 231.535 203.274C231.62 203.133 231.665 203.065 231.665 203.065C231.665 203.065 231.669 203.174 231.689 203.354Z" fill="#E0E1DE"/>
<path d="M231.689 203.354C231.67 203.174 231.666 203.065 231.666 203.065C231.666 203.065 231.621 203.133 231.536 203.274C231.517 203.246 231.506 203.213 231.503 203.178C231.488 202.864 231.473 202.545 231.473 202.224C231.473 201.919 231.487 201.612 231.53 201.305C231.618 200.672 231.832 200.034 232.257 199.527C232.293 199.484 232.346 199.461 232.399 199.461C232.441 199.461 232.484 199.475 232.518 199.503C232.598 199.57 232.607 199.688 232.542 199.766C232.178 200.2 231.979 200.771 231.899 201.355C231.858 201.642 231.844 201.931 231.844 202.224C231.844 202.533 231.86 202.844 231.877 203.16C231.881 203.262 231.801 203.35 231.699 203.354C231.696 203.354 231.692 203.354 231.689 203.354Z" fill="#E09454"/>
<path d="M122.299 241.409C122.299 264.896 103.247 283.936 79.7453 283.936C56.2434 283.936 37.1914 264.896 37.1914 241.409C37.1914 217.922 56.2434 198.882 79.7453 198.882C103.247 198.882 122.299 217.922 122.299 241.409Z" fill="white"/>
<path d="M122.301 241.409H121.928C121.928 253.052 117.207 263.588 109.574 271.218C101.939 278.846 91.3965 283.564 79.7469 283.564C68.0979 283.564 57.5549 278.846 49.9205 271.218C42.2862 263.588 37.5659 253.052 37.5656 241.409C37.5659 229.767 42.2862 219.231 49.9205 211.601C57.5549 203.971 68.0979 199.254 79.7469 199.254C91.3965 199.254 101.939 203.971 109.574 211.601C117.207 219.231 121.928 229.767 121.928 241.409H122.301H122.674C122.674 217.716 103.455 198.509 79.7469 198.509C56.0392 198.509 36.8206 217.716 36.8203 241.409C36.8206 265.102 56.0392 284.308 79.7469 284.308C103.455 284.308 122.674 265.102 122.674 241.409H122.301Z" fill="#17282F"/>
<path d="M87.8072 268.589C87.8072 271.367 83.9425 273.593 79.2433 273.519C74.5446 273.444 70.7714 271.176 70.8049 268.398C70.8384 265.62 74.6698 263.392 79.3603 263.476C84.0514 263.558 87.8407 265.819 87.8072 268.589Z" fill="#17282F"/>
<path d="M91.4816 259.43C91.9431 258.993 92.2203 258.397 92.2584 257.761C92.2584 255.042 86.5237 252.757 79.379 252.69C72.234 252.624 66.4159 254.75 66.3828 257.469C66.4113 258.099 66.6763 258.695 67.1256 259.138C66.9904 259.397 66.9136 259.681 66.9002 259.972C66.9182 260.607 67.1921 261.209 67.6597 261.64C67.5081 261.912 67.4248 262.215 67.4178 262.525C67.4361 263.166 67.7204 263.769 68.2025 264.193C68.0335 264.463 67.9413 264.775 67.9352 265.095C67.975 265.726 68.2778 266.313 68.7699 266.712C68.5935 266.984 68.4954 267.299 68.4861 267.621C68.4861 269.882 73.2521 271.792 79.1948 271.843C85.1381 271.892 89.9709 270.174 89.9962 267.864C89.9947 267.539 89.9023 267.22 89.7286 266.945C90.2183 266.551 90.521 265.97 90.5635 265.345C90.5604 265.029 90.477 264.718 90.3211 264.444C90.805 264.038 91.1053 263.454 91.156 262.825C91.1538 262.514 91.0762 262.208 90.9309 261.933C91.4139 261.522 91.7142 260.937 91.7656 260.306C91.7388 259.996 91.6419 259.697 91.4816 259.43Z" fill="#17282F"/>
<path d="M79.4483 271.843C79.3641 271.843 79.2798 271.843 79.1948 271.843C73.2521 271.792 68.4861 269.882 68.4861 267.621C68.4954 267.299 68.5935 266.984 68.7699 266.712C68.2778 266.313 67.975 265.726 67.9352 265.095C67.9413 264.775 68.0335 264.464 68.2025 264.193C67.7204 263.769 67.4361 263.166 67.4178 262.525C67.4248 262.215 67.5081 261.912 67.6597 261.64C67.1921 261.209 66.9182 260.607 66.9002 259.972C66.9136 259.682 66.9904 259.397 67.1256 259.138C66.6763 258.695 66.4113 258.099 66.3828 257.469C66.3828 257.454 66.3834 257.437 66.3839 257.42C67.8758 259.571 72.9604 261.204 79.028 261.274C79.1628 261.275 79.297 261.276 79.4304 261.276C85.9461 261.276 91.3036 259.447 92.1175 257.029C92.2099 257.268 92.2584 257.513 92.2584 257.761C92.2203 258.397 91.9431 258.993 91.4816 259.43C91.6419 259.697 91.7388 259.996 91.7656 260.306C91.7142 260.937 91.4139 261.522 90.9309 261.933C91.0762 262.208 91.1538 262.514 91.156 262.825C91.1053 263.454 90.805 264.038 90.3211 264.444C90.477 264.718 90.5604 265.029 90.5635 265.345C90.521 265.971 90.2183 266.551 89.7286 266.945C89.9023 267.22 89.9947 267.539 89.9962 267.863C89.9716 270.142 85.2745 271.843 79.4483 271.843Z" fill="#57666B"/>
<path d="M102.199 235.407C102.348 222.77 92.2185 212.406 79.5747 212.257C66.9309 212.108 56.5606 222.232 56.4117 234.867C56.3311 241.725 59.332 248.257 64.5887 252.665C65.5561 253.462 66.063 254.687 65.9407 255.934V256.118C65.9407 258.88 71.7837 261.19 79.0283 261.273C86.2738 261.357 92.1916 259.18 92.2252 256.41V256.234C92.112 254.962 92.6486 253.716 93.6526 252.923C98.9794 248.655 102.115 242.229 102.199 235.407Z" fill="#4CAF4F"/>
<path d="M79.4306 261.276C79.2972 261.276 79.163 261.275 79.0281 261.274C71.7835 261.19 65.9404 258.88 65.9404 256.119V255.934C65.9524 255.813 65.9586 255.691 65.9586 255.57C65.9594 254.453 65.4613 253.384 64.5885 252.665C59.4036 248.317 56.4134 241.904 56.4102 235.15C56.4102 235.056 56.4107 234.963 56.4116 234.868C56.5591 222.323 66.7802 212.256 79.3002 212.256C79.3911 212.256 79.4836 212.256 79.5744 212.258C92.1318 212.406 102.209 222.629 102.201 235.147C102.201 235.234 102.201 235.32 102.199 235.407C102.115 242.229 98.9793 248.655 93.6523 252.923C92.7386 253.645 92.2123 254.742 92.2101 255.892C92.2094 256.007 92.2145 256.122 92.225 256.235V256.411C92.1922 259.128 86.4912 261.276 79.4306 261.276ZM79.7466 214.036C73.278 214.036 68.0611 217.664 68.0611 222.118C68.0611 226.573 73.278 230.193 79.7466 230.193C86.2153 230.193 91.4328 226.573 91.4328 222.118C91.4328 217.656 86.2153 214.036 79.7466 214.036Z" fill="#AAFFAC"/>
<path d="M79.7441 230.193C73.2753 230.193 68.0586 226.573 68.0586 222.118C68.0586 217.664 73.2753 214.036 79.7441 214.036C86.2128 214.036 91.4301 217.656 91.4301 222.118C91.4301 226.573 86.2128 230.193 79.7441 230.193Z" fill="#D3FFD4"/>
<path d="M62.1793 243.647C60.6468 241.022 59.8388 237.978 59.8392 234.936C59.8392 234.111 59.8986 233.284 60.0193 232.467C60.5835 228.643 62.488 225.02 65.3193 222.386C65.4701 222.246 65.4784 222.01 65.3382 221.859C65.1979 221.71 64.9621 221.702 64.8116 221.841C61.8538 224.594 59.8726 228.362 59.2819 232.358C59.1558 233.211 59.0938 234.074 59.0938 234.936C59.094 238.109 59.9346 241.279 61.5353 244.022C61.6389 244.201 61.8672 244.26 62.0451 244.157C62.2228 244.053 62.283 243.826 62.1793 243.647Z" fill="white"/>
<path d="M68.7305 266.767C75.3394 269.546 82.9724 269.638 89.6469 267.019C83.0723 269.867 75.2343 269.771 68.7305 266.767Z" fill="#17282F"/>
<path d="M68.5742 264.31C75.1829 267.09 82.8157 267.182 89.491 264.564C82.9156 267.411 75.0778 267.317 68.5742 264.31Z" fill="#17282F"/>
<path d="M68.418 261.854C75.0272 264.635 82.66 264.726 89.3345 262.107C82.76 264.956 74.9221 264.86 68.418 261.854Z" fill="#17282F"/>
<path d="M74.71 256.531C75.7766 252.902 76.314 249.08 76.314 245.257C76.314 242.721 76.0777 240.186 75.6014 237.707C75.5001 237.185 75.3354 236.605 75.0543 236.118C74.9128 235.876 74.7406 235.654 74.5182 235.482C74.2976 235.312 74.0181 235.197 73.7109 235.19L73.6778 235.189C73.4035 235.189 73.1484 235.277 72.9374 235.415C72.619 235.623 72.3868 235.93 72.2089 236.268C72.032 236.606 71.91 236.979 71.8394 237.342C71.7464 237.821 71.7031 238.299 71.7031 238.775C71.7079 241.595 73.2124 244.271 75.0447 246.182C76.2022 247.381 77.6317 248.482 79.3229 248.571L79.5189 248.577C81.1438 248.571 82.6128 247.617 83.7241 246.411C85.4488 244.532 86.4856 241.856 86.4878 239.171C86.4878 238.411 86.4036 237.65 86.2269 236.907C86.0644 236.229 85.7625 235.538 85.3363 234.989C85.1223 234.715 84.8757 234.477 84.5909 234.302C84.3077 234.126 83.9804 234.016 83.6309 234.016C83.5117 234.016 83.391 234.028 83.2694 234.055C82.7947 234.157 82.4071 234.451 82.1187 234.817C81.8287 235.185 81.6275 235.632 81.5208 236.094C81.4336 236.474 81.4023 236.855 81.4023 237.231C81.4023 237.756 81.4627 238.27 81.5262 238.764C82.3072 244.876 83.8002 250.869 85.9541 256.539L86.6502 256.274C84.5179 250.661 83.0391 244.724 82.2654 238.671C82.2028 238.182 82.1478 237.697 82.1478 237.231C82.1478 236.897 82.176 236.571 82.2475 236.26C82.3303 235.898 82.4928 235.544 82.7037 235.278C82.9154 235.01 83.1643 234.838 83.4252 234.784C83.4961 234.767 83.5638 234.761 83.6309 234.761C83.8239 234.761 84.0103 234.819 84.2004 234.935C84.4844 235.109 84.7639 235.421 84.992 235.806C85.22 236.19 85.3981 236.643 85.5018 237.078C85.6641 237.761 85.7424 238.465 85.7424 239.171C85.7439 241.662 84.7639 244.182 83.1755 245.906C82.1514 247.024 80.8321 247.837 79.5189 247.832L79.3595 247.828C77.9933 247.768 76.6837 246.817 75.582 245.666C73.8431 243.859 72.4441 241.321 72.4484 238.775C72.4484 238.344 72.4878 237.914 72.5711 237.483C72.6469 237.087 72.8074 236.665 73.0157 236.372C73.1188 236.225 73.2323 236.112 73.3428 236.039C73.455 235.968 73.559 235.935 73.6778 235.935H73.6923C73.8321 235.939 73.9436 235.982 74.0643 236.073C74.2436 236.208 74.4213 236.469 74.5595 236.794C74.6988 237.115 74.8017 237.495 74.8696 237.848C75.3361 240.279 75.5686 242.768 75.5686 245.257C75.5686 249.01 75.0409 252.764 73.995 256.32L74.71 256.531Z" fill="#17282F"/>
<path d="M314.924 275.213C314.924 275.213 388.439 258.001 391.937 273.303C396.928 295.147 343.886 309.843 315.634 308.942C287.382 308.042 314.924 275.213 314.924 275.213Z" fill="#17282F"/>
<path d="M318.158 308.981C317.296 308.981 316.456 308.968 315.633 308.942C316.255 308.951 316.877 308.956 317.497 308.956C318.506 308.956 319.515 308.943 320.523 308.918L320.531 308.95C319.726 308.971 318.935 308.981 318.158 308.981Z" fill="#111D23"/>
<path d="M335.972 307.52C336.657 307.413 337.341 307.299 338.025 307.179L337.72 306.688C337.837 306.583 337.896 306.496 337.896 306.496L335.511 303.108L335.051 302.364L350.031 304.724C345.343 305.883 340.592 306.822 335.972 307.52Z" fill="#111D23"/>
<path d="M373.509 296.485C372.557 296.035 364.133 292.072 353.02 287.42L367.813 278.024C368.158 277.9 368.337 277.519 368.212 277.174C368.115 276.903 367.859 276.734 367.586 276.734C367.512 276.734 367.435 276.747 367.36 276.773C360.662 278.244 345.974 281.508 345.69 283.223C345.523 284.267 352.208 284.938 352.208 284.938L350.217 286.255C343.758 283.594 336.574 280.79 329.516 278.34C333.328 277.663 335.953 276.967 336.711 276.498H339.221H348.199H348.241H348.242H373.225C373.229 276.498 373.234 276.498 373.239 276.498C373.762 276.492 374.25 276.386 374.669 276.203C375.277 275.983 375.759 275.565 375.977 275.037C375.978 275.034 375.978 275.033 375.978 275.033C375.98 275.03 375.981 275.027 375.983 275.025L375.984 275.02C375.985 275.018 375.987 275.013 375.988 275.009L377.509 271.527L381.265 268.586L379.665 267.25C386.392 267.895 391.109 269.695 391.935 273.302C392.157 274.276 392.265 275.235 392.263 276.18C392.258 284.17 384.524 291.088 373.509 296.485ZM345.458 274.39H342.452L341.16 273.53L344.103 274.319C344.227 274.353 344.356 274.369 344.484 274.369C344.825 274.369 345.162 274.251 345.425 274.03L345.727 273.776L345.458 274.39ZM345.76 273.699L344.644 272.606L345.667 273.113C345.764 273.163 345.871 273.192 345.978 273.202L345.76 273.699ZM346.543 271.906L343.668 269.715C345.021 269.505 346.386 269.301 347.764 269.106L346.543 271.906Z" fill="#111D23"/>
<path d="M337.721 306.687L335.512 303.108L337.897 306.496C337.897 306.496 337.839 306.583 337.721 306.687ZM353.021 287.419C352.103 287.034 351.169 286.647 350.218 286.255L352.209 284.938C352.209 284.938 345.523 284.267 345.691 283.223C345.976 281.508 360.663 278.244 367.362 276.773C367.436 276.746 367.513 276.734 367.589 276.734C367.86 276.734 368.115 276.903 368.213 277.174C368.339 277.519 368.159 277.9 367.814 278.024L353.021 287.419Z" fill="#070809"/>
<path d="M315.634 308.942C314.766 308.938 313.904 308.879 313.047 308.769C313.111 308.771 313.174 308.774 313.236 308.776C313.986 308.859 314.785 308.915 315.634 308.942Z" fill="#3B3D3F"/>
<path d="M334.732 307.707C334.732 307.707 334.729 307.703 334.727 307.702C335.142 307.643 335.555 307.583 335.972 307.52C335.559 307.584 335.146 307.647 334.732 307.707Z" fill="#3E3F42"/>
<path d="M317.495 308.956C316.873 308.956 316.253 308.952 315.631 308.942C314.783 308.915 313.985 308.859 313.234 308.776C313.356 308.781 313.475 308.783 313.592 308.783C318.254 308.783 317.969 305.699 316.841 303.02C317.323 303.181 317.761 303.304 318.144 303.379L315.922 299.448L315.305 299.253L329.87 301.548C328.681 302.054 325.769 303.343 323.379 304.323C322.862 304.535 322.367 304.738 321.916 304.922C321.821 304.961 321.714 305.005 321.624 305.042C320.458 305.52 319.657 305.851 319.657 305.851L320.521 308.918C319.512 308.943 318.504 308.956 317.495 308.956Z" fill="#070809"/>
<path d="M334.728 307.701C334.373 307.38 333.89 307.231 333.329 307.231C333.194 307.231 333.054 307.239 332.91 307.256L331.443 307.435C330.395 306.654 330.073 305.334 330.736 304.062C330.736 304.062 331.165 302.474 330.952 301.718L332.154 301.907C334.276 306.13 335.828 307.055 336.78 307.055C337.228 307.055 337.543 306.849 337.722 306.687L338.026 307.179C337.343 307.299 336.658 307.412 335.973 307.52C335.557 307.583 335.143 307.643 334.728 307.701ZM335.512 303.108L334.98 302.352L335.053 302.364L335.512 303.108Z" fill="#070809"/>
<path d="M336.778 307.055C335.826 307.055 334.274 306.132 332.152 301.908L334.978 302.354L335.509 303.108L337.72 306.687C337.541 306.849 337.227 307.055 336.778 307.055Z" fill="#050606"/>
<path d="M343.466 293.625L328.109 303.357L330.861 310.806L348.892 302.709L343.466 293.625Z" fill="#C8685A"/>
<path d="M319.66 305.852L321.168 311.208C321.168 311.208 322.3 311.447 322.652 312.574C322.851 313.207 322.384 314.953 322.384 314.953L326.42 329.715C326.441 329.71 327.433 329.441 327.826 329.158C328.305 328.812 328.694 328.458 329.007 328.099C330.097 326.84 330.217 325.016 330.257 323.664C330.326 321.398 331.627 314.781 331.627 314.781C331.627 314.781 332.124 313.058 333.947 311.539C334.961 310.692 335.431 309.623 335.337 308.961C335.146 307.611 334.175 307.104 332.911 307.256L331.444 307.435C330.396 306.654 330.074 305.334 330.737 304.062C330.737 304.062 331.606 300.847 330.257 301.387C329.487 301.697 326.096 303.209 323.383 304.323C322.75 304.583 322.152 304.827 321.626 305.042C320.461 305.52 319.66 305.852 319.66 305.852Z" fill="#17282F"/>
<path d="M331.058 318.309C331.1 318.226 331.077 318.123 331.009 318.06C330.692 317.768 330.3 317.559 329.857 317.467C329.624 317.419 329.518 317.792 329.754 317.841C330.147 317.925 330.492 318.106 330.77 318.36C330.862 318.446 331.001 318.425 331.056 318.313L331.058 318.309Z" fill="#4CAF4F"/>
<path d="M331.363 317.003C331.405 316.92 331.382 316.817 331.313 316.753C330.995 316.462 330.604 316.253 330.162 316.161C329.929 316.112 329.823 316.486 330.058 316.535C330.45 316.617 330.795 316.799 331.074 317.053C331.166 317.138 331.306 317.117 331.361 317.007L331.363 317.003Z" fill="#4CAF4F"/>
<path d="M331.613 315.673C331.654 315.589 331.632 315.486 331.564 315.422C331.246 315.131 330.855 314.923 330.412 314.83C330.179 314.781 330.072 315.155 330.309 315.205C330.701 315.286 331.047 315.469 331.325 315.723C331.417 315.809 331.555 315.788 331.611 315.676L331.613 315.673Z" fill="#4CAF4F"/>
<path d="M321.625 305.042C321.717 305.005 321.822 304.961 321.918 304.922C321.818 304.964 321.72 305.003 321.625 305.042Z" fill="#2B3032"/>
<path d="M326.42 329.715L323.014 317.256L322.384 314.953C322.384 314.953 322.701 313.767 322.701 312.996C322.701 312.831 322.687 312.685 322.652 312.574C322.3 311.447 321.168 311.209 321.168 311.209L320.532 308.95L320.524 308.918L319.66 305.853C319.66 305.853 320.461 305.522 321.626 305.044C321.721 305.005 321.819 304.964 321.92 304.922L328.425 328.676C328.248 328.834 328.056 328.99 327.844 329.145C327.837 329.15 327.831 329.154 327.826 329.158C327.824 329.159 327.823 329.161 327.822 329.162C327.425 329.444 326.441 329.71 326.42 329.715Z" fill="#405158"/>
<path d="M331.434 315.669C331.935 315.485 332.434 315.302 332.946 315.21C333.162 315.172 333.38 315.15 333.596 315.15C333.898 315.15 334.197 315.193 334.477 315.295C334.699 315.374 334.907 315.517 334.943 315.705L334.95 315.777C334.953 315.951 334.811 316.143 334.637 316.265C334.361 316.462 334.014 316.555 333.662 316.555C333.531 316.555 333.401 316.542 333.272 316.517C332.821 316.436 331.856 315.796 331.457 315.507L331.348 315.658C331.763 315.953 332.703 316.595 333.237 316.701C333.377 316.726 333.519 316.74 333.662 316.74C334.045 316.74 334.431 316.641 334.746 316.416C334.948 316.271 335.133 316.046 335.136 315.777L335.125 315.668C335.059 315.37 334.786 315.21 334.541 315.119C334.236 315.008 333.916 314.962 333.596 314.962C333.367 314.962 333.138 314.986 332.914 315.027C332.379 315.123 331.87 315.31 331.37 315.496L331.434 315.669Z" fill="#4CAF4F"/>
<path d="M331.444 315.594C331.86 315.263 332.285 314.926 332.646 314.518C333.008 314.112 333.304 313.626 333.413 313.083C333.43 312.996 333.441 312.905 333.441 312.814C333.441 312.63 333.395 312.436 333.248 312.298C333.128 312.186 332.971 312.144 332.819 312.144C332.678 312.144 332.537 312.179 332.411 312.232C331.921 312.442 331.567 312.884 331.382 313.373C331.28 313.651 331.255 314.102 331.254 314.546C331.254 314.925 331.275 315.295 331.292 315.527L331.479 315.513C331.461 315.285 331.441 314.918 331.441 314.546C331.44 314.112 331.471 313.665 331.557 313.439C331.726 312.988 332.052 312.587 332.484 312.404C332.589 312.358 332.71 312.33 332.819 312.33C332.939 312.33 333.043 312.362 333.121 312.435C333.216 312.523 333.255 312.658 333.255 312.814C333.255 312.891 333.245 312.969 333.23 313.046C333.131 313.546 332.853 314.004 332.507 314.395C332.161 314.786 331.746 315.116 331.327 315.447L331.444 315.594Z" fill="#4CAF4F"/>
<path d="M345.297 228.467C345.297 228.467 347.981 252.354 348.698 253.635C351.124 257.969 367.198 265.4 367.198 265.4L375.393 263.685L381.266 268.586L377.394 271.617L372.851 269.902C370.372 270.343 367.858 270.564 365.34 270.559C361.107 270.559 340.692 265.388 337.285 259.701C333.878 254.012 332.312 227.672 332.312 227.672L345.297 228.467Z" fill="#C8685A"/>
<path d="M331.966 237.856C331.966 237.856 325.667 216.879 333.514 211.055C341.361 205.231 347.602 234.073 347.602 234.073L331.966 237.856Z" fill="#4CAF4F"/>
<path d="M336.69 236.714L339.815 235.957L336.452 221.576L336.276 210.353L336.141 210.323C342.709 211.461 347.602 234.073 347.602 234.073L336.69 236.714Z" fill="#003302"/>
<path d="M336.936 276.227L336.875 248.423L336.278 210.353L319.839 206.789L305.533 206.159L289.255 213.603L288.875 222.943C288.875 222.943 290.736 265.839 290.631 267.133C290.503 268.718 285.887 278.667 285.887 278.667C306.452 283.35 337.26 277.645 336.936 276.227Z" fill="#4CAF4F"/>
<path d="M286.312 278.762C286.169 278.73 286.028 278.699 285.887 278.667C285.887 278.667 290.503 268.718 290.631 267.132C290.634 267.096 290.635 267.031 290.635 266.934C290.635 266.112 290.532 263.123 290.377 259.064C290.258 255.972 290.109 252.257 289.951 248.404C291.45 253.999 293.21 259.309 294.947 261.693C298.188 266.137 311.706 271.764 320.802 274.391H320.626V274.401C320.629 274.846 320.823 275.261 321.148 275.6C312.835 273.058 305.203 271.341 299.769 271.341C298.569 271.341 297.476 271.424 296.508 271.602C290.395 272.722 287.423 275.434 286.312 278.762ZM329.518 278.34C327.671 277.699 325.831 277.082 324.015 276.498H336.714C335.955 276.968 333.33 277.663 329.518 278.34ZM329.106 270.501C329.106 270.501 309.824 259.385 305.932 255.197C304.901 254.088 303.533 248.161 302.335 241.953L307.038 240.083L299.215 222.556L304.914 238.398C304.914 238.398 304.71 238.465 304.406 238.563C304.356 238.362 297.907 213.241 290.838 213.241C290.313 213.241 289.782 213.381 289.25 213.679L289.255 213.603L302.126 207.716C302.124 207.716 302.124 207.717 302.124 207.717L310.27 217.739L313.054 215.621L313.701 215.075C314.292 215.633 314.97 216.107 315.715 216.478L315.558 217.019C315.827 217.256 316.717 218.794 316.834 218.794C316.836 218.794 316.836 218.794 316.837 218.794C316.844 218.793 316.861 218.788 316.887 218.786C317.941 238.615 320.626 261.032 320.626 261.032L326.509 265.673L328.724 260.038C327.454 247.859 321.077 225.181 319.202 218.477L319.982 216.2L319.677 215.726C320.029 215.213 320.265 214.612 320.423 214.051L322.251 215.471L322.814 207.434L336.278 210.353L336.454 221.576L335.804 218.794L336.645 236.725L336.691 236.714L336.875 248.423L336.918 267.764L329.106 270.501ZM333.755 228.285L323.693 228.995L325.516 237.94L330.822 239.862L334.412 236.734L333.755 228.285ZM302.334 241.943C302.166 241.076 302.003 240.204 301.843 239.337L302.334 241.943ZM301.843 239.337L304.344 238.584C303.558 238.837 302.2 239.267 301.843 239.337ZM316.953 213.622L316.048 212.774H317.469C317.467 212.846 317.467 212.914 317.467 212.981C317.467 213.186 317.469 213.369 317.473 213.53C317.3 213.579 317.126 213.608 316.953 213.622ZM318.616 212.865L318.861 212.572L318.84 212.633C318.767 212.717 318.692 212.794 318.616 212.865ZM302.911 207.357L302.931 207.347L302.925 207.353C302.921 207.354 302.917 207.356 302.911 207.357Z" fill="#003302"/>
<path d="M335.418 183.757C336.321 183.67 337.095 182.855 337.136 181.951C337.176 181.046 336.476 180.166 335.585 180L331.371 179.578C331.571 182.282 331.772 184.984 331.972 187.688C332.788 187.899 333.666 187.941 334.462 187.669C335.259 187.395 335.96 186.775 336.201 185.968C336.44 185.162 336.142 184.19 335.418 183.757Z" fill="#17282F"/>
<path d="M319.31 199.35L310.254 187.962L310.249 188.001C310.247 189.078 310.212 190.308 310.124 191.621L309.147 191.164C308.76 197.082 306.418 207.175 306.527 208.048L316.043 212.774H317.954L318.111 207.193C317.155 204.783 318.057 201.973 319.31 199.35Z" fill="#C8685A"/>
<path d="M317.73 205.452C317.68 204.706 317.757 203.938 317.924 203.163L317.959 203.191C317.78 203.833 317.681 204.512 317.736 205.343C317.733 205.378 317.731 205.414 317.73 205.452Z" fill="#C3C5C2"/>
<path d="M317.684 206.383C313.256 204.481 312.089 200.937 312.23 198.667L317.923 203.163C317.756 203.938 317.679 204.706 317.729 205.452C317.716 205.713 317.7 206.029 317.684 206.383Z" fill="#995147"/>
<path d="M312.19 182.317C310.316 189.98 309.61 193.66 312.229 198.667C316.17 206.198 325.793 206.262 329.933 199.291C333.658 193.018 336.097 181.54 329.625 176.328C323.249 171.191 314.064 174.652 312.19 182.317Z" fill="#C8685A"/>
<path d="M313.81 171.915C316.131 168.091 322.205 167.47 324.451 170.489C324.786 170.94 321.157 171.049 321.572 171.029L319.445 177.065C319.03 176.828 317.99 177.078 317.105 178.322C317.105 178.322 315.737 186.628 311.432 188.951C307.203 183.12 307.686 171.926 313.81 171.915Z" fill="#17282F"/>
<path d="M307.27 187.663C307.27 189.786 308.258 191.703 309.52 192.907C311.419 194.719 313.624 193.318 314.147 190.882C314.618 188.691 314.198 185.107 311.786 184.217C309.41 183.342 307.27 185.236 307.27 187.663Z" fill="#C8685A"/>
<path d="M322.574 188.738C322.335 189.508 322.55 190.254 323.056 190.406C323.562 190.557 324.166 190.057 324.405 189.286C324.644 188.516 324.429 187.77 323.923 187.62C323.417 187.467 322.813 187.969 322.574 188.738Z" fill="#17282F"/>
<path d="M330.125 191.191C329.886 191.96 330.101 192.706 330.607 192.858C331.113 193.009 331.717 192.508 331.956 191.738C332.196 190.969 331.979 190.223 331.473 190.071C330.968 189.92 330.364 190.42 330.125 191.191Z" fill="#17282F"/>
<path d="M327.467 189.134C327.467 189.134 328.423 192.641 328.86 194.723C328.966 195.222 328.593 195.708 328.084 195.722C326.975 195.751 325.934 195.129 325.934 195.129L327.467 189.134Z" fill="#B5413C"/>
<path d="M321.769 184.121C321.87 184.205 322.014 184.233 322.146 184.183C323.728 183.588 324.865 184.387 324.876 184.395C325.045 184.517 325.282 184.48 325.405 184.313C325.53 184.145 325.491 183.91 325.323 183.789C325.264 183.746 323.84 182.743 321.878 183.482C321.683 183.556 321.583 183.772 321.657 183.966L321.769 184.121Z" fill="#17282F"/>
<path d="M334.137 187.69C334.207 187.679 334.275 187.648 334.333 187.596C334.489 187.456 334.505 187.218 334.366 187.063C332.987 185.507 331.271 185.767 331.193 185.769C330.987 185.801 330.845 185.994 330.875 186.201C330.905 186.406 331.095 186.546 331.299 186.517C331.37 186.503 332.695 186.318 333.802 187.568C333.888 187.666 334.015 187.708 334.137 187.69Z" fill="#17282F"/>
<path d="M321.939 196.698C322.203 196.913 322.486 197.104 322.783 197.268C322.878 197.319 322.999 197.294 323.064 197.208C323.109 197.103 323.069 196.984 322.971 196.928C321.432 196.101 320.38 194.59 320.139 192.861C320.128 192.754 320.035 192.674 319.927 192.677C319.828 192.673 319.744 192.748 319.738 192.846L319.742 192.891C319.924 194.406 320.718 195.782 321.939 196.698Z" fill="#17282F"/>
<path d="M339.221 178.04C338.703 176.51 336.88 175.867 335.267 175.751C336.279 175.733 337.074 174.707 337.077 173.696C337.078 172.686 336.452 171.758 335.657 171.134C334.236 170.018 332.209 169.729 330.532 170.402C330.85 170.249 330.964 169.825 330.862 169.489C330.76 169.151 330.495 168.888 330.214 168.675C328.507 167.372 325.863 167.501 324.294 168.967C323.746 167.112 321.597 165.9 319.724 166.387C317.897 166.862 314.457 167.228 313.924 171.899C312.376 170.799 309.974 171.034 308.748 172.511C307.425 174.109 307.768 176.803 309.45 178.018C308.615 177.666 307.578 178.208 307.235 179.046C306.891 179.883 307.158 180.885 307.739 181.579C308.322 182.272 309.173 182.691 310.044 182.94C310.865 183.173 311.751 183.268 312.566 183.017C313.381 182.764 314.106 182.112 314.268 181.274C314.407 182.151 315.329 182.802 316.212 182.709C317.097 182.617 317.842 181.85 317.987 180.975C318.131 180.098 317.713 179.173 317.006 178.635C318.011 179.61 319.957 179.226 320.518 177.944C321.263 179.374 322.326 180.723 323.808 181.362C325.289 182 327.24 181.732 328.189 180.426C328.669 180.986 329.161 181.556 329.783 181.952C330.407 182.35 331.192 182.56 331.896 182.335C332.599 182.109 333.153 181.366 333.004 180.642C334.167 181.612 335.806 182.116 337.24 181.624C338.674 181.133 339.704 179.476 339.221 178.04Z" fill="#17282F"/>
<path d="M313.643 212.319C313.643 212.319 317.634 215.87 319.677 211.28L320.742 212.108C320.742 212.108 320.638 215.524 318.703 216.665C319.172 218.56 327.274 246.138 328.724 260.037L326.509 265.673L320.626 261.032C320.626 261.032 317.769 237.186 316.793 216.926C314.436 216.129 312.572 214.362 311.707 212.108L313.643 212.319Z" fill="#4CAF4F"/>
<path d="M322.812 207.433L322.191 207.299C322.193 207.288 322.194 207.278 322.196 207.269L322.815 207.401L322.812 207.433Z" fill="#C3C5C2"/>
<path d="M322.251 215.472L320.423 214.051C320.474 213.868 320.517 213.689 320.555 213.518C321.147 214.14 321.728 214.736 321.789 214.736C321.9 214.736 322.022 208.482 322.194 207.299L322.814 207.433L322.251 215.472ZM318.84 212.633L318.861 212.572L319.198 212.167C319.082 212.34 318.963 212.495 318.84 212.633Z" fill="#006503"/>
<path d="M320.42 214.051L318.789 212.783L318.837 212.633C318.96 212.495 319.078 212.34 319.194 212.167L319.236 212.117C319.236 212.117 319.9 212.833 320.551 213.519C320.514 213.689 320.47 213.868 320.42 214.051Z" fill="#4CAF4F"/>
<path d="M302.125 207.716C302.164 207.696 302.676 207.431 302.91 207.357L302.125 207.716Z" fill="#C3C5C2"/>
<path d="M310.267 217.741L302.121 207.717L302.122 207.716L302.908 207.357C302.913 207.355 302.918 207.354 302.922 207.353L302.704 207.547L310.554 216.338L313.068 214.408C313.265 214.642 313.476 214.864 313.698 215.074L313.051 215.621L310.267 217.741Z" fill="#006503"/>
<path d="M313.701 215.075C313.477 214.864 313.267 214.642 313.07 214.408L314.694 213.161L315.438 213.424L314.968 214.001L313.701 215.075Z" fill="#4CAF4F"/>
<path d="M302.707 207.547L306.676 204.006L317.535 214.167L314.695 213.161L310.557 216.339L302.707 207.547Z" fill="#4CAF4F"/>
<path d="M317.533 214.166C317.292 213.707 317.768 204.66 317.768 204.66L322.249 207.107C322.045 207.065 321.911 214.736 321.787 214.736C321.662 214.736 319.238 212.116 319.238 212.116L317.533 214.166Z" fill="#4CAF4F"/>
<path d="M336.691 236.714L336.453 221.576L339.815 235.957L336.691 236.714Z" fill="#006503"/>
<path d="M336.642 236.725L335.801 218.794L336.452 221.576L336.69 236.714L336.642 236.725Z" fill="#006503"/>
<path d="M302.335 241.952C302.335 241.95 302.334 241.947 302.334 241.943L301.844 239.337C302.2 239.267 303.558 238.837 304.344 238.584L304.407 238.564V238.563C304.71 238.465 304.914 238.398 304.914 238.398L299.215 222.556L307.038 240.082L302.335 241.952Z" fill="#006503"/>
<path d="M310.557 216.339L302.707 207.547L306.676 204.006L317.01 213.675L316.5 213.801L315.438 213.424L314.695 213.161L313.071 214.408L310.557 216.339Z" fill="#003302"/>
<path d="M321.786 214.736C321.726 214.736 321.144 214.14 320.552 213.518C319.901 212.833 319.237 212.116 319.237 212.116L319.195 212.167L318.858 212.572L318.178 213.39L317.472 213.562C317.468 213.396 317.465 213.2 317.465 212.981C317.465 210.419 317.768 204.66 317.768 204.66L322.248 207.107C322.046 207.107 321.909 214.736 321.786 214.736Z" fill="#003302"/>
<path d="M330.82 239.862L325.514 237.94L323.691 228.995L333.753 228.285L334.41 236.733L330.82 239.862Z" fill="#AECAEC"/>
<path d="M318.18 213.39L316.501 213.801C316.498 213.799 316.488 213.815 316.48 213.83C316.464 213.855 316.452 213.88 316.477 213.838L315.559 217.019C315.83 217.259 316.733 218.819 316.837 218.794C316.941 218.767 319.173 218.56 319.173 218.56L319.982 216.2L318.18 213.39Z" fill="#4CAF4F"/>
<path d="M316.835 218.794C316.717 218.794 315.827 217.256 315.559 217.019L316.477 213.838C316.467 213.855 316.463 213.861 316.463 213.861C316.463 213.861 316.47 213.845 316.48 213.83C316.488 213.815 316.498 213.801 316.501 213.801L318.18 213.39L319.982 216.2L319.2 218.477L319.173 218.56C319.173 218.56 317.236 218.741 316.886 218.785C316.861 218.788 316.844 218.792 316.837 218.794H316.835Z" fill="#4CAF4F"/>
<path d="M299.641 226.197C299.641 226.197 303.629 252.718 305.932 255.197C309.824 259.385 329.106 270.501 329.106 270.501L338.729 267.128C339.404 266.907 340.15 267.029 340.701 267.448L347.28 272.467L346.653 272.997C346.382 273.226 345.989 273.273 345.669 273.113L344.646 272.606L345.789 273.724L345.427 274.03C345.067 274.335 344.566 274.444 344.105 274.319L341.162 273.53L343.877 275.337C343.272 275.847 342.428 276.025 341.654 275.804L337.348 274.578C334.414 275.249 331.423 275.677 328.411 275.857C323.343 276.168 299.408 267.811 294.947 261.692C290.486 255.572 285.887 230.165 285.887 230.165L299.641 226.197Z" fill="#C8685A"/>
<path d="M286.905 243.841C286.905 243.841 280.94 219.805 288.787 213.981C296.634 208.159 304.406 238.565 304.406 238.565L286.905 243.841Z" fill="#4CAF4F"/>
<path d="M286.905 243.841C286.905 243.841 284.732 235.085 284.734 226.863C284.736 221.463 285.676 216.291 288.787 213.981C289.473 213.473 290.158 213.241 290.837 213.241C297.934 213.241 304.406 238.564 304.406 238.564L304.343 238.584L301.843 239.337V239.338L288.666 243.309L286.905 243.841Z" fill="#003302"/>
<path d="M351.134 274.391H320.625V274.4C320.633 275.564 321.933 276.504 323.53 276.498H339.224H348.202H348.242H348.244H373.227C374.812 276.487 376.086 275.546 376.078 274.391H351.134Z" fill="#17282F"/>
<path d="M373.683 276.38H345.813C345.331 276.375 344.945 276.061 344.949 275.676C344.949 275.602 344.965 275.53 344.993 275.461L357.391 247.053C357.704 246.242 358.638 245.689 359.697 245.685H387.586C388.057 245.685 388.439 245.99 388.439 246.369C388.439 246.449 388.421 246.527 388.388 246.602L375.989 275.01C375.672 275.818 374.741 276.371 373.683 276.38Z" fill="#17282F"/>
<path d="M348.242 276.498H324.014C323.051 276.188 322.095 275.889 321.148 275.6C320.822 275.259 320.628 274.846 320.625 274.4V274.391H336.332H345.46L344.993 275.46C344.965 275.53 344.95 275.601 344.95 275.676C344.946 276.061 345.331 276.375 345.814 276.379H373.684C373.976 276.377 374.258 276.333 374.521 276.254C374.135 276.402 373.705 276.493 373.241 276.498C373.237 276.498 373.231 276.498 373.227 276.498H348.244H348.242Z" fill="#B1BABA"/>
<path d="M373.683 276.38H345.813C345.331 276.375 344.945 276.061 344.949 275.676C344.949 275.602 344.965 275.53 344.993 275.461L345.459 274.391H346.752L359.697 245.685H387.586C387.609 245.685 387.633 245.685 387.657 245.687C387.896 245.703 388.108 245.798 388.251 245.94C388.252 245.942 388.255 245.944 388.256 245.946C388.371 246.062 388.439 246.21 388.439 246.369C388.439 246.439 388.425 246.507 388.4 246.574C388.396 246.583 388.392 246.592 388.388 246.602L381.498 262.388L375.989 275.01C375.988 275.014 375.986 275.018 375.985 275.021C375.985 275.022 375.984 275.023 375.984 275.025C375.982 275.028 375.981 275.03 375.979 275.033C375.979 275.035 375.979 275.035 375.978 275.036C375.753 275.585 375.24 276.007 374.601 276.222C374.575 276.233 374.547 276.243 374.52 276.254C374.258 276.333 373.975 276.377 373.683 276.38Z" fill="#B1BABA"/>
<path d="M370.838 260.807C370.236 262.172 369.014 263.107 368.104 262.917C367.195 262.726 366.951 261.484 367.536 260.117C368.121 258.75 369.355 257.835 370.266 258.025C371.176 258.216 371.447 259.409 370.838 260.807Z" fill="white"/>
<path d="M346.754 274.391H345.461L357.393 247.053C357.706 246.242 358.639 245.689 359.699 245.685L346.754 274.391Z" fill="#747C7E"/>
<path d="M358.832 305.898L376.784 308.785L379.666 301.386L360.797 295.503L358.832 305.898Z" fill="#C8685A"/>
<path d="M384.769 312.518L387.193 307.51C387.193 307.51 386.504 306.581 386.988 305.505C387.259 304.898 388.767 303.9 388.767 303.9L395.538 290.175C395.518 290.165 394.599 289.709 394.115 289.66C393.528 289.601 393.001 289.61 392.529 289.671C390.878 289.892 389.577 291.178 388.649 292.163C387.097 293.813 381.733 297.904 381.733 297.904C381.733 297.904 380.217 298.865 377.845 298.795C376.523 298.757 375.463 299.246 375.095 299.804C374.343 300.942 374.732 301.964 375.78 302.688L376.997 303.527C377.264 304.805 376.63 306.007 375.288 306.519C375.288 306.519 372.506 308.351 373.875 308.84C374.656 309.119 378.196 310.234 380.967 311.197C381.613 311.422 382.224 311.634 382.759 311.822L382.76 311.82C383.95 312.235 384.769 312.518 384.769 312.518Z" fill="#17282F"/>
<path d="M384.497 295.637C384.41 295.674 384.359 295.765 384.368 295.858C384.413 296.287 384.567 296.702 384.837 297.065C384.979 297.256 385.306 297.047 385.164 296.853C384.923 296.53 384.786 296.165 384.747 295.791C384.733 295.667 384.616 295.59 384.5 295.636L384.497 295.637Z" fill="#4CAF4F"/>
<path d="M383.403 296.417C383.317 296.45 383.265 296.544 383.275 296.638C383.318 297.065 383.473 297.48 383.743 297.843C383.885 298.034 384.212 297.825 384.068 297.632C383.829 297.309 383.692 296.943 383.652 296.571C383.639 296.445 383.522 296.369 383.406 296.415L383.403 296.417Z" fill="#4CAF4F"/>
<path d="M382.333 297.246C382.246 297.281 382.195 297.373 382.204 297.467C382.249 297.894 382.403 298.311 382.672 298.672C382.815 298.864 383.143 298.654 382.999 298.461C382.759 298.139 382.622 297.774 382.582 297.4C382.569 297.276 382.452 297.199 382.336 297.245L382.333 297.246Z" fill="#4CAF4F"/>
<path d="M384.768 312.518C384.768 312.518 383.949 312.235 382.76 311.82V311.822C382.76 311.82 382.76 311.82 382.76 311.82L382.759 311.822C382.686 311.796 382.602 311.767 382.522 311.739C382.501 311.732 382.482 311.725 382.461 311.718L393.346 289.624C393.591 289.624 393.845 289.633 394.115 289.66C394.598 289.709 395.518 290.165 395.537 290.175L388.766 303.9C388.766 303.9 388.751 303.911 388.723 303.929C388.473 304.1 387.231 304.96 386.987 305.505C386.862 305.781 386.816 306.049 386.816 306.294C386.814 306.847 387.048 307.28 387.148 307.442C387.175 307.486 387.193 307.51 387.193 307.51L386.454 309.038L384.768 312.518Z" fill="#405158"/>
<path d="M382.463 297.365C381.967 297.172 381.473 296.978 381.025 296.707C380.581 296.436 380.18 296.08 379.937 295.63C379.865 295.499 379.811 295.345 379.811 295.214C379.812 295.141 379.826 295.074 379.861 295.014C379.945 294.863 380.146 294.792 380.359 294.792L380.461 294.798C380.926 294.845 381.357 295.133 381.65 295.513C381.935 295.873 382.231 296.992 382.339 297.472L382.521 297.43C382.405 296.936 382.128 295.833 381.798 295.4C381.48 294.988 381.01 294.668 380.48 294.612L380.359 294.606C380.113 294.606 379.837 294.685 379.699 294.922C379.646 295.014 379.625 295.115 379.625 295.214C379.625 295.394 379.692 295.57 379.773 295.72C380.037 296.208 380.464 296.584 380.929 296.866C381.394 297.15 381.9 297.345 382.396 297.539L382.463 297.365Z" fill="#4CAF4F"/>
<path d="M382.403 297.417C382.107 297.402 381.808 297.385 381.509 297.385C381.268 297.385 381.029 297.396 380.789 297.424C380.25 297.491 379.705 297.657 379.263 297.992C379.067 298.142 378.866 298.358 378.863 298.638L378.866 298.689C378.901 299.008 379.185 299.203 379.449 299.293C379.622 299.35 379.802 299.376 379.981 299.376C380.326 299.376 380.672 299.28 380.975 299.119C381.454 298.861 382.163 297.97 382.473 297.566L382.325 297.455C382.027 297.848 381.295 298.745 380.888 298.955C380.609 299.103 380.292 299.191 379.981 299.189C379.821 299.189 379.66 299.167 379.508 299.117C379.278 299.04 379.066 298.871 379.052 298.671L379.051 298.638C379.046 298.459 379.197 298.274 379.376 298.14C379.781 297.833 380.294 297.672 380.811 297.61C381.042 297.582 381.274 297.572 381.509 297.572C381.801 297.572 382.097 297.587 382.393 297.603L382.403 297.417Z" fill="#4CAF4F"/>
<path d="M291.371 297.719C287.5 291.555 278.749 274.856 296.508 271.602C314.266 268.349 373.601 296.529 373.601 296.529L369.842 307.846L314.615 299.145C314.615 299.145 322.172 309.227 313.007 308.767C299.675 307.447 296.474 304.26 291.371 297.719Z" fill="#17282F"/>
<path d="M318.145 303.38C317.762 303.304 317.324 303.181 316.842 303.02C315.976 300.963 314.613 299.145 314.613 299.145L315.306 299.253L315.924 299.449L318.145 303.38Z" fill="#050606"/>
<path d="M316.843 303.02C311.478 301.228 300.773 294.684 300.773 294.684L315.307 299.253L314.614 299.144C314.614 299.144 315.977 300.963 316.843 303.02Z" fill="#080A0B"/>
</g>
</svg>
