<svg width="396" height="397" viewBox="0 0 396 397" fill="none" xmlns="http://www.w3.org/2000/svg">
<mask id="mask0_1077_1719" style="mask-type:luminance" maskUnits="userSpaceOnUse" x="0" y="0" width="396" height="396">
<path d="M395.506 0.888672H0V395.914H395.506V0.888672Z" fill="white"/>
</mask>
<g mask="url(#mask0_1077_1719)">
<path d="M329.676 315.916H355.876V315.72H329.676V315.916Z" fill="#ECECEC"/>
<path d="M255.121 318.061H261.998V317.862H255.121V318.061Z" fill="#ECECEC"/>
<path d="M313.703 308.58H328.885V308.382H313.703V308.58Z" fill="#ECECEC"/>
<path d="M41.4961 309.907H75.6623V309.71H41.4961V309.907Z" fill="#ECECEC"/>
<path d="M82.7031 309.907H87.7126V309.71H82.7031V309.907Z" fill="#ECECEC"/>
<path d="M103.996 313.243H178.094V313.046H103.996V313.243Z" fill="#ECECEC"/>
<mask id="mask1_1077_1719" style="mask-type:luminance" maskUnits="userSpaceOnUse" x="0" y="0" width="396" height="396">
<path d="M0 0.888672H395.506V395.914H0V0.888672Z" fill="white"/>
</mask>
<g mask="url(#mask1_1077_1719)">
<path d="M34.7376 44.5013C32.3568 44.5013 30.4204 46.4354 30.4204 48.8134V263.257C30.4204 265.636 32.3568 267.569 34.7376 267.569H187.481C189.861 267.569 191.798 265.636 191.798 263.257V48.8134C191.798 46.4354 189.861 44.5013 187.481 44.5013H34.7376ZM187.481 267.767H34.7376C32.2483 267.767 30.2227 265.744 30.2227 263.257V48.8134C30.2227 46.3271 32.2483 44.3037 34.7376 44.3037H187.481C189.969 44.3037 191.995 46.3271 191.995 48.8134V263.257C191.995 265.744 189.969 267.767 187.481 267.767Z" fill="#ECECEC"/>
<path d="M205.831 44.5013C203.451 44.5013 201.514 46.4354 201.514 48.8134V263.257C201.514 265.636 203.451 267.569 205.831 267.569H358.574C360.953 267.569 362.892 265.636 362.892 263.257V48.8134C362.892 46.4354 360.953 44.5013 358.574 44.5013H205.831ZM358.574 267.767H205.831C203.342 267.767 201.316 265.744 201.316 263.257V48.8134C201.316 46.3271 203.342 44.3037 205.831 44.3037H358.574C361.063 44.3037 363.089 46.3271 363.089 48.8134V263.257C363.089 265.744 361.063 267.767 358.574 267.767Z" fill="#ECECEC"/>
<path d="M395.506 303.199H0V303.001H395.506V303.199Z" fill="#ECECEC"/>
<path d="M326.737 221.468L330.193 223.997C330.22 224.021 330.245 224.044 330.282 224.053L333.64 221.246C344.099 212.177 355.977 202.187 346.631 194.035C340.152 188.369 332.639 193.647 328.846 197.075C324.833 193.9 316.397 184.888 309.291 195.844C303.367 204.963 315.717 213.091 326.737 221.468Z" fill="#ECECEC"/>
<mask id="mask2_1077_1719" style="mask-type:luminance" maskUnits="userSpaceOnUse" x="344" y="197" width="3" height="3">
<path d="M344.699 197.48H346.795V199.581H344.699V197.48Z" fill="white"/>
</mask>
<g mask="url(#mask2_1077_1719)">
<g opacity="0.5">
<path d="M346.114 197.528C345.419 197.292 344.596 197.984 344.71 198.708C344.826 199.433 345.822 199.837 346.411 199.399C346.998 198.959 346.892 197.889 346.229 197.575L346.114 197.528Z" fill="white"/>
</g>
</g>
<mask id="mask3_1077_1719" style="mask-type:luminance" maskUnits="userSpaceOnUse" x="342" y="200" width="5" height="10">
<path d="M342.008 200.872H346.69V209.851H342.008V200.872Z" fill="white"/>
</mask>
<g mask="url(#mask3_1077_1719)">
<g opacity="0.5">
<path d="M342.008 209.851C344.895 207.979 342.006 201.429 345.616 200.873C348.279 201.966 345.575 207.518 342.008 209.851Z" fill="white"/>
</g>
</g>
<path d="M90.0998 233.206L70.9692 241.228C66.6106 243.057 61.5933 241.01 59.7637 236.656L59.2124 235.345C57.3828 230.992 59.4322 225.98 63.7907 224.154L82.9214 216.131C87.2807 214.302 92.2973 216.35 94.1276 220.704L94.6789 222.015C96.5085 226.367 94.4591 231.378 90.0998 233.206Z" fill="#ECECEC"/>
<path d="M67.8065 231.287L66.3677 231.89L66.0117 231.042L69.9303 229.399L70.2863 230.247L68.8475 230.85L70.3788 234.495L69.3387 234.932L67.8065 231.287Z" fill="white"/>
<path d="M76.2024 227.992L76.4001 231.969L75.4373 232.374L73.7589 230.556L73.8562 233.037L72.8934 233.44L70.1953 230.511L71.1398 230.114L72.9378 232.108L72.8042 229.417L73.6521 229.061L75.4556 231.052L75.3156 228.364L76.2024 227.992Z" fill="white"/>
<path d="M77.9156 228.949L79.6187 228.235C79.3641 227.829 78.9187 227.684 78.4685 227.873C78.0129 228.064 77.8002 228.478 77.9156 228.949ZM80.7886 228.432L78.1743 229.527C78.4512 229.918 78.9274 230.027 79.455 229.806C79.8221 229.654 80.0388 229.432 80.1819 229.109L80.9579 229.463C80.7903 229.962 80.39 230.358 79.7666 230.62C78.5715 231.12 77.4783 230.695 77.0464 229.669C76.6128 228.636 77.0898 227.559 78.1434 227.118C79.1591 226.693 80.2279 227.044 80.6953 228.155C80.7269 228.23 80.7609 228.346 80.7886 228.432Z" fill="white"/>
<path d="M81.9703 227.248L83.6725 226.534C83.4186 226.128 82.9725 225.983 82.5232 226.173C82.0669 226.364 81.8548 226.777 81.9703 227.248ZM84.8433 226.731L82.229 227.827C82.5059 228.218 82.982 228.327 83.5097 228.106C83.8759 227.953 84.0934 227.733 84.2366 227.408L85.0126 227.762C84.8448 228.263 84.4438 228.658 83.8205 228.919C82.6253 229.42 81.532 228.995 81.101 227.968C80.6675 226.936 81.1445 225.859 82.1981 225.417C83.213 224.992 84.2833 225.343 84.7499 226.453C84.7816 226.53 84.8148 226.645 84.8433 226.731Z" fill="white"/>
<path d="M88.2969 226.785C88.1537 227.019 87.8824 227.216 87.5731 227.345C86.7576 227.688 86.1066 227.469 85.7609 226.647L85.1653 225.231L84.6321 225.453L84.3086 224.683L84.8409 224.46L84.4882 223.619L85.4904 223.198L85.8432 224.038L86.7046 223.678L87.0281 224.448L86.1674 224.808L86.7583 226.214C86.8826 226.511 87.1104 226.604 87.38 226.49C87.5272 226.428 87.6569 226.321 87.7305 226.192L88.2969 226.785Z" fill="white"/>
<path d="M90.3722 223.207L37.944 216.569C36.2488 216.355 35.048 214.808 35.2632 213.115L36.6823 201.929C36.8975 200.236 38.4462 199.038 40.1422 199.252L92.5696 205.889C94.2656 206.104 95.4655 207.652 95.2504 209.345L93.8313 220.529C93.6169 222.222 92.0682 223.422 90.3722 223.207Z" fill="#E7E7E7"/>
<path d="M53.3866 207.635L53.1975 209.122L55.8071 209.451L55.6742 210.497L53.0646 210.168L52.8043 212.218L51.5 212.055L52.2143 206.423L56.4746 206.963L56.3417 208.008L53.3866 207.635Z" fill="white"/>
<path d="M59.8815 210.916C59.9773 210.168 59.5587 209.656 58.9299 209.579C58.3027 209.499 57.7623 209.887 57.6667 210.636C57.5718 211.385 57.9982 211.896 58.6261 211.976C59.2542 212.054 59.7865 211.665 59.8815 210.916ZM56.3947 210.475C56.5601 209.171 57.684 208.373 59.0613 208.548C60.4384 208.723 61.3195 209.774 61.1543 211.078C60.9889 212.38 59.8729 213.18 58.4956 213.005C57.1185 212.83 56.2294 211.777 56.3947 210.475Z" fill="white"/>
<path d="M62.4688 207.377L63.7256 207.537L62.9686 213.506L61.7109 213.347L62.4688 207.377Z" fill="white"/>
<path d="M64.8946 207.684L66.1514 207.843L65.3929 213.812L64.1367 213.654L64.8946 207.684Z" fill="white"/>
<path d="M69.9986 212.198C70.0945 211.45 69.6759 210.939 69.048 210.859C68.4198 210.779 67.8795 211.168 67.7846 211.916C67.6897 212.664 68.1153 213.177 68.7433 213.255C69.3722 213.335 69.9037 212.944 69.9986 212.198ZM66.5119 211.755C66.6773 210.453 67.8012 209.654 69.1785 209.829C70.5556 210.004 71.4367 211.056 71.2715 212.358C71.1061 213.663 69.99 214.46 68.6128 214.286C67.2357 214.112 66.3465 213.06 66.5119 211.755Z" fill="white"/>
<path d="M79.2179 211.165L77.0988 215.295L75.8901 215.141L75.2573 212.331L73.9087 214.891L72.7015 214.738L71.6875 210.213L72.8716 210.363L73.5235 213.42L74.9575 210.626L76.0207 210.761L76.6804 213.818L78.1073 211.025L79.2179 211.165Z" fill="white"/>
<path d="M90.0567 216.501L43.0469 180.832L53.6196 166.931L100.629 202.602L90.0567 216.501Z" fill="#E1E1E1"/>
<path d="M51.2305 178.571L52.1852 178.054C52.3553 178.622 52.7769 179.245 53.3204 179.659C53.9405 180.13 54.3494 180.115 54.5606 179.836C55.2046 178.99 52.1315 177.574 53.4082 175.896C53.9927 175.129 55.1001 174.96 56.3863 175.936C56.955 176.367 57.4336 176.945 57.6526 177.528L56.7248 178.076C56.4867 177.52 56.1419 177.074 55.7409 176.77C55.1206 176.3 54.7046 176.349 54.4886 176.634C53.8543 177.468 56.9234 178.888 55.6609 180.549C55.0866 181.303 53.9682 181.473 52.6756 180.493C51.9574 179.947 51.3958 179.186 51.2305 178.571Z" fill="white"/>
<path d="M56.8409 180.396L58.7662 177.865L59.8136 178.66L57.9175 181.152C57.2641 182.011 57.3694 182.651 58.003 183.129C58.6428 183.615 59.2811 183.541 59.9346 182.682L61.8307 180.19L62.8644 180.974L60.9399 183.506C59.9282 184.836 58.6048 184.993 57.3186 184.017C56.0324 183.041 55.8293 181.727 56.8409 180.396Z" fill="white"/>
<path d="M64.575 187.283C64.8652 186.903 64.711 186.501 64.1685 186.089L62.9463 185.16L62.0975 186.279L63.3189 187.205C63.8623 187.618 64.28 187.67 64.575 187.283ZM64.336 183.334L63.5261 184.401L64.5671 185.19C65.0781 185.577 65.4933 185.606 65.7631 185.252C66.0337 184.897 65.888 184.512 65.3771 184.125L64.336 183.334ZM65.5456 188.193C64.9516 188.973 63.9872 188.954 62.7976 188.052L60.457 186.276L63.8947 181.756L66.1063 183.435C67.2375 184.292 67.4606 185.205 66.925 185.909C66.5809 186.362 66.0835 186.534 65.5677 186.448C65.949 186.991 65.9775 187.624 65.5456 188.193Z" fill="white"/>
<path d="M65.3828 189.31L66.3375 188.793C66.5076 189.36 66.9291 189.985 67.4726 190.397C68.0928 190.868 68.5017 190.853 68.7129 190.575C69.356 189.729 66.2837 188.313 67.5596 186.634C68.145 185.867 69.2516 185.698 70.5385 186.674C71.1073 187.105 71.585 187.683 71.8042 188.267L70.8771 188.815C70.6391 188.258 70.2934 187.813 69.8931 187.51C69.2722 187.037 68.856 187.088 68.6401 187.372C68.0065 188.206 71.0748 189.628 69.8133 191.287C69.2381 192.043 68.1197 192.213 66.8271 191.231C66.1097 190.686 65.5473 189.924 65.3828 189.31Z" fill="white"/>
<path d="M70.9547 190.677C71.9909 189.316 73.7802 189.133 75.1898 190.203C75.9712 190.797 76.4088 191.578 76.442 192.417L75.2982 192.527C75.2593 191.948 75.0158 191.477 74.5633 191.133C73.7161 190.492 72.6632 190.63 72.0147 191.483C71.3668 192.333 71.5163 193.383 72.3628 194.026C72.816 194.37 73.3341 194.478 73.9083 194.354L74.1084 195.484C73.285 195.682 72.4157 195.471 71.6271 194.874C70.2247 193.808 69.9185 192.04 70.9547 190.677Z" fill="white"/>
<path d="M78.9438 194.52L78.0904 193.874L76.8927 195.448L77.7454 196.096C78.3854 196.58 78.9352 196.53 79.3085 196.04C79.6865 195.542 79.5837 195.006 78.9438 194.52ZM77.1371 198.934L77.2218 197.013L77.1704 196.973L76.2591 196.281L75.3012 197.54L74.2539 196.745L77.6917 192.227L79.6509 193.712C80.8597 194.631 81.1388 195.829 80.3685 196.842C79.8526 197.521 79.1321 197.759 78.3521 197.564L78.262 199.787L77.1371 198.934Z" fill="white"/>
<path d="M82.4378 195.828L83.485 196.623L80.0472 201.143L79 200.347L82.4378 195.828Z" fill="white"/>
<path d="M85.239 202.961C85.5293 202.581 85.3751 202.179 84.8325 201.767L83.6104 200.84L82.7616 201.957L83.9837 202.884C84.5264 203.296 84.9448 203.35 85.239 202.961ZM85.001 199.014L84.1902 200.079L85.2312 200.868C85.7421 201.256 86.1574 201.286 86.4272 200.931C86.6977 200.575 86.5521 200.19 86.0419 199.803L85.001 199.014ZM86.2096 203.871C85.6156 204.653 84.6513 204.632 83.4616 203.732L81.1211 201.956L84.5596 197.436L86.7704 199.113C87.9016 199.972 88.1247 200.885 87.5891 201.588C87.2459 202.04 86.7476 202.212 86.2317 202.126C86.613 202.671 86.6415 203.304 86.2096 203.871Z" fill="white"/>
<path d="M90.2042 207.524L89.5658 208.363L86.0625 205.705L89.5003 201.186L92.9198 203.781L92.2815 204.619L89.9028 202.814L89.1562 203.796L91.2571 205.39L90.6377 206.203L88.5368 204.61L87.741 205.656L90.2042 207.524Z" fill="white"/>
<path d="M159.998 61.6588C158.912 61.6588 158.027 62.5389 158.022 63.626V88.8018C158.022 89.8959 158.912 90.7856 160.007 90.7856H161.845V96.8942C161.845 97.6486 162.459 98.2634 163.213 98.2634C163.507 98.2634 163.796 98.1653 164.031 97.9876L173.357 90.7856H199.334C200.429 90.7856 201.32 89.8959 201.32 88.8018V63.6299C201.32 62.5429 200.435 61.6588 199.346 61.6588H160.007H159.998ZM163.213 99.0534C162.023 99.0534 161.053 98.084 161.053 96.8942V91.5756H160.007C158.476 91.5756 157.23 90.3312 157.23 88.8018V63.6237C157.238 62.1011 158.478 60.8687 159.997 60.8687H160.01H199.346C200.871 60.8687 202.11 62.1075 202.11 63.6299V88.8018C202.11 90.3312 200.865 91.5756 199.334 91.5756H173.627L164.511 98.6149C164.137 98.8986 163.678 99.0534 163.213 99.0534Z" fill="#E1E1E1"/>
<path d="M172.621 57.7207H177.545V58.3227H172.621V57.7207Z" fill="#E1E1E1"/>
<path d="M154.505 64.8127H153.902V61.8445C153.905 59.5628 155.758 57.7148 158.043 57.7148H169.032V58.3161H158.043C156.091 58.3161 154.509 59.8954 154.505 61.8445V64.8127Z" fill="#E1E1E1"/>
<path d="M190.318 72.6088H168.706C168.04 72.6088 167.5 72.0693 167.5 71.4047C167.5 70.7396 168.04 70.2007 168.706 70.2007H190.318C190.984 70.2007 191.524 70.7396 191.524 71.4047C191.524 72.0693 190.984 72.6088 190.318 72.6088Z" fill="#E1E1E1"/>
<path d="M190.318 77.3729H168.706C168.04 77.3729 167.5 76.8342 167.5 76.1689C167.5 75.5036 168.04 74.9648 168.706 74.9648H190.318C190.984 74.9648 191.524 75.5036 191.524 76.1689C191.524 76.8342 190.984 77.3729 190.318 77.3729Z" fill="#E1E1E1"/>
<path d="M190.318 82.1371H168.706C168.04 82.1371 167.5 81.5974 167.5 80.933C167.5 80.2678 168.04 79.729 168.706 79.729H190.318C190.984 79.729 191.524 80.2678 191.524 80.933C191.524 81.5974 190.984 82.1371 190.318 82.1371Z" fill="#E1E1E1"/>
<path d="M204.12 105.9H225.732C226.398 105.9 226.938 105.361 226.938 104.696C226.938 104.031 226.398 103.492 225.732 103.492H204.12C203.454 103.492 202.914 104.031 202.914 104.696C202.914 105.361 203.454 105.9 204.12 105.9Z" fill="#E1E1E1"/>
<path d="M204.12 110.664H225.732C226.398 110.664 226.938 110.125 226.938 109.46C226.938 108.795 226.398 108.256 225.732 108.256H204.12C203.454 108.256 202.914 108.795 202.914 109.46C202.914 110.125 203.454 110.664 204.12 110.664Z" fill="#E1E1E1"/>
<path d="M204.12 115.429H225.732C226.398 115.429 226.938 114.889 226.938 114.225C226.938 113.559 226.398 113.021 225.732 113.021H204.12C203.454 113.021 202.914 113.559 202.914 114.225C202.914 114.889 203.454 115.429 204.12 115.429Z" fill="#E1E1E1"/>
<path d="M237.206 109.693C237.206 113.478 235.039 116.922 231.463 119.537V128.236C231.463 129.05 230.483 129.453 229.913 128.876L221.56 123.74C219.425 124.183 217.139 124.428 214.774 124.428C202.379 124.428 192.332 117.831 192.332 109.693C192.332 101.556 202.379 94.959 214.774 94.959C227.161 94.959 237.206 101.556 237.206 109.693Z" stroke="#E1E1E1" stroke-width="0.533333" stroke-miterlimit="10"/>
<path d="M287.551 113.97C287.519 114.545 287.027 115.014 286.452 115.014H283.118C282.544 115.014 282.099 114.545 282.128 113.97L282.935 98.6062C282.965 98.031 283.459 97.5617 284.034 97.5617H287.368C287.944 97.5617 288.386 98.031 288.356 98.6062L287.551 113.97ZM287.463 95.7573H284.129C282.557 95.7573 281.209 97.0341 281.127 98.6062L280.32 113.97C280.239 115.543 281.452 116.818 283.024 116.818H286.357C287.93 116.818 289.276 115.543 289.357 113.97L290.164 98.6062C290.246 97.0341 289.035 95.7573 287.463 95.7573Z" fill="#ECECEC"/>
<path d="M313.794 95.7573H304.039L306.22 90.6417C306.455 90.0848 306.544 89.482 306.476 88.9004L306.016 84.8664C305.827 83.2239 304.481 82.0317 302.817 82.0317H298.939L298.611 88.2794L292.326 96.1981C291.698 96.9812 291.326 97.9537 291.274 98.9373L290.521 113.304C290.418 115.243 291.915 116.819 293.856 116.819H307.504C308.701 116.819 309.862 116.294 310.691 115.377L311.964 113.963C312.462 113.413 312.814 112.74 312.975 112.017L315.965 98.7114L313.794 95.7573Z" fill="#ECECEC"/>
<mask id="mask4_1077_1719" style="mask-type:luminance" maskUnits="userSpaceOnUse" x="280" y="95" width="11" height="22">
<path d="M280.316 95.7578H290.167V116.819H280.316V95.7578Z" fill="white"/>
</mask>
<g mask="url(#mask4_1077_1719)">
<g opacity="0.5">
<path d="M287.549 113.971C287.519 114.545 287.027 115.014 286.452 115.014H283.118C282.542 115.014 282.099 114.545 282.128 113.971L282.934 98.6067C282.965 98.0315 283.459 97.5622 284.034 97.5622H287.368C287.944 97.5622 288.386 98.0315 288.356 98.6067L287.549 113.971ZM287.463 95.7578H284.129C282.555 95.7578 281.209 97.0344 281.127 98.6067L280.32 113.971C280.239 115.543 281.45 116.819 283.024 116.819H286.357C287.929 116.819 289.274 115.543 289.357 113.971L290.162 98.6067C290.246 97.0344 289.034 95.7578 287.463 95.7578Z" fill="#ECECEC"/>
</g>
</g>
<path d="M98.2231 88.0474L84.0039 85.2309L87.1087 78.8789L97.7803 80.9931L98.2231 88.0474Z" fill="#ECECEC"/>
<path d="M97.7814 80.9927L94.4062 87.2909L98.2245 88.047L97.7814 80.9927Z" fill="#E1E1E1"/>
<path d="M99.1215 116.656L72.0562 111.294C69.6627 110.82 68.1067 108.497 68.5813 106.105L72.2935 87.4104C72.769 85.0199 75.0945 83.465 77.4889 83.9398L104.553 89.3011C106.948 89.7759 108.504 92.0986 108.029 94.4893L104.316 113.185C103.841 115.576 101.516 117.131 99.1215 116.656Z" fill="#ECECEC"/>
<path d="M99.4302 116.717L98.6328 116.559L104.065 89.2041L104.862 89.362C107.087 89.8029 108.532 91.9613 108.091 94.1829L104.257 113.492C103.816 115.713 101.655 117.158 99.4302 116.717Z" fill="#E1E1E1"/>
<path d="M96.408 100.603C95.3472 105.946 90.151 109.418 84.8022 108.358C79.4534 107.298 75.9769 102.108 77.0384 96.7667C78.0991 91.4236 83.2953 87.9521 88.6441 89.0116C93.993 90.071 97.4687 95.2609 96.408 100.603Z" fill="#FAFAFA"/>
<path d="M95.1151 100.215C94.1848 104.9 89.6277 107.945 84.9371 107.015C80.2464 106.086 77.1978 101.535 78.128 96.8504C79.0591 92.1653 83.6153 89.1206 88.3059 90.0497C92.9967 90.9788 96.0453 95.5302 95.1151 100.215Z" fill="#E1E1E1"/>
<path d="M81.6907 88.7388L88.3075 90.0495L84.9385 107.016L76.4336 105.392C76.4336 105.392 83.3004 91.4028 81.6907 88.7388Z" fill="#E1E1E1"/>
<path d="M82.7641 85.2649L78.2695 84.3745L78.6611 82.3994L83.1563 83.2898L82.7641 85.2649Z" fill="#ECECEC"/>
<path d="M100.442 93.6384C100.317 94.2681 99.7046 94.6772 99.0741 94.5525C98.4437 94.4276 98.0347 93.8161 98.159 93.1864C98.2838 92.5568 98.8961 92.1475 99.5266 92.2724C100.157 92.3972 100.567 93.0095 100.442 93.6384Z" fill="#FAFAFA"/>
<path d="M83.0471 97.199C81.8037 103.459 75.7159 107.526 69.4487 106.285C68.4229 106.082 67.4578 105.748 66.5664 105.308C71.6549 104.968 76.087 101.261 77.1264 96.0265C78.1658 90.7908 75.4857 85.6761 70.9122 83.4213C71.9057 83.3542 72.9245 83.4142 73.9504 83.6173C80.2168 84.8584 84.2897 90.9394 83.0471 97.199Z" fill="#ECECEC"/>
<path d="M77.1269 96.0267C76.0876 101.261 71.6555 104.968 66.5661 105.309C61.9932 103.054 59.3126 97.9385 60.352 92.7038C61.3921 87.4681 65.8233 83.7627 70.9127 83.4214C75.4863 85.6763 78.1663 90.7918 77.1269 96.0267Z" fill="#FAFAFA"/>
<path d="M66.5652 105.308C65.5716 105.375 64.5536 105.316 63.5277 105.112C57.2596 103.871 53.1875 97.7904 54.4302 91.5308C55.6737 85.2713 61.7613 81.2033 68.0284 82.4453C69.0545 82.6482 70.0187 82.981 70.9117 83.4218C65.8224 83.7622 61.3903 87.4684 60.3509 92.7033C59.3116 97.9381 61.9915 103.054 66.5652 105.308Z" fill="#E7E7E7"/>
</g>
<mask id="mask5_1077_1719" style="mask-type:luminance" maskUnits="userSpaceOnUse" x="0" y="0" width="396" height="396">
<path d="M0 0.888672H395.506V395.914H0V0.888672Z" fill="white"/>
</mask>
<g mask="url(#mask5_1077_1719)">
<path d="M68.2521 268.556C60.7849 240.148 65.9067 208.677 81.9975 184.093C86.1424 177.761 91.1194 171.749 97.669 167.949C104.219 164.151 112.582 162.867 119.434 166.09C127.222 169.756 131.419 178.086 135.982 185.378C140.545 192.67 147.344 200.085 155.947 199.753C161.07 199.555 165.629 196.585 169.765 193.558C212.137 162.552 242.343 114.496 290.599 93.7687C301.28 89.18 313.844 86.1683 324.294 91.2649C335.747 96.8522 340.958 110.459 342.141 123.135C343.983 142.861 338.555 162.804 329.248 180.3C319.941 197.797 306.9 213.05 292.881 227.066C256.574 263.368 211.43 292.925 160.767 301.428C143.804 304.274 126.162 304.689 109.604 300.042C93.0447 295.392 77.6176 285.292 68.8051 270.538C68.8516 271.799 68.2521 268.556 68.2521 268.556Z" fill="#4CAF4F"/>
<mask id="mask6_1077_1719" style="mask-type:luminance" maskUnits="userSpaceOnUse" x="64" y="88" width="279" height="216">
<path d="M64.8867 88.6064H342.499V303.557H64.8867V88.6064Z" fill="white"/>
</mask>
<g mask="url(#mask6_1077_1719)">
<g opacity="0.899994">
<path d="M68.2521 268.556C60.7849 240.148 65.9067 208.677 81.9975 184.093C86.1424 177.761 91.1194 171.749 97.669 167.949C104.219 164.151 112.582 162.867 119.434 166.09C127.222 169.756 131.419 178.086 135.982 185.378C140.545 192.67 147.344 200.085 155.947 199.753C161.07 199.555 165.629 196.585 169.765 193.558C212.137 162.552 242.343 114.496 290.599 93.7687C301.28 89.18 313.844 86.1683 324.294 91.2649C335.747 96.8522 340.958 110.459 342.141 123.135C343.983 142.861 338.555 162.804 329.248 180.3C319.941 197.797 306.9 213.05 292.881 227.066C256.574 263.368 211.43 292.925 160.767 301.428C143.804 304.274 126.162 304.689 109.604 300.042C93.0447 295.392 77.6176 285.292 68.8051 270.538C68.8516 271.799 68.2521 268.556 68.2521 268.556Z" fill="white"/>
</g>
</g>
</g>
<mask id="mask7_1077_1719" style="mask-type:luminance" maskUnits="userSpaceOnUse" x="0" y="0" width="396" height="396">
<path d="M0 0.888672H395.506V395.914H0V0.888672Z" fill="white"/>
</mask>
<g mask="url(#mask7_1077_1719)">
<path d="M351.12 329.306C351.12 334.247 282.454 338.252 197.752 338.252C113.048 338.252 44.3828 334.247 44.3828 329.306C44.3828 324.367 113.048 320.361 197.752 320.361C282.454 320.361 351.12 324.367 351.12 329.306Z" fill="#F5F5F5"/>
</g>
<path d="M290.831 316.631H108.715V256.653H290.831V316.631Z" fill="#4CAF4F"/>
<mask id="mask8_1077_1719" style="mask-type:luminance" maskUnits="userSpaceOnUse" x="0" y="0" width="396" height="396">
<path d="M0 0.888672H395.506V395.914H0V0.888672Z" fill="white"/>
</mask>
<g mask="url(#mask8_1077_1719)">
<mask id="mask9_1077_1719" style="mask-type:luminance" maskUnits="userSpaceOnUse" x="108" y="256" width="183" height="61">
<path d="M108.715 256.656H290.831V316.63H108.715V256.656Z" fill="white"/>
</mask>
<g mask="url(#mask9_1077_1719)">
<g opacity="0.199997">
<path d="M290.83 316.63H108.715V256.656H290.83V316.63Z" fill="white"/>
</g>
</g>
</g>
<path d="M237.012 257.372H157.965V197.394H237.012V257.372Z" fill="#4CAF4F"/>
<mask id="mask10_1077_1719" style="mask-type:luminance" maskUnits="userSpaceOnUse" x="0" y="0" width="396" height="396">
<path d="M0 0.888672H395.506V395.914H0V0.888672Z" fill="white"/>
</mask>
<g mask="url(#mask10_1077_1719)">
<mask id="mask11_1077_1719" style="mask-type:luminance" maskUnits="userSpaceOnUse" x="157" y="197" width="81" height="61">
<path d="M157.965 197.394H237.012V257.372H157.965V197.394Z" fill="white"/>
</mask>
<g mask="url(#mask11_1077_1719)">
<g opacity="0.199997">
<path d="M237.012 257.372H157.965V197.394H237.012V257.372Z" fill="white"/>
</g>
</g>
</g>
<path d="M204.809 214.417L200.337 236.748H195.163L198.805 218.565H194.332L195.163 214.417H204.809Z" fill="#1A2E35"/>
<path d="M245.996 175.539L249.071 178.788L270.883 164.299L295.506 172.434L316.935 156.627L318.374 159.195L324.167 149.473L312.841 149.322L314.28 151.891L295.139 168.537L270.464 160.582L245.996 175.539Z" fill="#1A2E35"/>
<mask id="mask12_1077_1719" style="mask-type:luminance" maskUnits="userSpaceOnUse" x="0" y="0" width="396" height="396">
<path d="M0 0.888672H395.506V395.914H0V0.888672Z" fill="white"/>
</mask>
<g mask="url(#mask12_1077_1719)">
<mask id="mask13_1077_1719" style="mask-type:luminance" maskUnits="userSpaceOnUse" x="249" y="257" width="42" height="51">
<path d="M249.281 257.952H290.829V307.31H249.281V257.952Z" fill="white"/>
</mask>
<g mask="url(#mask13_1077_1719)">
<g opacity="0.199997">
<path d="M259.033 262.827L275.607 262.227C271.699 261.104 267.564 261.172 263.519 260.755C262.351 260.635 261.173 260.47 260.08 260.042C259.037 259.635 258.097 258.998 257.062 258.57C255.714 258.013 254.213 257.826 252.768 258.033C252.301 258.1 251.835 258.21 251.418 258.429C250.613 258.853 250.063 259.654 249.754 260.507C249.481 261.267 249.349 262.045 249.309 262.827H249.296C249.289 262.941 249.284 263.06 249.281 263.18L249.295 263.178C249.274 264.898 249.723 266.628 250.383 268.216C254.231 277.513 285.368 269.573 285.368 269.573C284.282 275.678 285.911 280.271 287.026 286.383L289.94 302.463L286.826 302.807L288.085 307.31H290.827V262.827H259.033Z" fill="black"/>
</g>
</g>
<mask id="mask14_1077_1719" style="mask-type:luminance" maskUnits="userSpaceOnUse" x="290" y="311" width="2" height="6">
<path d="M290.215 311.196H291.035V316.236H290.215V311.196Z" fill="white"/>
</mask>
<g mask="url(#mask14_1077_1719)">
<g opacity="0.199997">
<path d="M291.034 311.198V316.237L290.903 316.088L290.224 312.544C290.215 312.498 290.215 312.444 290.215 312.398C290.215 311.857 290.541 311.392 291.034 311.198Z" fill="black"/>
</g>
</g>
</g>
<path d="M305.602 307.48L310.48 306.954L310.951 295.504L306.07 296.033L305.602 307.48Z" fill="#FF8C7B"/>
<mask id="mask15_1077_1719" style="mask-type:luminance" maskUnits="userSpaceOnUse" x="0" y="0" width="396" height="396">
<path d="M0 0.888672H395.506V395.914H0V0.888672Z" fill="white"/>
</mask>
<g mask="url(#mask15_1077_1719)">
<path d="M310.976 304.899L305.466 304.839C305.275 304.819 305.103 304.957 305.082 305.148C305.081 305.159 305.079 305.171 305.079 305.182L304.762 309.531C304.759 310.008 305.138 310.4 305.615 310.412C307.529 310.399 308.333 310.306 310.752 310.16C312.241 310.066 315.795 309.833 317.819 309.454C319.845 309.076 319.409 307.085 318.516 307.066C316.406 307.026 313.171 306.328 311.798 305.226C311.566 305.029 311.277 304.915 310.976 304.899Z" fill="#1A2E35"/>
<mask id="mask16_1077_1719" style="mask-type:luminance" maskUnits="userSpaceOnUse" x="305" y="295" width="6" height="7">
<path d="M305.848 295.504H310.951V301.387H305.848V295.504Z" fill="white"/>
</mask>
<g mask="url(#mask16_1077_1719)">
<g opacity="0.199997">
<path d="M306.069 296.041L310.951 295.504L310.723 301.022L305.848 301.387L306.069 296.041Z" fill="black"/>
</g>
</g>
<path d="M271.288 245.507C271.288 245.507 308.47 243.673 310.925 257.505C312.942 278.458 311.634 296.617 311.634 296.617L304.759 297.968C304.759 297.968 299.379 273.971 299.935 262.175C289.694 261.054 261.797 266.012 257.452 258.392C253.896 252.175 254.561 248.306 254.561 248.306L271.288 245.507Z" fill="#1A2E35"/>
<path d="M302.552 300.172L313.01 299.683L313.731 295.764L302.145 296.159L302.552 300.172Z" fill="#4CAF4F"/>
<path d="M313.437 304.788C313.503 304.819 313.549 304.884 313.552 304.958C313.601 305.097 313.569 305.253 313.468 305.361C313.236 305.586 312.59 305.61 311.715 305.423C312.284 305.068 313.106 304.666 313.437 304.788ZM313.626 305.524C313.785 305.361 313.843 305.127 313.779 304.909C313.752 304.761 313.652 304.638 313.514 304.582C312.909 304.33 311.52 305.272 311.362 305.379C311.336 305.395 311.319 305.42 311.311 305.448C311.298 305.509 311.336 305.57 311.397 305.585C311.823 305.697 312.262 305.761 312.702 305.774C313.03 305.807 313.361 305.718 313.626 305.524Z" fill="#4CAF4F"/>
<path d="M312.152 303.6C312.322 303.622 312.358 303.702 312.371 303.767C312.444 304.12 311.95 304.887 311.517 305.242C311.51 304.777 311.559 303.973 311.855 303.69C311.922 303.625 312.012 303.591 312.106 303.595C312.133 303.609 312.15 303.616 312.152 303.6ZM311.498 305.56C311.989 305.269 312.733 304.263 312.623 303.72C312.582 303.527 312.416 303.386 312.217 303.377C312.032 303.348 311.843 303.409 311.71 303.542C311.214 304.013 311.306 305.423 311.309 305.482C311.312 305.522 311.336 305.558 311.373 305.576C311.389 305.583 311.407 305.588 311.425 305.589L311.498 305.56Z" fill="#4CAF4F"/>
<mask id="mask17_1077_1719" style="mask-type:luminance" maskUnits="userSpaceOnUse" x="295" y="252" width="11" height="37">
<path d="M295.332 252.954H305.386V288.88H295.332V252.954Z" fill="white"/>
</mask>
<g mask="url(#mask17_1077_1719)">
<g opacity="0.300003">
<path d="M295.332 253.484C295.332 253.484 303.09 251.259 304.762 255.933C306.435 260.607 304.474 283.373 302.147 288.429C299.819 293.485 295.587 254.249 295.587 254.249L295.332 253.484Z" fill="black"/>
</g>
</g>
<path d="M295.469 311.195L300.21 311.072L299.849 299.581L295.105 299.706L295.469 311.195Z" fill="#FF8C7B"/>
<path d="M300.29 309.656L294.795 310.007C294.601 310.011 294.446 310.17 294.449 310.364L294.461 314.723C294.489 315.202 294.9 315.566 295.378 315.539C297.284 315.357 298.196 315.214 300.61 315.037C302.098 314.941 305.034 314.882 307.041 314.423C309.049 313.963 308.548 312.002 307.658 312.011C305.548 312.043 302.602 310.866 301.149 309.87C300.894 309.707 300.591 309.63 300.29 309.656Z" fill="#1A2E35"/>
<path d="M302.73 309.365C302.799 309.388 302.853 309.445 302.868 309.516C302.922 309.654 302.9 309.81 302.81 309.928C302.617 310.167 301.955 310.236 301.068 310.119C301.611 309.718 302.4 309.257 302.73 309.365ZM302.983 310.075C303.127 309.9 303.166 309.66 303.083 309.45C303.046 309.305 302.937 309.189 302.795 309.143C302.185 308.934 300.861 309.986 300.713 310.103C300.69 310.121 300.674 310.146 300.67 310.174C300.659 310.236 300.702 310.294 300.763 310.303C301.198 310.381 301.638 310.411 302.077 310.393C302.409 310.405 302.733 310.293 302.983 310.075Z" fill="#4CAF4F"/>
<path d="M301.388 308.272C301.553 308.281 301.608 308.358 301.614 308.424C301.715 308.77 301.277 309.571 300.872 309.959C300.832 309.506 300.817 308.701 301.098 308.396C301.155 308.327 301.241 308.285 301.332 308.282L301.388 308.272ZM300.878 310.298C301.347 309.975 302.007 308.885 301.861 308.386C301.807 308.19 301.627 308.059 301.425 308.067C301.239 308.044 301.052 308.116 300.929 308.259C300.463 308.765 300.67 310.164 300.675 310.224C300.679 310.263 300.705 310.295 300.74 310.312C300.758 310.315 300.774 310.313 300.792 310.306C300.82 310.313 300.851 310.31 300.878 310.298Z" fill="#4CAF4F"/>
<mask id="mask18_1077_1719" style="mask-type:luminance" maskUnits="userSpaceOnUse" x="294" y="298" width="7" height="9">
<path d="M294.684 298.708H300.027V306.428H294.684V298.708Z" fill="white"/>
</mask>
<g mask="url(#mask18_1077_1719)">
<g opacity="0.199997">
<path d="M294.684 299.596L299.986 298.708L300.026 305.889L295.384 306.428L294.684 299.596Z" fill="black"/>
</g>
</g>
<path d="M264.023 246.617C264.023 246.617 300.734 249.353 301.222 260.007C303.927 277.417 301.886 300.327 301.886 300.327L293.093 302.155C293.093 302.155 288.576 280.711 287.925 264.941C278.937 266.444 260.45 269.228 254.114 264.738C248.368 259.574 249.966 248.994 249.966 248.994L264.023 246.617Z" fill="#1A2E35"/>
<path d="M292.24 305.046L302.986 304.144L303.214 299.451L291.434 300.668L292.24 305.046Z" fill="#4CAF4F"/>
<path d="M266.598 214.739C266.805 215.576 266.995 216.301 267.221 217.061C267.447 217.821 267.671 218.541 267.924 219.307C268.416 220.78 268.972 222.243 269.585 223.732C270.81 226.815 272.447 229.718 274.452 232.364C275.043 233.101 275.695 233.789 276.401 234.417C277.192 235.128 278.085 235.714 279.05 236.162C280.901 236.988 282.937 237.316 284.956 237.111C286.722 236.934 288.449 236.47 290.065 235.738C290.831 235.4 291.574 235.018 292.292 234.589C292.652 234.378 292.998 234.155 293.334 233.897C293.67 233.638 293.985 233.42 294.371 233.122L292.479 229.97L291.534 230.253L290.542 230.522C289.874 230.69 289.213 230.838 288.536 230.95C287.313 231.177 286.065 231.241 284.827 231.142C283.835 231.072 282.875 230.761 282.033 230.235C281.668 229.994 281.331 229.712 281.03 229.397C280.655 228.988 280.308 228.554 279.992 228.097C279.264 227.031 278.626 225.905 278.083 224.732C277.485 223.519 276.953 222.234 276.447 220.919C275.941 219.605 275.483 218.266 275.023 216.918L274.375 214.879C274.171 214.208 273.945 213.49 273.781 212.906L266.598 214.739Z" fill="#FF8C7B"/>
<path d="M265.88 210.635C268.839 206.619 273.572 207.907 276.399 214.059C277.965 217.334 279.231 220.744 280.184 224.246L269.328 228.445C266.252 222.64 262.832 214.752 265.88 210.635Z" fill="#4CAF4F"/>
<mask id="mask19_1077_1719" style="mask-type:luminance" maskUnits="userSpaceOnUse" x="264" y="208" width="17" height="21">
<path d="M264.691 208.33H280.183V228.445H264.691V208.33Z" fill="white"/>
</mask>
<g mask="url(#mask19_1077_1719)">
<g opacity="0.100006">
<path d="M265.88 210.634C268.839 206.619 273.572 207.907 276.399 214.059C277.965 217.334 279.231 220.742 280.184 224.246L269.328 228.445C266.252 222.64 262.832 214.752 265.88 210.634Z" fill="black"/>
</g>
</g>
<mask id="mask20_1077_1719" style="mask-type:luminance" maskUnits="userSpaceOnUse" x="267" y="216" width="9" height="13">
<path d="M267.289 216.975H275.85V228.426H267.289V216.975Z" fill="white"/>
</mask>
<g mask="url(#mask20_1077_1719)">
<g opacity="0.300003">
<path d="M270.674 217.038C269.75 216.451 268.011 220.076 267.289 224.308C267.937 225.754 268.63 227.136 269.319 228.426L275.85 225.898C274.641 221.994 272.749 218.36 270.674 217.038Z" fill="black"/>
</g>
</g>
<path d="M292.989 228.33L295.352 226.943L296.36 232.275C296.36 232.275 292.427 234.817 291.211 232.857L291.29 231.47C291.386 230.23 292.003 229.088 292.989 228.33Z" fill="#FF8C7B"/>
<path d="M298.355 226.586L300.597 230.826L296.341 232.279L295.332 226.948L298.355 226.586Z" fill="#FF8C7B"/>
<path d="M265.722 207.13L260.077 206.52L253.095 207.355C250.916 207.613 249.178 209.298 248.854 211.466C248.212 215.721 247.979 221.73 247.929 226.908C247.866 232.721 248.782 241.281 249.967 248.995L273.264 245.428C272.84 225.037 274.182 218.67 274.2 213.266C274.213 211.087 272.77 209.167 270.673 208.573L265.722 207.13Z" fill="#4CAF4F"/>
<path d="M265.722 207.13L260.077 206.52L253.095 207.355C250.916 207.613 249.178 209.298 248.854 211.466C248.212 215.721 247.979 221.73 247.929 226.908C247.866 232.721 248.782 241.281 249.967 248.995L273.264 245.428C272.84 225.037 274.182 218.67 274.2 213.266C274.213 211.087 272.77 209.167 270.673 208.573L265.722 207.13Z" fill="#4CAF4F"/>
<mask id="mask21_1077_1719" style="mask-type:luminance" maskUnits="userSpaceOnUse" x="247" y="209" width="9" height="20">
<path d="M247.172 209.41H255.077V228.382H247.172V209.41Z" fill="white"/>
</mask>
<g mask="url(#mask21_1077_1719)">
<g opacity="0.300003">
<path d="M251.069 209.471C255.709 208.504 255.812 219.091 253.936 226.9C253.392 229.16 250.708 228.308 249.791 227.752C246.789 225.932 245.383 213.035 251.069 209.471Z" fill="black"/>
</g>
</g>
<path d="M251.004 225.152C251.326 229.725 249.946 232.166 252.434 233.617C254.922 235.065 269.511 239.39 269.841 238.778C269.177 239.904 268.532 240.869 267.867 241.995C263.692 241.506 259.511 241.062 255.327 240.666C252.273 240.378 247.346 239.751 244.901 237.902C242.686 236.23 242.83 228.577 243.02 223.062C244.929 221.868 251.004 225.152 251.004 225.152Z" fill="#FF8C7B"/>
<path d="M249.198 207.662C253.951 206.105 255.888 209.882 254.636 216.51C254.016 220.086 253.073 223.597 251.818 227.002L241.691 224.158C242.569 217.661 244.337 209.259 249.198 207.662Z" fill="#4CAF4F"/>
<path d="M256.151 207.411C256.01 208.413 256.384 209.432 256.964 210.26C257.545 211.088 258.322 211.755 259.09 212.414C260.066 213.251 261.226 214.144 262.494 213.935C263.667 213.743 264.324 213.128 264.755 211.713C265.817 213.303 265.889 214.11 267 214.178C267.719 214.221 268.329 213.678 268.817 213.146C269.677 212.205 270.058 211.669 270.18 210.401C270.379 208.339 268.648 206.486 266.681 205.825C264.571 205.117 262.709 204.991 260.535 204.81C258.718 204.659 256.447 205.296 256.151 207.411Z" fill="#1A2E35"/>
<path d="M260.737 197.394L263.369 200.241L266.947 204.116C266.641 204.55 266.416 205.034 266.284 205.548C265.955 206.682 266.098 207.79 267.337 208.572C267.874 208.801 268.227 211.54 264.753 211.364C262.388 211.309 260.869 210.539 259.444 209.151C258.781 208.317 258.6 207.865 259.226 206.916C261.017 204.231 261.042 200.417 260.737 197.394Z" fill="#FF8C7B"/>
<mask id="mask22_1077_1719" style="mask-type:luminance" maskUnits="userSpaceOnUse" x="263" y="200" width="4" height="6">
<path d="M263.559 200.346H266.964V205.825H263.559V200.346Z" fill="white"/>
</mask>
<g mask="url(#mask22_1077_1719)">
<g opacity="0.199997">
<path d="M266.084 203.156L263.816 200.347C263.792 200.433 263.767 200.526 263.738 200.624C263.647 201.033 263.589 201.449 263.562 201.867C263.475 203.297 264.875 205.085 266.21 205.825L266.3 205.536C266.438 205.053 266.64 204.591 266.901 204.165C266.919 204.141 266.94 204.12 266.963 204.102L266.084 203.156Z" fill="black"/>
</g>
</g>
<path d="M269.238 196.527C271.343 192.444 270.895 190.132 272.915 187.956C274.001 187.476 275.896 189.474 274.631 192.873C273.366 196.272 269.238 196.527 269.238 196.527Z" fill="#1A2E35"/>
<path d="M260.801 191.997C260.557 196.734 260.21 199.492 262.327 202.11C265.523 206.07 271.583 204.445 273.221 199.848C274.696 195.712 274.808 188.662 270.389 186.369C267.15 184.713 263.181 185.992 261.521 189.225C261.081 190.086 260.835 191.031 260.801 191.997Z" fill="#FF8C7B"/>
<path d="M260.24 196.201L264.11 197.728L263.137 193.58L265.243 192.381L267.809 188.541C267.809 188.541 262.247 186.911 260.587 186.691C260.007 186.614 257.971 188.191 257.668 188.855C256.815 190.733 257.259 192.917 258.561 194.515C259.062 195.131 259.625 195.694 260.24 196.201Z" fill="#1A2E35"/>
<path d="M262.184 181.854C263.402 181.267 264.881 182.004 266.172 182.399C267.466 182.796 268.735 183.287 270.066 183.524C271.218 183.728 272.479 183.718 273.477 183.104C274.474 182.491 275.068 181.127 274.517 180.094C275.93 180.899 276.907 182.423 277.042 184.043C277.179 185.663 276.47 187.329 275.209 188.356C274.045 189.305 272.5 189.689 270.996 189.707C269.492 189.726 268.007 189.409 266.537 189.092C264.584 188.673 261.754 188.612 259.977 187.716C258.088 186.763 258.462 183.649 262.184 181.854Z" fill="#1A2E35"/>
<path d="M258.479 195.402C258.611 196.454 259.122 197.422 259.92 198.121C260.962 199.01 262.163 197.964 262.264 196.62C262.348 195.419 261.69 193.689 260.456 193.324C259.222 192.961 258.322 194.091 258.479 195.402Z" fill="#FF8C7B"/>
<path d="M267.989 194.604C267.93 194.994 268.083 195.351 268.339 195.397C268.597 195.441 268.821 195.171 268.907 194.783C268.992 194.395 268.812 194.037 268.554 193.986C268.298 193.936 268.047 194.212 267.989 194.604Z" fill="#1A2E35"/>
<path d="M272.382 195.425C272.317 195.819 272.477 196.176 272.732 196.222C272.99 196.266 273.239 195.992 273.3 195.608C273.359 195.225 273.2 194.863 272.948 194.816C272.696 194.771 272.441 195.037 272.382 195.425Z" fill="#1A2E35"/>
<path d="M270.928 195.451C271.097 196.556 271.41 197.635 271.861 198.658C271.164 199.055 270.238 198.552 270.238 198.552L270.928 195.451Z" fill="#FF5551"/>
<path d="M269.542 200.778C268.625 200.638 267.807 200.128 267.276 199.368C267.242 199.315 267.258 199.244 267.311 199.208C267.368 199.177 267.439 199.193 267.474 199.248C268.063 200.067 269.001 200.565 270.011 200.596C270.074 200.595 270.129 200.645 270.132 200.709C270.134 200.774 270.083 200.829 270.02 200.832C270.014 200.832 270.008 200.832 270.002 200.83C269.847 200.824 269.693 200.806 269.542 200.778Z" fill="#1A2E35"/>
<path d="M267.341 193.065C267.304 193.053 267.27 193.032 267.243 193.004C267.157 192.907 267.166 192.76 267.259 192.674C267.798 192.163 268.556 191.956 269.279 192.118C269.403 192.151 269.477 192.275 269.444 192.398C269.444 192.401 269.443 192.404 269.443 192.407C269.405 192.53 269.275 192.6 269.153 192.564C268.584 192.449 267.994 192.616 267.572 193.016C267.512 193.075 267.421 193.093 267.341 193.065Z" fill="#1A2E35"/>
<path d="M272.799 192.897C272.782 192.862 272.775 192.82 272.778 192.782C272.811 192.656 272.937 192.58 273.061 192.61C273.789 192.76 274.392 193.265 274.667 193.954C274.709 194.074 274.645 194.205 274.525 194.247C274.404 194.288 274.273 194.225 274.231 194.105C274.005 193.568 273.527 193.179 272.956 193.063C272.879 193.04 272.82 192.976 272.799 192.897Z" fill="#1A2E35"/>
<path d="M285.473 254.243L317.236 250.094C317.563 250.052 317.796 249.748 317.755 249.421C317.712 249.092 317.408 248.86 317.08 248.903L285.317 253.05C284.989 253.095 284.756 253.397 284.798 253.726C284.841 254.053 285.145 254.286 285.473 254.243Z" fill="#4CAF4F"/>
<mask id="mask23_1077_1719" style="mask-type:luminance" maskUnits="userSpaceOnUse" x="284" y="248" width="34" height="7">
<path d="M284.793 248.898H317.759V254.249H284.793V248.898Z" fill="white"/>
</mask>
<g mask="url(#mask23_1077_1719)">
<g opacity="0.5">
<path d="M285.473 254.243L317.236 250.094C317.563 250.053 317.796 249.749 317.755 249.422C317.712 249.093 317.408 248.86 317.08 248.903L285.317 253.051C284.989 253.095 284.756 253.397 284.798 253.726C284.841 254.054 285.145 254.286 285.473 254.243Z" fill="black"/>
</g>
</g>
<path d="M269.821 254.064L285.23 254.252C285.561 254.256 285.835 253.99 285.839 253.659C285.842 253.328 285.575 253.055 285.245 253.051L269.835 252.862C269.504 252.856 269.23 253.125 269.227 253.455C269.222 253.785 269.491 254.059 269.821 254.064Z" fill="#4CAF4F"/>
<mask id="mask24_1077_1719" style="mask-type:luminance" maskUnits="userSpaceOnUse" x="269" y="252" width="17" height="3">
<path d="M269.227 252.861H285.839V254.253H269.227V252.861Z" fill="white"/>
</mask>
<g mask="url(#mask24_1077_1719)">
<g opacity="0.5">
<path d="M269.821 254.064L285.23 254.252C285.561 254.256 285.835 253.99 285.839 253.659C285.842 253.328 285.575 253.055 285.245 253.051L269.835 252.862C269.504 252.856 269.23 253.125 269.227 253.455C269.222 253.785 269.491 254.059 269.821 254.064Z" fill="white"/>
</g>
</g>
<path d="M286.193 253.544L269.229 253.415C269.229 253.415 268.658 253.08 269.798 252.861C270.939 252.642 285.665 250.698 285.665 250.698L286.193 253.544Z" fill="#4CAF4F"/>
<path d="M286.192 253.544L269.631 253.363C269.631 253.363 269.06 253.027 270.201 252.808C271.34 252.588 285.664 250.698 285.664 250.698L286.192 253.544Z" fill="#4CAF4F"/>
<mask id="mask25_1077_1719" style="mask-type:luminance" maskUnits="userSpaceOnUse" x="269" y="250" width="18" height="4">
<path d="M269.488 250.698H286.193V253.544H269.488V250.698Z" fill="white"/>
</mask>
<g mask="url(#mask25_1077_1719)">
<g opacity="0.199997">
<path d="M286.192 253.544L269.631 253.362C269.631 253.362 269.06 253.027 270.201 252.808C271.34 252.588 285.664 250.698 285.664 250.698L286.192 253.544Z" fill="white"/>
</g>
</g>
<path d="M286.185 252.938L315.802 249.07C316.848 248.934 317.665 247.957 317.62 246.901L316.971 231.753C316.926 230.695 316.033 229.944 314.989 230.079L285.371 233.948C284.325 234.085 283.508 235.061 283.553 236.117L284.202 251.267C284.248 252.323 285.139 253.075 286.185 252.938Z" fill="#4CAF4F"/>
<mask id="mask26_1077_1719" style="mask-type:luminance" maskUnits="userSpaceOnUse" x="283" y="230" width="35" height="23">
<path d="M283.551 230.064H317.622V252.954H283.551V230.064Z" fill="white"/>
</mask>
<g mask="url(#mask26_1077_1719)">
<g opacity="0.399994">
<path d="M286.185 252.938L315.802 249.07C316.848 248.934 317.665 247.957 317.62 246.901L316.971 231.753C316.926 230.695 316.033 229.944 314.989 230.079L285.371 233.948C284.325 234.085 283.508 235.061 283.553 236.117L284.202 251.267C284.248 252.323 285.139 253.075 286.185 252.938Z" fill="black"/>
</g>
</g>
<path d="M287.048 252.76L316.665 248.892C317.709 248.756 318.528 247.78 318.484 246.723L317.834 231.574C317.788 230.517 316.897 229.765 315.851 229.901L286.234 233.77C285.189 233.907 284.371 234.883 284.416 235.938L285.065 251.089C285.11 252.145 286.003 252.896 287.048 252.76Z" fill="#4CAF4F"/>
<mask id="mask27_1077_1719" style="mask-type:luminance" maskUnits="userSpaceOnUse" x="284" y="229" width="35" height="24">
<path d="M284.414 229.887H318.485V252.776H284.414V229.887Z" fill="white"/>
</mask>
<g mask="url(#mask27_1077_1719)">
<g opacity="0.199997">
<path d="M287.048 252.76L316.665 248.893C317.709 248.756 318.528 247.78 318.484 246.724L317.834 231.574C317.788 230.518 316.897 229.765 315.851 229.902L286.234 233.771C285.189 233.907 284.371 234.883 284.416 235.938L285.065 251.089C285.11 252.146 286.003 252.897 287.048 252.76Z" fill="white"/>
</g>
</g>
<path d="M271.739 233.393C269.677 232.965 268.683 229.336 269.526 225.292C270.367 221.249 272.728 218.318 274.791 218.746C276.86 219.175 277.854 222.804 277.011 226.847C276.169 230.891 273.809 233.823 271.739 233.393ZM274.531 217.802C271.292 217.128 267.906 220.249 266.967 224.76C266.026 229.279 267.885 233.489 271.123 234.162C274.362 234.834 277.748 231.715 278.689 227.197C279.629 222.684 277.771 218.475 274.531 217.802Z" fill="#1A2E35"/>
<mask id="mask28_1077_1719" style="mask-type:luminance" maskUnits="userSpaceOnUse" x="269" y="218" width="9" height="16">
<path d="M269.223 218.707H277.306V233.436H269.223V218.707Z" fill="white"/>
</mask>
<g mask="url(#mask28_1077_1719)">
<g opacity="0.5">
<path d="M277.005 226.848C276.163 230.894 273.805 233.824 271.739 233.394C269.671 232.966 268.68 229.338 269.523 225.294C270.365 221.25 272.722 218.319 274.79 218.748C276.856 219.178 277.848 222.804 277.005 226.848Z" fill="white"/>
</g>
</g>
<path d="M270.039 233.78L266.594 244.712C266.594 244.712 266.778 246.065 268.363 245.389C269.947 244.714 271.12 234.162 271.12 234.162L270.039 233.78Z" fill="#1A2E35"/>
<path d="M266.581 236.766L269.023 235.971L268.99 242.031C268.99 242.031 263.685 243.462 263.27 241.012L263.918 239.664C264.463 238.499 265.242 237.147 266.581 236.766Z" fill="#FF8C7B"/>
<path d="M272.764 237.532L272.144 240.955L268.988 242.026L269.024 235.971L272.764 237.532Z" fill="#FF8C7B"/>
<path d="M297.234 206.158L297.204 206.17L297.176 206.158L297.204 206.151L297.234 206.158Z" fill="#F0F0F0"/>
</g>
<mask id="mask29_1077_1719" style="mask-type:luminance" maskUnits="userSpaceOnUse" x="0" y="0" width="396" height="396">
<path d="M0 0.888672H395.506V395.914H0V0.888672Z" fill="white"/>
</mask>
<g mask="url(#mask29_1077_1719)">
<path d="M115.073 137.211C115.323 137.164 115.588 137.424 115.67 137.801C115.751 138.177 115.62 138.531 115.37 138.579C115.121 138.627 114.855 138.367 114.774 137.989C114.673 137.6 114.824 137.259 115.073 137.211Z" fill="#1A2E35"/>
<path d="M115.853 142.213C116.511 142.239 117.147 141.975 117.59 141.489C116.631 140.657 115.79 139.698 115.09 138.639L115.853 142.213Z" fill="#D24C38"/>
<path d="M113.099 136.143C113.467 135.693 114.031 135.448 114.612 135.486C114.636 135.494 114.662 135.498 114.687 135.498C114.814 135.498 114.917 135.393 114.916 135.266C114.915 135.139 114.812 135.036 114.684 135.037C113.958 134.968 113.244 135.255 112.768 135.807C112.732 135.848 112.712 135.901 112.711 135.957C112.709 136.084 112.811 136.188 112.939 136.19C112.996 136.195 113.053 136.179 113.099 136.143Z" fill="#1A2E35"/>
<path d="M110.594 159.2C104.076 159.27 103.078 155.726 103.078 155.726C105.013 153.833 105.111 150.361 104.697 147.263C105.194 147.963 105.816 148.571 106.637 149.114C108.197 150.137 109.883 150.345 111.409 149.967C111.436 149.967 111.464 149.957 111.491 149.939C111.473 150.002 111.464 150.065 111.456 150.128C111.066 152.611 111.412 155.266 114.019 156.042C114.019 156.042 117.774 159.122 110.594 159.2Z" fill="#CA5B51"/>
<path d="M111.668 149.024C111.599 149.321 111.53 149.621 111.488 149.939C111.461 149.957 111.434 149.967 111.406 149.967C109.88 150.345 108.194 150.138 106.635 149.114C105.814 148.572 105.191 147.963 104.695 147.262C104.596 146.477 104.452 145.71 104.309 145.006L111.404 148.881L111.668 149.024Z" fill="#CA5B51"/>
<path d="M101.094 156.326C101.094 156.326 102.124 153.15 103.679 152.146C105.233 151.143 112.056 152.184 113.126 152.602C114.195 153.02 115.274 155.482 115.274 155.482L101.094 156.326Z" fill="#4CAF4F"/>
<path d="M97.508 166.374C99.476 166.777 101.398 165.511 101.802 163.545C102.205 161.579 100.936 159.659 98.9681 159.256L98.9239 159.219C96.0027 158.587 92.9833 157.851 90.0495 157.1C87.1157 156.35 86.1134 156.325 83.3322 155.344C82.6314 155.11 81.9544 154.848 81.2819 154.578L80.9102 154.438C80.8476 154.42 80.7883 154.395 80.733 154.361C80.5534 154.264 80.3842 154.149 80.2259 154.02C79.3021 153.174 73.0783 145.122 71.929 142.383L71.8918 142.296C71.5691 141.561 70.8018 141.126 70.0045 141.225C69.0102 141.349 68.3047 142.255 68.4281 143.249C68.7974 146.57 74.889 157.771 76.1324 159.2C76.5287 159.628 76.9639 160.019 77.4328 160.367C77.9067 160.713 78.4145 161.01 78.9485 161.253C79.7055 161.622 85.0076 163.207 88.1392 164.112C91.2432 165 94.3155 165.763 97.5443 166.37L97.508 166.374Z" fill="#CA5B51"/>
<path d="M71.4957 141.427L71.533 142.059C71.5788 142.678 71.2316 143.261 70.6644 143.517C69.5498 143.959 68.3412 144.11 67.1523 143.957L68.1253 138.504L70.8061 140.244C71.2119 140.505 71.4682 140.945 71.4957 141.427Z" fill="#CA5B51"/>
<path d="M68.118 138.494L67.145 143.947L63.5103 141.803L63.4336 136.879L68.118 138.494Z" fill="#CA5B51"/>
<path d="M98.6359 155.313C97.2365 155.52 91.7026 156.701 87.1046 155.408L86.8047 164.786C86.8047 164.786 94.7828 168.734 98.3986 165.882C102.098 162.958 104.284 157.886 98.6359 155.313Z" fill="#1A2E35"/>
<path d="M88.3627 167.241L84.75 165.623L85.787 154.414L89.1496 155.02L88.3627 167.241Z" fill="#4CAF4F"/>
<path d="M117.403 154.971C116.349 154.797 115.167 154.636 113.96 154.541C110.326 154.369 106.686 154.408 103.056 154.658C103.025 154.661 100.691 154.882 100.66 154.885C96.8588 155.165 93.0368 158.456 93.8016 162.185C98.0121 182.709 96.8106 194.167 96.4246 197.509L122.081 197.232C124.733 176.138 124.002 165.503 122.965 160.338C122.408 157.569 120.193 155.432 117.403 154.971Z" fill="#1A2E35"/>
<mask id="mask30_1077_1719" style="mask-type:luminance" maskUnits="userSpaceOnUse" x="114" y="162" width="10" height="36">
<path d="M114.094 162.185H123.907V197.232H114.094V162.185Z" fill="white"/>
</mask>
<g mask="url(#mask30_1077_1719)">
<g opacity="0.199997">
<path d="M122.923 189.791L122.106 197.232C123.747 184.023 124.077 174.922 123.837 168.69L114.094 162.185C118.49 175.973 119.927 180.323 122.923 189.791Z" fill="black"/>
</g>
</g>
<path d="M116.339 143.709C116.292 146.116 114.974 148.147 113.129 149.252H113.121C113.112 149.261 113.103 149.261 113.094 149.261C112.599 149.573 112.059 149.797 111.49 149.939C111.462 149.957 111.435 149.967 111.408 149.967C109.882 150.345 108.196 150.137 106.636 149.114C105.815 148.572 105.193 147.963 104.697 147.263C103.419 145.513 102.887 143.176 101.972 139.894C101.691 138.929 101.635 137.908 101.814 136.92C102.455 133.386 105.843 131.044 109.372 131.684C114.325 132.563 116.436 139.313 116.339 143.709Z" fill="#CA5B51"/>
<mask id="mask31_1077_1719" style="mask-type:luminance" maskUnits="userSpaceOnUse" x="111" y="147" width="3" height="3">
<path d="M111.488 147.042H113.096V149.939H111.488V147.042Z" fill="white"/>
</mask>
<g mask="url(#mask31_1077_1719)">
<g opacity="0.199997">
<path d="M113.095 149.261C112.601 149.575 112.06 149.797 111.491 149.939C111.463 149.957 111.667 147.043 111.667 147.043C111.649 146.994 112.751 149.265 113.095 149.261Z" fill="black"/>
</g>
</g>
<path d="M113.488 141.202C113.265 143.225 112.253 145.205 110.572 146.356C110.358 146.502 110.131 146.636 109.879 146.693C109.048 146.879 108.272 146.168 107.894 145.406C107.406 144.418 107.301 143.288 107.261 142.188C107.167 139.591 107.489 136.747 109.317 134.899C109.747 134.464 110.29 134.085 110.901 134.062C113.228 133.974 113.653 139.716 113.488 141.202Z" fill="#1A2E35"/>
<path d="M103.273 129.542C102.286 129.211 101.11 129.556 100.459 130.366C99.808 131.178 99.7273 132.4 100.265 133.289C98.1999 133.929 96.2556 135.473 95.845 137.593C95.4354 139.714 97.1858 142.181 99.3343 141.937C98.695 142.452 98.491 143.434 98.8723 144.159C99.2527 144.885 100.177 145.276 100.965 145.045C102.644 147.826 107.865 148.432 110.385 146.38C110.98 145.895 110.551 145.391 110.68 144.636C110.809 143.881 110.463 143.013 109.755 142.718C109.936 142.089 110.117 141.461 110.299 140.833C109.763 140.243 109.227 139.652 108.691 139.063C110.13 137.949 111.638 136.744 112.261 135.036C112.884 133.328 112.171 131.002 110.4 130.581C111.567 130.368 112.27 128.85 111.675 127.825C111.049 126.747 109.507 126.737 108.654 127.509C108.16 126.821 107.755 126.07 106.91 125.842C103.619 124.952 102.719 128.48 103.273 129.542Z" fill="#1A2E35"/>
<path d="M112.304 137.76C113.675 138.161 114.389 140.178 114.448 141.459C114.515 142.875 113.569 143.768 112.333 142.821C111.403 142.091 110.739 141.076 110.442 139.932C110.106 138.546 110.934 137.358 112.304 137.76Z" fill="#CA5B51"/>
<path d="M112.25 318.111C111.547 318.209 110.873 318.445 110.263 318.802C111.214 318.913 112.505 318.882 112.733 318.55C112.787 318.501 112.812 318.433 112.726 318.285C112.675 318.196 112.584 318.135 112.482 318.12C112.405 318.111 112.327 318.113 112.25 318.125V318.111ZM109.886 319.013C109.835 319.005 109.795 318.965 109.788 318.913C109.777 318.864 109.797 318.815 109.839 318.79C109.934 318.747 111.692 317.699 112.545 317.914C112.709 317.944 112.854 318.043 112.941 318.185C113.058 318.339 113.065 318.551 112.957 318.708C112.754 319.012 112.149 319.113 111.467 319.125C110.937 319.133 110.409 319.095 109.886 319.013Z" fill="#4CAF4F"/>
<path d="M111.125 316.917C110.965 316.922 110.813 316.988 110.701 317.101C110.331 317.55 110.108 318.102 110.063 318.683C110.686 318.291 111.487 317.412 111.423 317.067C111.416 317.039 111.398 316.932 111.18 316.937H111.112L111.125 316.917ZM109.839 318.987C109.805 318.962 109.784 318.922 109.781 318.879C109.787 318.816 109.857 317.451 110.525 316.901C110.709 316.738 110.954 316.66 111.2 316.685C111.536 316.711 111.656 316.879 111.66 317.015C111.772 317.603 110.582 318.707 109.97 318.999H109.921C109.894 319.005 109.864 319 109.839 318.987Z" fill="#4CAF4F"/>
<path d="M104.516 307.265L109.59 307.167L109.404 318.886L104.301 318.985L104.516 307.265Z" fill="#CA5B51"/>
<path d="M110.599 318.673C114.115 320.729 115.183 320.803 119.214 321.598C120.095 321.772 119.582 323.905 117.482 323.946C114.007 324.013 113.64 323.856 110.678 323.914C108.14 323.961 105.229 324.134 103.212 324.207C103.15 324.21 103.087 324.204 103.027 324.191C102.628 324.103 102.373 323.711 102.458 323.314L103.351 318.764C103.394 318.561 103.571 318.415 103.78 318.41L109.36 318.302C109.798 318.308 110.228 318.437 110.599 318.673Z" fill="#1A2E35"/>
<mask id="mask32_1077_1719" style="mask-type:luminance" maskUnits="userSpaceOnUse" x="104" y="307" width="6" height="7">
<path d="M104.406 307.173H109.594V313.294H104.406V307.173Z" fill="white"/>
</mask>
<g mask="url(#mask32_1077_1719)">
<g opacity="0.199997">
<path d="M104.512 307.271L104.406 313.292L109.502 313.195L109.594 307.173L104.512 307.271Z" fill="black"/>
</g>
</g>
<path d="M66.4531 317.412C66.5347 318.11 66.7497 318.782 67.086 319.397C67.2236 318.449 67.2148 317.166 66.8859 316.935C66.8446 316.882 66.7696 316.856 66.6201 316.941C66.5299 316.991 66.4682 317.08 66.4516 317.182C66.4405 317.258 66.4412 317.336 66.4531 317.412ZM67.3003 319.773C67.2924 319.822 67.2544 319.862 67.2053 319.869C67.1555 319.881 67.1042 319.858 67.082 319.81C67.0338 319.724 66.0197 317.956 66.2538 317.111C66.2917 316.951 66.3914 316.813 66.5307 316.726C66.688 316.609 66.9016 316.606 67.0622 316.716C67.3565 316.926 67.4419 317.529 67.4467 318.207C67.4435 318.732 67.3944 319.256 67.3003 319.773Z" fill="#4CAF4F"/>
<path d="M65.229 318.529C65.2368 318.683 65.2978 318.832 65.4022 318.945C65.846 319.318 66.3949 319.544 66.9755 319.595C66.5958 318.972 65.7312 318.158 65.384 318.219C65.3571 318.219 65.248 318.237 65.2487 318.453C65.2487 318.48 65.2494 318.527 65.2494 318.527L65.229 318.529ZM67.2903 319.821C67.2674 319.858 67.2238 319.877 67.182 319.869C67.1265 319.865 65.7478 319.775 65.2186 319.105C65.0557 318.921 64.9798 318.677 65.0107 318.431C65.0422 318.104 65.2124 317.985 65.3484 317.982C65.9274 317.884 67.0261 319.084 67.3037 319.692C67.3054 319.706 67.3054 319.723 67.3037 319.739C67.3109 319.767 67.3061 319.795 67.2903 319.821Z" fill="#4CAF4F"/>
<path d="M69.9319 307.911L74.8884 308.164L72.214 320.032L67.2227 319.775L69.9319 307.911Z" fill="#CA5B51"/>
<path d="M66.019 319.145C64.6838 320.755 63.9775 321.586 60.0753 322.888C59.2148 323.171 59.9939 325.219 62.0862 324.993C65.5461 324.62 63.6381 324.663 66.5838 324.348C69.1056 324.072 72.0173 323.88 74.0264 323.699C74.0945 323.694 74.1617 323.681 74.2257 323.66C74.6165 323.527 74.8294 323.105 74.7003 322.717L73.2497 318.32C73.1872 318.122 72.991 317.997 72.7829 318.022L67.2364 318.619C66.7784 318.627 66.3401 318.816 66.019 319.145Z" fill="#1A2E35"/>
<mask id="mask33_1077_1719" style="mask-type:luminance" maskUnits="userSpaceOnUse" x="68" y="307" width="7" height="8">
<path d="M68.5391 307.918H74.8884V314.268H68.5391V307.918Z" fill="white"/>
</mask>
<g mask="url(#mask33_1077_1719)">
<g opacity="0.199997">
<path d="M69.9258 307.918L68.5391 314.012L73.5098 314.267L74.8886 308.164L69.9258 307.918Z" fill="black"/>
</g>
</g>
<path d="M96.4259 197.509C96.4259 197.509 93.7364 201.81 91.9243 207.043C89.3614 214.447 90.4056 218.268 89.6002 223.26C88.182 232.048 85.9284 238.812 84.3883 245.489C79.5798 266.382 67.4883 310.523 67.4883 310.523L76.4766 312.306C76.4766 312.306 93.939 260.946 98.337 245.985C102.302 232.52 112.457 197.144 112.457 197.144L96.4259 197.509Z" fill="#4CAF4F"/>
<path d="M96.4259 197.509C96.4259 197.509 93.7364 201.81 91.9243 207.043C89.3614 214.447 90.4056 218.268 89.6002 223.26C88.182 232.048 85.9284 238.812 84.3883 245.489C79.5798 266.382 67.4883 310.523 67.4883 310.523L76.4766 312.306C76.4766 312.306 93.939 260.946 98.337 245.985C102.302 232.52 112.457 197.144 112.457 197.144L96.4259 197.509Z" fill="#4CAF4F"/>
<path d="M66.4026 308.895L66.375 312.074L77.1762 313.014C77.1762 313.014 78.0589 309.524 78.0186 309.524L66.4026 308.895Z" fill="#4CAF4F"/>
<mask id="mask34_1077_1719" style="mask-type:luminance" maskUnits="userSpaceOnUse" x="98" y="213" width="10" height="35">
<path d="M98.0117 213.364H107.762V247.097H98.0117V213.364Z" fill="white"/>
</mask>
<g mask="url(#mask34_1077_1719)">
<g opacity="0.300003">
<path d="M107.762 213.445C104.561 224.55 100.507 238.605 98.3416 245.977C98.2372 246.334 98.1209 246.703 98.0117 247.097C98.6683 234.841 100.645 214.279 106.79 213.397C107.113 213.34 107.446 213.358 107.762 213.445Z" fill="black"/>
</g>
</g>
<path d="M104.677 197.293C104.677 197.293 102.761 231.065 102.797 247.011C102.832 261.872 103.042 312.151 103.042 312.151L111.665 311.985C111.665 311.985 116.649 260.695 117.861 245.576C119.017 231.262 122.081 197.232 122.081 197.232L104.677 197.293Z" fill="#4CAF4F"/>
<path d="M104.677 197.293C104.677 197.293 102.761 231.065 102.797 247.011C102.832 261.872 103.042 312.151 103.042 312.151L111.665 311.985C111.665 311.985 116.649 260.695 117.861 245.576C119.017 231.262 122.081 197.232 122.081 197.232L104.677 197.293Z" fill="#4CAF4F"/>
<path d="M101.699 309.155L102.061 312.31L112.546 312.109C112.546 312.109 112.966 308.554 112.925 308.554L101.699 309.155Z" fill="#4CAF4F"/>
<path d="M136.23 146.843L138.849 145.03C139.444 147.874 142.154 150.1 144.207 151.417C145.189 152.045 145.555 153.491 144.86 153.971L143.157 155.15C141.092 156.58 136.23 146.843 136.23 146.843Z" fill="#4CAF4F"/>
<path d="M135.193 147.561L141.191 143.409C143.137 142.062 143.627 139.368 142.278 137.423C140.928 135.479 138.231 134.99 136.284 136.338L130.287 140.49C128.34 141.837 127.851 144.531 129.2 146.475C130.549 148.419 133.246 148.908 135.193 147.561Z" fill="#4CAF4F"/>
<mask id="mask35_1077_1719" style="mask-type:luminance" maskUnits="userSpaceOnUse" x="128" y="135" width="16" height="14">
<path d="M128.438 135.576H143.04V148.323H128.438V135.576Z" fill="white"/>
</mask>
<g mask="url(#mask35_1077_1719)">
<g opacity="0.300003">
<path d="M135.193 147.561L141.191 143.409C143.137 142.062 143.627 139.368 142.277 137.423C140.928 135.479 138.231 134.99 136.284 136.338L130.286 140.49C128.34 141.837 127.851 144.531 129.2 146.475C130.549 148.419 133.246 148.908 135.193 147.561Z" fill="black"/>
</g>
</g>
<path d="M153.641 141.091L142.394 145.829C141.506 146.444 133.553 134.981 134.44 134.366L142.83 125.512L153.641 141.091Z" fill="#4CAF4F"/>
<path d="M147.416 133.867C150.402 138.169 153.187 141.404 153.639 141.092C154.09 140.779 152.036 137.038 149.05 132.735C146.066 128.433 143.28 125.199 142.828 125.511C142.376 125.824 144.431 129.565 147.416 133.867Z" fill="#4CAF4F"/>
<mask id="mask36_1077_1719" style="mask-type:luminance" maskUnits="userSpaceOnUse" x="142" y="125" width="12" height="17">
<path d="M142.766 125.491H153.701V141.112H142.766V125.491Z" fill="white"/>
</mask>
<g mask="url(#mask36_1077_1719)">
<g opacity="0.300003">
<path d="M147.416 133.868C150.402 138.17 153.187 141.404 153.639 141.092C154.09 140.779 152.036 137.038 149.05 132.736C146.066 128.434 143.28 125.2 142.828 125.512C142.376 125.824 144.431 129.565 147.416 133.868Z" fill="black"/>
</g>
</g>
<path d="M150.133 132.473C149.403 131.42 147.869 131.051 147.368 131.398C146.866 131.745 147.052 132.879 147.782 133.931C148.512 134.983 149.51 135.554 150.011 135.208C150.513 134.861 150.863 133.525 150.133 132.473Z" fill="#4CAF4F"/>
<path d="M135.391 152.059L136.2 149.828C136.697 148.456 137.61 147.272 138.811 146.441L140.486 145.281C140.814 145.055 141.263 145.133 141.492 145.459C142.185 146.448 143.498 148.563 143.701 150.644C143.748 151.117 143.54 151.58 143.154 151.86L139.543 154.279C138.973 154.719 138.299 154.94 137.788 154.433L135.391 152.059Z" fill="#CA5B51"/>
<path d="M139.43 152.703L136.841 163.546C136.758 163.899 136.668 164.243 136.578 164.577C134.396 172.67 130.185 176.966 128.257 175.97C126.255 174.939 122.082 170.238 122.082 170.238L126.88 166.448L128.257 167.605L135.771 151.392L136.841 149.131C136.841 149.131 140.218 149.114 139.43 152.703Z" fill="#CA5B51"/>
<path d="M136.841 163.546L136.596 164.586L136.578 164.577C136.668 164.243 136.758 163.899 136.841 163.546Z" fill="#CA5B51"/>
<path d="M122.605 157.218C127.007 160.812 129.701 168.46 129.701 168.46L122.589 172.966C122.589 172.966 113.256 166.355 113.982 160.074C114.527 155.267 117.169 152.759 122.605 157.218Z" fill="#1A2E35"/>
<path d="M118.492 171.439L121.009 174.107L130.802 167.822L129.287 164.724L118.492 171.439Z" fill="#4CAF4F"/>
<path d="M155.27 129.063L160.373 116.848L164.426 119.09L155.27 129.063Z" fill="#1A2E35"/>
<path d="M155.789 133.461L169.02 132.707L168.247 128.144L155.789 133.461Z" fill="#1A2E35"/>
<path d="M159.098 129.185L169.214 117.44L173.22 121.829L159.098 129.185Z" fill="#1A2E35"/>
<path d="M58.3711 126.095V136.793L68.4129 142.103V130.494L58.3711 126.095Z" fill="#4CAF4F"/>
<mask id="mask37_1077_1719" style="mask-type:luminance" maskUnits="userSpaceOnUse" x="58" y="126" width="11" height="17">
<path d="M58.3711 126.095H68.4126V142.103H58.3711V126.095Z" fill="white"/>
</mask>
<g mask="url(#mask37_1077_1719)">
<g opacity="0.100006">
<path d="M58.3711 126.095V136.793L68.413 142.103V130.494L58.3711 126.095Z" fill="black"/>
</g>
</g>
<path d="M78.4553 126.095V136.793L68.4141 142.103V130.494L78.4553 126.095Z" fill="#4CAF4F"/>
<mask id="mask38_1077_1719" style="mask-type:luminance" maskUnits="userSpaceOnUse" x="68" y="126" width="11" height="17">
<path d="M68.4141 126.095H78.4556V142.103H68.4141V126.095Z" fill="white"/>
</mask>
<g mask="url(#mask38_1077_1719)">
<g opacity="0.199997">
<path d="M78.4553 126.095V136.793L68.4141 142.103V130.494L78.4553 126.095Z" fill="black"/>
</g>
</g>
<path d="M58.3711 126.095L68.4129 130.494L78.4541 126.095L68.4129 121.054L58.3711 126.095Z" fill="#4CAF4F"/>
<path d="M72.9102 128.523V135.168L73.4331 134.297L73.7463 134.761L74.0762 134.009L74.4092 134.476V127.867L72.9102 128.523Z" fill="#1A2E35"/>
<path d="M72.9106 128.523L62.6719 123.935L64.3266 123.105L74.4096 127.867L72.9106 128.523Z" fill="#1A2E35"/>
</g>
<mask id="mask39_1077_1719" style="mask-type:luminance" maskUnits="userSpaceOnUse" x="0" y="0" width="396" height="396">
<path d="M0 0.888672H395.506V395.914H0V0.888672Z" fill="white"/>
</mask>
<g mask="url(#mask39_1077_1719)">
<path d="M220.4 320.728H201.957C201.957 319.466 204.3 318.371 207.633 317.915V310.051H214.717V317.915C218.049 318.371 220.4 319.459 220.4 320.728Z" fill="#4CAF4F"/>
<mask id="mask40_1077_1719" style="mask-type:luminance" maskUnits="userSpaceOnUse" x="201" y="310" width="20" height="11">
<path d="M201.957 310.051H220.4V320.728H201.957V310.051Z" fill="white"/>
</mask>
<g mask="url(#mask40_1077_1719)">
<g opacity="0.399994">
<path d="M220.4 320.728H201.957C201.957 319.466 204.3 318.371 207.633 317.915V310.051H214.717V317.915C218.049 318.371 220.4 319.459 220.4 320.728Z" fill="black"/>
</g>
</g>
<path d="M241.266 312.286H181.324V280.091H241.266V312.286Z" fill="#4CAF4F"/>
<mask id="mask41_1077_1719" style="mask-type:luminance" maskUnits="userSpaceOnUse" x="181" y="280" width="61" height="33">
<path d="M181.324 280.091H241.266V312.286H181.324V280.091Z" fill="white"/>
</mask>
<g mask="url(#mask41_1077_1719)">
<g opacity="0.199997">
<path d="M241.266 312.286H181.324V280.091H241.266V312.286Z" fill="black"/>
</g>
</g>
<mask id="mask42_1077_1719" style="mask-type:luminance" maskUnits="userSpaceOnUse" x="182" y="281" width="58" height="28">
<path d="M182.715 281.561H239.639V308.617H182.715V281.561Z" fill="white"/>
</mask>
<g mask="url(#mask42_1077_1719)">
<g opacity="0.199997">
<path d="M239.639 308.617H182.715V281.561H239.639V308.617Z" fill="black"/>
</g>
</g>
<mask id="mask43_1077_1719" style="mask-type:luminance" maskUnits="userSpaceOnUse" x="207" y="312" width="8" height="2">
<path d="M207.633 312.286H214.716V313.993H207.633V312.286Z" fill="white"/>
</mask>
<g mask="url(#mask43_1077_1719)">
<g opacity="0.199997">
<path d="M214.716 313.993H207.633V312.286H214.716V313.993Z" fill="black"/>
</g>
</g>
<path d="M207.633 290.34V302.037L218.037 296.189L207.633 290.34Z" fill="white"/>
<path d="M177.65 275.569C177.578 276.389 176.854 277.054 176.034 277.054H165.515C164.693 277.054 164.087 276.389 164.158 275.569L164.297 273.978H177.79L177.65 275.569Z" fill="#4CAF4F"/>
<path d="M156.699 277.453L152.673 323.411C152.46 325.85 154.274 327.835 156.715 327.835H175.87C178.311 327.835 180.472 325.85 180.686 323.411L184.711 277.453C184.924 275.014 183.112 273.031 180.671 273.031H161.514C159.073 273.031 156.912 275.014 156.699 277.453Z" fill="#4CAF4F"/>
<mask id="mask44_1077_1719" style="mask-type:luminance" maskUnits="userSpaceOnUse" x="152" y="273" width="33" height="55">
<path d="M152.656 273.031H184.728V327.835H152.656V273.031Z" fill="white"/>
</mask>
<g mask="url(#mask44_1077_1719)">
<g opacity="0.399994">
<path d="M177.65 275.569C177.578 276.389 176.854 277.054 176.034 277.054H165.515C164.693 277.054 164.087 276.389 164.158 275.569L164.297 273.978H177.79L177.65 275.569Z" fill="black"/>
<path d="M156.699 277.453L152.673 323.411C152.46 325.85 154.274 327.835 156.715 327.835H175.87C178.311 327.835 180.472 325.85 180.686 323.411L184.711 277.453C184.924 275.014 183.112 273.031 180.671 273.031H161.514C159.073 273.031 156.912 275.014 156.699 277.453Z" fill="#4CAF4F"/>
</g>
</g>
<path d="M160.248 273.975H179.404C181.34 273.975 182.771 275.542 182.602 277.477L178.575 323.434C178.407 325.367 176.7 326.933 174.765 326.933H155.61C153.673 326.933 152.242 325.367 152.412 323.434L156.437 277.477C156.607 275.542 158.312 273.975 160.248 273.975Z" fill="#4CAF4F"/>
<mask id="mask45_1077_1719" style="mask-type:luminance" maskUnits="userSpaceOnUse" x="152" y="273" width="31" height="54">
<path d="M152.398 273.975H182.616V326.934H152.398V273.975Z" fill="white"/>
</mask>
<g mask="url(#mask45_1077_1719)">
<g opacity="0.300003">
<path d="M160.248 273.975H179.404C181.34 273.975 182.771 275.542 182.602 277.477L178.575 323.434C178.407 325.367 176.7 326.933 174.765 326.933H155.61C153.673 326.933 152.242 325.367 152.412 323.434L156.437 277.477C156.607 275.542 158.312 273.975 160.248 273.975Z" fill="white"/>
</g>
</g>
<path d="M156.439 277.475C156.608 275.541 158.315 273.974 160.249 273.974H179.406C181.341 273.974 182.774 275.541 182.603 277.475L178.578 323.432C178.409 325.365 176.702 326.934 174.766 326.934H155.611C153.676 326.934 152.245 325.365 152.414 323.432L156.439 277.475ZM155.515 277.475L151.49 323.432C151.276 325.872 153.089 327.857 155.531 327.857H174.685C177.127 327.857 179.288 325.872 179.502 323.432L183.527 277.475C183.741 275.036 181.928 273.051 179.486 273.051H160.331C157.888 273.051 155.729 275.036 155.515 277.475Z" fill="white"/>
<path d="M176.602 274C176.486 275.327 175.314 276.402 173.984 276.402H165.308C163.977 276.402 162.994 275.327 163.111 274H176.602Z" fill="white"/>
<path d="M167.183 302.349L163.468 301.622C164.178 305.001 162.289 308.716 160.68 311.126C159.911 312.28 160.202 314.027 161.187 314.219L163.604 314.692C166.535 315.267 167.183 302.349 167.183 302.349Z" fill="#4CAF4F"/>
<path d="M168.658 302.638L160.146 300.972C157.383 300.431 155.566 297.731 156.107 294.971C156.65 292.211 159.352 290.396 162.115 290.937L170.627 292.602C173.39 293.144 175.209 295.845 174.666 298.605C174.124 301.364 171.421 303.179 168.658 302.638Z" fill="#4CAF4F"/>
<mask id="mask46_1077_1719" style="mask-type:luminance" maskUnits="userSpaceOnUse" x="156" y="290" width="19" height="13">
<path d="M156.012 290.841H174.762V302.733H156.012V290.841Z" fill="white"/>
</mask>
<g mask="url(#mask46_1077_1719)">
<g opacity="0.300003">
<path d="M168.658 302.638L160.146 300.972C157.383 300.431 155.566 297.731 156.107 294.971C156.65 292.211 159.352 290.396 162.115 290.937L170.627 292.602C173.39 293.144 175.209 295.845 174.666 298.605C174.124 301.364 171.421 303.179 168.658 302.638Z" fill="black"/>
</g>
</g>
<path d="M145.484 304.372L159.991 304.178C161.253 304.425 164.446 288.157 163.184 287.91L149.824 282.261L145.484 304.372Z" fill="#4CAF4F"/>
<path d="M148.816 293.543C147.618 299.649 146.127 304.496 145.487 304.372C144.846 304.246 145.298 299.194 146.496 293.09C147.694 286.982 149.185 282.135 149.826 282.261C150.467 282.387 150.014 287.437 148.816 293.543Z" fill="#4CAF4F"/>
<mask id="mask47_1077_1719" style="mask-type:luminance" maskUnits="userSpaceOnUse" x="145" y="282" width="6" height="23">
<path d="M145.195 282.258H150.117V304.373H145.195V282.258Z" fill="white"/>
</mask>
<g mask="url(#mask47_1077_1719)">
<g opacity="0.300003">
<path d="M148.816 293.543C147.618 299.649 146.127 304.496 145.487 304.371C144.846 304.245 145.298 299.194 146.496 293.089C147.694 286.982 149.185 282.135 149.826 282.261C150.467 282.387 150.014 287.437 148.816 293.543Z" fill="black"/>
</g>
</g>
<path d="M145.192 293.316C145.486 291.823 146.979 290.691 147.69 290.83C148.401 290.97 148.74 292.293 148.448 293.786C148.155 295.277 147.34 296.377 146.629 296.236C145.918 296.098 144.9 294.809 145.192 293.316Z" fill="#4CAF4F"/>
<path d="M170.968 306.327L169.024 304.283C167.827 303.025 166.268 302.17 164.564 301.836L162.187 301.372C161.722 301.28 161.27 301.579 161.177 302.043C160.893 303.452 160.474 306.377 161.243 308.74C161.418 309.278 161.866 309.684 162.419 309.805L167.508 310.721C168.337 310.93 169.177 310.85 169.491 310.054L170.968 306.327Z" fill="#FFC1BB"/>
<path d="M169.854 311.443L178.612 323.035L179.485 313.068L170.969 306.327C170.969 306.327 167.28 307.907 169.854 311.443Z" fill="#FFC1BB"/>
<path d="M141.284 290.881L131.209 282.282L128.605 286.111L141.284 290.881Z" fill="white"/>
<path d="M142.805 295.041L130.659 300.333L129.285 295.913L142.805 295.041Z" fill="white"/>
<path d="M137.923 292.715L123.587 286.795L121.996 292.519L137.923 292.715Z" fill="white"/>
</g>
<mask id="mask48_1077_1719" style="mask-type:luminance" maskUnits="userSpaceOnUse" x="0" y="0" width="396" height="396">
<path d="M0 0.888672H395.506V395.914H0V0.888672Z" fill="white"/>
</mask>
<g mask="url(#mask48_1077_1719)">
<path d="M168.137 183.845L165.555 197.393H168.782L173.301 186.585C173.301 186.585 172.978 183.202 168.137 183.845Z" fill="#4CAF4F"/>
<path d="M196.374 183.845L198.956 197.393H195.729L191.211 186.585C191.211 186.585 191.533 183.202 196.374 183.845Z" fill="#4CAF4F"/>
<mask id="mask49_1077_1719" style="mask-type:luminance" maskUnits="userSpaceOnUse" x="165" y="183" width="9" height="15">
<path d="M165.555 183.764H173.298V197.394H165.555V183.764Z" fill="white"/>
</mask>
<g mask="url(#mask49_1077_1719)">
<g opacity="0.300003">
<path d="M168.137 183.845L165.555 197.393H168.782L173.301 186.585C173.301 186.585 172.978 183.202 168.137 183.845Z" fill="black"/>
</g>
</g>
<mask id="mask50_1077_1719" style="mask-type:luminance" maskUnits="userSpaceOnUse" x="191" y="183" width="8" height="15">
<path d="M191.211 183.764H198.956V197.394H191.211V183.764Z" fill="white"/>
</mask>
<g mask="url(#mask50_1077_1719)">
<g opacity="0.300003">
<path d="M196.374 183.845L198.956 197.393H195.729L191.211 186.585C191.211 186.585 191.533 183.202 196.374 183.845Z" fill="black"/>
</g>
</g>
<path d="M206.434 166.986C206.434 180.34 195.596 191.166 182.225 191.166C168.854 191.166 158.016 180.34 158.016 166.986C158.016 153.632 168.854 142.805 182.225 142.805C195.596 142.805 206.434 153.632 206.434 166.986Z" fill="#4CAF4F"/>
<path d="M201.242 166.986C201.242 177.305 192.867 185.67 182.535 185.67C172.203 185.67 163.828 177.305 163.828 166.986C163.828 156.667 172.203 148.302 182.535 148.302C192.867 148.302 201.242 156.667 201.242 166.986Z" fill="white"/>
<path d="M197.255 166.986C197.255 175.277 190.526 182 182.223 182C173.92 182 167.191 175.277 167.191 166.986C167.191 158.694 173.92 151.971 182.223 151.971C190.526 151.971 197.255 158.694 197.255 166.986Z" fill="#4CAF4F"/>
<path d="M193.84 166.986C193.84 173.393 188.64 178.587 182.225 178.587C175.811 178.587 170.609 173.393 170.609 166.986C170.609 160.578 175.811 155.384 182.225 155.384C188.64 155.384 193.84 160.578 193.84 166.986Z" fill="white"/>
<path d="M178.871 166.986C178.871 168.836 180.374 170.337 182.226 170.337C184.078 170.337 185.581 168.836 185.581 166.986C185.581 165.134 184.078 163.634 182.226 163.634C180.374 163.634 178.871 165.134 178.871 166.986Z" fill="#4CAF4F"/>
<path d="M209.097 128.776V134.908L202.489 142.802H202.478L201.238 138.018L209.097 128.776Z" fill="#4CAF4F"/>
<path d="M182.573 167.275L181.879 166.694L208.752 134.618L209.446 135.198L182.573 167.275Z" fill="#1A2E35"/>
<path d="M214.567 135.016L208.02 142.802H202.488L209.099 134.908L214.567 135.016Z" fill="#4CAF4F"/>
<mask id="mask51_1077_1719" style="mask-type:luminance" maskUnits="userSpaceOnUse" x="202" y="134" width="13" height="9">
<path d="M202.488 134.908H214.567V142.802H202.488V134.908Z" fill="white"/>
</mask>
<g mask="url(#mask51_1077_1719)">
<g opacity="0.199997">
<path d="M214.567 135.016L208.02 142.802H202.488L209.099 134.908L214.567 135.016Z" fill="black"/>
</g>
</g>
</g>
<mask id="mask52_1077_1719" style="mask-type:luminance" maskUnits="userSpaceOnUse" x="0" y="0" width="396" height="396">
<path d="M0 0.888672H395.506V395.914H0V0.888672Z" fill="white"/>
</mask>
<g mask="url(#mask52_1077_1719)">
<path d="M215.164 169.983L213.062 166.002C213.062 166.002 214.676 163.102 216.613 162.994C218.549 162.886 220.592 164.605 220.592 164.605L223.068 163.573L221.205 170.559C221.205 170.559 217.803 173.32 215.164 169.983Z" fill="#4CAF4F"/>
<path d="M231.475 184.734C231.475 193.601 225.888 197.2 218.996 197.2C212.103 197.2 206.516 191.618 206.516 184.734C206.516 177.85 212.103 169.067 218.996 169.067C218.996 169.067 231.475 176.616 231.475 184.734Z" fill="#4CAF4F"/>
<mask id="mask53_1077_1719" style="mask-type:luminance" maskUnits="userSpaceOnUse" x="206" y="169" width="26" height="29">
<path d="M206.516 169.066H231.477V197.198H206.516V169.066Z" fill="white"/>
</mask>
<g mask="url(#mask53_1077_1719)">
<g opacity="0.199997">
<path d="M231.475 184.734C231.475 193.601 225.888 197.2 218.996 197.2C212.103 197.2 206.516 191.618 206.516 184.734C206.516 177.85 212.103 169.067 218.996 169.067C218.996 169.067 231.475 176.616 231.475 184.734Z" fill="black"/>
</g>
</g>
<path d="M221.014 186.525C221.014 186.135 220.704 185.891 220.232 185.717L219.869 187.562C220.596 187.413 221.014 187.037 221.014 186.525ZM219.342 183.4L219.733 181.461C218.966 181.61 218.534 182.026 218.521 182.538C218.521 182.956 218.857 183.199 219.342 183.4ZM223.199 186.175C223.199 187.966 221.757 189.164 219.504 189.353L219.208 190.834H217.859L218.156 189.353C216.875 189.231 215.743 188.828 215.055 188.316L215.958 186.646C216.673 187.171 217.576 187.507 218.507 187.602L218.966 185.326C217.711 184.95 216.336 184.452 216.336 182.821C216.336 181.03 217.806 179.819 220.097 179.656L220.394 178.174H221.744L221.446 179.67C222.404 179.764 223.28 180.033 223.927 180.438L223.105 182.107C222.525 181.718 221.824 181.487 221.096 181.407L220.624 183.777C221.864 184.141 223.199 184.626 223.199 186.175Z" fill="white"/>
</g>
</g>
</svg>
